<svg width="100" height="100" viewBox="0 0 100 100" fill="none" xmlns="http://www.w3.org/2000/svg">
<path d="M30.6934 61.5466C25.9547 61.5466 22.0996 65.4017 22.0996 70.1404C22.0996 74.8791 25.9547 78.7341 30.6934 78.7341C35.432 78.7341 39.2871 74.8791 39.2871 70.1404C39.2871 65.4017 35.432 61.5466 30.6934 61.5466ZM30.6934 74.8279C28.1088 74.8279 26.0059 72.725 26.0059 70.1404C26.0059 67.5558 28.1088 65.4529 30.6934 65.4529C33.2779 65.4529 35.3809 67.5558 35.3809 70.1404C35.3809 72.725 33.2779 74.8279 30.6934 74.8279Z" fill="#FFAA05"/>
<path d="M89.3063 21.2664H79.2963C78.2176 21.2664 77.3432 22.1408 77.3432 23.2195C77.3432 24.2982 78.2176 25.1726 79.2963 25.1726H89.3063C92.4295 25.1726 95.0648 27.2937 95.8521 30.1707H79.2963C78.2176 30.1707 77.3432 31.0451 77.3432 32.1238V49.6853C77.3432 50.764 78.2176 51.6384 79.2963 51.6384H96.0932V68.2232H90.3623C89.4885 64.405 86.0662 61.5468 81.9869 61.5468C77.9076 61.5468 74.4854 64.4048 73.6115 68.2232H73.4369V32.141C73.4369 31.0623 72.5625 30.1878 71.4838 30.1878H55.8588C54.7801 30.1878 53.9057 31.0623 53.9057 32.141V47.8289H17.6426C16.5639 47.8289 15.6895 48.7033 15.6895 49.782C15.6895 50.8607 16.5639 51.7351 17.6426 51.7351H53.9057V68.2228H43.9447C42.866 68.2228 41.9916 69.0972 41.9916 70.1759C41.9916 71.2546 42.866 72.1291 43.9447 72.1291H73.6279C74.5279 75.9115 77.9328 78.7339 81.9869 78.7339C86.041 78.7339 89.4459 75.9115 90.3459 72.1291H98.0463C99.125 72.1291 99.9994 71.2546 99.9994 70.1759V31.9595C99.9994 26.0632 95.2025 21.2664 89.3063 21.2664ZM69.5307 49.2134H68.2961C67.2174 49.2134 66.343 50.0878 66.343 51.1665C66.343 52.2453 67.2174 53.1197 68.2961 53.1197H69.5307V68.2228H57.8119V34.0941H69.5307V49.2134ZM81.9867 74.8279C79.4021 74.8279 77.2992 72.7249 77.2992 70.1404C77.2992 67.5558 79.4021 65.4529 81.9867 65.4529C84.5713 65.4529 86.6742 67.5558 86.6742 70.1404C86.6742 72.7249 84.5715 74.8279 81.9867 74.8279ZM96.0932 47.732H81.2494V34.0767H96.0932V47.732Z" fill="#FFAA05"/>
<path d="M72.8652 21.8381C72.502 21.4749 71.998 21.2659 71.4844 21.2659C70.9707 21.2659 70.4668 21.4749 70.1035 21.8381C69.7402 22.2014 69.5312 22.7053 69.5312 23.219C69.5312 23.7327 69.7402 24.2366 70.1035 24.5999C70.4668 24.9631 70.9707 25.1721 71.4844 25.1721C71.998 25.1721 72.502 24.9631 72.8652 24.5999C73.2285 24.2366 73.4375 23.7327 73.4375 23.219C73.4375 22.7053 73.2285 22.2014 72.8652 21.8381Z" fill="#FFAA05"/>
<path d="M63.6719 21.2664H10.6932C5.33887 21.2664 0.891797 25.2224 0.119531 30.365C0.0435547 30.5734 0 30.7974 0 31.032V70.1759C0 71.2546 0.874414 72.1291 1.95312 72.1291H16.6559C17.7346 72.1291 18.609 71.2546 18.609 70.1759C18.609 69.0972 17.7346 68.223 16.6559 68.223H3.90625V43.9226H10.5469C11.6256 43.9226 12.5 43.0482 12.5 41.9695V31.032C12.5 29.9533 11.6256 29.0789 10.5469 29.0789H4.54961C5.63516 26.773 7.98008 25.1726 10.693 25.1726H63.6719C64.7506 25.1726 65.625 24.2982 65.625 23.2195C65.625 22.1408 64.7506 21.2664 63.6719 21.2664ZM8.59375 32.9851V40.0164H3.90625V32.9851H8.59375Z" fill="#FFAA05"/>
<path d="M11.9277 48.4006C11.5645 48.0374 11.0605 47.8284 10.5469 47.8284C10.0332 47.8284 9.5293 48.0374 9.16602 48.4006C8.80273 48.7639 8.59375 49.2678 8.59375 49.7815C8.59375 50.2971 8.80273 50.7991 9.16602 51.1624C9.5293 51.5276 10.0332 51.7346 10.5469 51.7346C11.0605 51.7346 11.5645 51.5276 11.9277 51.1624C12.291 50.7991 12.5 50.2952 12.5 49.7815C12.5 49.2678 12.291 48.7639 11.9277 48.4006Z" fill="#FFAA05"/>
<path d="M48.0469 29.0789H37.1094C36.0307 29.0789 35.1562 29.9533 35.1562 31.032V41.9695C35.1562 43.0482 36.0307 43.9226 37.1094 43.9226H48.0469C49.1256 43.9226 50 43.0482 50 41.9695V31.032C50 29.9533 49.1256 29.0789 48.0469 29.0789ZM46.0938 40.0164H39.0625V32.9851H46.0938V40.0164Z" fill="#FFAA05"/>
<path d="M29.2969 29.0789H18.3594C17.2807 29.0789 16.4062 29.9533 16.4062 31.032V41.9695C16.4062 43.0482 17.2807 43.9226 18.3594 43.9226H29.2969C30.3756 43.9226 31.25 43.0482 31.25 41.9695V31.032C31.25 29.9533 30.3756 29.0789 29.2969 29.0789ZM27.3438 40.0164H20.3125V32.9851H27.3438V40.0164Z" fill="#FFAA05"/>
</svg>
