<svg xmlns="http://www.w3.org/2000/svg" width="100" height="100" fill="none"><g clip-path="url(#a)"><rect width="100" height="100" fill="#221F20" rx="50"/><mask id="b" width="100" height="100" x="0" y="0" maskUnits="userSpaceOnUse" style="mask-type:luminance"><path fill="#fff" d="M100 0H0v100h100V0Z"/></mask><g mask="url(#b)"><path fill="#fff" d="M32.004 42.763a2.974 2.974 0 0 0-4.17.511 1.018 1.018 0 0 0 1.604 1.253.937.937 0 0 1 1.313-.16 1.016 1.016 0 1 0 1.253-1.604Z"/></g><mask id="c" width="100" height="100" x="0" y="0" maskUnits="userSpaceOnUse" style="mask-type:luminance"><path fill="#fff" d="M100 0H0v100h100V0Z"/></mask><g mask="url(#c)"><path fill="#fff" d="M42.622 42.908a1.017 1.017 0 0 0-.175-1.428 2.974 2.974 0 0 0-4.17.512 1.016 1.016 0 1 0 1.604 1.253.937.937 0 0 1 1.313-.162 1.017 1.017 0 0 0 1.428-.175Z"/></g><mask id="d" width="100" height="100" x="0" y="0" maskUnits="userSpaceOnUse" style="mask-type:luminance"><path fill="#fff" d="M100 0H0v100h100V0Z"/></mask><g mask="url(#d)"><path fill="#fff" d="M32.367 50.393a4.489 4.489 0 0 0 4.998 3.905 4.49 4.49 0 0 0 3.906-4.998l-.117-.945a1.539 1.539 0 0 0-1.719-1.343l-5.841.717c-.409.05-.774.257-1.028.581a1.53 1.53 0 0 0-.315 1.137l.116.946Zm6.828-1.302.056.457a2.453 2.453 0 0 1-2.134 2.731 2.454 2.454 0 0 1-2.73-2.134l-.057-.457 4.865-.597Z"/></g><mask id="e" width="100" height="100" x="0" y="0" maskUnits="userSpaceOnUse" style="mask-type:luminance"><path fill="#fff" d="M100 0H0v100h100V0Z"/></mask><g mask="url(#e)"><path fill="#fff" d="M49.51 28.42c.277-2.152-.038-4.34-.889-6.163-.998-2.14-2.697-3.736-4.913-4.617a1.016 1.016 0 0 0-1.28.48c-1.095 2.13-3.739 3.646-7.073 4.055l-5.882.723a1.017 1.017 0 1 0 .248 2.019l5.882-.722c3.58-.44 6.54-2.024 8.129-4.306 3.315 1.77 4.12 5.481 3.76 8.271-.374 2.9-1.898 5.081-3.708 5.303l-19.793 2.43a3.005 3.005 0 0 0-2.613 3.346l.243 1.98-1.542.19-1.545-12.585a2.497 2.497 0 0 1 .515-1.854 2.49 2.49 0 0 1 1.674-.948l4.937-.606a1.017 1.017 0 1 0-.248-2.02l-4.937.607a4.553 4.553 0 0 0-3.96 5.068l1.597 13.01a3.52 3.52 0 0 0-1.45 3.29 3.52 3.52 0 0 0 3.918 3.061l1.898-.233.186 1.515a11.903 11.903 0 0 0 4.516 7.981 11.886 11.886 0 0 0 8.835 2.45 11.933 11.933 0 0 0 7.715-4.187 1.017 1.017 0 0 0-1.56-1.307 9.908 9.908 0 0 1-6.403 3.477 9.88 9.88 0 0 1-7.335-2.035 9.882 9.882 0 0 1-3.748-6.626l-.311-2.525a1.014 1.014 0 0 0-1.134-.886l-2.903.357a1.482 1.482 0 0 1-.747-2.841l.003-.001c.12-.049.246-.082.378-.099l2.908-.357c.558-.068.955-.575.886-1.133l-.367-2.99a.968.968 0 0 1 .842-1.078l18.783-2.307 1.405 11.437a9.844 9.844 0 0 1-.443 4.384 1.017 1.017 0 0 0 1.927.65c.577-1.708.756-3.485.535-5.283l-1.42-11.548c2.297-.82 4.045-3.42 4.484-6.827Z"/></g><mask id="f" width="100" height="100" x="0" y="0" maskUnits="userSpaceOnUse" style="mask-type:luminance"><path fill="#fff" d="M100 0H0v100h100V0Z"/></mask><g mask="url(#f)"><path fill="#fff" d="M69.288 71.141a.936.936 0 0 1 1.313.161 1.015 1.015 0 0 0 1.428.175c.443-.346.521-.985.175-1.427a2.974 2.974 0 0 0-4.169-.512 1.017 1.017 0 0 0 1.253 1.603Z"/></g><mask id="g" width="100" height="100" x="0" y="0" maskUnits="userSpaceOnUse" style="mask-type:luminance"><path fill="#fff" d="M100 0H0v100h100V0Z"/></mask><g mask="url(#g)"><path fill="#fff" d="M57.593 68.256a1.017 1.017 0 0 0 1.253 1.603.936.936 0 0 1 1.313.161 1.016 1.016 0 1 0 1.603-1.252 2.972 2.972 0 0 0-4.17-.512Z"/></g><mask id="h" width="100" height="100" x="0" y="0" maskUnits="userSpaceOnUse" style="mask-type:luminance"><path fill="#fff" d="M100 0H0v100h100V0Z"/></mask><g mask="url(#h)"><path fill="#fff" d="m66.445 74.505-5.842-.718a1.538 1.538 0 0 0-1.138.315c-.73.572-.56 1.338-.697 1.973-.489 3.984 4.099 6.516 7.213 4.081 1.873-1.463 1.684-3.479 1.806-3.932a1.544 1.544 0 0 0-1.342-1.72Zm-1.716 4.048a2.45 2.45 0 0 1-3.941-2.23l.056-.457 4.864.597c-.06.216.03 1.3-.98 2.09Z"/></g><mask id="i" width="100" height="100" x="0" y="0" maskUnits="userSpaceOnUse" style="mask-type:luminance"><path fill="#fff" d="M100 0H0v100h100V0Z"/></mask><g mask="url(#i)"><path fill="#fff" d="M82.594 52.492a4.519 4.519 0 0 0-3.03-1.714L65.586 49.06a1.906 1.906 0 0 1-1.31-.779 8.862 8.862 0 0 0-3.806-3.012 1.017 1.017 0 0 0-.776 1.88 6.818 6.818 0 0 1 2.931 2.322c.641.89 1.63 1.475 2.713 1.608l13.977 1.716a2.517 2.517 0 0 1 2.19 2.801l-1.546 12.586-1.542-.19.244-1.98a3.005 3.005 0 0 0-2.614-3.345l-19.792-2.43a6.771 6.771 0 0 1-4.63-2.68 6.782 6.782 0 0 1-1.277-5.199c.484-2.98 2.924-5.316 5.932-5.678a1.017 1.017 0 1 0-.243-2.02c-3.903.47-7.069 3.501-7.698 7.373a8.796 8.796 0 0 0 1.658 6.746 8.769 8.769 0 0 0 5.006 3.294L53.59 73.568a11.939 11.939 0 0 0 .311 4.539 1.016 1.016 0 1 0 1.966-.523 9.906 9.906 0 0 1-.257-3.768l1.405-11.436 18.782 2.306c.53.065.908.55.842 1.079l-.367 2.99a1.015 1.015 0 0 0 .887 1.134l2.908.356c.123.016.243.047.357.091a1.482 1.482 0 0 1-.718 2.85l-2.908-.356a1.016 1.016 0 0 0-1.133.885l-.312 2.525a9.88 9.88 0 0 1-3.748 6.626 9.874 9.874 0 0 1-7.334 2.035 9.915 9.915 0 0 1-6.805-3.986 1.018 1.018 0 0 0-1.64 1.205 11.947 11.947 0 0 0 3.527 3.205 11.87 11.87 0 0 0 4.671 1.595 11.892 11.892 0 0 0 8.835-2.45 11.906 11.906 0 0 0 4.515-7.981l.187-1.516c1.815.216 1.956.26 2.33.26 1.771 0 3.27-1.327 3.486-3.087a3.499 3.499 0 0 0-1.45-3.295l1.596-13.005a4.515 4.515 0 0 0-.93-3.354Z"/></g><mask id="j" width="100" height="100" x="0" y="0" maskUnits="userSpaceOnUse" style="mask-type:luminance"><path fill="#fff" d="M100 0H0v100h100V0Z"/></mask><g mask="url(#j)"><path fill="#fff" d="M68.192 30.626c.563 0 1.017-.456 1.017-1.017v-2.49a1.017 1.017 0 1 0-2.034 0v2.49c0 .561.455 1.017 1.017 1.017Z"/></g><mask id="k" width="100" height="100" x="0" y="0" maskUnits="userSpaceOnUse" style="mask-type:luminance"><path fill="#fff" d="M100 0H0v100h100V0Z"/></mask><g mask="url(#k)"><path fill="#fff" d="M68.192 38.28c.563 0 1.017-.455 1.017-1.017v-2.49a1.017 1.017 0 1 0-2.034 0v2.49c0 .562.455 1.017 1.017 1.017Z"/></g><mask id="l" width="100" height="100" x="0" y="0" maskUnits="userSpaceOnUse" style="mask-type:luminance"><path fill="#fff" d="M100 0H0v100h100V0Z"/></mask><g mask="url(#l)"><path fill="#fff" d="M70.775 33.207h2.49a1.017 1.017 0 0 0 0-2.034h-2.49a1.017 1.017 0 1 0 0 2.034Z"/></g><mask id="m" width="100" height="100" x="0" y="0" maskUnits="userSpaceOnUse" style="mask-type:luminance"><path fill="#fff" d="M100 0H0v100h100V0Z"/></mask><g mask="url(#m)"><path fill="#fff" d="M63.12 33.207h2.49a1.017 1.017 0 0 0 0-2.034h-2.49a1.017 1.017 0 1 0 0 2.034Z"/></g><mask id="n" width="100" height="100" x="0" y="0" maskUnits="userSpaceOnUse" style="mask-type:luminance"><path fill="#fff" d="M100 0H0v100h100V0Z"/></mask><g mask="url(#n)"><path fill="#fff" d="M31.847 66.3c-.563 0-1.018.455-1.018 1.017v2.49a1.018 1.018 0 0 0 2.035 0v-2.49c0-.562-.455-1.018-1.017-1.018Z"/></g><mask id="o" width="100" height="100" x="0" y="0" maskUnits="userSpaceOnUse" style="mask-type:luminance"><path fill="#fff" d="M100 0H0v100h100V0Z"/></mask><g mask="url(#o)"><path fill="#fff" d="M31.847 73.954c-.563 0-1.018.456-1.018 1.018v2.49a1.018 1.018 0 0 0 2.035 0v-2.49c0-.563-.455-1.018-1.017-1.018Z"/></g><mask id="p" width="100" height="100" x="0" y="0" maskUnits="userSpaceOnUse" style="mask-type:luminance"><path fill="#fff" d="M100 0H0v100h100V0Z"/></mask><g mask="url(#p)"><path fill="#fff" d="M36.919 71.372h-2.491a1.017 1.017 0 0 0 0 2.034h2.49a1.017 1.017 0 1 0 0-2.034Z"/></g><mask id="q" width="100" height="100" x="0" y="0" maskUnits="userSpaceOnUse" style="mask-type:luminance"><path fill="#fff" d="M100 0H0v100h100V0Z"/></mask><g mask="url(#q)"><path fill="#fff" d="M29.265 71.372h-2.49a1.017 1.017 0 1 0 0 2.034h2.49a1.017 1.017 0 1 0 0-2.034Z"/></g></g><rect width="98" height="98" x="1" y="1" stroke="#221F20" stroke-width="2" rx="49"/><defs><clipPath id="a"><rect width="100" height="100" fill="#fff" rx="50"/></clipPath></defs></svg>