<svg width="100" height="100" viewBox="0 0 100 100" fill="none" xmlns="http://www.w3.org/2000/svg">
<path d="M37.1103 20.1553C35.5119 21.2372 33.3223 22.7188 33.3223 25.737C33.3223 26.8158 34.1966 27.6901 35.2754 27.6901C36.3542 27.6901 37.2285 26.8158 37.2285 25.737C37.2285 24.8772 37.8274 24.3866 39.2991 23.391C40.8983 22.3091 43.0879 20.8275 43.0879 17.8085C43.0879 14.7896 40.8983 13.3087 39.2991 12.2269C37.8274 11.2312 37.2285 10.7407 37.2285 9.88083C37.2285 9.021 37.8274 8.53043 39.2991 7.53479C40.8983 6.45294 43.0879 4.97208 43.0879 1.95312C43.0879 0.875092 42.2128 0 41.1348 0C40.056 0 39.1816 0.875092 39.1816 1.95312C39.1816 2.81296 38.582 3.30353 37.1103 4.29916C35.5119 5.38101 33.3223 6.86188 33.3223 9.88083C33.3223 12.8998 35.5111 14.3806 37.1103 15.4625C38.582 16.4581 39.1816 16.9487 39.1816 17.8093C39.1816 18.6691 38.582 19.1597 37.1103 20.1553Z" fill="#FFAA05"/>
<path d="M50.5837 20.1553C48.9853 21.2372 46.7957 22.718 46.7957 25.737C46.7957 26.8158 47.67 27.6901 48.7488 27.6901C49.8276 27.6901 50.7019 26.8158 50.7019 25.737C50.7019 24.8772 51.3008 24.3866 52.7726 23.391C54.3717 22.3091 56.5613 20.8275 56.5613 17.8085C56.5613 14.7896 54.3717 13.3087 52.7726 12.2269C51.3008 11.2312 50.7012 10.7407 50.7012 9.88083C50.7012 9.021 51.3008 8.53043 52.7726 7.53479C54.3717 6.45294 56.5613 4.97131 56.5613 1.95312C56.5613 0.874328 55.6862 0 54.6082 0C53.5294 0 52.6551 0.874328 52.6551 1.95312C52.6551 2.81219 52.0554 3.30353 50.5837 4.29916C48.9846 5.38101 46.7949 6.86188 46.7949 9.88083C46.7949 12.899 48.9846 14.3806 50.5837 15.4617C52.0554 16.4581 52.6551 16.9487 52.6551 17.8085C52.6551 18.6691 52.0562 19.1597 50.5837 20.1553Z" fill="#FFAA05"/>
<path d="M64.0575 20.1553C62.4592 21.2372 60.2695 22.7188 60.2695 25.737C60.2695 26.8158 61.1439 27.6901 62.2227 27.6901C63.3015 27.6901 64.1758 26.8158 64.1758 25.737C64.1758 24.8772 64.7755 24.3866 66.2472 23.391C67.8455 22.3091 70.0352 20.8275 70.0352 17.8085C70.0352 14.7896 67.8455 13.3087 66.2472 12.2269C64.7755 11.2312 64.1758 10.7407 64.1758 9.88083C64.1758 9.021 64.7755 8.53043 66.2472 7.53479C67.8455 6.45294 70.0352 4.97208 70.0352 1.95312C70.0352 0.875092 69.1601 0 68.082 0C67.0032 0 66.1289 0.875092 66.1289 1.95312C66.1289 2.81296 65.5292 3.30353 64.0575 4.29916C62.4592 5.38101 60.2695 6.86188 60.2695 9.88083C60.2695 12.8998 62.4592 14.3806 64.0575 15.4625C65.5292 16.4581 66.1289 16.9487 66.1289 17.8093C66.1289 18.6691 65.5292 19.1597 64.0575 20.1553Z" fill="#FFAA05"/>
<path d="M93.2449 44.8135H86.1C86.3251 43.4242 86.4716 42.0097 86.5341 40.5731C88.784 39.7872 90.403 37.6449 90.403 35.1302C90.403 31.9518 87.8166 29.3655 84.6375 29.3655H15.2481C12.0689 29.3655 9.48334 31.9518 9.48334 35.1302C9.48334 37.6449 11.1015 39.7872 13.3514 40.5731C13.4148 42.0097 13.5612 43.4242 13.7856 44.8127H6.64062C5.56183 44.8127 4.6875 45.6878 4.6875 46.7658C4.6875 47.8446 5.56183 48.719 6.64062 48.719H14.64C17.3309 58.4228 23.9235 66.5199 32.6157 71.2066L27.9945 79.8797C27.9915 79.885 27.9892 79.8896 27.9861 79.895L19.355 96.0937H16.3834C15.3046 96.0937 14.4302 96.9688 14.4302 98.0468C14.4302 99.1256 15.3046 99.9999 16.3834 99.9999H24.6712C25.75 99.9999 26.6243 99.1256 26.6243 98.0468C26.6243 96.9688 25.75 96.0937 24.6712 96.0937H23.7808L30.8807 82.7705H69.4702L76.5694 96.0937H75.2144C74.1364 96.0937 73.2613 96.9688 73.2613 98.0468C73.2613 99.1256 74.1364 99.9999 75.2144 99.9999H83.5022C84.581 99.9999 85.4553 99.1256 85.4553 98.0468C85.4553 96.9688 84.581 96.0937 83.5022 96.0937H80.9959L72.3633 79.8942C72.361 79.8896 72.3587 79.885 72.3564 79.8805L67.6292 71.0098C76.1436 66.2948 82.592 58.2885 85.2455 48.7197H93.2449C94.323 48.7197 95.1981 47.8446 95.1981 46.7666C95.1981 45.6878 94.3237 44.8135 93.2449 44.8135ZM32.962 78.8642L36.1526 72.8752C40.4121 74.6124 45.0668 75.5721 49.9428 75.5721C54.9644 75.5721 59.7527 74.5559 64.1144 72.7188L67.3889 78.8642H32.962ZM49.9428 71.6659C32.5546 71.6659 18.2899 58.0345 17.2768 40.8958H82.6088C81.5956 58.0345 67.3317 71.6659 49.9428 71.6659ZM84.6375 36.9895H15.2481C14.2235 36.9895 13.3896 36.1556 13.3896 35.1302C13.3896 34.1056 14.2235 33.2717 15.2481 33.2717H84.6375C85.6628 33.2717 86.4967 34.1056 86.4967 35.1302C86.4967 36.1556 85.6628 36.9895 84.6375 36.9895Z" fill="#FFAA05"/>
<path d="M49.9434 68.2288C60.0874 68.2288 69.3701 63.0797 74.7755 54.4554C75.3485 53.5414 75.0723 52.336 74.1575 51.763C73.2435 51.19 72.0381 51.467 71.4659 52.381C66.7791 59.8578 58.7339 64.3225 49.9434 64.3225C48.8646 64.3225 47.9902 65.1969 47.9902 66.2756C47.9902 67.3537 48.8646 68.2288 49.9434 68.2288Z" fill="#FFAA05"/>
<path d="M74.4603 47.0222C74.7784 47.7844 75.5604 48.2765 76.3859 48.2238C77.1687 48.1735 77.8561 47.6448 78.111 46.9032C78.3841 46.109 78.0965 45.1927 77.4159 44.6998C76.7873 44.2436 75.9267 44.2024 75.2598 44.6006C74.4405 45.0904 74.0933 46.1403 74.4603 47.0222Z" fill="#FFAA05"/>
</svg>
