<svg xmlns="http://www.w3.org/2000/svg" width="152" height="50" fill="none"><g clip-path="url(#a)"><path fill="#fff" fill-rule="evenodd" d="M87.39 34.005c4.43 0 8.023 3.56 8.023 7.955 0 4.392-3.593 7.952-8.023 7.952-4.431 0-8.025-3.56-8.025-7.952 0-4.395 3.594-7.955 8.025-7.955ZM106.262 34.005c4.431 0 8.024 3.56 8.024 7.955 0 4.392-3.593 7.952-8.024 7.952-4.431 0-8.024-3.56-8.024-7.952 0-4.395 3.593-7.955 8.024-7.955ZM125.134 34.027c4.434 0 8.025 3.562 8.025 7.954 0 4.391-3.591 7.953-8.025 7.953-4.431 0-8.023-3.562-8.023-7.953 0-4.392 3.592-7.954 8.023-7.954ZM144.011 34.005c4.43 0 8.023 3.56 8.023 7.955 0 4.392-3.593 7.952-8.023 7.952-4.432 0-8.025-3.56-8.025-7.952 0-4.395 3.593-7.955 8.025-7.955Z" clip-rule="evenodd"/><path fill="#221F20" d="M89.2 38.748h-3.625v6.708c0 .507-.316.76-.942.76-.63 0-.943-.253-.947-.763V38.06c0-.511.315-.766.953-.766h5.505c.636 0 .951.255.947.766v7.395c-.004.509-.32.761-.947.761-.63 0-.945-.252-.945-.76v-6.707ZM106.236 39.231h-.026l-1.23 3.38h2.506l-1.25-3.38Zm-3.214 7.036c-.584 0-.874-.209-.874-.625 0-.119.035-.28.107-.484l2.786-7.02c.116-.305.264-.542.453-.709.189-.165.455-.25.797-.25.343 0 .62.09.829.27.211.177.362.4.453.665l2.806 7.057c.041.11.062.231.062.358 0 .246-.1.432-.298.553a1.307 1.307 0 0 1-.7.185c-.468 0-.754-.168-.854-.504l-.689-1.867h-3.346l-.667 1.834c-.136.358-.426.538-.865.538ZM122.268 38.356c0-.517.359-.776 1.078-.776h2.499c.984 0 1.728.239 2.231.72.507.483.764 1.122.764 1.918 0 1.297-.59 2.16-1.766 2.59-.385.138-.82.205-1.316.2h-1.598v2.736c0 .503-.316.755-.945.755-.627 0-.943-.252-.947-.76v-7.383Zm4.746 1.95c0-.866-.468-1.304-1.4-1.313h-1.454v2.652h1.417c.442 0 .795-.11 1.054-.33.254-.22.383-.557.383-1.008ZM140.652 38.256c.005-.509.32-.764.949-.764.627 0 .943.3.943.896v3.286h.019l3.02-3.452c.422-.488.853-.73 1.297-.73.294 0 .505.059.633.175.127.117.19.257.19.423 0 .164-.072.328-.218.485l-3.021 3.241 3.213 3.48c.189.212.283.412.283.602a.564.564 0 0 1-.222.466c-.148.117-.381.178-.699.178a1.33 1.33 0 0 1-.838-.28 5.064 5.064 0 0 1-.751-.747l-2.886-3.306h-.02v3.573c0 .505-.316.76-.942.76-.629 0-.945-.302-.949-.904l-.001-7.382Z"/><path fill="#fff" d="M9.028.109-.08 27.946h8.425l6.18-22.07h.882l6.179 22.07h8.426L20.904.11H9.028ZM53.864 8.063H46.36l-.282 2.505c-1.284-2.068-3.49-3.142-6.258-3.142-2.97 0-5.256 1.153-6.861 2.943-1.445 1.591-2.689 4.097-2.689 7.636 0 3.54 1.244 6.046 2.688 7.635 1.606 1.79 3.892 2.943 6.862 2.943 4.212 0 5.777-2.345 6.258-3.221l.282 2.584h7.503V8.063Zm-7.584 9.823c0 .954-.08 2.386-.802 3.5-.723 1.113-1.765 1.63-3.13 1.63-1.324 0-2.407-.516-3.17-1.67-.722-1.113-.802-2.426-.802-3.46 0-.994.08-2.306.802-3.42.763-1.153 1.846-1.67 3.17-1.67 1.364 0 2.407.517 3.13 1.63.642.994.802 2.227.802 3.46ZM71.737 17.886c0 1.989-.48 2.983-.762 3.46-.481.756-1.404 1.67-3.17 1.67-1.324 0-2.407-.517-3.17-1.67-.721-1.113-.802-2.426-.802-3.46 0-.994.08-2.306.803-3.42.762-1.153 1.845-1.67 3.17-1.67 1.765 0 2.688.914 3.17 1.67.32.477.761 1.471.761 3.42Zm7.584-9.823h-7.463l-.321 2.505c-1.284-2.068-3.49-3.142-6.26-3.142-2.969 0-5.255 1.153-6.86 2.943-1.444 1.591-2.689 4.097-2.689 7.636 0 3.54 1.245 6.046 2.689 7.635 1.645 1.79 3.852 2.943 6.86 2.943 1.686 0 4.574-.397 6.26-3.221v2.584c0 .716.034 2.805-.602 3.565-.727.87-1.967.994-2.849.994h-1.404v5.131h2.087c2.768 0 5.618-.041 7.903-1.948 2.287-1.91 2.649-5.474 2.649-7.742V8.063ZM81.186 18.005c0 3.818 1.685 6.403 3.65 8.034 1.885 1.551 4.534 2.703 8.304 2.703 3.772 0 6.42-1.152 8.307-2.703 1.965-1.632 3.65-4.216 3.65-8.034 0-3.817-1.685-6.403-3.65-8.033-1.887-1.552-4.535-2.705-8.307-2.705-3.77 0-6.42 1.153-8.304 2.705-1.965 1.63-3.65 4.215-3.65 8.033Zm8.103-.119c0-1.352.12-2.585.643-3.62.842-1.63 2.285-1.947 3.208-1.947s2.369.317 3.211 1.948c.52 1.034.642 2.267.642 3.62 0 1.391-.121 2.664-.642 3.658-.842 1.63-2.288 1.948-3.21 1.948-.924 0-2.367-.318-3.209-1.948-.523-.994-.642-2.267-.642-3.659ZM106.322 14.585h7.784v-.477c0-.557.039-1.352.72-1.989.523-.477 1.124-.596 1.727-.596.4 0 1.123.04 1.645.437.281.238.643.637.643 1.313 0 .755-.403 1.233-.643 1.431-.522.398-1.445.636-3.25 1.034-3.33.756-4.734 1.273-5.618 1.71-2.207 1.154-3.25 2.785-3.169 5.131.08 1.989 1.003 3.937 3.731 5.17.803.357 2.688 1.074 6.661 1.074 2.488 0 5.376-.32 7.542-1.75 2.569-1.711 3.17-4.295 3.331-5.806h-8.024v.477c0 .795-.361 1.471-.803 1.869-.603.557-1.323.676-2.046.676-.681 0-1.245-.08-1.646-.358-.6-.398-.723-.994-.723-1.432 0-1.034.603-1.391 1.446-1.71.923-.318 2.085-.517 3.931-.994 2.488-.677 3.973-1.154 5.016-1.949 1.203-.914 2.167-2.426 2.087-4.454-.042-1.153-.442-3.5-3.25-4.971-1.927-.994-4.735-1.273-6.861-1.233-3.412.04-5.338.756-6.461 1.353-2.527 1.351-3.689 3.657-3.77 6.044ZM152.08 8.063h-7.503l-.281 2.505c-1.284-2.068-3.489-3.142-6.258-3.142-2.969 0-5.257 1.153-6.861 2.943-1.446 1.591-2.689 4.097-2.689 7.636 0 3.54 1.243 6.046 2.689 7.635 1.604 1.79 3.892 2.943 6.861 2.943 4.212 0 5.777-2.345 6.258-3.221l.281 2.584h7.503V8.063Zm-7.584 9.823c0 .954-.08 2.386-.801 3.5-.723 1.113-1.765 1.63-3.13 1.63-1.324 0-2.408-.516-3.169-1.67-.723-1.113-.803-2.426-.803-3.46 0-.994.08-2.306.803-3.42.761-1.153 1.845-1.67 3.169-1.67 1.365 0 2.408.517 3.13 1.63.642.994.801 2.227.801 3.46Z"/></g><defs><clipPath id="a"><path fill="#fff" d="M0 0h152v50H0z"/></clipPath></defs></svg>