<svg xmlns="http://www.w3.org/2000/svg" width="160" height="76" fill="none"><g clip-path="url(#a)"><path fill="#221F20" d="M160 76H0V0h160v76Z"/><path fill="#fff" fill-rule="evenodd" d="M89.113 44.472c3.544 0 6.419 2.879 6.419 6.432 0 3.551-2.875 6.43-6.42 6.43a6.425 6.425 0 0 1-6.419-6.43c0-3.553 2.875-6.432 6.42-6.432ZM104.21 44.472c3.545 0 6.419 2.879 6.419 6.432 0 3.551-2.874 6.43-6.419 6.43-3.545 0-6.419-2.879-6.419-6.43 0-3.553 2.874-6.432 6.419-6.432ZM119.309 44.49c3.547 0 6.42 2.88 6.42 6.43 0 3.551-2.873 6.43-6.42 6.43-3.545 0-6.418-2.879-6.418-6.43 0-3.55 2.873-6.43 6.418-6.43ZM134.408 44.472c3.544 0 6.419 2.879 6.419 6.432 0 3.551-2.875 6.43-6.419 6.43a6.425 6.425 0 0 1-6.42-6.43c0-3.553 2.875-6.432 6.42-6.432Z" clip-rule="evenodd"/><path fill="#221F20" d="M90.56 48.307h-2.9v5.423c0 .41-.253.614-.754.614-.503 0-.754-.204-.758-.616V47.75c0-.414.253-.62.763-.62h4.404c.509 0 .761.206.758.62v5.978c-.004.412-.256.616-.758.616-.503 0-.756-.204-.756-.614v-5.423ZM104.188 48.698h-.021l-.984 2.732h2.005l-1-2.732Zm-2.572 5.688c-.466 0-.698-.169-.698-.506 0-.096.028-.226.085-.39l2.229-5.677c.093-.246.211-.438.362-.572.152-.134.364-.203.638-.203.275 0 .496.074.663.219.169.143.29.322.362.537l2.245 5.706a.83.83 0 0 1 .05.29c0 .199-.08.349-.238.446-.159.1-.347.15-.561.15-.374 0-.602-.136-.682-.408l-.552-1.509h-2.677l-.533 1.483c-.109.29-.341.434-.693.434ZM117.014 47.99c0-.419.287-.628.862-.628h1.999c.787 0 1.383.194 1.785.582.406.392.611.908.611 1.551 0 1.049-.471 1.747-1.412 2.094a2.989 2.989 0 0 1-1.054.162h-1.278v2.212c0 .407-.252.61-.756.61-.501 0-.754-.203-.757-.613v-5.97Zm3.796 1.577c0-.7-.374-1.055-1.119-1.062h-1.164v2.144h1.134c.354 0 .636-.09.843-.267.203-.178.306-.45.306-.815ZM131.723 47.91c.003-.412.256-.618.759-.618.501 0 .754.243.754.724v2.657h.015l2.416-2.791c.338-.395.682-.59 1.037-.59.236 0 .404.047.507.141a.447.447 0 0 1 .152.342.58.58 0 0 1-.174.392l-2.417 2.621 2.57 2.814c.152.17.226.333.226.486 0 .155-.057.281-.177.377-.118.094-.305.143-.559.143a1.06 1.06 0 0 1-.671-.226 4.11 4.11 0 0 1-.6-.604l-2.309-2.673h-.016v2.89c0 .407-.252.613-.754.613-.503 0-.756-.244-.759-.73V47.91Z"/><path fill="#fff" d="m26.423 17.067-7.286 22.507h6.74l4.943-17.845h.706l4.944 17.845h6.74l-7.286-22.507h-9.5ZM62.292 23.498h-6.003l-.225 2.025c-1.027-1.672-2.792-2.54-5.007-2.54-2.375 0-4.205.932-5.489 2.38-1.155 1.285-2.15 3.311-2.15 6.173s.995 4.888 2.15 6.173c1.285 1.448 3.114 2.38 5.49 2.38 3.37 0 4.621-1.897 5.006-2.605l.225 2.09h6.003V23.497Zm-6.067 7.942c0 .771-.064 1.929-.642 2.83-.578.9-1.412 1.318-2.504 1.318-1.059 0-1.926-.418-2.536-1.35-.577-.9-.641-1.962-.641-2.798 0-.804.064-1.865.641-2.765.61-.933 1.477-1.35 2.536-1.35 1.092 0 1.926.417 2.504 1.318.514.803.642 1.8.642 2.797ZM76.59 31.44c0 1.607-.385 2.411-.61 2.797-.385.611-1.123 1.35-2.535 1.35-1.06 0-1.926-.417-2.536-1.35-.578-.9-.642-1.961-.642-2.797 0-.804.064-1.865.642-2.765.61-.933 1.476-1.351 2.536-1.351 1.412 0 2.15.74 2.536 1.35.256.386.61 1.19.61 2.766Zm6.067-7.942h-5.97l-.257 2.025c-1.027-1.672-2.792-2.54-5.008-2.54-2.375 0-4.204.932-5.488 2.38-1.155 1.285-2.15 3.311-2.15 6.173s.995 4.888 2.15 6.173c1.316 1.448 3.081 2.38 5.488 2.38 1.349 0 3.66-.322 5.008-2.605v2.09c0 .579.027 2.267-.482 2.882-.581.702-1.573.804-2.279.804h-1.123v4.148h1.67c2.214 0 4.494-.033 6.322-1.575 1.83-1.544 2.12-4.426 2.12-6.26V23.499ZM84.148 31.536c0 3.087 1.349 5.177 2.92 6.495 1.509 1.255 3.628 2.186 6.644 2.186 3.018 0 5.136-.931 6.646-2.185 1.572-1.32 2.92-3.41 2.92-6.496 0-3.086-1.348-5.177-2.92-6.495-1.51-1.254-3.628-2.187-6.646-2.187-3.016 0-5.135.933-6.643 2.187-1.573 1.319-2.92 3.408-2.92 6.495Zm6.484-.096c0-1.093.095-2.09.514-2.926.673-1.319 1.828-1.576 2.566-1.576.739 0 1.895.258 2.569 1.576.416.836.514 1.833.514 2.926 0 1.125-.098 2.154-.514 2.958-.674 1.319-1.83 1.575-2.569 1.575-.738 0-1.893-.257-2.566-1.575-.418-.804-.514-1.833-.514-2.958ZM104.257 28.77h6.228v-.385c0-.45.031-1.093.576-1.608.418-.386.899-.482 1.381-.482.321 0 .899.032 1.317.354.224.192.514.514.514 1.06 0 .611-.323.998-.514 1.159-.418.321-1.157.514-2.6.835-2.665.611-3.788 1.03-4.495 1.383-1.766.933-2.6 2.251-2.536 4.148.065 1.608.803 3.183 2.985 4.18.643.289 2.151.868 5.329.868 1.991 0 4.301-.258 6.034-1.414 2.055-1.384 2.536-3.473 2.665-4.695h-6.419v.386c0 .643-.29 1.19-.643 1.51-.482.451-1.059.547-1.637.547-.545 0-.996-.064-1.316-.29-.481-.32-.578-.803-.578-1.156 0-.836.482-1.126 1.156-1.383.738-.257 1.668-.418 3.145-.804 1.99-.547 3.178-.933 4.012-1.575.963-.74 1.734-1.962 1.67-3.602-.033-.932-.353-2.83-2.6-4.02-1.541-.803-3.788-1.028-5.489-.995-2.729.031-4.27.61-5.169 1.093-2.021 1.093-2.951 2.957-3.016 4.887ZM140.864 23.498h-6.003l-.224 2.025c-1.028-1.672-2.792-2.54-5.007-2.54-2.375 0-4.206.932-5.489 2.38-1.156 1.285-2.151 3.311-2.151 6.173s.995 4.888 2.151 6.173c1.283 1.448 3.114 2.38 5.489 2.38 3.37 0 4.621-1.897 5.007-2.605l.224 2.09h6.003V23.497Zm-6.067 7.942c0 .771-.065 1.929-.641 2.83-.579.9-1.413 1.318-2.504 1.318-1.059 0-1.926-.418-2.536-1.35-.578-.9-.642-1.962-.642-2.798 0-.804.064-1.865.642-2.765.61-.933 1.477-1.35 2.536-1.35 1.091 0 1.926.417 2.504 1.318.514.803.641 1.8.641 2.797Z"/></g><defs><clipPath id="a"><path fill="#fff" d="M0 0h160v76H0z"/></clipPath></defs></svg>