<svg xmlns="http://www.w3.org/2000/svg" width="123" height="41" fill="none"><path fill="#fff" fill-rule="evenodd" d="M70.708 27.893c3.581 0 6.486 2.93 6.486 6.545 0 3.615-2.905 6.544-6.486 6.544-3.582 0-6.487-2.93-6.487-6.544 0-3.616 2.905-6.545 6.487-6.545ZM85.963 27.893c3.582 0 6.486 2.93 6.486 6.545 0 3.615-2.904 6.544-6.486 6.544s-6.486-2.93-6.486-6.544c0-3.616 2.904-6.545 6.486-6.545ZM101.22 27.91c3.584 0 6.487 2.931 6.487 6.545S104.804 41 101.22 41c-3.582 0-6.486-2.93-6.486-6.545 0-3.614 2.904-6.544 6.486-6.544ZM116.476 27.893c3.582 0 6.487 2.93 6.487 6.545 0 3.615-2.905 6.544-6.487 6.544-3.582 0-6.486-2.93-6.486-6.544 0-3.616 2.904-6.545 6.486-6.545Z" clip-rule="evenodd"/><path fill="#221F20" d="M72.17 31.795h-2.93v5.52c0 .417-.255.625-.762.625-.508 0-.762-.208-.765-.627v-6.085c0-.42.255-.63.77-.63h4.45c.514 0 .77.21.766.63v6.085c-.004.419-.259.627-.766.627-.508 0-.764-.208-.764-.625v-5.52h.001ZM85.941 32.193h-.021l-.994 2.78h2.025l-1.01-2.78Zm-2.599 5.79c-.471 0-.706-.173-.706-.515 0-.098.029-.231.087-.398l2.252-5.777c.093-.25.213-.446.366-.583.153-.136.368-.206.644-.206.278 0 .501.075.67.222.171.146.293.329.366.547l2.269 5.808c.033.09.05.19.05.294a.5.5 0 0 1-.24.455c-.16.1-.35.153-.567.153-.378 0-.61-.139-.69-.416l-.557-1.536H84.58l-.539 1.51c-.11.294-.344.442-.7.442ZM98.9 31.473c0-.426.291-.64.872-.64h2.02c.795 0 1.397.198 1.804.594.41.397.617.923.617 1.578 0 1.067-.477 1.777-1.427 2.13a3 3 0 0 1-1.065.166h-1.291v2.251c0 .414-.255.621-.764.621-.507 0-.762-.207-.766-.624v-6.076Zm3.837 1.605c0-.714-.378-1.074-1.132-1.081h-1.175v2.182h1.146c.357 0 .642-.09.851-.272.206-.18.31-.458.31-.829ZM113.763 31.39c.004-.418.259-.628.767-.628.507 0 .762.247.762.737v2.704h.016l2.441-2.84c.341-.402.689-.601 1.048-.601.238 0 .408.048.512.144a.457.457 0 0 1 .154.348c0 .135-.058.27-.176.4l-2.443 2.666 2.598 2.864c.153.174.228.339.228.495a.467.467 0 0 1-.179.384c-.12.096-.308.145-.565.145a1.06 1.06 0 0 1-.677-.23 4.115 4.115 0 0 1-.607-.614l-2.334-2.72h-.015v2.94c0 .415-.256.624-.762.624-.509 0-.764-.248-.767-.743l-.001-6.074Z"/><path fill="#fff" d="M7.363 0 0 22.907h6.81l4.996-18.162h.713l4.995 18.162h6.811L16.963 0h-9.6ZM43.606 6.545h-6.065l-.227 2.062c-1.038-1.702-2.822-2.586-5.06-2.586-2.4 0-4.248.95-5.546 2.422-1.168 1.31-2.173 3.371-2.173 6.283 0 2.913 1.006 4.975 2.173 6.283 1.298 1.474 3.146 2.422 5.546 2.422 3.406 0 4.67-1.93 5.06-2.651l.227 2.127h6.065V6.545Zm-6.13 8.084c0 .785-.065 1.963-.648 2.88-.585.916-1.427 1.341-2.53 1.341-1.07 0-1.947-.425-2.563-1.374-.584-.916-.648-1.996-.648-2.847 0-.819.065-1.898.648-2.815.616-.949 1.492-1.374 2.563-1.374 1.102 0 1.945.425 2.53 1.342.518.817.648 1.832.648 2.847ZM58.054 14.629c0 1.636-.389 2.454-.616 2.847-.389.621-1.135 1.374-2.562 1.374-1.07 0-1.946-.425-2.562-1.375-.584-.916-.65-1.996-.65-2.846 0-.819.066-1.899.65-2.815.616-.949 1.491-1.374 2.562-1.374 1.427 0 2.173.752 2.562 1.374.26.393.616 1.211.616 2.815Zm6.13-8.084h-6.032l-.26 2.062c-1.037-1.702-2.821-2.586-5.06-2.586-2.4 0-4.248.95-5.545 2.422-1.168 1.31-2.174 3.371-2.174 6.283 0 2.913 1.006 4.975 2.174 6.283 1.33 1.474 3.113 2.422 5.545 2.422 1.363 0 3.698-.327 5.06-2.651v2.127c0 .589.028 2.308-.486 2.933-.588.715-1.59.818-2.303.818h-1.135v4.222h1.687c2.237 0 4.541-.034 6.388-1.603 1.85-1.57 2.142-4.504 2.142-6.37V6.545ZM65.692 14.726c0 3.142 1.362 5.27 2.95 6.611 1.524 1.277 3.666 2.225 6.713 2.225 3.05 0 5.19-.948 6.715-2.225 1.589-1.342 2.95-3.47 2.95-6.61 0-3.142-1.361-5.27-2.95-6.61-1.525-1.278-3.665-2.227-6.715-2.227-3.047 0-5.189.95-6.713 2.226-1.588 1.342-2.95 3.469-2.95 6.61Zm6.55-.097c0-1.113.097-2.128.52-2.979.68-1.341 1.847-1.603 2.593-1.603s1.915.262 2.596 1.603c.42.851.519 1.866.519 2.979 0 1.145-.098 2.192-.52 3.01-.68 1.342-1.849 1.604-2.595 1.604-.746 0-1.912-.262-2.593-1.604-.422-.818-.52-1.865-.52-3.01ZM86.01 11.912h6.293v-.393c0-.458.032-1.112.583-1.636.422-.393.908-.49 1.395-.49.324 0 .908.032 1.33.36.227.195.52.523.52 1.08a1.54 1.54 0 0 1-.52 1.178c-.422.327-1.168.523-2.627.85-2.692.622-3.827 1.047-4.541 1.407-1.785.95-2.627 2.291-2.563 4.222.066 1.637.812 3.24 3.017 4.254.65.294 2.173.884 5.384.884 2.011 0 4.346-.263 6.097-1.44 2.077-1.408 2.563-3.534 2.693-4.778h-6.486v.393c0 .654-.293 1.21-.65 1.538-.487.458-1.07.556-1.654.556-.55 0-1.006-.066-1.33-.295-.485-.327-.584-.818-.584-1.177 0-.851.487-1.146 1.168-1.408.746-.262 1.686-.425 3.178-.818 2.011-.556 3.211-.95 4.054-1.603.974-.753 1.753-1.997 1.688-3.666-.034-.949-.358-2.88-2.628-4.09C98.27 6.022 96 5.793 94.281 5.826c-2.758.032-4.315.621-5.223 1.112-2.042 1.112-2.982 3.01-3.047 4.974ZM123 6.545h-6.065l-.227 2.062c-1.039-1.702-2.821-2.586-5.059-2.586-2.401 0-4.25.95-5.547 2.422-1.168 1.31-2.173 3.371-2.173 6.283 0 2.913 1.005 4.975 2.173 6.283 1.297 1.474 3.146 2.422 5.547 2.422 3.405 0 4.669-1.93 5.059-2.651l.227 2.127H123V6.545Zm-6.131 8.084c0 .785-.065 1.963-.647 2.88-.585.916-1.427 1.341-2.53 1.341-1.071 0-1.947-.425-2.563-1.374-.584-.916-.649-1.996-.649-2.847 0-.819.065-1.898.649-2.815.616-.949 1.492-1.374 2.563-1.374 1.103 0 1.946.425 2.53 1.342.519.817.647 1.832.647 2.847Z"/></svg>