<svg xmlns="http://www.w3.org/2000/svg" width="100" height="100" fill="none"><g clip-path="url(#a)"><mask id="b" width="100" height="100" x="0" y="0" maskUnits="userSpaceOnUse" style="mask-type:luminance"><path fill="#fff" d="M100 0H0v100h100V0Z"/></mask><g mask="url(#b)"><path stroke="#221F20" stroke-miterlimit="10" stroke-width="2" d="M21.284 54.392H18.58a6.757 6.757 0 0 1 0-13.514h2.703v13.514Z"/></g><mask id="c" width="100" height="100" x="0" y="0" maskUnits="userSpaceOnUse" style="mask-type:luminance"><path fill="#fff" d="M100 0H0v100h100V0Z"/></mask><g mask="url(#c)"><path stroke="#221F20" stroke-miterlimit="10" stroke-width="2" d="m65.879 65.54-24.91-7.7H21.284V36.334H40.97l24.91-8.292v37.5Z"/></g><mask id="d" width="100" height="100" x="0" y="0" maskUnits="userSpaceOnUse" style="mask-type:luminance"><path fill="#fff" d="M100 0H0v100h100V0Z"/></mask><g mask="url(#d)"><path stroke="#221F20" stroke-miterlimit="10" stroke-width="2" d="M41.217 77.703h-8.784l-5.068-19.257h8.784l5.068 19.257Z"/></g><mask id="e" width="100" height="100" x="0" y="0" maskUnits="userSpaceOnUse" style="mask-type:luminance"><path fill="#fff" d="M100 0H0v100h100V0Z"/></mask><g mask="url(#e)"><path stroke="#221F20" stroke-miterlimit="10" stroke-width="2" d="M40.878 45.27v12.162"/></g><mask id="f" width="100" height="100" x="0" y="0" maskUnits="userSpaceOnUse" style="mask-type:luminance"><path fill="#fff" d="M100 0H0v100h100V0Z"/></mask><g mask="url(#f)"><path stroke="#221F20" stroke-miterlimit="10" stroke-width="2" d="m72.297 34.797 10.81-8.108"/></g><mask id="g" width="100" height="100" x="0" y="0" maskUnits="userSpaceOnUse" style="mask-type:luminance"><path fill="#fff" d="M100 0H0v100h100V0Z"/></mask><g mask="url(#g)"><path stroke="#221F20" stroke-miterlimit="10" stroke-width="2" d="m83.108 66.554-10.811-8.108"/></g><mask id="h" width="100" height="100" x="0" y="0" maskUnits="userSpaceOnUse" style="mask-type:luminance"><path fill="#fff" d="M100 0H0v100h100V0Z"/></mask><g mask="url(#h)"><path stroke="#221F20" stroke-miterlimit="10" stroke-width="2" d="M72.973 46.96h14.865"/></g></g><rect width="98" height="98" x="1" y="1" stroke="#221F20" stroke-width="2" rx="49"/><defs><clipPath id="a"><rect width="100" height="100" fill="#fff" rx="50"/></clipPath></defs></svg>