<svg xmlns="http://www.w3.org/2000/svg" width="100" height="100" fill="none"><rect width="98" height="98" x="1" y="1" fill="#221F20" rx="49"/><mask id="a" width="95" height="95" x="2" y="3" maskUnits="userSpaceOnUse" style="mask-type:luminance"><path fill="#fff" stroke="#fff" stroke-width="2" d="M3 97V4h93v93H3Z"/></mask><g mask="url(#a)"><path stroke="#fff" stroke-miterlimit="10" stroke-width="2" d="M79.562 23.861H22.434v15.406h57.128V23.86Z"/></g><mask id="b" width="95" height="95" x="2" y="3" maskUnits="userSpaceOnUse" style="mask-type:luminance"><path fill="#fff" stroke="#fff" stroke-width="2" d="M3 97V4h93v93H3Z"/></mask><g mask="url(#b)"><path stroke="#fff" stroke-miterlimit="10" stroke-width="2" d="M65.44 23.54v15.406"/></g><mask id="c" width="95" height="95" x="2" y="3" maskUnits="userSpaceOnUse" style="mask-type:luminance"><path fill="#fff" stroke="#fff" stroke-width="2" d="M3 97V4h93v93H3Z"/></mask><g mask="url(#c)"><path stroke="#fff" stroke-miterlimit="10" stroke-width="2" d="M71.012 33.077a3.003 3.003 0 1 0 0-6.006 3.003 3.003 0 0 0 0 6.006Z"/></g><mask id="d" width="95" height="95" x="2" y="3" maskUnits="userSpaceOnUse" style="mask-type:luminance"><path fill="#fff" stroke="#fff" stroke-width="2" d="M3 97V4h93v93H3Z"/></mask><g mask="url(#d)"><path stroke="#fff" stroke-miterlimit="10" stroke-width="2" d="m76.673 35.736-3.54-3.539"/></g><mask id="e" width="95" height="95" x="2" y="3" maskUnits="userSpaceOnUse" style="mask-type:luminance"><path fill="#fff" stroke="#fff" stroke-width="2" d="M3 97V4h93v93H3Z"/></mask><g mask="url(#e)"><path stroke="#fff" stroke-miterlimit="10" stroke-width="2" d="M79.562 44.402H22.434v16.69h57.128v-16.69Z"/></g><mask id="f" width="95" height="95" x="2" y="3" maskUnits="userSpaceOnUse" style="mask-type:luminance"><path fill="#fff" stroke="#fff" stroke-width="2" d="M3 97V4h93v93H3Z"/></mask><g mask="url(#f)"><path stroke="#fff" stroke-miterlimit="10" stroke-width="2" d="M35.272 48.253h-8.987v8.987h8.987v-8.987Z"/></g><mask id="g" width="95" height="95" x="2" y="3" maskUnits="userSpaceOnUse" style="mask-type:luminance"><path fill="#fff" stroke="#fff" stroke-width="2" d="M3 97V4h93v93H3Z"/></mask><g mask="url(#g)"><path stroke="#fff" stroke-miterlimit="10" stroke-width="2" d="M39.122 48.253h37.23"/></g><mask id="h" width="95" height="95" x="2" y="3" maskUnits="userSpaceOnUse" style="mask-type:luminance"><path fill="#fff" stroke="#fff" stroke-width="2" d="M3 97V4h93v93H3Z"/></mask><g mask="url(#h)"><path stroke="#fff" stroke-miterlimit="10" stroke-width="2" d="M39.122 57.24h37.23"/></g><mask id="i" width="95" height="95" x="2" y="3" maskUnits="userSpaceOnUse" style="mask-type:luminance"><path fill="#fff" stroke="#fff" stroke-width="2" d="M3 97V4h93v93H3Z"/></mask><g mask="url(#i)"><path stroke="#fff" stroke-miterlimit="10" stroke-width="2" d="M39.122 52.747h37.23"/></g><mask id="j" width="95" height="95" x="2" y="3" maskUnits="userSpaceOnUse" style="mask-type:luminance"><path fill="#fff" stroke="#fff" stroke-width="2" d="M3 97V4h93v93H3Z"/></mask><g mask="url(#j)"><path stroke="#fff" stroke-miterlimit="10" stroke-width="2" d="M35.272 66.226h-8.987v8.987h8.987v-8.987Z"/></g><mask id="k" width="95" height="95" x="2" y="3" maskUnits="userSpaceOnUse" style="mask-type:luminance"><path fill="#fff" stroke="#fff" stroke-width="2" d="M3 97V4h93v93H3Z"/></mask><g mask="url(#k)"><path stroke="#fff" stroke-miterlimit="10" stroke-width="2" d="M39.122 66.226h37.23"/></g><mask id="l" width="95" height="95" x="2" y="3" maskUnits="userSpaceOnUse" style="mask-type:luminance"><path fill="#fff" stroke="#fff" stroke-width="2" d="M3 97V4h93v93H3Z"/></mask><g mask="url(#l)"><path stroke="#fff" stroke-miterlimit="10" stroke-width="2" d="M39.122 75.213h37.23"/></g><mask id="m" width="95" height="95" x="2" y="3" maskUnits="userSpaceOnUse" style="mask-type:luminance"><path fill="#fff" stroke="#fff" stroke-width="2" d="M3 97V4h93v93H3Z"/></mask><g mask="url(#m)"><path stroke="#fff" stroke-miterlimit="10" stroke-width="2" d="M39.122 70.72h37.23"/></g><rect width="98" height="98" x="1" y="1" stroke="#221F20" stroke-width="2" rx="49"/></svg>