<svg xmlns="http://www.w3.org/2000/svg" width="100" height="100" fill="none"><rect width="98" height="98" x="1" y="1" fill="#221F20" rx="49"/><mask id="a" width="96" height="95" x="0" y="2" maskUnits="userSpaceOnUse" style="mask-type:luminance"><path fill="#fff" d="M95.5 2H.5v95h95V2Z"/></mask><g mask="url(#a)"><path fill="#fff" d="M64.85 18.69a2.407 2.407 0 0 1 2.407 2.406v53.598a2.407 2.407 0 0 1-2.408 2.407H35.643a2.407 2.407 0 0 1-2.407-2.407V21.096a2.407 2.407 0 0 1 2.407-2.407H64.85Zm0-1.927H35.642a4.338 4.338 0 0 0-4.332 4.333v53.598a4.338 4.338 0 0 0 4.332 4.333H64.85a4.338 4.338 0 0 0 4.333-4.333V21.096a4.338 4.338 0 0 0-4.333-4.332Z"/></g><mask id="b" width="96" height="95" x="0" y="2" maskUnits="userSpaceOnUse" style="mask-type:luminance"><path fill="#fff" d="M95.5 2H.5v95h95V2Z"/></mask><g mask="url(#b)"><path stroke="#fff" stroke-miterlimit="10" stroke-width="2" d="M33.236 27.034H68.54"/></g><mask id="c" width="96" height="95" x="0" y="2" maskUnits="userSpaceOnUse" style="mask-type:luminance"><path fill="#fff" d="M95.5 2H.5v95h95V2Z"/></mask><g mask="url(#c)"><path stroke="#fff" stroke-miterlimit="10" stroke-width="2" d="M33.236 70.04H68.54"/></g><mask id="d" width="96" height="95" x="0" y="2" maskUnits="userSpaceOnUse" style="mask-type:luminance"><path fill="#fff" d="M95.5 2H.5v95h95V2Z"/></mask><g mask="url(#d)"><path fill="#fff" d="M62.605 33.098c.487 0 .883.395.883.882v29.483a.883.883 0 0 1-.883.883H37.929a.883.883 0 0 1-.882-.883V33.98c0-.487.395-.882.882-.882h24.676Zm0-1.926H37.929a2.811 2.811 0 0 0-2.808 2.808v29.483a2.812 2.812 0 0 0 2.808 2.808h24.676a2.812 2.812 0 0 0 2.808-2.808V33.98a2.811 2.811 0 0 0-2.808-2.808Z"/></g><mask id="e" width="96" height="95" x="0" y="2" maskUnits="userSpaceOnUse" style="mask-type:luminance"><path fill="#fff" d="M95.5 2H.5v95h95V2Z"/></mask><g mask="url(#e)"><path stroke="#fff" stroke-miterlimit="10" stroke-width="2" d="m36.446 62.543 9.315-9.314 11.117 12.318"/></g><mask id="f" width="96" height="95" x="0" y="2" maskUnits="userSpaceOnUse" style="mask-type:luminance"><path fill="#fff" d="M95.5 2H.5v95h95V2Z"/></mask><g mask="url(#f)"><path stroke="#fff" stroke-miterlimit="10" stroke-width="2" d="m64.689 56.533-7.211-9.614-7.812 9.614"/></g><mask id="g" width="96" height="95" x="0" y="2" maskUnits="userSpaceOnUse" style="mask-type:luminance"><path fill="#fff" d="M95.5 2H.5v95h95V2Z"/></mask><g mask="url(#g)"><path fill="#fff" d="M46.062 39.107a3.605 3.605 0 1 1 0 7.21 3.605 3.605 0 0 1 0-7.21Zm0-1.926a5.537 5.537 0 0 0-5.532 5.532 5.538 5.538 0 0 0 5.532 5.53 5.538 5.538 0 0 0 5.53-5.53 5.538 5.538 0 0 0-5.53-5.532Z"/></g><mask id="h" width="96" height="95" x="0" y="2" maskUnits="userSpaceOnUse" style="mask-type:luminance"><path fill="#fff" d="M95.5 2H.5v95h95V2Z"/></mask><g mask="url(#h)"><path stroke="#fff" stroke-miterlimit="10" stroke-width="2" d="m15.334 36.075-1.506 1.858-2.318.582c-4.488 1.127-5.49 6.569-2.608 9.4.819.806 1.925 1.253 3.067 1.38l9.798 1.085 3.148-9.343c.366-1.088.427-2.28.043-3.363-1.353-3.805-6.71-5.193-9.624-1.599Z"/></g><mask id="i" width="96" height="95" x="0" y="2" maskUnits="userSpaceOnUse" style="mask-type:luminance"><path fill="#fff" d="M95.5 2H.5v95h95V2Z"/></mask><g mask="url(#i)"><path stroke="#fff" stroke-miterlimit="10" stroke-width="2" d="m87.66 42.01-1.792-.221-1.304-1.252c-2.521-2.423-6.409-.882-7.069 2.1-.187.846-.03 1.735.347 2.517l3.234 6.713 7.249-1.73c.843-.201 1.632-.64 2.171-1.32 1.896-2.394.636-6.382-2.835-6.808Z"/></g><rect width="98" height="98" x="1" y="1" stroke="#221F20" stroke-width="2" rx="49"/></svg>