<svg width="20" height="20" viewBox="0 0 20 20" fill="none" xmlns="http://www.w3.org/2000/svg">
<g id="Tg icon" clip-path="url(#clip0_697_65)">
<g id="Group">
<path id="Vector" fill-rule="evenodd" clip-rule="evenodd" d="M0 0V20H20V0H0ZM16.9149 4.42549L14.5651 15.7282C14.5098 15.995 14.1968 16.116 13.976 15.9555L10.7684 13.6267C10.5736 13.4853 10.3081 13.4928 10.1217 13.6448L8.34321 15.0945C8.13684 15.2633 7.8258 15.1692 7.74677 14.915L6.51187 10.9436L3.32141 9.75284C2.99732 9.63143 2.99455 9.17389 3.31771 9.04941L16.4114 3.9982C16.689 3.89086 16.9754 4.13402 16.9149 4.42549Z" fill="white"/>
<path id="Vector_2" fill-rule="evenodd" clip-rule="evenodd" d="M13.7832 6.46954L7.54782 10.3098C7.30883 10.4573 7.19635 10.7459 7.27345 11.0161L7.9476 13.385C7.99556 13.5528 8.23908 13.5356 8.26242 13.3622L8.43763 12.0632C8.47072 11.8186 8.58734 11.5932 8.76826 11.4249L13.9142 6.64149C14.0105 6.55226 13.8952 6.40075 13.7832 6.46954Z" fill="white"/>
</g>
</g>
<defs>
<clipPath id="clip0_697_65">
<rect width="20" height="20" fill="white"/>
</clipPath>
</defs>
</svg>
