<svg width="20" height="20" viewBox="0 0 20 20" fill="none" xmlns="http://www.w3.org/2000/svg">
<g id="Vk icon" clip-path="url(#clip0_697_63)">
<path id="Vector" fill-rule="evenodd" clip-rule="evenodd" d="M0 0V20H20V0H0ZM14.9933 11.0649C15.4524 11.5128 15.9379 11.9345 16.35 12.4297C16.5321 12.6485 16.7043 12.8742 16.8356 13.1278C17.0219 13.491 16.853 13.889 16.5285 13.9109L14.512 13.9101C13.9916 13.9528 13.5768 13.743 13.227 13.3869C12.9488 13.1034 12.6888 12.7999 12.4203 12.5068C12.311 12.3861 12.1955 12.2732 12.0582 12.1832C11.7827 12.0047 11.5437 12.0589 11.3863 12.3458C11.2262 12.638 11.1885 12.9625 11.1738 13.288C11.1518 13.763 11.0085 13.8873 10.5317 13.9101C9.51156 13.9574 8.54409 13.8024 7.64558 13.2888C6.85209 12.8358 6.23802 12.1953 5.70343 11.471C4.66158 10.0589 3.86365 8.50875 3.14721 6.91393C2.98527 6.55451 3.10356 6.36189 3.49881 6.35495C4.15771 6.34193 4.81635 6.34352 5.47433 6.35407C5.74198 6.35855 5.91956 6.51152 6.02193 6.76435C6.37802 7.63934 6.81358 8.47204 7.36031 9.24466C7.50655 9.45024 7.65525 9.65495 7.86598 9.80009C8.09956 9.9611 8.27807 9.90848 8.38822 9.6469C8.45833 9.48075 8.48901 9.30404 8.50378 9.12642C8.55618 8.51837 8.56246 7.90967 8.47222 7.30343C8.41622 6.92448 8.20193 6.67947 7.82409 6.60782C7.63147 6.57108 7.66035 6.50031 7.7531 6.38989C7.91591 6.20022 8.0691 6.08193 8.37257 6.08193H10.6516C11.011 6.15204 11.0916 6.31393 11.1404 6.67521L11.1422 9.20791C11.138 9.34787 11.2124 9.76242 11.4634 9.85424C11.6645 9.92075 11.7984 9.75881 11.9191 9.63116C12.4649 9.052 12.8544 8.36716 13.2024 7.65855C13.3564 7.34703 13.4895 7.02343 13.6189 6.69956C13.7143 6.45991 13.863 6.34189 14.1334 6.34615L16.3275 6.34884C16.3922 6.34884 16.4587 6.34884 16.5226 6.35934C16.8916 6.42317 16.9931 6.58242 16.8784 6.94365C16.6993 7.50958 16.3483 7.98211 16.0063 8.45534C15.6397 8.96193 15.2496 9.45081 14.8857 9.96009C14.5533 10.4264 14.5795 10.6609 14.9933 11.0649Z" fill="white"/>
</g>
<defs>
<clipPath id="clip0_697_63">
<rect width="20" height="20" fill="white"/>
</clipPath>
</defs>
</svg>
