<svg width="20" height="20" viewBox="0 0 20 20" fill="none" xmlns="http://www.w3.org/2000/svg">
<g id="Whatsapp icon" clip-path="url(#clip0_697_59)">
<g id="Group">
<path id="Vector" d="M10.009 4.18311C6.81077 4.18311 4.2088 6.78508 4.2088 9.98333C4.2088 11.0977 4.52552 12.1799 5.12465 13.1128L5.26864 13.3371L4.70449 15.3408L6.77755 14.8071L6.99136 14.9377C7.89778 15.491 8.94129 15.7835 10.009 15.7835C13.2073 15.7835 15.8092 13.1816 15.8092 9.98333C15.8092 6.78508 13.2073 4.18311 10.009 4.18311ZM13.5658 11.766L13.4934 12.104C13.4118 12.4854 13.1853 12.8227 12.8567 13.0329C12.4419 13.2983 11.9041 13.4286 11.2207 13.2353C9.09954 12.6355 7.89997 11.2312 7.25634 10.3535C6.61268 9.47575 6.36402 8.59803 6.5249 7.88125C6.63282 7.40053 6.98417 7.03167 7.2039 6.84081C7.31155 6.74734 7.4512 6.69977 7.59352 6.70753L8.04677 6.73224C8.13603 6.73711 8.21476 6.79223 8.24991 6.87443L8.91017 8.41924C8.94546 8.50179 8.93058 8.5972 8.8719 8.66509L8.29718 9.32996C8.25057 9.38385 8.24245 9.46065 8.27528 9.52389C9.03222 10.9819 10.4117 11.5597 10.8235 11.7044C10.8937 11.7291 10.9715 11.7058 11.0169 11.6469L11.6183 10.8673C11.6852 10.7806 11.8031 10.7516 11.9026 10.7974L13.4344 11.5035C13.5342 11.5496 13.5888 11.6586 13.5658 11.766Z" fill="white"/>
<path id="Vector_2" d="M0 0V20H20V0H0ZM10.009 16.9686C8.80888 16.9686 7.63371 16.6614 6.59411 16.078L3.0059 17.0017L3.98555 13.5223C3.35558 12.452 3.02389 11.2343 3.02389 9.98343C3.02389 6.13182 6.1574 2.9983 10.009 2.9983C13.8606 2.9983 16.9941 6.13182 16.9941 9.98343C16.9941 13.835 13.8606 16.9686 10.009 16.9686Z" fill="white"/>
</g>
</g>
<defs>
<clipPath id="clip0_697_59">
<rect width="20" height="20" fill="white"/>
</clipPath>
</defs>
</svg>
