<svg width="20" height="20" viewBox="0 0 20 20" fill="none" xmlns="http://www.w3.org/2000/svg">
<g id="Whatsapp icon" clip-path="url(#clip0_697_46)">
<g id="Group">
<path id="Vector" d="M10.009 4.18321C6.81077 4.18321 4.2088 6.78519 4.2088 9.98343C4.2088 11.0978 4.52552 12.18 5.12465 13.113L5.26864 13.3372L4.70449 15.3409L6.77755 14.8072L6.99136 14.9378C7.89778 15.4912 8.94129 15.7837 10.009 15.7837C13.2073 15.7837 15.8092 13.1817 15.8092 9.98343C15.8092 6.78519 13.2073 4.18321 10.009 4.18321ZM13.5658 11.7661L13.4934 12.1041C13.4118 12.4855 13.1853 12.8228 12.8567 13.033C12.4419 13.2984 11.9041 13.4287 11.2207 13.2354C9.09954 12.6356 7.89997 11.2313 7.25634 10.3536C6.61268 9.47585 6.36402 8.59814 6.5249 7.88136C6.63282 7.40064 6.98417 7.03178 7.2039 6.84092C7.31155 6.74744 7.4512 6.69987 7.59352 6.70764L8.04677 6.73235C8.13603 6.73722 8.21476 6.79234 8.24991 6.87454L8.91017 8.41935C8.94546 8.5019 8.93058 8.59731 8.8719 8.6652L8.29718 9.33006C8.25057 9.38396 8.24245 9.46076 8.27528 9.52399C9.03222 10.982 10.4117 11.5598 10.8235 11.7045C10.8937 11.7292 10.9715 11.7059 11.0169 11.647L11.6183 10.8674C11.6852 10.7807 11.8031 10.7517 11.9026 10.7976L13.4344 11.5036C13.5342 11.5497 13.5888 11.6587 13.5658 11.7661Z" fill="#221F20"/>
<path id="Vector_2" d="M0 0V20H20V0H0ZM10.009 16.9686C8.80888 16.9686 7.63371 16.6614 6.59411 16.078L3.0059 17.0017L3.98555 13.5223C3.35558 12.452 3.02389 11.2343 3.02389 9.98343C3.02389 6.13182 6.1574 2.9983 10.009 2.9983C13.8606 2.9983 16.9941 6.13182 16.9941 9.98343C16.9941 13.835 13.8606 16.9686 10.009 16.9686Z" fill="#221F20"/>
</g>
</g>
<defs>
<clipPath id="clip0_697_46">
<rect width="20" height="20" fill="white"/>
</clipPath>
</defs>
</svg>
