<svg xmlns="http://www.w3.org/2000/svg" xmlns:xlink="http://www.w3.org/1999/xlink" xml:space="preserve" width="40" height="40"><defs><path id="a" d="M0-2h40v40H0z"/></defs><clipPath id="b"><use xlink:href="#a" overflow="visible"/></clipPath><path fill="#BE7F4C" d="M2.586 11.583v26.132h29.691V7.198z" clip-path="url(#b)"/><path fill="#A3683D" d="M2.57 10.222h2.78v27.493H2.57zM30.065 11.085h2.213v1.727h-2.213zM17.404 19.852h2.213v1.728h-2.213zM5.351 34.764h6.013v1.729H5.351z" clip-path="url(#b)"/><path fill="#EBA975" d="M5.323 14.396h12.081v19.361H5.323z" clip-path="url(#b)"/><path fill="#03C5F9" d="M6.802 16.156h9.123v15.84H6.802z" clip-path="url(#b)"/><path fill="#52DEFF" d="m15.925 21.275-9.123 2.161v-3.28l9.123-2.16zM15.925 28.716l-9.123 2.16v-3.279l9.123-2.159z" clip-path="url(#b)"/><path fill="#8E563D" d="M19.526 14.396H30.37v23.319H19.526z" clip-path="url(#b)"/><path fill="#72412E" d="M20.966 25.023h2.976v1.465h-2.976z" clip-path="url(#b)"/><g clip-path="url(#b)"><defs><path id="c" d="M0-2h40v40H0z"/></defs><clipPath id="d"><use xlink:href="#c" overflow="visible"/></clipPath><g clip-path="url(#d)" opacity=".4"><defs><path id="e" d="M2.571 8.65h29.707v6.022H2.571z"/></defs><clipPath id="f"><use xlink:href="#e" overflow="visible"/></clipPath><path fill="#8E563D" d="M32.277 11.217 2.571 14.672v-2.567L32.277 8.65z" clip-path="url(#f)"/></g></g><path fill="#8E563D" d="M16.727-9.55h4.174v35.383h-4.174z" clip-path="url(#b)" transform="scale(-1) rotate(83.235 9.165 -21.178)"/></svg>