<?xml version="1.0" encoding="utf-8"?>
<!-- Generator: Adobe Illustrator 16.0.0, SVG Export Plug-In . SVG Version: 6.00 Build 0)  -->
<!DOCTYPE svg PUBLIC "-//W3C//DTD SVG 1.1//EN" "http://www.w3.org/Graphics/SVG/1.1/DTD/svg11.dtd">
<svg version="1.1" id="Layer_1" xmlns="http://www.w3.org/2000/svg" xmlns:xlink="http://www.w3.org/1999/xlink" x="0px" y="0px"
	 width="40px" height="40px" viewBox="0 0 40 40" enable-background="new 0 0 40 40" xml:space="preserve">
<g>
	<defs>
		<rect id="SVGID_1_" y="-2" width="40" height="40"/>
	</defs>
	<clipPath id="SVGID_2_">
		<use xlink:href="#SVGID_1_"  overflow="visible"/>
	</clipPath>
	<polygon clip-path="url(#SVGID_2_)" fill="#BE7F4C" points="2.586,11.583 2.586,37.715 32.277,37.715 32.277,7.198 	"/>
	<rect x="2.57" y="10.222" clip-path="url(#SVGID_2_)" fill="#A3683D" width="2.78" height="27.493"/>
	<rect x="30.065" y="11.085" clip-path="url(#SVGID_2_)" fill="#A3683D" width="2.213" height="1.727"/>
	<rect x="17.404" y="19.852" clip-path="url(#SVGID_2_)" fill="#A3683D" width="2.213" height="1.728"/>
	<rect x="5.351" y="34.764" clip-path="url(#SVGID_2_)" fill="#A3683D" width="6.013" height="1.729"/>
	<rect x="5.323" y="14.396" clip-path="url(#SVGID_2_)" fill="#EBA975" width="12.081" height="19.361"/>
	<rect x="6.802" y="16.156" clip-path="url(#SVGID_2_)" fill="#03C5F9" width="9.123" height="15.84"/>
	<polygon clip-path="url(#SVGID_2_)" fill="#52DEFF" points="15.925,21.275 6.802,23.436 6.802,20.156 15.925,17.996 	"/>
	<polygon clip-path="url(#SVGID_2_)" fill="#52DEFF" points="15.925,28.716 6.802,30.876 6.802,27.597 15.925,25.438 	"/>
	<rect x="19.526" y="14.396" clip-path="url(#SVGID_2_)" fill="#8E563D" width="10.844" height="23.319"/>
	<rect x="20.966" y="25.023" clip-path="url(#SVGID_2_)" fill="#72412E" width="2.976" height="1.465"/>
	<g clip-path="url(#SVGID_2_)">
		<defs>
			<rect id="SVGID_3_" y="-2" width="40" height="40"/>
		</defs>
		<clipPath id="SVGID_4_">
			<use xlink:href="#SVGID_3_"  overflow="visible"/>
		</clipPath>
		<g opacity="0.4" clip-path="url(#SVGID_4_)">
			<g>
				<defs>
					<rect id="SVGID_5_" x="2.571" y="8.65" width="29.707" height="6.022"/>
				</defs>
				<clipPath id="SVGID_6_">
					<use xlink:href="#SVGID_5_"  overflow="visible"/>
				</clipPath>
				<polygon clip-path="url(#SVGID_6_)" fill="#8E563D" points="32.277,11.217 2.571,14.672 2.571,12.105 32.277,8.65 				"/>
			</g>
		</g>
	</g>
	
		<rect x="16.727" y="-9.55" transform="matrix(-0.1178 -0.993 0.993 -0.1178 12.9455 27.7834)" clip-path="url(#SVGID_2_)" fill="#8E563D" width="4.174" height="35.383"/>
</g>
</svg>
