<?xml version="1.0" encoding="utf-8"?>
<!-- Generator: Adobe Illustrator 16.0.0, SVG Export Plug-In . SVG Version: 6.00 Build 0)  -->
<!DOCTYPE svg PUBLIC "-//W3C//DTD SVG 1.1//EN" "http://www.w3.org/Graphics/SVG/1.1/DTD/svg11.dtd">
<svg version="1.1" id="Layer_1" xmlns="http://www.w3.org/2000/svg" xmlns:xlink="http://www.w3.org/1999/xlink" x="0px" y="0px"
	 width="40px" height="40px" viewBox="0 0 40 40" enable-background="new 0 0 40 40" xml:space="preserve">
<g>
	<defs>
		<rect id="SVGID_1_" y="-7" width="40" height="40"/>
	</defs>
	<clipPath id="SVGID_2_">
		<use xlink:href="#SVGID_1_"  overflow="visible"/>
	</clipPath>
	<path clip-path="url(#SVGID_2_)" fill="#7F4934" d="M20.157,7.837c-4.74,0-8.936,2.323-11.515,5.891h23.03
		C29.093,10.16,24.896,7.837,20.157,7.837 M18.561,12.364h-4.822v-1.86h4.822V12.364z M26.574,12.364h-4.822v-1.86h4.822V12.364z"/>
	<rect x="13.514" y="21.478" clip-path="url(#SVGID_2_)" fill="#7F4934" width="12.402" height="0.684"/>
	<polygon clip-path="url(#SVGID_2_)" fill="#7F4934" points="24.676,23.277 14.754,23.277 13.514,22.161 25.916,22.161 	"/>
	<polygon clip-path="url(#SVGID_2_)" fill="#7F4934" points="28.396,26.998 10.662,26.998 9.173,25.014 30.256,25.014 	"/>
	<polygon clip-path="url(#SVGID_2_)" fill="#7F4934" points="28.524,13.459 11.614,30.369 10.104,30.347 27.735,12.668 	"/>
	<polygon clip-path="url(#SVGID_2_)" fill="#7F4934" points="10.856,13.427 27.767,30.338 29.389,30.347 11.646,12.638 	"/>
	<rect x="9.173" y="25.013" clip-path="url(#SVGID_2_)" fill="#7F4934" width="21.083" height="0.683"/>
	<rect x="4.665" y="29.999" clip-path="url(#SVGID_2_)" fill="#7F4934" width="30.781" height="3.001"/>
	<rect x="29.127" y="30.881" clip-path="url(#SVGID_2_)" fill="#8E563D" width="6.369" height="0.624"/>
	<rect x="4.651" y="31.19" clip-path="url(#SVGID_2_)" fill="#8E563D" width="2.443" height="0.623"/>
</g>
</svg>
