<svg xmlns="http://www.w3.org/2000/svg" xml:space="preserve" width="40" height="40"><path fill="#81452B" d="m.238 11.232 19.917-8.016 19.732 8.016z"/><path fill="#BE7F4C" d="M4.567 11.433h30.947v2.414H4.567z"/><path fill="#EBA975" d="M12.898 35.979 4.53 34.585V22.322h8.368zM12.898 22.322h14.369v13.657H12.898z"/><path fill="#BE7F4C" d="M12.898 11.432h1.686v24.255h-1.686zM25.582 11.432h1.686v24.255h-1.686z"/><path fill="#BE7F4C" d="M12.938 34.294h14.329v1.686H12.938z"/><path fill="#8C4931" d="M14.542 22.322h11.041v1.239H14.542z"/><path fill="#81452B" d="M4.53 23.237v-1.239l8.367.325v1.237zM4.53 13.55v1.238l8.367-.324v-1.238z"/><path fill="#8C4931" d="M14.624 13.226h10.96v1.239h-10.96z"/><path fill="#8C4931" d="M14.542 13.228h1.24v10.217h-1.24z"/><path fill="#81452B" d="M4.53 13.847h1.24v9.094H4.53zM11.66 13.516h1.239v9.928H11.66z"/><path fill="#8C4931" d="M24.344 13.228h1.238v10.217h-1.238z"/><path fill="#A86A3B" d="M4.53 34.666v-1.687l8.408 1.316v1.684z"/><path fill="#BE7F4C" d="M14.583 25.534H22.8v.503h-8.217zM17.651 29.787h8.217v.504h-8.217zM13.741 32.154h5.992v.503h-5.992zM12.925 27.351l-5.993-.322.027-.501 5.993.322zM10.508 30.776l-5.992-.324.027-.504 5.992.324z"/><path fill="#EBA975" d="m27.146 35.979 8.368-1.394V22.322h-8.368z"/><path fill="#81452B" d="M35.514 23.237v-1.239l-8.367.325v1.237zM35.514 13.55v1.238l-8.367-.324v-1.238z"/><path fill="#81452B" d="M34.274 13.847h1.239v9.094h-1.239zM27.147 13.516h1.238v9.928h-1.238z"/><path fill="#A86A3B" d="M35.514 34.666v-1.687l-8.407 1.316v1.684z"/><path fill="#BE7F4C" d="m27.116 27.348-.027-.501 5.994-.316.026.501zM29.534 30.775l-.028-.503 5.992-.326.028.504z"/><path fill="#985835" d="M10.583 10.351h18.959v1.762H10.583z"/><path fill="#874B2D" d="m10.583 12.114-9.843.881-.502-1.763 10.345-.881zM29.541 12.114l9.845.881.502-1.763-10.347-.881z"/><path fill="#8C4B34" d="m10.583 10.352 9.571-7.136 9.387 7.136z"/></svg>