<svg xmlns="http://www.w3.org/2000/svg" xmlns:xlink="http://www.w3.org/1999/xlink" xml:space="preserve" width="40" height="40"><defs><path id="a" d="M0-7h40v40H0z"/></defs><clipPath id="b"><use xlink:href="#a" overflow="visible"/></clipPath><path fill="#7F4934" d="M20.157 7.837a14.18 14.18 0 0 0-11.515 5.891h23.03a14.181 14.181 0 0 0-11.515-5.891m-1.596 4.527h-4.822v-1.86h4.822v1.86zm8.013 0h-4.822v-1.86h4.822v1.86zM13.514 21.478h12.402v.684H13.514z" clip-path="url(#b)"/><path fill="#7F4934" d="M24.676 23.277h-9.922l-1.24-1.116h12.402zM28.396 26.998H10.662l-1.489-1.984h21.083z" clip-path="url(#b)"/><path fill="#7F4934" d="m28.524 13.459-16.91 16.91-1.51-.022 17.631-17.679z" clip-path="url(#b)"/><path fill="#7F4934" d="m10.856 13.427 16.911 16.911 1.622.009-17.743-17.709z" clip-path="url(#b)"/><path fill="#7F4934" d="M9.173 25.013h21.083v.683H9.173zM4.665 29.999h30.781V33H4.665z" clip-path="url(#b)"/><path fill="#8E563D" d="M29.127 30.881h6.369v.624h-6.369zM4.651 31.19h2.443v.623H4.651z" clip-path="url(#b)"/></svg>