<?xml version="1.0" encoding="utf-8"?>
<!-- Generator: Adobe Illustrator 16.0.0, SVG Export Plug-In . SVG Version: 6.00 Build 0)  -->
<!DOCTYPE svg PUBLIC "-//W3C//DTD SVG 1.1//EN" "http://www.w3.org/Graphics/SVG/1.1/DTD/svg11.dtd">
<svg version="1.1" id="Layer_1" xmlns="http://www.w3.org/2000/svg" xmlns:xlink="http://www.w3.org/1999/xlink" x="0px" y="0px"
	 width="40px" height="40px" viewBox="0 0 40 40" enable-background="new 0 0 40 40" xml:space="preserve">
<polygon fill="#81452B" points="0.238,11.232 20.155,3.216 39.887,11.232 "/>
<rect x="4.567" y="11.433" fill="#BE7F4C" width="30.947" height="2.414"/>
<polygon fill="#EBA975" points="12.898,35.979 4.53,34.585 4.53,22.322 12.898,22.322 "/>
<rect x="12.898" y="22.322" fill="#EBA975" width="14.369" height="13.657"/>
<rect x="12.898" y="11.432" fill="#BE7F4C" width="1.686" height="24.255"/>
<rect x="25.582" y="11.432" fill="#BE7F4C" width="1.686" height="24.255"/>
<rect x="12.938" y="34.294" fill="#BE7F4C" width="14.329" height="1.686"/>
<rect x="14.542" y="22.322" fill="#8C4931" width="11.041" height="1.239"/>
<polygon fill="#81452B" points="4.53,23.237 4.53,21.998 12.897,22.323 12.897,23.56 "/>
<polygon fill="#81452B" points="4.53,13.55 4.53,14.788 12.897,14.464 12.897,13.226 "/>
<rect x="14.624" y="13.226" fill="#8C4931" width="10.96" height="1.239"/>
<rect x="14.542" y="13.228" fill="#8C4931" width="1.24" height="10.217"/>
<rect x="4.53" y="13.847" fill="#81452B" width="1.24" height="9.094"/>
<rect x="11.66" y="13.516" fill="#81452B" width="1.239" height="9.928"/>
<rect x="24.344" y="13.228" fill="#8C4931" width="1.238" height="10.217"/>
<polygon fill="#A86A3B" points="4.53,34.666 4.53,32.979 12.938,34.295 12.938,35.979 "/>
<rect x="14.583" y="25.534" fill="#BE7F4C" width="8.217" height="0.503"/>
<rect x="17.651" y="29.787" fill="#BE7F4C" width="8.217" height="0.504"/>
<rect x="13.741" y="32.154" fill="#BE7F4C" width="5.992" height="0.503"/>
<rect x="6.941" y="26.69" transform="matrix(-0.9986 -0.0537 0.0537 -0.9986 18.4227 54.3768)" fill="#BE7F4C" width="6.001" height="0.502"/>
<rect x="4.525" y="30.109" transform="matrix(-0.9985 -0.054 0.054 -0.9985 13.3999 61.0839)" fill="#BE7F4C" width="6.001" height="0.504"/>
<polygon fill="#EBA975" points="27.146,35.979 35.514,34.585 35.514,22.322 27.146,22.322 "/>
<polygon fill="#81452B" points="35.514,23.237 35.514,21.998 27.147,22.323 27.147,23.56 "/>
<polygon fill="#81452B" points="35.514,13.55 35.514,14.788 27.147,14.464 27.147,13.226 "/>
<rect x="34.274" y="13.847" fill="#81452B" width="1.239" height="9.094"/>
<rect x="27.147" y="13.516" fill="#81452B" width="1.238" height="9.928"/>
<polygon fill="#A86A3B" points="35.514,34.666 35.514,32.979 27.107,34.295 27.107,35.979 "/>
<rect x="29.851" y="23.939" transform="matrix(-0.0526 -0.9986 0.9986 -0.0526 4.7805 58.4163)" fill="#BE7F4C" width="0.502" height="6.002"/>
<rect x="32.266" y="27.36" transform="matrix(-0.0543 -0.9985 0.9985 -0.0543 3.9669 64.4787)" fill="#BE7F4C" width="0.504" height="6.001"/>
<rect x="10.583" y="10.351" fill="#985835" width="18.959" height="1.762"/>
<polygon fill="#874B2D" points="10.583,12.114 0.74,12.995 0.238,11.232 10.583,10.351 "/>
<polygon fill="#874B2D" points="29.541,12.114 39.386,12.995 39.888,11.232 29.541,10.351 "/>
<polygon fill="#8C4B34" points="10.583,10.352 20.154,3.216 29.541,10.352 "/>
</svg>
