<svg version="1.1" id="Layer_1" xmlns="http://www.w3.org/2000/svg" xmlns:xlink="http://www.w3.org/1999/xlink" x="0px" y="0px"
	 width="100%" viewBox="0 0 200 200" enable-background="new 0 0 200 200" xml:space="preserve">
<path fill="transparent" opacity="1.000000" stroke="none" 
	d="
M115.000000,201.000000 
	C76.690323,201.000000 38.880650,201.000000 1.035486,201.000000 
	C1.035486,134.398697 1.035486,67.797363 1.035486,1.098018 
	C67.559509,1.098018 134.119202,1.098018 200.839447,1.098018 
	C200.839447,67.666359 200.839447,134.333145 200.839447,201.000000 
	C172.464310,201.000000 143.982162,201.000000 115.000000,201.000000 
M191.836685,175.044327 
	C196.000336,175.086472 194.951126,171.941666 194.954330,169.682968 
	C195.000977,136.884644 194.913712,104.085869 195.084885,71.288383 
	C195.104706,67.492004 193.743927,65.661232 190.499237,64.161484 
	C173.043457,56.093121 155.681747,47.821495 138.251144,39.698231 
	C126.988998,34.449684 115.712006,29.225702 104.319771,24.270967 
	C102.466965,23.465134 99.667221,23.406849 97.837837,24.212526 
	C87.220596,28.888464 76.768547,33.938797 66.249687,38.838997 
	C47.471661,47.586727 28.659454,56.262325 9.957470,65.169495 
	C8.583318,65.823959 7.149909,68.095863 7.142651,69.622452 
	C6.981980,103.419006 7.040898,137.216537 6.978745,171.013718 
	C6.973319,173.964142 7.843851,175.476898 11.927350,174.996506 
	C71.621567,174.982132 131.315781,174.967758 191.836685,175.044327 
z"/>
<path fill="#EAA874" opacity="1.000000" stroke="none" 
	d="
M191.009995,174.953384 
	C131.315781,174.967758 71.621567,174.982132 11.317066,174.542114 
	C10.724010,171.047455 10.741236,168.007217 11.159911,164.944611 
	C13.052633,164.577515 14.543906,164.232773 16.499077,163.935699 
	C22.966734,163.956161 28.970493,163.928909 35.303589,164.154816 
	C40.161915,164.532684 44.690903,164.657394 49.674858,164.801941 
	C59.015694,164.812485 67.901573,164.803207 77.194107,164.800873 
	C78.403931,163.427841 79.789688,162.092651 79.899879,160.659424 
	C80.217056,156.533646 80.120720,152.365112 79.992599,148.219391 
	C79.882431,144.654434 81.313805,143.265610 84.820343,144.667709 
	C84.827240,150.388672 84.704666,155.664444 84.929283,160.925400 
	C84.985001,162.230469 86.165283,163.487518 87.306160,164.809830 
	C93.730125,164.884476 99.678902,164.827179 105.622063,164.983429 
	C108.766273,165.066086 110.108032,163.903595 110.040909,160.660202 
	C109.924759,155.047882 110.089432,149.429749 110.539627,143.853912 
	C116.484856,145.025513 113.860374,149.446960 113.998558,152.346573 
	C114.637512,165.753845 111.199791,165.337402 127.462921,164.782227 
	C128.169083,164.807968 128.574341,164.800354 129.437347,164.827087 
	C131.387924,164.892715 132.890350,164.826950 134.371735,164.973633 
	C138.684402,165.400635 140.420898,164.060638 139.507126,159.312683 
	C138.797638,155.626144 139.252762,151.715469 139.363281,147.605103 
	C139.632111,140.634628 139.108246,140.050598 132.976562,140.024231 
	C131.666809,140.018600 130.356949,140.037048 128.577850,140.045135 
	C122.091881,140.408936 116.075203,140.772018 109.715858,140.896362 
	C101.834831,140.576660 94.296478,140.495682 86.517120,140.407074 
	C85.841240,140.580765 85.406349,140.762100 84.579590,140.966888 
	C81.809311,140.916550 79.430901,140.842789 76.680649,140.675507 
	C75.264221,139.513351 74.219650,138.444687 73.175079,137.376038 
	C74.431496,136.562012 75.687912,135.747986 77.390137,134.963470 
	C79.919319,134.935715 82.002693,134.878448 84.427185,134.876877 
	C85.459122,134.934723 86.149933,134.936874 87.304352,134.955933 
	C90.526505,134.965744 93.285065,134.958649 96.505066,134.966263 
	C101.422630,134.947800 105.878746,134.914612 110.660217,134.909027 
	C111.635147,134.913818 112.284737,134.891037 113.402710,134.900421 
	C118.272049,134.919174 122.672989,134.905746 127.397400,134.925903 
	C128.154831,134.966370 128.588821,134.973267 129.490036,134.979828 
	C145.862656,134.986679 161.768036,135.005646 177.673370,134.983368 
	C179.318909,134.981064 180.971191,134.790222 182.607925,134.586807 
	C185.689255,134.203842 187.206619,132.694534 187.045792,129.305893 
	C186.786819,123.849915 186.919037,118.375359 186.899673,112.449753 
	C186.871964,107.656998 186.830566,103.323158 186.807312,98.681831 
	C186.794800,97.968483 186.764145,97.562614 186.786285,96.699234 
	C186.748459,93.799461 186.657822,91.357201 186.619400,88.617325 
	C186.635925,87.920570 186.600220,87.521446 186.651749,86.678558 
	C186.743011,84.128517 186.747055,82.022240 186.794952,79.474274 
	C186.872574,77.234581 186.906342,75.436577 187.342606,73.747314 
	C190.364227,74.489281 191.473480,76.012871 191.466019,78.839920 
	C191.383270,110.229599 191.403275,141.619537 191.375671,173.009384 
	C191.375107,173.657486 191.137177,174.305389 191.009995,174.953384 
M144.073334,146.101593 
	C144.052780,151.074570 144.091080,156.048767 143.988113,161.020035 
	C143.932373,163.712524 144.993530,164.990326 147.772644,164.956421 
	C153.574066,164.885635 159.378159,164.865646 165.178772,164.964798 
	C168.331253,165.018677 169.107300,163.369812 169.069077,160.597382 
	C168.982559,154.324921 169.041855,148.050430 169.041855,140.869644 
	C166.126358,140.869644 163.049591,140.869644 159.263901,140.480133 
	C153.856018,140.480133 148.448135,140.480133 142.613983,140.480133 
	C143.339218,142.739777 143.732376,143.964783 144.073334,146.101593 
M174.476898,163.826569 
	C177.200714,164.201324 179.918655,164.627853 182.649857,164.937469 
	C185.917572,165.307907 187.076111,163.688202 186.990707,160.524323 
	C186.846954,155.198944 187.123627,149.857132 186.827438,144.544296 
	C186.746170,143.086761 185.394577,140.614822 184.387558,140.487076 
	C180.578278,140.003815 176.671036,140.292740 174.139526,140.292740 
	C174.139526,148.562943 174.139526,155.778931 174.476898,163.826569 
M135.706512,166.040543 
	C133.934464,166.290421 132.162415,166.540298 130.390366,166.790176 
	C130.436325,167.284180 130.482269,167.778198 130.528214,168.272202 
	C135.488998,168.272202 140.449768,168.272202 145.410553,168.272202 
	C145.425125,167.528580 145.439697,166.784943 145.454254,166.041321 
	C142.509659,166.041321 139.565063,166.041321 135.706512,166.040543 
M24.102659,172.934219 
	C28.225185,172.513824 32.620693,173.980103 36.521923,172.030243 
	C36.493412,171.403687 36.464897,170.777115 36.436382,170.150558 
	C31.955042,170.150558 27.473701,170.150558 22.992359,170.150558 
	C23.087894,171.054810 23.183430,171.959076 24.102659,172.934219 
M39.810104,166.041656 
	C38.102642,166.366913 36.395180,166.692169 34.687717,167.017410 
	C34.768616,167.436691 34.849514,167.855957 34.930412,168.275238 
	C39.793293,168.275238 44.656174,168.275238 49.519058,168.275238 
	C49.526695,167.530472 49.534336,166.785706 49.541973,166.040939 
	C46.598259,166.040939 43.654545,166.040939 39.810104,166.041656 
M99.041435,167.942703 
	C97.920090,168.209366 96.798752,168.476013 95.001404,168.903427 
	C99.770828,171.815216 107.772980,171.634476 111.572395,167.937622 
	C106.932114,167.937622 103.417885,167.937622 99.041435,167.942703 
M165.354156,171.975784 
	C169.248917,171.975784 173.143677,171.975784 177.038437,171.975784 
	C177.019989,171.351364 177.001541,170.726929 176.983093,170.102509 
	C172.930115,170.102509 168.876907,170.092163 164.825577,170.173889 
	C164.741104,170.175583 164.678116,171.242874 165.354156,171.975784 
z"/>
<path fill="#4B4542" opacity="1.000000" stroke="none" 
	d="
M10.758461,164.966965 
	C10.741236,168.007217 10.724010,171.047455 10.848196,174.520508 
	C7.843851,175.476898 6.973319,173.964142 6.978745,171.013718 
	C7.040898,137.216537 6.981980,103.419006 7.142651,69.622452 
	C7.149909,68.095863 8.583318,65.823959 9.957470,65.169495 
	C28.659454,56.262325 47.471661,47.586727 66.249687,38.838997 
	C76.768547,33.938797 87.220596,28.888464 97.837837,24.212526 
	C99.667221,23.406849 102.466965,23.465134 104.319771,24.270967 
	C115.712006,29.225702 126.988998,34.449684 138.251144,39.698231 
	C155.681747,47.821495 173.043457,56.093121 190.499237,64.161484 
	C193.743927,65.661232 195.104706,67.492004 195.084885,71.288383 
	C194.913712,104.085869 195.000977,136.884644 194.954330,169.682968 
	C194.951126,171.941666 196.000336,175.086472 191.423340,174.998856 
	C191.137177,174.305389 191.375107,173.657486 191.375671,173.009384 
	C191.403275,141.619537 191.383270,110.229599 191.466019,78.839920 
	C191.473480,76.012871 190.364227,74.489281 187.101822,73.531487 
	C168.219116,64.638634 150.010498,56.003826 131.726181,47.532402 
	C123.587097,43.761425 115.295502,40.319626 106.860771,36.483643 
	C103.420723,33.360664 100.272812,33.334469 96.259628,35.263069 
	C76.668045,44.678120 56.888714,53.701508 37.237072,62.993031 
	C28.408974,67.167061 19.724022,71.643852 10.786922,76.347488 
	C10.486535,77.532150 10.274992,78.352509 10.274395,79.173012 
	C10.254415,106.629066 10.248461,134.085129 10.273204,161.541168 
	C10.274234,162.683243 10.589561,163.825043 10.758461,164.966965 
z"/>
<path fill="#BD7F4C" opacity="1.000000" stroke="none" 
	d="
M49.219894,164.782120 
	C44.690903,164.657394 40.161915,164.532684 35.313503,163.692383 
	C35.053650,136.326172 35.113216,109.675552 35.514572,82.946350 
	C37.517818,82.105034 39.216099,81.412926 40.835201,80.568939 
	C63.549320,68.728828 86.217003,56.798325 109.020805,45.133839 
	C111.019485,44.111485 114.358665,43.872627 116.289116,44.839443 
	C134.730576,54.075356 152.968994,63.715534 171.345108,73.083900 
	C176.342575,75.631668 181.608429,77.653008 186.751099,79.915962 
	C186.747055,82.022240 186.743011,84.128517 186.225800,86.648865 
	C175.438049,87.062943 165.163498,87.062943 154.888931,87.062943 
	C155.278122,88.866402 155.862259,89.721878 156.428909,89.710464 
	C166.476257,89.508003 176.521500,89.200104 186.567184,88.914948 
	C186.657822,91.357201 186.748459,93.799461 186.341461,96.653656 
	C167.765991,97.033157 149.687790,97.052246 131.610641,96.922508 
	C128.208725,96.898094 126.870293,98.097221 126.921204,101.557899 
	C127.084633,112.667717 127.038948,123.780624 127.073944,134.892334 
	C122.672989,134.905746 118.272049,134.919174 113.422653,134.443268 
	C112.983795,123.312622 112.866577,112.668884 113.068703,102.031219 
	C113.143974,98.070198 111.657730,96.749039 107.809044,96.882477 
	C101.498283,97.101257 95.169815,97.087883 88.857826,96.887901 
	C85.112572,96.769234 83.921974,98.307854 83.974548,101.900909 
	C84.135078,112.872528 84.065880,123.847511 84.086075,134.821182 
	C82.002693,134.878448 79.919319,134.935715 77.462402,134.504517 
	C77.108734,123.071663 77.205902,112.126221 77.054314,101.184219 
	C77.034531,99.756065 75.777451,97.137604 75.023712,97.111847 
	C66.489517,96.820274 57.941708,96.926971 48.837029,96.926971 
	C48.837029,106.448402 48.837029,115.208626 48.390327,123.976669 
	C45.485325,124.021294 43.006237,123.889954 40.580460,124.189842 
	C39.776146,124.289276 39.108940,125.497818 38.379051,126.199272 
	C39.085251,126.758926 39.755486,127.739098 40.504074,127.803123 
	C43.273849,128.040024 46.069489,127.974495 48.907722,128.487244 
	C49.046658,140.895279 49.133278,152.838699 49.219894,164.782120 
M58.488319,81.997993 
	C52.844135,81.997993 47.199947,81.997993 41.555763,81.997993 
	C44.992302,85.724998 68.067398,85.711548 71.402054,81.997986 
	C67.428185,81.997986 63.454315,81.997986 58.488319,81.997993 
M148.962540,79.983925 
	C160.292892,80.015076 160.292892,80.015076 162.855927,77.595154 
	C156.750259,77.595154 151.225876,77.595154 145.701492,77.595154 
	C145.616425,77.976646 145.531357,78.358147 145.446289,78.739639 
	C146.332947,79.146080 147.219589,79.552513 148.962540,79.983925 
z"/>
<path fill="#2C2928" opacity="1.000000" stroke="none" 
	d="
M48.837029,123.968849 
	C48.837029,115.208626 48.837029,106.448402 48.837029,96.926971 
	C57.941708,96.926971 66.489517,96.820274 75.023712,97.111847 
	C75.777451,97.137604 77.034531,99.756065 77.054314,101.184219 
	C77.205902,112.126221 77.108734,123.071663 77.016602,134.475006 
	C75.687912,135.747986 74.431496,136.562012 73.175079,137.376038 
	C74.219650,138.444687 75.264221,139.513351 76.700615,141.159149 
	C76.990768,149.422180 76.889107,157.108063 76.787445,164.793930 
	C67.901573,164.803207 59.015694,164.812485 49.674858,164.801941 
	C49.133278,152.838699 49.046658,140.895279 48.958241,128.083847 
	C48.916637,126.133499 48.876835,125.051178 48.837029,123.968849 
z"/>
<path fill="#000000" opacity="1.000000" stroke="none" 
	d="
M35.172783,83.024933 
	C35.113216,109.675552 35.053650,136.326172 34.984169,163.439240 
	C28.970493,163.928909 22.966734,163.956161 16.493834,163.473969 
	C16.046984,134.350006 16.069275,105.735466 16.552036,77.077499 
	C22.982105,77.059792 28.951706,77.085510 34.951225,77.533127 
	C35.045025,79.644997 35.108906,81.334969 35.172783,83.024933 
z"/>
<path fill="#FDB335" opacity="1.000000" stroke="none" 
	d="
M186.789169,98.989304 
	C186.830566,103.323158 186.871964,107.656998 186.545990,112.547958 
	C167.241928,119.077095 148.305237,125.049126 129.291626,130.557159 
	C129.183456,121.801743 129.400406,113.499046 129.024689,105.223259 
	C128.811157,100.519615 130.123672,98.933220 135.050888,99.005714 
	C152.293167,99.259407 169.542511,99.033218 186.789169,98.989304 
z"/>
<path fill="#A76E45" opacity="1.000000" stroke="none" 
	d="
M35.514572,82.946350 
	C35.108906,81.334969 35.045025,79.644997 35.185890,77.275925 
	C51.689640,67.682991 68.017738,58.821808 84.274872,49.832272 
	C91.944496,45.591282 99.477966,41.104069 107.073128,36.728416 
	C115.295502,40.319626 123.587097,43.761425 131.726181,47.532402 
	C150.010498,56.003826 168.219116,64.638634 186.699326,73.422745 
	C186.906342,75.436577 186.872574,77.234581 186.794952,79.474274 
	C181.608429,77.653008 176.342575,75.631668 171.345108,73.083900 
	C152.968994,63.715534 134.730576,54.075356 116.289116,44.839443 
	C114.358665,43.872627 111.019485,44.111485 109.020805,45.133839 
	C86.217003,56.798325 63.549320,68.728828 40.835201,80.568939 
	C39.216099,81.412926 37.517818,82.105034 35.514572,82.946350 
z"/>
<path fill="#FDC667" opacity="1.000000" stroke="none" 
	d="
M129.368530,131.021149 
	C148.305237,125.049126 167.241928,119.077095 186.532318,113.006859 
	C186.919037,118.375359 186.786819,123.849915 187.045792,129.305893 
	C187.206619,132.694534 185.689255,134.203842 182.607925,134.586807 
	C180.971191,134.790222 179.318909,134.981064 177.673370,134.983368 
	C161.768036,135.005646 145.862656,134.986679 129.530609,134.584702 
	C129.192139,133.133652 129.280334,132.077408 129.368530,131.021149 
z"/>
<path fill="#FEB537" opacity="1.000000" stroke="none" 
	d="
M110.136314,143.814056 
	C110.089432,149.429749 109.924759,155.047882 110.040909,160.660202 
	C110.108032,163.903595 108.766273,165.066086 105.622063,164.983429 
	C99.678902,164.827179 93.730125,164.884476 87.334419,164.363861 
	C86.842812,156.054703 86.800468,148.234711 86.758125,140.414703 
	C94.296478,140.495682 101.834831,140.576660 109.722404,141.230652 
	C110.093185,142.473801 110.114754,143.143936 110.136314,143.814056 
z"/>
<path fill="#FFB536" opacity="1.000000" stroke="none" 
	d="
M159.972809,140.869659 
	C163.049591,140.869644 166.126358,140.869644 169.041855,140.869644 
	C169.041855,148.050430 168.982559,154.324921 169.069077,160.597382 
	C169.107300,163.369812 168.331253,165.018677 165.178772,164.964798 
	C159.378159,164.865646 153.574066,164.885635 147.772644,164.956421 
	C144.993530,164.990326 143.932373,163.712524 143.988113,161.020035 
	C144.091080,156.048767 144.052780,151.074570 144.488831,145.598175 
	C149.927170,143.686371 154.949997,142.278015 159.972809,140.869659 
z"/>
<path fill="#B47A4C" opacity="1.000000" stroke="none" 
	d="
M16.091566,77.120926 
	C16.069275,105.735466 16.046984,134.350006 16.029938,163.426270 
	C14.543906,164.232773 13.052633,164.577515 11.159912,164.944611 
	C10.589561,163.825043 10.274234,162.683243 10.273204,161.541168 
	C10.248461,134.085129 10.254415,106.629066 10.274395,79.173012 
	C10.274992,78.352509 10.486535,77.532150 11.178671,76.357452 
	C13.202266,76.375763 14.646916,76.748344 16.091566,77.120926 
z"/>
<path fill="#C0814E" opacity="1.000000" stroke="none" 
	d="
M110.539627,143.853912 
	C110.114754,143.143936 110.093185,142.473801 110.065079,141.469391 
	C116.075203,140.772018 122.091881,140.408936 128.566635,140.296692 
	C128.999985,140.713913 128.975235,140.880295 128.582825,141.181610 
	C127.796501,142.497360 127.026833,143.675354 127.017326,144.859482 
	C126.964088,151.488464 127.094406,158.118927 127.162033,164.748886 
	C111.199791,165.337402 114.637512,165.753845 113.998558,152.346573 
	C113.860374,149.446960 116.484856,145.025513 110.539627,143.853912 
z"/>
<path fill="#FEB438" opacity="1.000000" stroke="none" 
	d="
M174.308212,163.410736 
	C174.139526,155.778931 174.139526,148.562943 174.139526,140.292740 
	C176.671036,140.292740 180.578278,140.003815 184.387558,140.487076 
	C185.394577,140.614822 186.746170,143.086761 186.827438,144.544296 
	C187.123627,149.857132 186.846954,155.198944 186.990707,160.524323 
	C187.076111,163.688202 185.917572,165.307907 182.649857,164.937469 
	C179.918655,164.627853 177.200714,164.201324 174.308212,163.410736 
z"/>
<path fill="#A66639" opacity="1.000000" stroke="none" 
	d="
M84.427185,134.876877 
	C84.065880,123.847511 84.135078,112.872528 83.974548,101.900909 
	C83.921974,98.307854 85.112572,96.769234 88.857826,96.887901 
	C95.169815,97.087883 101.498283,97.101257 107.809044,96.882477 
	C111.657730,96.749039 113.143974,98.070198 113.068703,102.031219 
	C112.866577,112.668884 112.983795,123.312622 112.954262,134.411102 
	C112.284737,134.891037 111.635147,134.913818 110.623718,134.471848 
	C110.177200,131.618469 110.092514,129.229843 110.079636,126.394058 
	C110.125809,122.279388 110.100182,118.611877 110.122482,114.483932 
	C110.181946,110.375687 110.123535,106.725861 110.228287,103.080727 
	C110.305168,100.405243 109.321075,99.108566 106.480751,99.167397 
	C101.176857,99.277260 95.866943,99.288116 90.563728,99.162735 
	C87.639900,99.093620 86.882225,100.508598 86.922363,103.127724 
	C87.049377,111.415237 87.054604,119.704628 87.050278,128.425659 
	C86.942665,130.885040 86.891708,132.912048 86.840752,134.939026 
	C86.149933,134.936874 85.459122,134.934723 84.427185,134.876877 
z"/>
<path fill="#FDC666" opacity="1.000000" stroke="none" 
	d="
M110.074562,114.944366 
	C110.100182,118.611877 110.125809,122.279388 109.728195,126.491547 
	C104.884521,129.674652 100.464073,132.313110 96.043625,134.951553 
	C93.285065,134.958649 90.526505,134.965744 87.304352,134.955933 
	C86.891708,132.912048 86.942665,130.885040 87.350296,128.274078 
	C95.162834,123.441544 102.618698,119.192955 110.074562,114.944366 
z"/>
<path fill="#985835" opacity="1.000000" stroke="none" 
	d="
M129.291611,130.557159 
	C129.280334,132.077408 129.192139,133.133652 129.063354,134.585037 
	C128.588821,134.973267 128.154831,134.966370 127.397400,134.925903 
	C127.038948,123.780624 127.084633,112.667717 126.921204,101.557899 
	C126.870293,98.097221 128.208725,96.898094 131.610641,96.922508 
	C149.687790,97.052246 167.765991,97.033157 186.288666,97.111176 
	C186.764145,97.562614 186.794800,97.968483 186.807312,98.681824 
	C169.542511,99.033218 152.293167,99.259407 135.050888,99.005714 
	C130.123672,98.933220 128.811157,100.519615 129.024689,105.223259 
	C129.400406,113.499046 129.183456,121.801743 129.291611,130.557159 
z"/>
<path fill="#FCB336" opacity="1.000000" stroke="none" 
	d="
M139.190247,147.904419 
	C139.252762,151.715469 138.797638,155.626144 139.507126,159.312683 
	C140.420898,164.060638 138.684402,165.400635 134.371735,164.973633 
	C132.890350,164.826950 131.387924,164.892715 129.469177,164.381882 
	C129.140442,159.277359 129.237640,154.652390 129.703949,149.991974 
	C133.112106,149.272507 136.151169,148.588455 139.190247,147.904419 
z"/>
<path fill="#AC6E3E" opacity="1.000000" stroke="none" 
	d="
M186.619400,88.617325 
	C176.521500,89.200104 166.476257,89.508003 156.428909,89.710464 
	C155.862259,89.721878 155.278122,88.866402 154.888931,87.062943 
	C165.163498,87.062943 175.438049,87.062943 186.138580,87.092636 
	C186.600220,87.521446 186.635925,87.920570 186.619400,88.617325 
z"/>
<path fill="#FAC064" opacity="1.000000" stroke="none" 
	d="
M139.363281,147.605103 
	C136.151169,148.588455 133.112106,149.272507 129.632904,149.543030 
	C129.112015,146.435226 129.031250,143.740967 128.950485,141.046692 
	C128.975235,140.880295 128.999985,140.713913 129.035919,140.295975 
	C130.356949,140.037048 131.666809,140.018600 132.976562,140.024231 
	C139.108246,140.050598 139.632111,140.634628 139.363281,147.605103 
z"/>
<path fill="#B27A4C" opacity="1.000000" stroke="none" 
	d="
M77.194107,164.800873 
	C76.889107,157.108063 76.990768,149.422180 77.072464,141.252655 
	C79.430901,140.842789 81.809311,140.916550 84.586159,141.376617 
	C84.929436,142.580948 84.874275,143.399002 84.819107,144.217056 
	C81.313805,143.265610 79.882431,144.654434 79.992599,148.219391 
	C80.120720,152.365112 80.217056,156.533646 79.899879,160.659424 
	C79.789688,162.092651 78.403931,163.427841 77.194107,164.800873 
z"/>
<path fill="#FFB637" opacity="1.000000" stroke="none" 
	d="
M96.505066,134.966263 
	C100.464073,132.313110 104.884521,129.674652 109.656395,126.938713 
	C110.092514,129.229843 110.177200,131.618469 110.298370,134.444275 
	C105.878746,134.914612 101.422630,134.947800 96.505066,134.966263 
z"/>
<path fill="#FABF65" opacity="1.000000" stroke="none" 
	d="
M159.618347,140.674896 
	C154.949997,142.278015 149.927170,143.686371 144.514954,145.142258 
	C143.732376,143.964783 143.339218,142.739777 142.613983,140.480133 
	C148.448135,140.480133 153.856018,140.480133 159.618347,140.674896 
z"/>
<path fill="#A66436" opacity="1.000000" stroke="none" 
	d="
M84.820343,144.667709 
	C84.874275,143.399002 84.929436,142.580948 84.978027,141.353165 
	C85.406349,140.762100 85.841240,140.580765 86.517120,140.407074 
	C86.800468,148.234711 86.842812,156.054703 86.856895,164.320679 
	C86.165283,163.487518 84.985001,162.230469 84.929283,160.925400 
	C84.704666,155.664444 84.827240,150.388672 84.820343,144.667709 
z"/>
<path fill="#985835" opacity="1.000000" stroke="none" 
	d="
M128.582825,141.181610 
	C129.031250,143.740967 129.112015,146.435226 129.263809,149.578461 
	C129.237640,154.652390 129.140442,159.277359 129.011414,164.347534 
	C128.574341,164.800354 128.169083,164.807968 127.462929,164.782227 
	C127.094406,158.118927 126.964088,151.488464 127.017326,144.859482 
	C127.026833,143.675354 127.796501,142.497360 128.582825,141.181610 
z"/>
<path fill="#C2834F" opacity="1.000000" stroke="none" 
	d="
M136.163483,166.040924 
	C139.565063,166.041321 142.509659,166.041321 145.454254,166.041321 
	C145.439697,166.784943 145.425125,167.528580 145.410553,168.272202 
	C140.449768,168.272202 135.488998,168.272202 130.528214,168.272202 
	C130.482269,167.778198 130.436325,167.284180 130.390366,166.790176 
	C132.162415,166.540298 133.934464,166.290421 136.163483,166.040924 
z"/>
<path fill="#C28350" opacity="1.000000" stroke="none" 
	d="
M23.690813,172.898773 
	C23.183430,171.959076 23.087894,171.054810 22.992359,170.150558 
	C27.473701,170.150558 31.955042,170.150558 36.436382,170.150558 
	C36.464897,170.777115 36.493412,171.403687 36.521923,172.030243 
	C32.620693,173.980103 28.225185,172.513824 23.690813,172.898773 
z"/>
<path fill="#C2834F" opacity="1.000000" stroke="none" 
	d="
M40.260468,166.041290 
	C43.654545,166.040939 46.598259,166.040939 49.541973,166.040939 
	C49.534336,166.785706 49.526695,167.530472 49.519058,168.275238 
	C44.656174,168.275238 39.793293,168.275238 34.930412,168.275238 
	C34.849514,167.855957 34.768616,167.436691 34.687717,167.017410 
	C36.395180,166.692169 38.102642,166.366913 40.260468,166.041290 
z"/>
<path fill="#C2834F" opacity="1.000000" stroke="none" 
	d="
M99.472542,167.940155 
	C103.417885,167.937622 106.932114,167.937622 111.572395,167.937622 
	C107.772980,171.634476 99.770828,171.815216 95.001404,168.903427 
	C96.798752,168.476013 97.920090,168.209366 99.472542,167.940155 
z"/>
<path fill="#BE7F4C" opacity="1.000000" stroke="none" 
	d="
M164.979645,171.894409 
	C164.678116,171.242874 164.741104,170.175583 164.825577,170.173889 
	C168.876907,170.092163 172.930115,170.102509 176.983093,170.102509 
	C177.001541,170.726929 177.019989,171.351364 177.038437,171.975784 
	C173.143677,171.975784 169.248917,171.975784 164.979645,171.894409 
z"/>
<path fill="#8D563D" opacity="1.000000" stroke="none" 
	d="
M16.552036,77.077499 
	C14.646916,76.748344 13.202266,76.375763 11.365867,75.993225 
	C19.724022,71.643852 28.408974,67.167061 37.237072,62.993031 
	C56.888714,53.701508 76.668045,44.678120 96.259628,35.263069 
	C100.272812,33.334469 103.420723,33.360664 106.860771,36.483646 
	C99.477966,41.104069 91.944496,45.591282 84.274872,49.832272 
	C68.017738,58.821808 51.689640,67.682991 35.155975,76.854019 
	C28.951706,77.085510 22.982105,77.059792 16.552036,77.077499 
z"/>
<path fill="#AA6B3C" opacity="1.000000" stroke="none" 
	d="
M58.984383,81.997986 
	C63.454315,81.997986 67.428185,81.997986 71.402054,81.997986 
	C68.067398,85.711548 44.992302,85.724998 41.555763,81.997993 
	C47.199947,81.997993 52.844135,81.997993 58.984383,81.997986 
z"/>
<path fill="#AA6B3C" opacity="1.000000" stroke="none" 
	d="
M148.534393,79.971436 
	C147.219589,79.552513 146.332947,79.146080 145.446289,78.739639 
	C145.531357,78.358147 145.616425,77.976646 145.701492,77.595154 
	C151.225876,77.595154 156.750259,77.595154 162.855927,77.595154 
	C160.292892,80.015076 160.292892,80.015076 148.534393,79.971436 
z"/>
<path fill="#AC6E3E" opacity="1.000000" stroke="none" 
	d="
M48.390327,123.976669 
	C48.876835,125.051178 48.916637,126.133499 48.905926,127.619217 
	C46.069489,127.974495 43.273849,128.040024 40.504074,127.803123 
	C39.755486,127.739098 39.085251,126.758926 38.379051,126.199272 
	C39.108940,125.497818 39.776146,124.289276 40.580460,124.189842 
	C43.006237,123.889954 45.485325,124.021294 48.390327,123.976669 
z"/>
<path fill="#FEB435" opacity="1.000000" stroke="none" 
	d="
M110.122482,114.483932 
	C102.618698,119.192955 95.162834,123.441544 87.406952,127.841705 
	C87.054604,119.704628 87.049377,111.415237 86.922363,103.127724 
	C86.882225,100.508598 87.639900,99.093620 90.563728,99.162735 
	C95.866943,99.288116 101.176857,99.277260 106.480751,99.167397 
	C109.321075,99.108566 110.305168,100.405243 110.228287,103.080727 
	C110.123535,106.725861 110.181946,110.375687 110.122482,114.483932 
z"/>
</svg>