<svg xmlns="http://www.w3.org/2000/svg" xml:space="preserve" viewBox="0 0 200 200"><path fill="transparent" d="M115 201H1.035V1.098H200.84V201H115m76.837-25.956c4.163.042 3.114-3.102 3.117-5.361.047-32.798-.04-65.597.13-98.395.02-3.796-1.34-5.627-4.585-7.127-17.456-8.068-34.817-16.34-52.248-24.463-11.262-5.248-22.539-10.472-33.931-15.427-1.853-.806-4.653-.864-6.482-.058-10.617 4.675-21.07 9.726-31.588 14.626-18.778 8.748-37.59 17.423-56.293 26.33-1.374.655-2.807 2.927-2.814 4.453-.161 33.797-.102 67.595-.164 101.392-.006 2.95.865 4.463 4.948 3.983 59.695-.015 119.389-.03 179.91.047z"/><path fill="#EAA874" d="M191.01 174.953c-59.694.015-119.388.03-179.693-.41-.593-3.496-.576-6.536-.157-9.598 1.893-.367 3.384-.712 5.34-1.01 6.467.021 12.47-.006 18.804.22 4.858.378 9.387.502 14.37.647 9.342.01 18.228.001 27.52-.001 1.21-1.373 2.596-2.708 2.706-4.142.317-4.125.22-8.294.093-12.44-.11-3.565 1.32-4.953 4.827-3.551.007 5.72-.115 10.996.11 16.257.055 1.305 1.235 2.563 2.376 3.885 6.424.074 12.373.017 18.316.173 3.144.083 4.486-1.08 4.419-4.323a166.25 166.25 0 0 1 .499-16.806c5.945 1.172 3.32 5.593 3.459 8.493.639 13.407-2.8 12.99 13.464 12.435.706.026 1.111.018 1.974.045 1.95.066 3.453 0 4.935.147 4.312.427 6.049-.913 5.135-5.661-.71-3.687-.254-7.598-.144-11.708.27-6.97-.255-7.554-6.386-7.58-1.31-.006-2.62.012-4.4.02-6.485.364-12.502.727-18.861.851-7.881-.32-15.42-.4-23.199-.489-.676.174-1.11.355-1.937.56a177.11 177.11 0 0 1-7.9-.291c-1.416-1.163-2.46-2.231-3.505-3.3 1.256-.814 2.513-1.628 4.215-2.413 2.53-.027 4.613-.085 7.037-.086 1.032.058 1.723.06 2.877.079 3.223.01 5.981.003 9.201.01 4.918-.018 9.374-.051 14.155-.057.975.005 1.625-.018 2.743-.009 4.869.02 9.27.006 13.994.026.758.04 1.192.047 2.093.054 16.373.007 32.278.026 48.183.003 1.646-.002 3.298-.193 4.935-.396 3.081-.383 4.599-1.892 4.438-5.281-.26-5.456-.127-10.93-.146-16.856-.028-4.793-.07-9.127-.093-13.768-.012-.714-.043-1.12-.02-1.983-.039-2.9-.13-5.342-.168-8.082.017-.696-.019-1.096.033-1.938.091-2.55.095-4.657.143-7.205.078-2.24.111-4.037.548-5.727 3.021.742 4.13 2.266 4.123 5.093-.083 31.39-.063 62.78-.09 94.17 0 .647-.239 1.295-.366 1.943m-46.937-28.851c-.02 4.973.018 9.947-.085 14.918-.056 2.693 1.006 3.97 3.785 3.936 5.801-.07 11.605-.09 17.406.009 3.152.054 3.928-1.595 3.89-4.368-.086-6.272-.027-12.547-.027-19.727-2.916 0-5.992 0-9.778-.39h-16.65c.725 2.26 1.118 3.485 1.46 5.622m30.403 17.725c2.724.374 5.442.8 8.173 1.11 3.268.37 4.426-1.249 4.34-4.413-.143-5.325.134-10.667-.163-15.98-.08-1.457-1.432-3.93-2.44-4.057-3.809-.483-7.716-.194-10.247-.194 0 8.27 0 15.486.337 23.534m-38.77 2.214-5.317.75.138 1.481h14.883l.043-2.23-9.747-.001m-111.604 6.893c4.122-.42 8.518 1.046 12.419-.904l-.086-1.88H22.992c.096.905.191 1.81 1.11 2.784m15.708-6.892-5.122.975.242 1.258h14.59l.022-2.234H39.81m59.231 1.902-4.04.96c4.77 2.912 12.772 2.731 16.571-.965-4.64 0-8.154 0-12.53.005m66.312 4.033h11.684l-.055-1.873c-4.053 0-8.106-.01-12.157.07-.085.003-.148 1.07.528 1.803z"/><path fill="#4B4542" d="M10.758 164.967c-.017 3.04-.034 6.08.09 9.554-3.004.956-3.875-.557-3.87-3.507.063-33.797.004-67.595.165-101.392.007-1.526 1.44-3.798 2.814-4.453C28.66 56.262 47.472 47.587 66.25 38.84c10.519-4.9 20.97-9.95 31.588-14.626 1.83-.806 4.629-.748 6.482.058 11.392 4.955 22.669 10.179 33.931 15.427 17.43 8.123 34.792 16.395 52.248 24.463 3.245 1.5 4.606 3.331 4.586 7.127-.171 32.798-.084 65.597-.13 98.395-.004 2.259 1.045 5.403-3.532 5.316-.286-.694-.048-1.342-.047-1.99.027-31.39.007-62.78.09-94.17.007-2.826-1.102-4.35-4.364-5.308-18.883-8.892-37.092-17.527-55.376-25.999-8.139-3.77-16.43-7.212-24.865-11.048-3.44-3.123-6.588-3.15-10.601-1.22-19.592 9.414-39.371 18.438-59.023 27.729-8.828 4.174-17.513 8.65-26.45 13.354-.3 1.185-.512 2.006-.513 2.826-.02 27.456-.026 54.912 0 82.368 0 1.142.316 2.284.484 3.426z"/><path fill="#BD7F4C" d="M49.22 164.782c-4.53-.125-9.058-.25-13.906-1.09-.26-27.366-.2-54.016.2-80.746 2.004-.841 3.702-1.533 5.321-2.377 22.714-11.84 45.382-23.77 68.186-35.435 1.998-1.023 5.338-1.261 7.268-.295 18.442 9.236 36.68 18.877 55.056 28.245 4.998 2.548 10.263 4.569 15.406 6.832-.004 2.106-.008 4.213-.525 6.733-10.788.414-21.063.414-31.337.414.39 1.803.973 2.659 1.54 2.647 10.047-.202 20.093-.51 30.138-.795.09 2.442.181 4.884-.226 7.739-18.575.38-36.653.398-54.73.269-3.402-.025-4.74 1.174-4.69 4.635.164 11.11.118 22.223.153 33.334-4.401.014-8.802.027-13.651-.449-.44-11.13-.556-21.774-.354-32.412.075-3.96-1.411-5.282-5.26-5.149-6.31.22-12.64.206-18.951.006-3.745-.119-4.936 1.42-4.883 5.013.16 10.972.09 21.947.111 32.92-2.083.057-4.167.115-6.624-.316-.353-11.433-.256-22.379-.408-33.32-.02-1.429-1.277-4.047-2.03-4.073-8.534-.292-17.082-.185-26.187-.185 0 9.521 0 18.282-.447 27.05-2.905.044-5.384-.087-7.81.213-.804.1-1.471 1.308-2.2 2.01.705.559 1.375 1.54 2.124 1.603 2.77.237 5.565.171 8.404.684.139 12.408.225 24.352.312 36.295m9.268-82.784H41.556c3.436 3.727 26.511 3.714 29.846 0H58.488m90.475-2.014c11.33.031 11.33.031 13.893-2.389H145.7l-.255 1.145c.887.406 1.774.813 3.517 1.244z"/><path fill="#2C2928" d="M48.837 123.969V96.927c9.105 0 17.653-.107 26.187.185.753.026 2.01 2.644 2.03 4.072.152 10.942.055 21.888-.037 33.291-1.33 1.273-2.586 2.087-3.842 2.901 1.045 1.069 2.09 2.137 3.526 3.783.29 8.263.188 15.95.086 23.635-8.885.01-17.771.018-27.112.008-.542-11.963-.628-23.907-.717-36.718-.041-1.95-.081-3.033-.121-4.115z"/><path d="M35.173 83.025c-.06 26.65-.12 53.301-.189 80.414-6.014.49-12.017.517-18.49.035-.447-29.124-.425-57.739.058-86.397 6.43-.017 12.4.009 18.4.456.093 2.112.157 3.802.22 5.492z"/><path fill="#FDB335" d="M186.79 98.99c.04 4.333.082 8.667-.244 13.558-19.304 6.53-38.24 12.501-57.254 18.01-.109-8.756.108-17.059-.267-25.335-.214-4.703 1.099-6.29 6.026-6.217 17.242.253 34.492.027 51.738-.017z"/><path fill="#A76E45" d="M35.515 82.946c-.406-1.611-.47-3.301-.33-5.67 16.505-9.593 32.833-18.454 49.09-27.444 7.67-4.24 15.203-8.728 22.798-13.104 8.223 3.592 16.514 7.033 24.653 10.804 18.284 8.472 36.493 17.107 54.973 25.89.207 2.015.174 3.813.096 6.052-5.187-1.821-10.452-3.842-15.45-6.39-18.376-9.368-36.614-19.009-55.056-28.245-1.93-.966-5.27-.728-7.268.295-22.804 11.664-45.472 23.595-68.186 35.435-1.619.844-3.317 1.536-5.32 2.377z"/><path fill="#FDC667" d="M129.369 131.021c18.936-5.972 37.873-11.944 57.163-18.014.387 5.368.255 10.843.514 16.299.16 3.389-1.357 4.898-4.438 5.28-1.637.204-3.29.395-4.935.397-15.905.023-31.81.004-48.142-.398-.339-1.451-.25-2.508-.162-3.564z"/><path fill="#FEB537" d="M110.136 143.814c-.047 5.616-.211 11.234-.095 16.846.067 3.244-1.275 4.406-4.419 4.323-5.943-.156-11.892-.099-18.288-.62-.491-8.308-.534-16.128-.576-23.948 7.538.08 15.077.162 22.964.816.371 1.243.393 1.913.414 2.583z"/><path fill="#FFB536" d="M159.973 140.87h9.069c0 7.18-.06 13.455.027 19.727.038 2.773-.738 4.422-3.89 4.368-5.8-.1-11.605-.08-17.406-.009-2.78.034-3.84-1.243-3.785-3.936.103-4.971.065-9.945.5-15.422 5.44-1.912 10.462-3.32 15.485-4.728z"/><path fill="#B47A4C" d="M16.092 77.12c-.023 28.615-.045 57.23-.062 86.306-1.486.807-2.977 1.152-4.87 1.519-.57-1.12-.886-2.262-.887-3.404-.025-27.456-.019-54.912.001-82.368.001-.82.213-1.64.905-2.816 2.023.019 3.468.391 4.913.764z"/><path fill="#C0814E" d="M110.54 143.854c-.425-.71-.447-1.38-.475-2.385 6.01-.697 12.027-1.06 18.502-1.172.433.417.408.583.016.885-.786 1.315-1.556 2.493-1.566 3.677-.053 6.63.077 13.26.145 19.89-15.962.588-12.524 1.005-13.163-12.402-.139-2.9 2.486-7.321-3.46-8.493z"/><path fill="#FEB438" d="M174.308 163.41c-.168-7.631-.168-14.847-.168-23.117 2.531 0 6.438-.29 10.248.194 1.007.128 2.358 2.6 2.44 4.057.296 5.313.019 10.655.163 15.98.085 3.164-1.073 4.784-4.341 4.413-2.731-.31-5.45-.736-8.342-1.526z"/><path fill="#A66639" d="M84.427 134.877c-.361-11.03-.292-22.004-.452-32.976-.053-3.593 1.138-5.132 4.883-5.013 6.312.2 12.64.213 18.951-.006 3.849-.133 5.335 1.188 5.26 5.15-.202 10.637-.085 21.28-.115 32.38-.67.479-1.319.502-2.33.06-.447-2.854-.531-5.242-.544-8.078.046-4.115.02-7.782.042-11.91.06-4.108.002-7.758.106-11.403.077-2.676-.907-3.972-3.747-3.914-5.304.11-10.614.121-15.917-.004-2.924-.07-3.682 1.346-3.642 3.965.127 8.287.133 16.577.128 25.298-.107 2.459-.158 4.486-.21 6.513-.69-.002-1.38-.004-2.413-.062z"/><path fill="#FDC666" d="M110.075 114.944c.025 3.668.05 7.335-.347 11.548-4.843 3.183-9.264 5.821-13.684 8.46-2.759.007-5.517.014-8.74.004-.412-2.044-.361-4.071.046-6.682 7.813-4.832 15.269-9.081 22.725-13.33z"/><path fill="#985835" d="M129.292 130.557c-.012 1.52-.1 2.577-.229 4.028-.474.388-.908.381-1.666.34-.358-11.144-.312-22.257-.476-33.367-.05-3.46 1.288-4.66 4.69-4.635 18.077.13 36.155.11 54.678.188.475.452.506.857.518 1.57-17.264.352-34.514.578-51.756.325-4.927-.073-6.24 1.514-6.026 6.217.375 8.276.158 16.579.267 25.334z"/><path fill="#FCB336" d="M139.19 147.904c.063 3.811-.392 7.722.317 11.409.914 4.748-.823 6.088-5.135 5.66-1.482-.146-2.984-.08-4.903-.591-.329-5.105-.231-9.73.235-14.39 3.408-.72 6.447-1.404 9.486-2.088z"/><path fill="#AC6E3E" d="M186.62 88.617c-10.099.583-20.144.891-30.191 1.093-.567.012-1.15-.844-1.54-2.647 10.274 0 20.549 0 31.25.03.461.428.497.828.48 1.524z"/><path fill="#FAC064" d="M139.363 147.605c-3.212.983-6.25 1.668-9.73 1.938-.521-3.108-.602-5.802-.683-8.496.025-.167.05-.333.086-.751 1.32-.259 2.63-.277 3.94-.272 6.132.027 6.656.61 6.387 7.581z"/><path fill="#B27A4C" d="M77.194 164.8c-.305-7.692-.203-15.378-.122-23.547 2.359-.41 4.737-.336 7.514.124.343 1.204.288 2.022.233 2.84-3.505-.951-4.937.437-4.826 4.002.128 4.146.224 8.315-.093 12.44-.11 1.434-1.496 2.769-2.706 4.142z"/><path fill="#FFB637" d="M96.505 134.966c3.96-2.653 8.38-5.291 13.151-8.027.437 2.29.521 4.68.642 7.505-4.42.47-8.875.504-13.793.522z"/><path fill="#FABF65" d="M159.618 140.675c-4.668 1.603-9.69 3.011-15.103 4.467-.783-1.177-1.176-2.402-1.901-4.662 5.834 0 11.242 0 17.004.195z"/><path fill="#A66436" d="M84.82 144.668c.054-1.269.11-2.087.158-3.315.428-.59.863-.772 1.54-.946.282 7.828.325 15.648.339 23.914-.692-.833-1.872-2.09-1.928-3.396-.224-5.26-.102-10.536-.109-16.257z"/><path fill="#985835" d="M128.583 141.182c.448 2.559.529 5.253.68 8.396-.025 5.074-.123 9.7-.252 14.77-.437.452-.842.46-1.548.434a314.583 314.583 0 0 1-.446-19.923c.01-1.184.78-2.362 1.566-3.677z"/><path fill="#C2834F" d="m136.163 166.04 9.291.001-.043 2.231h-14.883l-.138-1.482c1.772-.25 3.544-.5 5.773-.75z"/><path fill="#C28350" d="M23.69 172.899c-.507-.94-.602-1.844-.698-2.748h13.444l.086 1.88c-3.901 1.95-8.297.483-12.831.868z"/><path fill="#C2834F" d="M40.26 166.041h9.282l-.023 2.234H34.93l-.242-1.258c1.707-.325 3.415-.65 5.572-.976zM99.473 167.94c3.945-.002 7.46-.002 12.1-.002-3.8 3.696-11.802 3.877-16.572.965 1.798-.427 2.92-.694 4.472-.963z"/><path fill="#BE7F4C" d="M164.98 171.894c-.302-.651-.239-1.718-.154-1.72 4.05-.082 8.104-.071 12.157-.071l.055 1.873c-3.894 0-7.79 0-12.058-.082z"/><path fill="#8D563D" d="M16.552 77.077c-1.905-.329-3.35-.701-5.186-1.084 8.358-4.35 17.043-8.826 25.871-13 19.652-9.291 39.431-18.315 59.023-27.73 4.013-1.929 7.16-1.902 10.6 1.22-7.382 4.621-14.916 9.108-22.585 13.35-16.257 8.989-32.585 17.85-49.119 27.021-6.204.232-12.174.206-18.604.223z"/><path fill="#AA6B3C" d="M58.984 81.998h12.418c-3.335 3.714-26.41 3.727-29.846 0h17.428zM148.534 79.971c-1.314-.418-2.201-.825-3.088-1.231l.255-1.145h17.155c-2.563 2.42-2.563 2.42-14.322 2.376z"/><path fill="#AC6E3E" d="M48.39 123.977c.487 1.074.527 2.156.516 3.642a39.97 39.97 0 0 1-8.402.184c-.749-.064-1.419-1.044-2.125-1.604.73-.701 1.397-1.91 2.201-2.01 2.426-.299 4.905-.168 7.81-.212z"/><path fill="#FEB435" d="M110.122 114.484c-7.503 4.709-14.96 8.958-22.715 13.358-.352-8.137-.358-16.427-.485-24.714-.04-2.62.718-4.034 3.642-3.965 5.303.125 10.613.114 15.917.004 2.84-.058 3.824 1.238 3.747 3.914-.104 3.645-.046 7.295-.106 11.403z"/></svg>