<svg xmlns="http://www.w3.org/2000/svg" xmlns:xlink="http://www.w3.org/1999/xlink" xml:space="preserve" width="67.7" height="40"><defs><path id="a" d="M0-6h67.7v40H0z"/></defs><clipPath id="b"><use xlink:href="#a" overflow="visible"/></clipPath><g clip-path="url(#b)"><defs><path id="c" d="M0-6h67.7v40H0z"/></defs><clipPath id="d"><use xlink:href="#c" overflow="visible"/></clipPath><path fill="#44251B" d="M50.847 15.867a7.944 7.944 0 0 0-6.794-3.824h-9.188a7.932 7.932 0 0 0-6.212 2.991.514.514 0 0 0 .402.833h21.792z" clip-path="url(#d)"/><path fill="#995933" d="M48.224 26.743h2.583v1.59h-2.583z" clip-path="url(#d)"/><path fill="#995933" d="M59.415 27.936h-21.19a7.878 7.878 0 0 1-7.879-7.879v-.134a7.878 7.878 0 0 1 7.879-7.879h21.19a7.879 7.879 0 0 1 7.879 7.879v.134a7.879 7.879 0 0 1-7.879 7.879" clip-path="url(#d)"/><path fill="#BE7F4C" d="M40.272 13.981c-1.7-1.259-4.1-1.259-5.8 0-1.876 1.389-3.084 3.564-3.084 6.008s1.208 4.619 3.084 6.009c1.7 1.259 4.1 1.259 5.8 0 1.876-1.39 3.084-3.564 3.084-6.009s-1.208-4.619-3.084-6.008" clip-path="url(#d)"/><path fill="#EBA975" d="M33.276 16.365h7.598v2.73h-7.598z" clip-path="url(#d)"/><g clip-path="url(#d)" opacity=".24"><defs><path id="e" d="M31.497 12.23h11.86v14.311h-11.86z"/></defs><clipPath id="f"><use xlink:href="#e" overflow="visible"/></clipPath><path fill="#81452B" d="M31.497 15.867s4.411-.844 6.993 3.229c2.583 4.071.837 7.444.837 7.444s4.03-1.685 4.03-6.787c0-5.633-4.52-7.313-6.282-7.512-1.763-.198-4.923 2.087-5.578 3.626" clip-path="url(#f)"/></g><path fill="#75432F" d="M44.053 12.043h-9.188c-.553 0-1.092.057-1.613.165 1.985.41 3.7 1.56 4.844 3.149.229.319.595.51.987.51h11.765a7.949 7.949 0 0 0-6.795-3.824M31.438 27.091h34.018v1.738H31.438z" clip-path="url(#d)"/><path fill="#75432F" d="M43.754 12.011h16.389s7.945 1.026 7.151 8.674l-12.167.033H43.324c.215-2.996-1.457-5.264-1.457-5.264" clip-path="url(#d)"/><path fill="#75432F" d="m48.224 12.209 5.761-5.728 5.363 5.761M43.357 20.685h.992v.993h-.992zM45.642 20.685h.993v.993h-.993zM47.816 20.685h.992v.993h-.992zM54.338 20.685h.993v.993h-.993zM56.512 20.685h.993v.993h-.993zM49.99 20.685h.993v.993h-.993zM52.164 20.685h.993v.993h-.993zM58.686 20.685h.993v.993h-.993zM60.86 20.685h.992v.993h-.992zM63.034 20.685h.994v.993h-.994zM65.209 20.685h.993v.993h-.993z" clip-path="url(#d)"/><path fill="#995933" d="M9.388 19.83h11.621v10.092H9.388z" clip-path="url(#d)"/><path fill="#81452B" d="M11.699 21.369h.595v8.553h-.595zM15.024 21.369h.595v8.553h-.595zM18.35 21.369h.595v8.553h-.595z" clip-path="url(#d)"/><g clip-path="url(#d)" opacity=".24"><defs><path id="g" d="M9.389 19.754H21.01v4.473H9.389z"/></defs><clipPath id="h"><use xlink:href="#g" overflow="visible"/></clipPath><path fill="#81452B" d="M9.389 19.754v2.064l11.621 2.409v-4.473z" clip-path="url(#h)"/></g><path fill="#03C5F9" d="M21.009 19.754c0 1.14-2.601 2.064-5.81 2.064-3.21 0-5.811-.925-5.811-2.064 0-1.141 2.601-2.064 5.811-2.064 3.209-.001 5.81.923 5.81 2.064" clip-path="url(#d)"/><path fill="#00ADEA" d="m9.748 20.47 2.01-.708a10.913 10.913 0 0 1 8.231.4l.662.309S19.328 21.82 15.2 21.82c-4.13-.002-5.452-1.35-5.452-1.35" clip-path="url(#d)"/><path fill="#8E563D" d="M3.503 28.764h63.294v2.517H3.503z" clip-path="url(#d)"/><path fill="#8E563D" d="M.35 31.179h66.448v2.518H.35z" clip-path="url(#d)"/><path fill="#81452B" d="M58.576 32.086h8.222v.805h-8.222zM3.616 29.67h8.221v.806H3.616zM17.018 29.67h3.154v.806h-3.154zM41.457 32.086h3.153v.805h-3.153z" clip-path="url(#d)"/></g></svg>