<?xml version="1.0" encoding="utf-8"?>
<!-- Generator: Adobe Illustrator 16.0.0, SVG Export Plug-In . SVG Version: 6.00 Build 0)  -->
<!DOCTYPE svg PUBLIC "-//W3C//DTD SVG 1.1//EN" "http://www.w3.org/Graphics/SVG/1.1/DTD/svg11.dtd">
<svg version="1.1" id="Layer_1" xmlns="http://www.w3.org/2000/svg" xmlns:xlink="http://www.w3.org/1999/xlink" x="0px" y="0px"
	 width="40px" height="40px" viewBox="0 0 40 40" enable-background="new 0 0 40 40" xml:space="preserve">
<g>
	<defs>
		<rect id="SVGID_1_" x="-2.167" y="-10.333" width="40" height="40"/>
	</defs>
	<clipPath id="SVGID_2_">
		<use xlink:href="#SVGID_1_"  overflow="visible"/>
	</clipPath>
	<path clip-path="url(#SVGID_2_)" fill="#44251B" d="M26.875,15.817c-1.404-2.309-3.943-3.851-6.842-3.851h-9.25
		c-2.532,0-4.788,1.176-6.254,3.011c-0.27,0.338-0.028,0.84,0.405,0.84H26.875z"/>
	<rect x="14.734" y="26.767" clip-path="url(#SVGID_2_)" fill="#995933" width="2.6" height="1.602"/>
	<path clip-path="url(#SVGID_2_)" fill="#995933" d="M25.934,27.967H15.733c-4.418,0-8-3.581-8-8c0-4.418,3.582-8,8-8h10.201
		c4.418,0,8,3.582,8,8C33.934,24.386,30.352,27.967,25.934,27.967"/>
	<path clip-path="url(#SVGID_2_)" fill="#BE7F4C" d="M17.628,13.918c-1.712-1.268-4.127-1.268-5.84,0
		c-1.889,1.398-3.105,3.588-3.105,6.049s1.216,4.65,3.105,6.05c1.713,1.268,4.128,1.268,5.84,0c1.889-1.399,3.104-3.589,3.104-6.05
		S19.518,15.316,17.628,13.918"/>
	<rect x="10.583" y="16.317" clip-path="url(#SVGID_2_)" fill="#EBA975" width="1.35" height="1.5"/>
	<rect x="12.733" y="14.867" clip-path="url(#SVGID_2_)" fill="#EBA975" width="3.7" height="11.1"/>
	<path clip-path="url(#SVGID_2_)" fill="#75432F" d="M20.033,11.967h-9.25c-0.557,0-1.101,0.058-1.625,0.166
		c1.999,0.412,3.726,1.57,4.876,3.171c0.23,0.321,0.6,0.514,0.994,0.514h11.846C25.471,13.509,22.932,11.967,20.033,11.967"/>
	<rect x="9.483" y="27.117" clip-path="url(#SVGID_2_)" fill="#75432F" width="22.601" height="1.75"/>
	<path clip-path="url(#SVGID_2_)" fill="#75432F" d="M10.233,11.934h16.499c0,0,8.467,1.083,7.008,9.783h-0.457v-1h-0.9v1h-0.9v-1
		h-0.898v1h-1v-1h-0.9v1h-1.201v-1h-0.898v1h-1.102v-1h-1v1h-0.898v-1h-1v1h-0.9V20.7h-0.984c0.217-3.017-1.467-5.3-1.467-5.3"/>
</g>
</svg>
