<svg xmlns="http://www.w3.org/2000/svg" xmlns:xlink="http://www.w3.org/1999/xlink" xml:space="preserve" width="30" height="30"><defs><path id="a" d="M0 0h30v30H0z"/></defs><clipPath id="b"><use xlink:href="#a" overflow="visible"/></clipPath><path fill="#75432F" d="M7.063 11.487h.91v6.911h-.91zM23.813 11.487h.909v6.911h-.909z" clip-path="url(#b)"/><path fill="#BE7F4C" d="m6.268 11.395-1.021-1.021L16.285 4.53l11.687 6.03-2.87.79z" clip-path="url(#b)"/><path fill="#8E563D" d="M6.175 9.261h6.956v.742H6.175zM14.801 9.261h7.883v.742h-7.883zM8.587 7.962h7.884v.742H8.587zM18.232 7.962h5.565v.742h-5.565zM15.728 6.107h4.639v.742h-4.639zM12.019 6.107h2.783v.742h-2.783zM23.52 9.261h1.949v.742H23.52z" clip-path="url(#b)"/><g clip-path="url(#b)"><defs><path id="c" d="M0 0h30v30H0z"/></defs><clipPath id="d"><use xlink:href="#c" overflow="visible"/></clipPath><g clip-path="url(#d)" opacity=".21"><defs><path id="e" d="M4.994 4.902h21.548v5.905H4.994z"/></defs><clipPath id="f"><use xlink:href="#e" overflow="visible"/></clipPath><path fill="#75432F" d="m4.994 10.807 11.292-5.905 10.256 5.657h-2.729l-7.435-4.173-8.255 4.173z" clip-path="url(#f)"/></g></g><path fill="#EBA975" d="M8.656 11.729h13.566v7.579H8.656z" clip-path="url(#b)"/><g clip-path="url(#b)"><defs><path id="g" d="M0 0h30v30H0z"/></defs><clipPath id="h"><use xlink:href="#g" overflow="visible"/></clipPath><path fill="#BE7F4C" d="M22.146 12.68a.8.8 0 1 1-1.598.002.8.8 0 0 1 1.598-.002" clip-path="url(#h)"/><path fill="#BE7F4C" d="M22.146 14.28a.8.8 0 1 1-1.598.002.8.8 0 0 1 1.598-.002" clip-path="url(#h)"/><path fill="#BE7F4C" d="M22.146 15.881a.8.8 0 1 1-1.6 0 .8.8 0 0 1 1.6 0" clip-path="url(#h)"/><path fill="#BE7F4C" d="M22.146 17.48a.8.8 0 1 1-1.6 0 .8.8 0 0 1 1.6 0M10.367 12.68a.8.8 0 1 1-1.6 0 .8.8 0 0 1 1.6 0" clip-path="url(#h)"/><g clip-path="url(#h)" opacity=".59"><defs><path id="i" d="M8.68 11.58h13.542v.927H8.68z"/></defs><clipPath id="j"><use xlink:href="#i" overflow="visible"/></clipPath><path fill="#75432F" d="M8.68 11.58h13.542v.927H8.68z" clip-path="url(#j)"/></g><path fill="#BE7F4C" d="M10.367 14.28a.8.8 0 1 1-1.6 0 .8.8 0 0 1 1.6 0" clip-path="url(#h)"/><path fill="#BE7F4C" d="M10.367 15.881a.8.8 0 1 1-1.6 0 .8.8 0 0 1 1.6 0" clip-path="url(#h)"/><path fill="#BE7F4C" d="M10.367 17.48a.8.8 0 1 1-1.6 0 .8.8 0 0 1 1.6 0" clip-path="url(#h)"/><path fill="#995933" d="M17.688 13.077h2.479v5.308h-2.479z" clip-path="url(#h)"/><path fill="#BE7F4C" d="M20.168 18.385h-2.479v-5.309h2.479v5.309zm.198-5.507H17.49V18.583h2.876V12.878z" clip-path="url(#h)"/><path fill="#FFB535" d="M10.921 13.623h5.457v3.336h-5.457z" clip-path="url(#h)"/><path fill="#BE7F4C" d="M16.378 16.959H10.92v-3.336h5.458v3.336zm.139-3.475H10.781V17.099H16.517v-3.615z" clip-path="url(#h)"/><path fill="#BE7F4C" d="M10.308 13.064h6.626v.557h-6.626z" clip-path="url(#h)"/><path fill="#FFD79C" d="m16.378 14.826-5.472.928V14.64l5.472-.927zM16.378 15.847l-5.472.927v-.742l5.472-.928z" clip-path="url(#h)"/><path fill="#BE7F4C" d="M10.72 13.436h.556v3.708h-.556z" clip-path="url(#h)"/><path fill="#BE7F4C" d="M10.72 16.589h5.472v.556H10.72zM10.865 14.826h5.605v.557h-5.605z" clip-path="url(#h)"/><path fill="#BE7F4C" d="M14.708 13.507h.536v3.545h-.536z" clip-path="url(#h)"/><path fill="#7F4934" d="M4.784 15.661H26.58v.742H4.784z" clip-path="url(#h)"/><path fill="#8E563D" d="M4.335 11.395h.91v7.609h-.91zM9.607 11.487h.941v7.517h-.941zM15.728 11.487h1.021v7.517h-1.021zM26.024 11.395h1.02v7.609h-1.02z" clip-path="url(#h)"/><path fill="#8E563D" d="M3.949 10.56h23.559v1.206H3.949z" clip-path="url(#h)"/><path fill="#BE7F4C" d="M3.956 18.398h23.571v1.158H3.956z" clip-path="url(#h)"/><path fill="#995933" d="M29 11.987 16.301 4.932 3 11.843l.021-1.284 13.297-6.89 12.674 7.076z" clip-path="url(#h)"/><path fill="#75432F" d="M17.955 15.198h.834v.277h-.834z" clip-path="url(#h)"/><path fill="#EBA975" d="M3.949 18.629h2.69V19h-2.69zM7.659 18.629h.835V19h-.835z" clip-path="url(#h)"/><path fill="#75432F" d="M4.32 12.879h.464v.371H4.32zM4.785 16.959h.463v.371h-.463zM9.607 17.701h.557v.371h-.557zM9.978 13.991h.557v.371h-.557zM15.729 13.342h.649v.371h-.649z" clip-path="url(#h)"/><path fill="#8E563D" d="M7.102 12.6h.464v.371h-.464zM7.566 14.177h.371v.371h-.371zM23.798 14.177h.371v.371h-.371zM24.169 17.237h.557v.371h-.557z" clip-path="url(#h)"/><path fill="#75432F" d="M16.192 16.867h.557v.37h-.557zM26.025 17.237h.647v.371h-.647zM26.487 14.733h.557v.371h-.557z" clip-path="url(#h)"/><path fill="#EBA975" d="M26.18 18.722h1.328v.371H26.18z" clip-path="url(#h)"/><path fill="#995933" d="M1 19.126h6.942v6.029H1z" clip-path="url(#h)"/><path fill="#81452B" d="M2.38 20.046h.355v5.109H2.38zM4.367 20.046h.355v5.109h-.355zM6.354 20.046h.355v5.109h-.355z" clip-path="url(#h)"/><g clip-path="url(#h)" opacity=".24"><defs><path id="k" d="M1 19.08h6.942v2.672H1z"/></defs><clipPath id="l"><use xlink:href="#k" overflow="visible"/></clipPath><path fill="#81452B" d="M1 19.08v1.233l6.942 1.439V19.08z" clip-path="url(#l)"/></g><path fill="#03C5F9" d="M7.942 19.08c0 .682-1.554 1.233-3.471 1.233S1 19.762 1 19.08c0-.681 1.554-1.233 3.471-1.233s3.471.552 3.471 1.233" clip-path="url(#h)"/><path fill="#00ADEA" d="m1.214 19.508 1.201-.423a6.517 6.517 0 0 1 4.917.239l.396.184s-.791.806-3.257.806c-2.466-.001-3.257-.806-3.257-.806" clip-path="url(#h)"/></g></svg>