<?xml version="1.0" encoding="utf-8"?>
<!-- Generator: Adobe Illustrator 16.0.0, SVG Export Plug-In . SVG Version: 6.00 Build 0)  -->
<!DOCTYPE svg PUBLIC "-//W3C//DTD SVG 1.1//EN" "http://www.w3.org/Graphics/SVG/1.1/DTD/svg11.dtd">
<svg version="1.1" id="Layer_1" xmlns="http://www.w3.org/2000/svg" xmlns:xlink="http://www.w3.org/1999/xlink" x="0px" y="0px"
	 width="30px" height="30px" viewBox="0 0 30 30" enable-background="new 0 0 30 30" xml:space="preserve">
<g>
	<defs>
		<rect id="SVGID_1_" width="30" height="30"/>
	</defs>
	<clipPath id="SVGID_2_">
		<use xlink:href="#SVGID_1_"  overflow="visible"/>
	</clipPath>
	<rect x="7.063" y="11.487" clip-path="url(#SVGID_2_)" fill="#75432F" width="0.91" height="6.911"/>
	<rect x="23.813" y="11.487" clip-path="url(#SVGID_2_)" fill="#75432F" width="0.909" height="6.911"/>
	<polygon clip-path="url(#SVGID_2_)" fill="#BE7F4C" points="6.268,11.395 5.247,10.374 16.285,4.53 27.972,10.56 25.102,11.35 	"/>
	<rect x="6.175" y="9.261" clip-path="url(#SVGID_2_)" fill="#8E563D" width="6.956" height="0.742"/>
	<rect x="14.801" y="9.261" clip-path="url(#SVGID_2_)" fill="#8E563D" width="7.883" height="0.742"/>
	<rect x="8.587" y="7.962" clip-path="url(#SVGID_2_)" fill="#8E563D" width="7.884" height="0.742"/>
	<rect x="18.232" y="7.962" clip-path="url(#SVGID_2_)" fill="#8E563D" width="5.565" height="0.742"/>
	<rect x="15.728" y="6.107" clip-path="url(#SVGID_2_)" fill="#8E563D" width="4.639" height="0.742"/>
	<rect x="12.019" y="6.107" clip-path="url(#SVGID_2_)" fill="#8E563D" width="2.783" height="0.742"/>
	<rect x="23.52" y="9.261" clip-path="url(#SVGID_2_)" fill="#8E563D" width="1.949" height="0.742"/>
	<g clip-path="url(#SVGID_2_)">
		<defs>
			<rect id="SVGID_3_" width="30" height="30"/>
		</defs>
		<clipPath id="SVGID_4_">
			<use xlink:href="#SVGID_3_"  overflow="visible"/>
		</clipPath>
		<g opacity="0.21" clip-path="url(#SVGID_4_)">
			<g>
				<defs>
					<rect id="SVGID_5_" x="4.994" y="4.902" width="21.548" height="5.905"/>
				</defs>
				<clipPath id="SVGID_6_">
					<use xlink:href="#SVGID_5_"  overflow="visible"/>
				</clipPath>
				<polygon clip-path="url(#SVGID_6_)" fill="#75432F" points="4.994,10.807 16.286,4.902 26.542,10.559 23.813,10.559 
					16.378,6.386 8.123,10.559 				"/>
			</g>
		</g>
	</g>
	<rect x="8.656" y="11.729" clip-path="url(#SVGID_2_)" fill="#EBA975" width="13.566" height="7.579"/>
	<g clip-path="url(#SVGID_2_)">
		<defs>
			<rect id="SVGID_7_" width="30" height="30"/>
		</defs>
		<clipPath id="SVGID_8_">
			<use xlink:href="#SVGID_7_"  overflow="visible"/>
		</clipPath>
		<path clip-path="url(#SVGID_8_)" fill="#BE7F4C" d="M22.146,12.68c0,0.442-0.357,0.8-0.8,0.8c-0.441,0-0.8-0.358-0.8-0.8
			s0.358-0.8,0.8-0.8C21.788,11.88,22.146,12.238,22.146,12.68"/>
		<path clip-path="url(#SVGID_8_)" fill="#BE7F4C" d="M22.146,14.28c0,0.442-0.357,0.8-0.8,0.8c-0.441,0-0.8-0.358-0.8-0.8
			s0.358-0.8,0.8-0.8C21.788,13.48,22.146,13.838,22.146,14.28"/>
		<path clip-path="url(#SVGID_8_)" fill="#BE7F4C" d="M22.146,15.881c0,0.441-0.357,0.8-0.8,0.8c-0.441,0-0.8-0.358-0.8-0.8
			c0-0.442,0.358-0.801,0.8-0.801C21.788,15.08,22.146,15.438,22.146,15.881"/>
		<path clip-path="url(#SVGID_8_)" fill="#BE7F4C" d="M22.146,17.48c0,0.441-0.357,0.8-0.8,0.8c-0.441,0-0.8-0.358-0.8-0.8
			s0.358-0.8,0.8-0.8C21.788,16.681,22.146,17.039,22.146,17.48"/>
		<path clip-path="url(#SVGID_8_)" fill="#BE7F4C" d="M10.367,12.68c0,0.442-0.358,0.8-0.8,0.8c-0.442,0-0.8-0.358-0.8-0.8
			s0.358-0.8,0.8-0.8C10.009,11.88,10.367,12.238,10.367,12.68"/>
		<g opacity="0.59" clip-path="url(#SVGID_8_)">
			<g>
				<defs>
					<rect id="SVGID_9_" x="8.68" y="11.58" width="13.542" height="0.927"/>
				</defs>
				<clipPath id="SVGID_10_">
					<use xlink:href="#SVGID_9_"  overflow="visible"/>
				</clipPath>
				<rect x="8.68" y="11.58" clip-path="url(#SVGID_10_)" fill="#75432F" width="13.542" height="0.927"/>
			</g>
		</g>
		<path clip-path="url(#SVGID_8_)" fill="#BE7F4C" d="M10.367,14.28c0,0.442-0.358,0.8-0.8,0.8c-0.442,0-0.8-0.358-0.8-0.8
			s0.358-0.8,0.8-0.8C10.009,13.48,10.367,13.838,10.367,14.28"/>
		<path clip-path="url(#SVGID_8_)" fill="#BE7F4C" d="M10.367,15.881c0,0.441-0.358,0.8-0.8,0.8c-0.442,0-0.8-0.358-0.8-0.8
			c0-0.442,0.358-0.801,0.8-0.801C10.009,15.08,10.367,15.438,10.367,15.881"/>
		<path clip-path="url(#SVGID_8_)" fill="#BE7F4C" d="M10.367,17.48c0,0.441-0.358,0.8-0.8,0.8c-0.442,0-0.8-0.358-0.8-0.8
			s0.358-0.8,0.8-0.8C10.009,16.681,10.367,17.039,10.367,17.48"/>
		<rect x="17.688" y="13.077" clip-path="url(#SVGID_8_)" fill="#995933" width="2.479" height="5.308"/>
		<path clip-path="url(#SVGID_8_)" fill="#BE7F4C" d="M20.168,18.385h-2.479v-5.309h2.479V18.385z M20.366,12.878h-0.198h-2.48
			h-0.198v0.198v5.309v0.198h0.198h2.48h0.198v-0.198v-5.309V12.878z"/>
		<rect x="10.921" y="13.623" clip-path="url(#SVGID_8_)" fill="#FFB535" width="5.457" height="3.336"/>
		<path clip-path="url(#SVGID_8_)" fill="#BE7F4C" d="M16.378,16.959H10.92v-3.336h5.458V16.959z M16.517,13.484h-0.139H10.92
			h-0.139v0.139v3.336v0.14h0.139h5.458h0.139v-0.14v-3.336V13.484z"/>
		<rect x="10.308" y="13.064" clip-path="url(#SVGID_8_)" fill="#BE7F4C" width="6.626" height="0.557"/>
		<polygon clip-path="url(#SVGID_8_)" fill="#FFD79C" points="16.378,14.826 10.906,15.754 10.906,14.64 16.378,13.713 		"/>
		<polygon clip-path="url(#SVGID_8_)" fill="#FFD79C" points="16.378,15.847 10.906,16.774 10.906,16.032 16.378,15.104 		"/>
		<rect x="10.72" y="13.436" clip-path="url(#SVGID_8_)" fill="#BE7F4C" width="0.556" height="3.708"/>
		<rect x="10.72" y="16.589" clip-path="url(#SVGID_8_)" fill="#BE7F4C" width="5.472" height="0.556"/>
		<rect x="10.865" y="14.826" clip-path="url(#SVGID_8_)" fill="#BE7F4C" width="5.605" height="0.557"/>
		<rect x="14.708" y="13.507" clip-path="url(#SVGID_8_)" fill="#BE7F4C" width="0.536" height="3.545"/>
		<rect x="4.784" y="15.661" clip-path="url(#SVGID_8_)" fill="#7F4934" width="21.796" height="0.742"/>
		<rect x="4.335" y="11.395" clip-path="url(#SVGID_8_)" fill="#8E563D" width="0.91" height="7.609"/>
		<rect x="9.607" y="11.487" clip-path="url(#SVGID_8_)" fill="#8E563D" width="0.941" height="7.517"/>
		<rect x="15.728" y="11.487" clip-path="url(#SVGID_8_)" fill="#8E563D" width="1.021" height="7.517"/>
		<rect x="26.024" y="11.395" clip-path="url(#SVGID_8_)" fill="#8E563D" width="1.02" height="7.609"/>
		<rect x="3.949" y="10.56" clip-path="url(#SVGID_8_)" fill="#8E563D" width="23.559" height="1.206"/>
		<rect x="3.956" y="18.398" clip-path="url(#SVGID_8_)" fill="#BE7F4C" width="23.571" height="1.158"/>
		<polygon clip-path="url(#SVGID_8_)" fill="#995933" points="29,11.987 16.301,4.932 3,11.843 3.021,10.559 16.318,3.669 
			28.992,10.745 		"/>
		<rect x="17.955" y="15.198" clip-path="url(#SVGID_8_)" fill="#75432F" width="0.834" height="0.277"/>
		<rect x="3.949" y="18.629" clip-path="url(#SVGID_8_)" fill="#EBA975" width="2.69" height="0.371"/>
		<rect x="7.659" y="18.629" clip-path="url(#SVGID_8_)" fill="#EBA975" width="0.835" height="0.371"/>
		<rect x="4.32" y="12.879" clip-path="url(#SVGID_8_)" fill="#75432F" width="0.464" height="0.371"/>
		<rect x="4.785" y="16.959" clip-path="url(#SVGID_8_)" fill="#75432F" width="0.463" height="0.371"/>
		<rect x="9.607" y="17.701" clip-path="url(#SVGID_8_)" fill="#75432F" width="0.557" height="0.371"/>
		<rect x="9.978" y="13.991" clip-path="url(#SVGID_8_)" fill="#75432F" width="0.557" height="0.371"/>
		<rect x="15.729" y="13.342" clip-path="url(#SVGID_8_)" fill="#75432F" width="0.649" height="0.371"/>
		<rect x="7.102" y="12.6" clip-path="url(#SVGID_8_)" fill="#8E563D" width="0.464" height="0.371"/>
		<rect x="7.566" y="14.177" clip-path="url(#SVGID_8_)" fill="#8E563D" width="0.371" height="0.371"/>
		<rect x="23.798" y="14.177" clip-path="url(#SVGID_8_)" fill="#8E563D" width="0.371" height="0.371"/>
		<rect x="24.169" y="17.237" clip-path="url(#SVGID_8_)" fill="#8E563D" width="0.557" height="0.371"/>
		<rect x="16.192" y="16.867" clip-path="url(#SVGID_8_)" fill="#75432F" width="0.557" height="0.37"/>
		<rect x="26.025" y="17.237" clip-path="url(#SVGID_8_)" fill="#75432F" width="0.647" height="0.371"/>
		<rect x="26.487" y="14.733" clip-path="url(#SVGID_8_)" fill="#75432F" width="0.557" height="0.371"/>
		<rect x="26.18" y="18.722" clip-path="url(#SVGID_8_)" fill="#EBA975" width="1.328" height="0.371"/>
		<rect x="1" y="19.126" clip-path="url(#SVGID_8_)" fill="#995933" width="6.942" height="6.029"/>
		<rect x="2.38" y="20.046" clip-path="url(#SVGID_8_)" fill="#81452B" width="0.355" height="5.109"/>
		<rect x="4.367" y="20.046" clip-path="url(#SVGID_8_)" fill="#81452B" width="0.355" height="5.109"/>
		<rect x="6.354" y="20.046" clip-path="url(#SVGID_8_)" fill="#81452B" width="0.355" height="5.109"/>
		<g opacity="0.24" clip-path="url(#SVGID_8_)">
			<g>
				<defs>
					<rect id="SVGID_11_" x="1" y="19.08" width="6.942" height="2.672"/>
				</defs>
				<clipPath id="SVGID_12_">
					<use xlink:href="#SVGID_11_"  overflow="visible"/>
				</clipPath>
				<polygon clip-path="url(#SVGID_12_)" fill="#81452B" points="1,19.08 1,20.313 7.942,21.752 7.942,19.08 				"/>
			</g>
		</g>
		<path clip-path="url(#SVGID_8_)" fill="#03C5F9" d="M7.942,19.08c0,0.682-1.554,1.233-3.471,1.233S1,19.762,1,19.08
			c0-0.681,1.554-1.233,3.471-1.233S7.942,18.399,7.942,19.08"/>
		<path clip-path="url(#SVGID_8_)" fill="#00ADEA" d="M1.214,19.508l1.201-0.423c0.695-0.245,1.428-0.37,2.166-0.37
			c0.95,0,1.889,0.208,2.751,0.609l0.396,0.184c0,0-0.791,0.806-3.257,0.806C2.005,20.313,1.214,19.508,1.214,19.508"/>
	</g>
</g>
</svg>
