<?xml version="1.0" encoding="utf-8"?>
<!-- Generator: Adobe Illustrator 16.0.0, SVG Export Plug-In . SVG Version: 6.00 Build 0)  -->
<!DOCTYPE svg PUBLIC "-//W3C//DTD SVG 1.1//EN" "http://www.w3.org/Graphics/SVG/1.1/DTD/svg11.dtd">
<svg version="1.1" id="Layer_1" xmlns="http://www.w3.org/2000/svg" xmlns:xlink="http://www.w3.org/1999/xlink" x="0px" y="0px"
	 width="67.7px" height="40px" viewBox="0 0 67.7 40" enable-background="new 0 0 67.7 40" xml:space="preserve">
<g>
	<defs>
		<rect id="SVGID_1_" width="67.7" height="40"/>
	</defs>
	<clipPath id="SVGID_2_">
		<use xlink:href="#SVGID_1_"  overflow="visible"/>
	</clipPath>
	<g clip-path="url(#SVGID_2_)">
		<defs>
			<rect id="SVGID_3_" width="67.7" height="40"/>
		</defs>
		<clipPath id="SVGID_4_">
			<use xlink:href="#SVGID_3_"  overflow="visible"/>
		</clipPath>
		<path clip-path="url(#SVGID_4_)" fill="#44251B" d="M46.061,18.108c-1.798-2.958-5.051-4.933-8.765-4.933H25.443
			c-3.243,0-6.135,1.506-8.013,3.858c-0.347,0.433-0.036,1.075,0.519,1.075H46.061z"/>
		<rect x="42.677" y="32.139" clip-path="url(#SVGID_4_)" fill="#995933" width="3.332" height="2.051"/>
		<path clip-path="url(#SVGID_4_)" fill="#995933" d="M57.027,33.676H29.864c-5.661,0-10.251-4.589-10.251-10.25
			s4.59-10.25,10.251-10.25h27.164c5.661,0,10.25,4.589,10.25,10.25S62.688,33.676,57.027,33.676"/>
		<path clip-path="url(#SVGID_4_)" fill="#BE7F4C" d="M32.42,15.675c-2.194-1.624-5.289-1.624-7.482,0
			c-2.421,1.792-3.979,4.598-3.979,7.751s1.558,5.959,3.979,7.751c2.193,1.624,5.288,1.624,7.482,0
			c2.42-1.792,3.979-4.598,3.979-7.751S34.84,17.467,32.42,15.675"/>
		<rect x="23.393" y="18.749" clip-path="url(#SVGID_4_)" fill="#EBA975" width="9.802" height="3.523"/>
		<g opacity="0.24" clip-path="url(#SVGID_4_)">
			<g>
				<defs>
					<rect id="SVGID_5_" x="21.099" y="13.416" width="15.3" height="18.461"/>
				</defs>
				<clipPath id="SVGID_6_">
					<use xlink:href="#SVGID_5_"  overflow="visible"/>
				</clipPath>
				<path clip-path="url(#SVGID_6_)" fill="#81452B" d="M21.099,18.108c0,0,5.69-1.089,9.021,4.164
					c3.332,5.254,1.079,9.604,1.079,9.604s5.2-2.173,5.2-8.756c0-7.265-5.83-9.433-8.104-9.689
					C26.02,13.175,21.943,16.123,21.099,18.108"/>
			</g>
		</g>
		<path clip-path="url(#SVGID_4_)" fill="#75432F" d="M37.295,13.175H25.443c-0.713,0-1.41,0.074-2.082,0.212
			c2.561,0.529,4.774,2.013,6.247,4.063c0.296,0.412,0.769,0.658,1.275,0.658h15.177C44.263,15.151,41.01,13.175,37.295,13.175"/>
		<rect x="21.023" y="32.587" clip-path="url(#SVGID_4_)" fill="#75432F" width="43.885" height="2.242"/>
		<path clip-path="url(#SVGID_4_)" fill="#75432F" d="M36.911,13.133h21.141c0,0,10.251,1.324,9.227,11.189l-15.696,0.043H36.355
			c0.277-3.865-1.88-6.792-1.88-6.792"/>
		<polyline clip-path="url(#SVGID_4_)" fill="#75432F" points="42.677,13.389 50.108,6 57.027,13.432 		"/>
		<rect x="36.399" y="24.323" clip-path="url(#SVGID_4_)" fill="#75432F" width="1.28" height="1.28"/>
		<rect x="39.346" y="24.323" clip-path="url(#SVGID_4_)" fill="#75432F" width="1.281" height="1.28"/>
		<rect x="42.151" y="24.323" clip-path="url(#SVGID_4_)" fill="#75432F" width="1.28" height="1.28"/>
		<rect x="50.564" y="24.323" clip-path="url(#SVGID_4_)" fill="#75432F" width="1.28" height="1.28"/>
		<rect x="53.369" y="24.323" clip-path="url(#SVGID_4_)" fill="#75432F" width="1.281" height="1.28"/>
		<rect x="44.955" y="24.323" clip-path="url(#SVGID_4_)" fill="#75432F" width="1.281" height="1.28"/>
		<rect x="47.759" y="24.323" clip-path="url(#SVGID_4_)" fill="#75432F" width="1.282" height="1.28"/>
		<rect x="56.173" y="24.323" clip-path="url(#SVGID_4_)" fill="#75432F" width="1.281" height="1.28"/>
		<rect x="58.978" y="24.323" clip-path="url(#SVGID_4_)" fill="#75432F" width="1.281" height="1.28"/>
		<rect x="61.783" y="24.323" clip-path="url(#SVGID_4_)" fill="#75432F" width="1.281" height="1.28"/>
		<rect x="64.588" y="24.323" clip-path="url(#SVGID_4_)" fill="#75432F" width="1.281" height="1.28"/>
		<rect x="3.503" y="34.764" clip-path="url(#SVGID_4_)" fill="#8E563D" width="63.294" height="2.517"/>
		<rect x="0.35" y="37.179" clip-path="url(#SVGID_4_)" fill="#8E563D" width="66.448" height="2.518"/>
		<rect x="58.576" y="38.086" clip-path="url(#SVGID_4_)" fill="#81452B" width="8.222" height="0.805"/>
		<rect x="3.616" y="35.67" clip-path="url(#SVGID_4_)" fill="#81452B" width="8.221" height="0.806"/>
		<rect x="17.018" y="35.67" clip-path="url(#SVGID_4_)" fill="#81452B" width="3.154" height="0.806"/>
		<rect x="41.457" y="38.086" clip-path="url(#SVGID_4_)" fill="#81452B" width="3.153" height="0.805"/>
	</g>
</g>
</svg>
