<svg xmlns="http://www.w3.org/2000/svg" xmlns:xlink="http://www.w3.org/1999/xlink" xml:space="preserve" width="67.7" height="40"><defs><path id="a" d="M0 0h67.7v40H0z"/></defs><clipPath id="b"><use xlink:href="#a" overflow="visible"/></clipPath><g clip-path="url(#b)"><defs><path id="c" d="M0 0h67.7v40H0z"/></defs><clipPath id="d"><use xlink:href="#c" overflow="visible"/></clipPath><path fill="#44251B" d="M46.061 18.108a10.244 10.244 0 0 0-8.765-4.933H25.443a10.23 10.23 0 0 0-8.013 3.858.662.662 0 0 0 .519 1.075h28.112z" clip-path="url(#d)"/><path fill="#995933" d="M42.677 32.139h3.332v2.051h-3.332z" clip-path="url(#d)"/><path fill="#995933" d="M57.027 33.676H29.864c-5.661 0-10.251-4.589-10.251-10.25s4.59-10.25 10.251-10.25h27.164c5.661 0 10.25 4.589 10.25 10.25s-4.59 10.25-10.251 10.25" clip-path="url(#d)"/><path fill="#BE7F4C" d="M32.42 15.675c-2.194-1.624-5.289-1.624-7.482 0-2.421 1.792-3.979 4.598-3.979 7.751s1.558 5.959 3.979 7.751c2.193 1.624 5.288 1.624 7.482 0 2.42-1.792 3.979-4.598 3.979-7.751s-1.559-5.959-3.979-7.751" clip-path="url(#d)"/><path fill="#EBA975" d="M23.393 18.749h9.802v3.523h-9.802z" clip-path="url(#d)"/><g clip-path="url(#d)" opacity=".24"><defs><path id="e" d="M21.099 13.416h15.3v18.461h-15.3z"/></defs><clipPath id="f"><use xlink:href="#e" overflow="visible"/></clipPath><path fill="#81452B" d="M21.099 18.108s5.69-1.089 9.021 4.164c3.332 5.254 1.079 9.604 1.079 9.604s5.2-2.173 5.2-8.756c0-7.265-5.83-9.433-8.104-9.689-2.275-.256-6.352 2.692-7.196 4.677" clip-path="url(#f)"/></g><path fill="#75432F" d="M37.295 13.175H25.443c-.713 0-1.41.074-2.082.212a10.258 10.258 0 0 1 6.247 4.063 1.57 1.57 0 0 0 1.275.658H46.06a10.243 10.243 0 0 0-8.765-4.933M21.023 32.587h43.885v2.242H21.023z" clip-path="url(#d)"/><path fill="#75432F" d="M36.911 13.133h21.141s10.251 1.324 9.227 11.189l-15.696.043H36.355c.277-3.865-1.88-6.792-1.88-6.792" clip-path="url(#d)"/><path fill="#75432F" d="M42.677 13.389 50.108 6l6.919 7.432M36.399 24.323h1.28v1.28h-1.28zM39.346 24.323h1.281v1.28h-1.281zM42.151 24.323h1.28v1.28h-1.28zM50.564 24.323h1.28v1.28h-1.28zM53.369 24.323h1.281v1.28h-1.281zM44.955 24.323h1.281v1.28h-1.281zM47.759 24.323h1.282v1.28h-1.282zM56.173 24.323h1.281v1.28h-1.281zM58.978 24.323h1.281v1.28h-1.281zM61.783 24.323h1.281v1.28h-1.281zM64.588 24.323h1.281v1.28h-1.281z" clip-path="url(#d)"/><path fill="#8E563D" d="M3.503 34.764h63.294v2.517H3.503z" clip-path="url(#d)"/><path fill="#8E563D" d="M.35 37.179h66.448v2.518H.35z" clip-path="url(#d)"/><path fill="#81452B" d="M58.576 38.086h8.222v.805h-8.222zM3.616 35.67h8.221v.806H3.616zM17.018 35.67h3.154v.806h-3.154zM41.457 38.086h3.153v.805h-3.153z" clip-path="url(#d)"/></g></svg>