<?xml version="1.0" encoding="utf-8"?>
<!-- Generator: Adobe Illustrator 16.0.0, SVG Export Plug-In . SVG Version: 6.00 Build 0)  -->
<!DOCTYPE svg PUBLIC "-//W3C//DTD SVG 1.1//EN" "http://www.w3.org/Graphics/SVG/1.1/DTD/svg11.dtd">
<svg version="1.1" id="Layer_1" xmlns="http://www.w3.org/2000/svg" xmlns:xlink="http://www.w3.org/1999/xlink" x="0px" y="0px"
	 width="67.7px" height="40px" viewBox="0 0 67.7 40" enable-background="new 0 0 67.7 40" xml:space="preserve">
<g>
	<defs>
		<rect id="SVGID_1_" y="-6" width="67.7" height="40"/>
	</defs>
	<clipPath id="SVGID_2_">
		<use xlink:href="#SVGID_1_"  overflow="visible"/>
	</clipPath>
	<g clip-path="url(#SVGID_2_)">
		<defs>
			<rect id="SVGID_3_" y="-6" width="67.7" height="40"/>
		</defs>
		<clipPath id="SVGID_4_">
			<use xlink:href="#SVGID_3_"  overflow="visible"/>
		</clipPath>
		<path clip-path="url(#SVGID_4_)" fill="#44251B" d="M50.847,15.867c-1.394-2.292-3.916-3.824-6.794-3.824h-9.188
			c-2.514,0-4.756,1.168-6.212,2.991c-0.268,0.336-0.027,0.833,0.402,0.833H50.847z"/>
		<rect x="48.224" y="26.743" clip-path="url(#SVGID_4_)" fill="#995933" width="2.583" height="1.59"/>
		<path clip-path="url(#SVGID_4_)" fill="#995933" d="M59.415,27.936h-21.19c-4.352,0-7.879-3.527-7.879-7.879v-0.134
			c0-4.352,3.527-7.879,7.879-7.879h21.19c4.352,0,7.879,3.528,7.879,7.879v0.134C67.294,24.408,63.767,27.936,59.415,27.936"/>
		<path clip-path="url(#SVGID_4_)" fill="#BE7F4C" d="M40.272,13.981c-1.7-1.259-4.1-1.259-5.8,0
			c-1.876,1.389-3.084,3.564-3.084,6.008s1.208,4.619,3.084,6.009c1.7,1.259,4.1,1.259,5.8,0c1.876-1.39,3.084-3.564,3.084-6.009
			S42.148,15.37,40.272,13.981"/>
		<rect x="33.276" y="16.365" clip-path="url(#SVGID_4_)" fill="#EBA975" width="7.598" height="2.73"/>
		<g opacity="0.24" clip-path="url(#SVGID_4_)">
			<g>
				<defs>
					<rect id="SVGID_5_" x="31.497" y="12.23" width="11.86" height="14.311"/>
				</defs>
				<clipPath id="SVGID_6_">
					<use xlink:href="#SVGID_5_"  overflow="visible"/>
				</clipPath>
				<path clip-path="url(#SVGID_6_)" fill="#81452B" d="M31.497,15.867c0,0,4.411-0.844,6.993,3.229
					c2.583,4.071,0.837,7.444,0.837,7.444s4.03-1.685,4.03-6.787c0-5.633-4.52-7.313-6.282-7.512
					C35.312,12.043,32.152,14.328,31.497,15.867"/>
			</g>
		</g>
		<path clip-path="url(#SVGID_4_)" fill="#75432F" d="M44.053,12.043h-9.188c-0.553,0-1.092,0.057-1.613,0.165
			c1.985,0.41,3.7,1.56,4.844,3.149c0.229,0.319,0.595,0.51,0.987,0.51h11.765C49.452,13.576,46.932,12.043,44.053,12.043"/>
		<rect x="31.438" y="27.091" clip-path="url(#SVGID_4_)" fill="#75432F" width="34.018" height="1.738"/>
		<path clip-path="url(#SVGID_4_)" fill="#75432F" d="M43.754,12.011h16.389c0,0,7.945,1.026,7.151,8.674l-12.167,0.033H43.324
			c0.215-2.996-1.457-5.264-1.457-5.264"/>
		<polyline clip-path="url(#SVGID_4_)" fill="#75432F" points="48.224,12.209 53.985,6.481 59.348,12.242 		"/>
		<rect x="43.357" y="20.685" clip-path="url(#SVGID_4_)" fill="#75432F" width="0.992" height="0.993"/>
		<rect x="45.642" y="20.685" clip-path="url(#SVGID_4_)" fill="#75432F" width="0.993" height="0.993"/>
		<rect x="47.816" y="20.685" clip-path="url(#SVGID_4_)" fill="#75432F" width="0.992" height="0.993"/>
		<rect x="54.338" y="20.685" clip-path="url(#SVGID_4_)" fill="#75432F" width="0.993" height="0.993"/>
		<rect x="56.512" y="20.685" clip-path="url(#SVGID_4_)" fill="#75432F" width="0.993" height="0.993"/>
		<rect x="49.99" y="20.685" clip-path="url(#SVGID_4_)" fill="#75432F" width="0.993" height="0.993"/>
		<rect x="52.164" y="20.685" clip-path="url(#SVGID_4_)" fill="#75432F" width="0.993" height="0.993"/>
		<rect x="58.686" y="20.685" clip-path="url(#SVGID_4_)" fill="#75432F" width="0.993" height="0.993"/>
		<rect x="60.86" y="20.685" clip-path="url(#SVGID_4_)" fill="#75432F" width="0.992" height="0.993"/>
		<rect x="63.034" y="20.685" clip-path="url(#SVGID_4_)" fill="#75432F" width="0.994" height="0.993"/>
		<rect x="65.209" y="20.685" clip-path="url(#SVGID_4_)" fill="#75432F" width="0.993" height="0.993"/>
		<rect x="9.388" y="19.83" clip-path="url(#SVGID_4_)" fill="#995933" width="11.621" height="10.092"/>
		<rect x="11.699" y="21.369" clip-path="url(#SVGID_4_)" fill="#81452B" width="0.595" height="8.553"/>
		<rect x="15.024" y="21.369" clip-path="url(#SVGID_4_)" fill="#81452B" width="0.595" height="8.553"/>
		<rect x="18.35" y="21.369" clip-path="url(#SVGID_4_)" fill="#81452B" width="0.595" height="8.553"/>
		<g opacity="0.24" clip-path="url(#SVGID_4_)">
			<g>
				<defs>
					<rect id="SVGID_7_" x="9.389" y="19.754" width="11.621" height="4.473"/>
				</defs>
				<clipPath id="SVGID_8_">
					<use xlink:href="#SVGID_7_"  overflow="visible"/>
				</clipPath>
				<polygon clip-path="url(#SVGID_8_)" fill="#81452B" points="9.389,19.754 9.389,21.818 21.01,24.227 21.01,19.754 				"/>
			</g>
		</g>
		<path clip-path="url(#SVGID_4_)" fill="#03C5F9" d="M21.009,19.754c0,1.14-2.601,2.064-5.81,2.064
			c-3.21,0-5.811-0.925-5.811-2.064c0-1.141,2.601-2.064,5.811-2.064C18.408,17.689,21.009,18.613,21.009,19.754"/>
		<path clip-path="url(#SVGID_4_)" fill="#00ADEA" d="M9.748,20.47l2.01-0.708c1.164-0.41,2.39-0.62,3.625-0.62
			c1.592,0,3.163,0.349,4.606,1.02l0.662,0.309c0,0-1.323,1.349-5.451,1.349C11.07,21.818,9.748,20.47,9.748,20.47"/>
		<rect x="3.503" y="28.764" clip-path="url(#SVGID_4_)" fill="#8E563D" width="63.294" height="2.517"/>
		<rect x="0.35" y="31.179" clip-path="url(#SVGID_4_)" fill="#8E563D" width="66.448" height="2.518"/>
		<rect x="58.576" y="32.086" clip-path="url(#SVGID_4_)" fill="#81452B" width="8.222" height="0.805"/>
		<rect x="3.616" y="29.67" clip-path="url(#SVGID_4_)" fill="#81452B" width="8.221" height="0.806"/>
		<rect x="17.018" y="29.67" clip-path="url(#SVGID_4_)" fill="#81452B" width="3.154" height="0.806"/>
		<rect x="41.457" y="32.086" clip-path="url(#SVGID_4_)" fill="#81452B" width="3.153" height="0.805"/>
	</g>
</g>
</svg>
