<svg xmlns="http://www.w3.org/2000/svg" xmlns:xlink="http://www.w3.org/1999/xlink" xml:space="preserve" width="40" height="40"><defs><path id="a" d="M-2.167-10.333h40v40h-40z"/></defs><clipPath id="b"><use xlink:href="#a" overflow="visible"/></clipPath><path fill="#44251B" d="M26.875 15.817a7.997 7.997 0 0 0-6.842-3.851h-9.25a7.985 7.985 0 0 0-6.254 3.011.518.518 0 0 0 .405.84h21.941z" clip-path="url(#b)"/><path fill="#995933" d="M14.734 26.767h2.6v1.602h-2.6z" clip-path="url(#b)"/><path fill="#995933" d="M25.934 27.967H15.733a8 8 0 1 1 0-16h10.201a8 8 0 0 1 0 16" clip-path="url(#b)"/><path fill="#BE7F4C" d="M17.628 13.918c-1.712-1.268-4.127-1.268-5.84 0-1.889 1.398-3.105 3.588-3.105 6.049s1.216 4.65 3.105 6.05c1.713 1.268 4.128 1.268 5.84 0 1.889-1.399 3.104-3.589 3.104-6.05s-1.214-4.651-3.104-6.049" clip-path="url(#b)"/><path fill="#EBA975" d="M10.583 16.317h1.35v1.5h-1.35zM12.733 14.867h3.7v11.1h-3.7z" clip-path="url(#b)"/><path fill="#75432F" d="M20.033 11.967h-9.25c-.557 0-1.101.058-1.625.166a8 8 0 0 1 4.876 3.171c.23.321.6.514.994.514h11.846a7.994 7.994 0 0 0-6.841-3.851M9.483 27.117h22.601v1.75H9.483z" clip-path="url(#b)"/><path fill="#75432F" d="M10.233 11.934h16.499s8.467 1.083 7.008 9.783h-.457v-1h-.9v1h-.9v-1h-.898v1h-1v-1h-.9v1h-1.201v-1h-.898v1h-1.102v-1h-1v1h-.898v-1h-1v1h-.9V20.7h-.984c.217-3.017-1.467-5.3-1.467-5.3" clip-path="url(#b)"/></svg>