<svg xmlns="http://www.w3.org/2000/svg" xmlns:xlink="http://www.w3.org/1999/xlink" xml:space="preserve" width="40" height="40"><defs><path id="a" d="M0-8h40v40H0z"/></defs><clipPath id="b"><use xlink:href="#a" overflow="visible"/></clipPath><path fill="#EBA975" d="M.898 10.838h38.304v20.349H.898z" clip-path="url(#b)"/><path fill="#FFB535" d="M3.059 14.474h7.525v7.525H3.059z" clip-path="url(#b)"/><path fill="#BE7F4C" d="M1.696 25.003h10.075v1.396H1.696zM14.763 25.003h15.561v1.396H14.763zM1.696 28.395h4.987v1.396H1.696zM9.277 28.395h9.975v1.396H9.277zM22.144 28.395h16.261v1.396H22.144zM2.594 13.93h8.534v.543H2.594z" clip-path="url(#b)"/><path fill="#FFDDB0" d="m10.624 17.372-7.283 2.194v-2.194l7.283-2.194z" clip-path="url(#b)"/><g clip-path="url(#b)"><defs><path id="c" d="M0-8h40v40H0z"/></defs><clipPath id="d"><use xlink:href="#c" overflow="visible"/></clipPath><g clip-path="url(#d)" opacity=".41"><defs><path id="e" d="M.898 11.736h38.304v1.996H.898z"/></defs><clipPath id="f"><use xlink:href="#e" overflow="visible"/></clipPath><path fill="#995933" d="M.898 11.735h38.304v1.996H.898z" clip-path="url(#f)"/></g></g><path fill="#BE7F4C" d="M3.059 21.999h7.836v.543H3.059z" clip-path="url(#b)"/><path fill="#BE7F4C" d="M2.826 14.163h.543v8.688h-.543zM10.352 14.163h.544v8.688h-.544zM5.697 14.163h.543v8.068h-.543z" clip-path="url(#b)"/><path fill="#FFB535" d="M11.981 14.474h7.526v7.525h-7.526z" clip-path="url(#b)"/><path fill="#BE7F4C" d="M11.516 13.93h8.535v.543h-8.535z" clip-path="url(#b)"/><path fill="#FFDDB0" d="m19.451 18.868-7.282 2.195v-2.195l7.282-2.194z" clip-path="url(#b)"/><path fill="#BE7F4C" d="M11.981 21.999h7.836v.543h-7.836z" clip-path="url(#b)"/><path fill="#BE7F4C" d="M11.749 14.163h.543v8.688h-.543zM19.273 14.163h.544v8.688h-.544zM14.619 14.163h.544v8.068h-.544z" clip-path="url(#b)"/><path fill="#FFB535" d="M21.059 14.474h7.525v7.525h-7.525z" clip-path="url(#b)"/><path fill="#BE7F4C" d="M20.593 13.93h8.534v.543h-8.534z" clip-path="url(#b)"/><path fill="#FFDDB0" d="m28.528 16.674-7.281 2.194v-2.194l7.281-2.195z" clip-path="url(#b)"/><path fill="#BE7F4C" d="M21.058 21.999h7.836v.543h-7.836z" clip-path="url(#b)"/><path fill="#BE7F4C" d="M20.826 14.163h.543v8.688h-.543zM28.352 14.163h.543v8.688h-.543zM23.696 14.163h.544v8.068h-.544z" clip-path="url(#b)"/><path fill="#995933" d="M.898 10.838h.797v20.349H.898zM38.404 10.838h.798v20.349h-.798z" clip-path="url(#b)"/><path fill="#BE7F4C" d="M30.698 14.828h6.085v12.769h-6.085z" clip-path="url(#b)"/><path fill="#995933" d="M30.05 14.03h7.382v1.098H30.05z" clip-path="url(#b)"/><path fill="#75432F" d="m21.36 31.19 1.555-.003 4.259-4.259-1.51-.04z" clip-path="url(#b)"/><path fill="#995933" d="M30.325 14.429h.797v13.167h-.797zM36.41 14.429h.797v13.167h-.797z" clip-path="url(#b)"/><path fill="#75432F" d="M25.636 26h12.47v1.796h-12.47z" clip-path="url(#b)"/><path fill="#75432F" d="M26.135 27.197h1.396v3.989h-1.396zM36.708 27.197h1.396v3.989h-1.396zM31.622 27.197h1.396v3.989h-1.396z" clip-path="url(#b)"/><path fill="#75432F" d="M26.845 28.507h5.862v1.194h-5.862z" clip-path="url(#b)" transform="rotate(-150.009 29.776 29.104)"/><path fill="#75432F" d="M34.466 26.173h1.193v5.861h-1.193z" clip-path="url(#b)" transform="scale(-1) rotate(59.994 50.414 -60.737)"/><path fill="#995933" d="M0 9.741h40v1.995H0zM31.622 19.716h2.094v.998h-2.094z" clip-path="url(#b)"/></svg>