<?xml version="1.0" encoding="utf-8"?>
<!-- Generator: Adobe Illustrator 16.0.0, SVG Export Plug-In . SVG Version: 6.00 Build 0)  -->
<!DOCTYPE svg PUBLIC "-//W3C//DTD SVG 1.1//EN" "http://www.w3.org/Graphics/SVG/1.1/DTD/svg11.dtd">
<svg version="1.1" id="Layer_1" xmlns="http://www.w3.org/2000/svg" xmlns:xlink="http://www.w3.org/1999/xlink" x="0px" y="0px"
	 width="40px" height="40px" viewBox="0 0 40 40" enable-background="new 0 0 40 40" xml:space="preserve">
<g>
	<defs>
		<rect id="SVGID_1_" y="-8" width="40" height="40"/>
	</defs>
	<clipPath id="SVGID_2_">
		<use xlink:href="#SVGID_1_"  overflow="visible"/>
	</clipPath>
	<rect x="0.898" y="10.838" clip-path="url(#SVGID_2_)" fill="#EBA975" width="38.304" height="20.349"/>
	<rect x="3.059" y="14.474" clip-path="url(#SVGID_2_)" fill="#FFB535" width="7.525" height="7.525"/>
	<rect x="1.696" y="25.003" clip-path="url(#SVGID_2_)" fill="#BE7F4C" width="10.075" height="1.396"/>
	<rect x="14.763" y="25.003" clip-path="url(#SVGID_2_)" fill="#BE7F4C" width="15.561" height="1.396"/>
	<rect x="1.696" y="28.395" clip-path="url(#SVGID_2_)" fill="#BE7F4C" width="4.987" height="1.396"/>
	<rect x="9.277" y="28.395" clip-path="url(#SVGID_2_)" fill="#BE7F4C" width="9.975" height="1.396"/>
	<rect x="22.144" y="28.395" clip-path="url(#SVGID_2_)" fill="#BE7F4C" width="16.261" height="1.396"/>
	<rect x="2.594" y="13.93" clip-path="url(#SVGID_2_)" fill="#BE7F4C" width="8.534" height="0.543"/>
	<polygon clip-path="url(#SVGID_2_)" fill="#FFDDB0" points="10.624,17.372 3.341,19.566 3.341,17.372 10.624,15.178 	"/>
	<g clip-path="url(#SVGID_2_)">
		<defs>
			<rect id="SVGID_3_" y="-8" width="40" height="40"/>
		</defs>
		<clipPath id="SVGID_4_">
			<use xlink:href="#SVGID_3_"  overflow="visible"/>
		</clipPath>
		<g opacity="0.41" clip-path="url(#SVGID_4_)">
			<g>
				<defs>
					<rect id="SVGID_5_" x="0.898" y="11.736" width="38.304" height="1.996"/>
				</defs>
				<clipPath id="SVGID_6_">
					<use xlink:href="#SVGID_5_"  overflow="visible"/>
				</clipPath>
				<rect x="0.898" y="11.735" clip-path="url(#SVGID_6_)" fill="#995933" width="38.304" height="1.996"/>
			</g>
		</g>
	</g>
	<rect x="3.059" y="21.999" clip-path="url(#SVGID_2_)" fill="#BE7F4C" width="7.836" height="0.543"/>
	<rect x="2.826" y="14.163" clip-path="url(#SVGID_2_)" fill="#BE7F4C" width="0.543" height="8.688"/>
	<rect x="10.352" y="14.163" clip-path="url(#SVGID_2_)" fill="#BE7F4C" width="0.544" height="8.688"/>
	<rect x="5.697" y="14.163" clip-path="url(#SVGID_2_)" fill="#BE7F4C" width="0.543" height="8.068"/>
	<rect x="11.981" y="14.474" clip-path="url(#SVGID_2_)" fill="#FFB535" width="7.526" height="7.525"/>
	<rect x="11.516" y="13.93" clip-path="url(#SVGID_2_)" fill="#BE7F4C" width="8.535" height="0.543"/>
	<polygon clip-path="url(#SVGID_2_)" fill="#FFDDB0" points="19.451,18.868 12.169,21.063 12.169,18.868 19.451,16.674 	"/>
	<rect x="11.981" y="21.999" clip-path="url(#SVGID_2_)" fill="#BE7F4C" width="7.836" height="0.543"/>
	<rect x="11.749" y="14.163" clip-path="url(#SVGID_2_)" fill="#BE7F4C" width="0.543" height="8.688"/>
	<rect x="19.273" y="14.163" clip-path="url(#SVGID_2_)" fill="#BE7F4C" width="0.544" height="8.688"/>
	<rect x="14.619" y="14.163" clip-path="url(#SVGID_2_)" fill="#BE7F4C" width="0.544" height="8.068"/>
	<rect x="21.059" y="14.474" clip-path="url(#SVGID_2_)" fill="#FFB535" width="7.525" height="7.525"/>
	<rect x="20.593" y="13.93" clip-path="url(#SVGID_2_)" fill="#BE7F4C" width="8.534" height="0.543"/>
	<polygon clip-path="url(#SVGID_2_)" fill="#FFDDB0" points="28.528,16.674 21.247,18.868 21.247,16.674 28.528,14.479 	"/>
	<rect x="21.058" y="21.999" clip-path="url(#SVGID_2_)" fill="#BE7F4C" width="7.836" height="0.543"/>
	<rect x="20.826" y="14.163" clip-path="url(#SVGID_2_)" fill="#BE7F4C" width="0.543" height="8.688"/>
	<rect x="28.352" y="14.163" clip-path="url(#SVGID_2_)" fill="#BE7F4C" width="0.543" height="8.688"/>
	<rect x="23.696" y="14.163" clip-path="url(#SVGID_2_)" fill="#BE7F4C" width="0.544" height="8.068"/>
	<rect x="0.898" y="10.838" clip-path="url(#SVGID_2_)" fill="#995933" width="0.797" height="20.349"/>
	<rect x="38.404" y="10.838" clip-path="url(#SVGID_2_)" fill="#995933" width="0.798" height="20.349"/>
	<rect x="30.698" y="14.828" clip-path="url(#SVGID_2_)" fill="#BE7F4C" width="6.085" height="12.769"/>
	<rect x="30.05" y="14.03" clip-path="url(#SVGID_2_)" fill="#995933" width="7.382" height="1.098"/>
	<polygon clip-path="url(#SVGID_2_)" fill="#75432F" points="21.36,31.19 22.915,31.187 27.174,26.928 25.664,26.888 	"/>
	<rect x="30.325" y="14.429" clip-path="url(#SVGID_2_)" fill="#995933" width="0.797" height="13.167"/>
	<rect x="36.41" y="14.429" clip-path="url(#SVGID_2_)" fill="#995933" width="0.797" height="13.167"/>
	<rect x="25.636" y="26" clip-path="url(#SVGID_2_)" fill="#75432F" width="12.47" height="1.796"/>
	<rect x="26.135" y="27.197" clip-path="url(#SVGID_2_)" fill="#75432F" width="1.396" height="3.989"/>
	<rect x="36.708" y="27.197" clip-path="url(#SVGID_2_)" fill="#75432F" width="1.396" height="3.989"/>
	<rect x="31.622" y="27.197" clip-path="url(#SVGID_2_)" fill="#75432F" width="1.396" height="3.989"/>
	
		<rect x="26.845" y="28.507" transform="matrix(-0.8661 -0.4999 0.4999 -0.8661 41.0154 69.195)" clip-path="url(#SVGID_2_)" fill="#75432F" width="5.862" height="1.194"/>
	
		<rect x="34.466" y="26.173" transform="matrix(-0.5001 -0.866 0.866 -0.5001 27.3949 74.0223)" clip-path="url(#SVGID_2_)" fill="#75432F" width="1.193" height="5.861"/>
	<rect y="9.741" clip-path="url(#SVGID_2_)" fill="#995933" width="40" height="1.995"/>
	<rect x="31.622" y="19.716" clip-path="url(#SVGID_2_)" fill="#995933" width="2.094" height="0.998"/>
</g>
</svg>
