<svg xmlns="http://www.w3.org/2000/svg" xmlns:xlink="http://www.w3.org/1999/xlink" xml:space="preserve" width="40" height="40"><defs><path id="a" d="M0-7h40v40H0z"/></defs><clipPath id="b"><use xlink:href="#a" overflow="visible"/></clipPath><path fill="#EBA975" d="M1.98 9.651h36.04v20.99H1.98z" clip-path="url(#b)"/><path fill="#A3683D" d="M5.017 15.591h10.165v16.237H5.017z" clip-path="url(#b)"/><path fill="#BE7F4C" d="M6.073 16.515h8.052V32.62H6.073z" clip-path="url(#b)"/><path fill="#A3683D" d="M18.239 15.327h16.327V29.32H18.239z" clip-path="url(#b)"/><path fill="#FFB535" d="M19.934 16.779h12.937v11.089H19.934z" clip-path="url(#b)"/><path fill="#8E563D" d="M0 8.594h40v2.904H0z" clip-path="url(#b)"/><path fill="#BE7F4C" d="M.396 30.64h39.34V33H.396z" clip-path="url(#b)"/><path fill="#A3683D" d="M36.75 31.278h2.986v.967H36.75zM.396 30.617H15.71v.969H.396z" clip-path="url(#b)"/><path fill="#FFD89F" d="m32.871 21.663-12.937 3.433v-3.168l12.937-3.433z" clip-path="url(#b)"/><path fill="#A3683D" d="M7.261 23.907h2.904v1.057H7.261z" clip-path="url(#b)"/><path fill="#BE7F4C" d="M1.98 12.819h2.641v2.245H1.98zM35.776 14.667h2.243v2.244h-2.243z" clip-path="url(#b)"/><g clip-path="url(#b)"><defs><path id="c" d="M0-7h40v40H0z"/></defs><clipPath id="d"><use xlink:href="#c" overflow="visible"/></clipPath><g clip-path="url(#d)" opacity=".39"><defs><path id="e" d="M1.98 11.499h36.04v2.508H1.98z"/></defs><clipPath id="f"><use xlink:href="#e" overflow="visible"/></clipPath><path fill="#8E563D" d="M1.98 11.499h36.04v2.508H1.98z" clip-path="url(#f)"/></g></g></svg>