<?xml version="1.0" encoding="utf-8"?>
<!-- Generator: Adobe Illustrator 16.0.0, SVG Export Plug-In . SVG Version: 6.00 Build 0)  -->
<!DOCTYPE svg PUBLIC "-//W3C//DTD SVG 1.1//EN" "http://www.w3.org/Graphics/SVG/1.1/DTD/svg11.dtd">
<svg version="1.1" id="Layer_1" xmlns="http://www.w3.org/2000/svg" xmlns:xlink="http://www.w3.org/1999/xlink" x="0px" y="0px"
	 width="40px" height="40px" viewBox="0 0 40 40" enable-background="new 0 0 40 40" xml:space="preserve">
<g>
	<defs>
		<rect id="SVGID_1_" y="-7" width="40" height="40"/>
	</defs>
	<clipPath id="SVGID_2_">
		<use xlink:href="#SVGID_1_"  overflow="visible"/>
	</clipPath>
	<rect x="1.98" y="9.651" clip-path="url(#SVGID_2_)" fill="#EBA975" width="36.04" height="20.99"/>
	<rect x="5.017" y="15.591" clip-path="url(#SVGID_2_)" fill="#A3683D" width="10.165" height="16.237"/>
	<rect x="6.073" y="16.515" clip-path="url(#SVGID_2_)" fill="#BE7F4C" width="8.052" height="16.105"/>
	<rect x="18.239" y="15.327" clip-path="url(#SVGID_2_)" fill="#A3683D" width="16.327" height="13.993"/>
	<rect x="19.934" y="16.779" clip-path="url(#SVGID_2_)" fill="#FFB535" width="12.937" height="11.089"/>
	<rect y="8.594" clip-path="url(#SVGID_2_)" fill="#8E563D" width="40" height="2.904"/>
	<rect x="0.396" y="30.64" clip-path="url(#SVGID_2_)" fill="#BE7F4C" width="39.34" height="2.36"/>
	<rect x="36.75" y="31.278" clip-path="url(#SVGID_2_)" fill="#A3683D" width="2.986" height="0.967"/>
	<rect x="0.396" y="30.617" clip-path="url(#SVGID_2_)" fill="#A3683D" width="15.314" height="0.969"/>
	<polygon clip-path="url(#SVGID_2_)" fill="#FFD89F" points="32.871,21.663 19.934,25.096 19.934,21.928 32.871,18.495 	"/>
	<rect x="7.261" y="23.907" clip-path="url(#SVGID_2_)" fill="#A3683D" width="2.904" height="1.057"/>
	<rect x="1.98" y="12.819" clip-path="url(#SVGID_2_)" fill="#BE7F4C" width="2.641" height="2.245"/>
	<rect x="35.776" y="14.667" clip-path="url(#SVGID_2_)" fill="#BE7F4C" width="2.243" height="2.244"/>
	<g clip-path="url(#SVGID_2_)">
		<defs>
			<rect id="SVGID_3_" y="-7" width="40" height="40"/>
		</defs>
		<clipPath id="SVGID_4_">
			<use xlink:href="#SVGID_3_"  overflow="visible"/>
		</clipPath>
		<g opacity="0.39" clip-path="url(#SVGID_4_)">
			<g>
				<defs>
					<rect id="SVGID_5_" x="1.98" y="11.499" width="36.04" height="2.508"/>
				</defs>
				<clipPath id="SVGID_6_">
					<use xlink:href="#SVGID_5_"  overflow="visible"/>
				</clipPath>
				<rect x="1.98" y="11.499" clip-path="url(#SVGID_6_)" fill="#8E563D" width="36.04" height="2.508"/>
			</g>
		</g>
	</g>
</g>
</svg>
