<svg xmlns="http://www.w3.org/2000/svg" xml:space="preserve" viewBox="0 0 512 512"><path fill="#FFF" d="M1 430V1.067h512c0 142.624 0 285.314-.293 428.386-.765-.233-1.236-.847-1.838-1.776-3.353-2.12-6.573-3.927-9.825-6.198-.702-30.33-1.694-60.191-1.962-90.06-.337-37.65-.081-75.306-.081-112.96v-4.927c-48.808-.544-96.877-1.08-144.967-2.079-.009-13.805.002-27.148.468-40.481 4.123-.058 7.792-.126 11.845-.127 15.116 5.79 29.848 11.513 44.618 17.694.043 3.406.033 6.355.055 9.303.053 7.186 5.324 10.321 12.442 7.16 1.434-2.543 3.382-5.057 3.4-7.585.214-29.582.07-59.167.225-88.75.02-3.599-1.071-6.001-4.274-8.06-9.173-1.037-11.763 1.375-11.814 10.33-.015 2.646-.23 5.291-.722 7.955-4.967 1.74-9.61 3.353-14.155 5.209-9.807 4.004-19.564 8.132-29.782 12.122-9.509-.134-18.576-.16-27.643-.235-6.594-.054-11.024 3.054-13.587 9.533-.081 3.908-.297 7.37-.045 10.8.192 2.61.653 5.302 1.57 7.74 1.923 5.119 6.903 5.607 11.34 7.217-1.111 2.457-1.811 4.964-3.427 6.52-10.348 9.962-20.939 19.672-31.324 29.597-1.182 1.13-1.583 3.076-2.807 4.63-19.095-.035-37.73-.057-56.385-.544-.005-8.455.011-16.446.491-24.455 4.782-.02 9.102.063 13.417-.048 5.493-.143 11.395-3.175 11.54-7.27.31-8.715 3.66-18.245-4.111-25.742 8.719-5.617 9.786-9.179 8.528-17.567-.683-4.556-7.141-9.342-12.531-9.35-29.791-.044-59.582.064-89.837.052-25.9-.01-51.337.046-77.223.035-5.598-.082-10.749-.155-15.898-.097-4.687.053-8.61 2.013-11.293 5.773-4.692 6.574-3.237 16.393 6.743 21.542-1.655 3.07-4.155 5.652-4.636 8.567-.77 4.678-.418 9.588-.142 14.377.26 4.495 2.653 8.004 7.245 8.598 6.162.798 12.424.82 18.655 1.637-.003 8.446-.018 16.428-.497 24.433-27.342.338-54.22.653-81.484.972v6.505c-.023 67.5-.046 134.999-.44 202.527-3.433 2.031-6.496 4.032-9.836 6.157-.76.706-1.241 1.29-1.723 1.873m98.879-315.02c55.597.006 111.194.013 166.792.018.998 0 2.02.121 2.992-.04 7.565-1.262 10.917-7.592 6.29-13.218-1.92-2.333-6.398-3.565-9.723-3.586-38.117-.242-76.237-.172-114.356-.146-17.64.012-35.28.108-53.841.022-8.823-.006-17.658-.282-26.46.134-2.913.137-6.25 1.448-8.478 3.315-2.626 2.2-3.37 6.142-.817 8.81 2.091 2.186 5.367 4.334 8.226 4.488 9.454.507 18.957.104 29.375.203m44.142-90.932c-11.734.361-23.826-.967-35.126 1.433-24.06 5.112-40.432 25.474-39.89 50.616.12 5.522 2.628 9.308 8.293 9.756 10.189.806 20.449.703 31.608 1.134 30.625.004 61.251.01 91.877.013 18.475.002 36.952.17 55.424-.073 9.015-.118 14.278-3.505 13.765-13.746-.122-2.439-.512-4.873-.914-7.287-4.106-24.683-24.233-40.606-46.743-41.612-25.741-1.15-51.577-.17-78.294-.234m324.428 83.745c-7.439 2.693-14.89 5.353-22.311 8.09-5.756 2.123-7.795 6.103-5.96 11.4 1.43 4.133 5.785 5.769 11.235 3.973 7.514-2.476 15.043-4.938 22.414-7.798 2.29-.889 4.536-2.72 6.003-4.708 2.276-3.088.895-6.444-1.115-9.164-2.424-3.28-6.014-2.92-10.266-1.793m8.387 90.747c6.005-5.866 5.424-12.047-1.811-14.912-8.126-3.219-16.439-5.995-24.773-8.64-4.748-1.508-8.872.489-10.17 4.248-1.761 5.109.235 9.564 5.475 11.478 7.45 2.722 14.93 5.395 22.514 7.704 2.507.763 5.378.336 8.765.122M466.456 161c2.156 0 4.313.023 6.47-.005 5.44-.068 8.725-2.996 8.874-7.883.117-3.836-4.06-7.997-8.543-8.066-8.956-.138-17.92-.17-26.874.014-4.699.097-7.514 3.709-7.381 8.744.123 4.674 2.614 7.119 7.554 7.177 6.304.074 12.609.019 19.9.019zM513 441v71.948c-170.667-.003-341.333-.003-512-.003 0-23.706 0-47.357.322-71.357 3.16 5.024 7.853 7.254 13.688 7.336 8.622.12 17.245.12 25.922.566.177 1.366.103 2.414.452 3.295 3.812 9.617 9.18 18.015 17.414 24.661 9.582 7.735 20.382 12.121 32.498 12.447 18.233.49 33.206-6.752 45.124-21.014 3.442-6.686 6.566-13.23 10.148-19.836 45.599-.074 90.74-.103 135.882-.092 22.485.005 44.97.083 67.498.513 3.073 6.567 5.213 13.428 9.31 18.794 10.172 13.319 23.963 21.117 40.944 21.642 18.278.565 33.522-6.212 45.233-21.003 4.823-6.024 8.309-12.404 10.139-19.847 14.027-.072 27.6-.3 41.161-.018 7.038.146 12.337-2.327 16.265-8.032z"/><path fill="#9B9494" d="M513 440.542c-3.928 6.163-9.227 8.636-16.265 8.49-13.562-.283-27.134-.054-41.153-.385.196-4.79.841-9.234 1.95-13.657 14.37.026 28.277.091 42.182.002 5.08-.032 9.41-1.632 11.286-7.001.471.615.942 1.23 1.707 1.926.293 3.444.293 6.806.293 10.625zM40.877 449.096c-8.622-.052-17.245-.051-25.867-.172-5.835-.082-10.528-2.312-13.688-7.805C1 437.639 1 434.277 1 430.459c.482-1.042.964-1.626 1.75-1.98 2.62 4.917 6.599 6.585 11.587 6.56 8.23-.044 16.461-.02 24.751.39.636 4.832 1.213 9.25 1.79 13.667z"/><path fill="#FFCA06" d="m12.93 421.941.069-202.498v-6.505c27.265-.32 54.142-.634 81.766-.645 5.93.078 11.114-.147 16.76-.339 39.123.01 77.784-.011 116.747.27 5.461.11 10.621-.084 15.781-.278 18.635.022 37.269.044 56.613.447 7.93.07 15.15-.24 22.83-.486 5.127.056 9.794.047 14.736.366 5.459.1 10.64-.129 15.823-.358L499 213.532v4.928c0 37.653-.256 75.309.081 112.96.268 29.868 1.26 59.73 1.627 90.309-2.108.832-3.912 1.044-5.717 1.053-13.21.073-26.419.104-39.796-.123-3.684-12.99-10.55-23.465-21.336-31.143-11.043-7.86-23.26-11.51-37.305-9.506-10.668 1.28-19.745 5.144-27.828 11.73-9.475 7.721-15.186 17.691-19.29 29.078-68.086-.002-135.71.008-203.511-.3-2.647-8.66-6.342-16.371-12.294-22.8-12.595-13.603-27.881-20.239-47.039-17.657-23.98 3.906-38.49 18.058-46.287 40.256-9.426-.144-18.401-.26-27.376-.376m487.031-58.665c-.14-2.981-1.453-4.497-4.684-4.342-3.974.19-7.987-.234-11.94.108-6.993.607-13.298 2.672-17.033 10.262-6.714 11.649 1.834 26.144 15.86 26.694 5.607.22 11.23-.003 17.468-.579.1-10.444.2-20.888.33-32.143m-458.026-37.22c.004 1.667.013 3.333.012 5-.008 12.372 8.592 21.541 21.023 21.947 7.987.261 15.992-.039 24.925.033 61.31-.002 122.62.098 183.929-.204 4.793-.023 10.163-1.94 14.234-4.572 8.249-5.335 9.665-14.056 9.035-24.182.009-18.818.1-37.636-.002-56.453-.069-12.772-8.976-21.693-21.753-21.702-63.778-.047-127.557-.004-192.257-.176-5.645-.013-11.292-.112-16.936-.024-14.376.225-23.071 9.053-23.11 23.477-.044 17.103-.033 34.206.028 51.308.006 1.547.552 3.091.872 5.548m320.162-80.539c-9.974.11-19.973-.174-29.912.473-6.092.397-10.176 5.462-10.215 11.518-.117 18.328-.13 36.657.026 54.984.053 6.188 5.391 11.395 11.52 11.471 9.158.114 18.32-.06 28.409.034 6.144.002 12.29.097 18.433-.018 7.188-.133 12.616-5.458 12.65-12.568.088-17.77.099-35.54-.008-53.309-.042-7.011-5.221-12.075-12.317-12.23-5.973-.131-11.952.006-18.586-.355m-21.69 112.525c1.826-.004 3.662.122 5.473-.04 4.393-.391 8.69-4.432 7.97-7.866-.896-4.271-3.935-6.267-8.323-6.228-4.645.042-9.291-.045-13.936.024-4.73.07-8.537 3.049-8.56 6.56-.022 3.668 3.914 7.252 8.46 7.514 2.646.152 5.308.033 8.917.036z"/><path fill="#FFA92C" d="M144.944 24.166c25.794-.054 51.63-1.034 77.37.116 22.511 1.006 42.638 16.929 46.744 41.612.402 2.414.792 4.848.914 7.287.513 10.241-4.75 13.628-13.765 13.746-18.472.242-36.95.075-55.424.073-30.626-.004-61.252-.009-92.406-.425-4.024-2.7-8.096-4.247-8.43-9.54-1.153-18.293 9.586-37.868 26.036-45.897 6.02-2.938 12.623-4.683 18.96-6.972zM265.055 154.115c8.085 7.348 4.734 16.878 4.425 25.593-.145 4.095-6.047 7.127-11.54 7.27-4.315.111-8.635.027-13.712-.253-5.928-.074-11.095.136-16.727.317-39.132-.009-77.8.012-116.687-.21-1.756-.275-3.29-.31-4.922-.644-1.826-2.22-4.767-3.978-5.053-6.094-.828-6.127-1.199-12.47-.486-18.581.313-2.679 3.692-5 6.136-7.508 4.505-.35 8.554-.675 12.893-.846 11.46 10.817 15.308 10.848 26.654.384.236-.218.548-.355 1.14-.243 2.293.41 4.268.637 6.245.641 37.211.074 74.422.121 111.634.174z"/><path fill="#149334" d="M98.953 98.174c17.64-.058 35.28-.154 52.92-.166 38.12-.026 76.24-.096 114.357.146 3.325.021 7.803 1.253 9.722 3.586 4.628 5.626 1.276 11.956-6.289 13.217-.973.162-1.994.041-2.992.041-55.598-.005-111.195-.012-167.476-.34-4.124-1.916-7.742-4.02-6.94-8.195.502-2.62 3.285-4.82 5.11-7.157.384-.491 1.051-.76 1.588-1.132z"/><path fill="#C26C3D" d="M265.369 153.966c-37.526.096-74.737.05-111.948-.025-1.977-.004-3.952-.232-6.056-.927 7.824-8.718 15.777-16.862 23.927-25.087.44-.252.608-.478.701-.759 29.79-.055 59.582-.163 89.373-.12 5.39.009 11.848 4.795 12.531 9.351 1.258 8.388.191 11.95-8.528 17.567z"/><path fill="#F48A1E" d="M144.482 24.107c-5.876 2.348-12.478 4.093-18.499 7.03-16.45 8.03-27.19 27.605-26.036 45.898.334 5.293 4.406 6.84 7.965 9.463-10.165.058-20.425.161-30.614-.645-5.665-.448-8.173-4.234-8.292-9.756-.543-25.142 15.828-45.504 39.89-50.616 11.3-2.4 23.391-1.072 35.586-1.374z"/><path fill="#BABABA" d="M323.035 211.842c-7.22.31-14.439.621-21.908.565.514-1.936.915-3.882 2.097-5.012 10.385-9.925 20.976-19.635 31.324-29.598 1.616-1.555 2.316-4.062 3.437-6.98-.016-6.5-.03-12.147.117-18.11 1.426-4.28 4.188-6.565 8.293-6.291 3.893.259 6.209 2.85 7.02 7.092.168 6.11.4 11.782.632 17.454-.01 13.343-.022 26.686-.013 40.491-5.161.691-10.343.92-15.784.361-.26-4.856-.26-8.924-.26-14.475l-14.955 14.503z"/><path fill="#BAB9B9" d="M366.78 136.311c9.778-4.078 19.535-8.206 29.342-12.21 4.544-1.856 9.188-3.47 14.319-4.757.541 17.176.55 33.916.17 50.67-5.214-1.702-10.063-3.351-14.858-5.147a1392.547 1392.547 0 0 1-28.856-11.146c-.262-.385-.385-.525-.408-1.123.165-5.735.228-11.01.291-16.287z"/><path fill="#F48A1E" d="M106.032 154.03c-1.987 2.483-5.366 4.804-5.679 7.483-.713 6.11-.342 12.454.486 18.581.286 2.116 3.227 3.874 4.601 6.177-3.727.52-7.1.66-10.471.799-6.22-.355-12.482-.376-18.644-1.174-4.592-.594-6.986-4.103-7.245-8.598-.276-4.789-.629-9.7.142-14.377.48-2.915 2.98-5.497 5.11-8.597 9.892-.401 19.25-.433 28.992-.415 1.16.073 1.934.097 2.708.12z"/><path fill="#434558" d="M411 170c-.009-16.74-.018-33.48-.19-50.673-.041-3.099.174-5.744.189-8.39.051-8.955 2.641-11.367 11.653-10.013-1.174 3.425-3.46 6.19-3.484 8.974-.263 29.07-.267 58.143.015 87.212.026 2.651 2.54 5.278 3.898 7.916-6.737 3.137-12.008.002-12.061-7.184-.022-2.948-.012-5.897 0-9.774.003-6.642-.009-12.355-.02-18.068z"/><path fill="#AB542D" d="M102.939 153.86c-9.358.031-18.715.063-28.546.125-10.515-4.78-11.97-14.599-7.278-21.173 2.683-3.76 6.606-5.72 11.293-5.773 5.15-.058 10.3.015 15.938.288.49.258.598.632.68.948 1.041 1.468 2 2.62 2.919 4.135-4.076 7.625-3.386 12.88 2.244 18.283 1.004.964 1.837 2.107 2.75 3.167z"/><path fill="#5F6172" d="M423.462 205.002c-1.74-2.614-4.253-5.241-4.279-7.892-.282-29.069-.278-58.143-.015-87.212.025-2.785 2.31-5.549 3.707-8.639 3.14 1.407 4.231 3.81 4.212 7.408-.156 29.583-.011 59.168-.225 88.75-.018 2.528-1.966 5.042-3.4 7.585z"/><path fill="#8E9497" d="M410.61 170.014c.401 5.7.413 11.412.37 17.596-14.785-5.252-29.517-10.975-44.463-17.129.03-5.792.273-11.154.517-16.515 9.571 3.638 19.13 7.31 28.72 10.9 4.794 1.797 9.643 3.446 14.857 5.148z"/><path fill="#BABABA" d="M468.814 107.6c3.887-.934 7.477-1.294 9.901 1.986 2.01 2.72 3.39 6.076 1.115 9.164-1.467 1.989-3.713 3.82-6.003 4.708-7.37 2.86-14.9 5.322-22.414 7.798-5.45 1.796-9.804.16-11.235-3.973-1.835-5.297.204-9.277 5.96-11.4 7.422-2.737 14.872-5.397 22.676-8.283zM476.495 198.705c-3.046.049-5.917.476-8.424-.287-7.584-2.31-15.064-4.982-22.514-7.704-5.24-1.914-7.236-6.37-5.474-11.478 1.297-3.76 5.42-5.756 10.169-4.249 8.334 2.646 16.647 5.422 24.773 8.64 7.235 2.866 7.816 9.047 1.47 15.078zM465.962 161c-6.797 0-13.102.055-19.406-.02-4.94-.057-7.43-2.502-7.554-7.176-.133-5.035 2.682-8.647 7.38-8.744 8.956-.185 17.919-.152 26.875-.014 4.484.069 8.66 4.23 8.543 8.066-.15 4.887-3.433 7.815-8.874 7.883-2.157.028-4.314.005-6.964.005zM455.364 422.931c13.21-.045 26.419-.076 39.628-.149 1.805-.01 3.609-.221 5.748-.59 3.556 1.558 6.776 3.365 10.129 5.485-1.746 5.683-6.075 7.283-11.155 7.315-13.905.09-27.811.024-42.234-.424-1.05-4.174-1.583-7.906-2.116-11.637z"/><path fill="#E9493D" d="M366.34 136.223c.377 5.364.314 10.64-.262 16.363-4.542.46-8.57.472-12.598.485-.876-3.805-3.192-6.396-7.085-6.655-4.105-.274-6.867 2.012-8.679 6.283-6.285.285-9.337-3.79-12.54-7.637 2.497-6.02 6.927-9.128 13.52-9.074 9.068.074 18.135.101 27.644.235z"/><path fill="#16742B" d="M98.493 98.102c-.077.444-.744.713-1.128 1.204-1.825 2.338-4.608 4.537-5.11 7.157-.802 4.175 2.816 6.28 6.474 8.118-9.268.3-18.77.703-28.225.196-2.859-.154-6.135-2.302-8.226-4.487-2.553-2.67-1.81-6.61.817-8.811 2.228-1.867 5.565-3.178 8.478-3.315 8.802-.416 17.637-.14 26.92-.062z"/><path fill="#BBB8B4" d="M12.56 421.97c9.345.087 18.32.203 27.742.714-.126 4.373-.7 8.352-1.273 12.33-8.23.005-16.462-.019-24.692.024-4.988.026-8.968-1.642-11.309-6.683 3.035-2.353 6.098-4.354 9.531-6.385z"/><path fill="#BBBAB8" d="M227.965 187.071c5.168-.21 10.335-.42 15.799-.328.28 8.292.263 16.283.268 24.738-5.139.659-10.299.853-15.748.28-.299-8.74-.309-16.715-.32-24.69z"/><path fill="#BABABA" d="M94.98 187.533c3.36-.602 6.733-.741 10.557-.963 1.986-.048 3.521-.013 5.263.726.225 8.678.243 16.652.262 24.626-5.183.224-10.366.45-15.832.347-.268-8.308-.253-16.29-.25-24.736z"/><path fill="#CE2C28" d="M353.416 153.508c4.092-.45 8.12-.463 12.56-.464.536.152.66.292.92.677a308.14 308.14 0 0 1-.763 16.693c-3.84.432-7.508.5-11.631.558-.687-5.682-.919-11.355-1.086-17.464z"/><path fill="#CF2925" d="M325.11 145.521c3.269 3.388 6.321 7.463 12.444 7.493.4 5.656.415 11.304.418 17.412-4.434-.758-9.414-1.246-11.338-6.364-.916-2.44-1.377-5.13-1.569-7.742-.252-3.428-.036-6.891.045-10.799z"/><path fill="#DDA82C" d="M94.944 127.959s-.109-.374-.149-.565c25.397-.247 50.834-.304 76.734-.293.37.348.203.574-.715.823-25.741.063-50.806.049-75.87.035z"/><path fill="#2B2E3F" d="M349.9 422.832c3.64-11.4 9.352-21.37 18.827-29.091 8.083-6.587 17.16-10.451 27.685-11.428-6.748 10.11-11.292 20.666-10.224 33.215-.043.186-.148.552-.45.692-2.978 5.204-6.889 9.992-8.094 15.385-3.71 16.6 13.843 33.14 29.75 28.355 1.463-.005 2.528-.042 3.724.245 2.486 1.8 4.7 3.59 7.218 4.689 8.531 3.722 17.56 4.631 26.777 4.131-11.389 14.663-26.633 21.44-44.911 20.875-16.98-.525-30.772-8.323-40.943-21.642-4.098-5.366-6.238-12.227-9.254-19.221-.51-5.263-1.037-9.713-1.44-14.59.525-4.157.93-7.886 1.334-11.615zM39.088 435.43c.514-4.394 1.088-8.373 1.665-12.718 7.35-22.593 21.86-36.745 45.807-40.301-.125 1.425-.471 2.578-1.141 3.494-6.593 9.014-8.822 19.357-9.494 30.53-5.789 6.249-8.614 13.174-7.923 21.504 1.205 14.536 16.757 25.983 30.414 21.996 1.448-.042 2.502-.117 3.59.172 1.148 1.263 2.158 2.34 3.386 3.03 9.57 5.38 20.022 6.273 30.71 5.884-11.6 14.12-26.573 21.361-44.806 20.872-12.116-.326-22.916-4.712-32.498-12.447-8.234-6.646-13.602-15.044-17.414-24.66-.349-.882-.275-1.93-.452-3.296-.631-4.812-1.208-9.229-1.844-14.06z"/><path fill="#424456" d="M386.23 415.342c-1.11-12.363 3.434-22.918 10.594-32.986 13.775-2.35 25.993 1.3 37.036 9.16 10.787 7.678 17.652 18.152 21.336 31.143.7 4.003 1.234 7.735 1.82 11.888-.593 4.866-1.238 9.31-1.892 14.156-1.38 7.79-4.866 14.17-9.69 20.194-9.537.628-18.567-.281-27.098-4.003-2.518-1.098-4.732-2.89-7.018-4.96 9.971-4.699 15.828-11.966 16.625-22.738.814-11.012-3.862-19.36-13.66-24.411-9.757-5.03-19.182-3.584-28.053 2.557zM76.08 416.143c.517-10.88 2.746-21.224 9.339-30.238.67-.916 1.016-2.069 1.546-3.461 18.786-2.965 34.072 3.671 46.667 17.274 5.952 6.429 9.647 14.14 12.3 23.223a349.73 349.73 0 0 1 1.786 12.674c-.55 4.756-1.08 9.123-1.608 13.49-3.124 6.544-6.248 13.088-9.69 19.774-11.006.531-21.458-.361-31.028-5.741-1.228-.69-2.238-1.768-3.175-3.285 1.507-1.282 2.91-1.834 4.16-2.627 8.723-5.533 13.21-13.535 12.432-23.811-.76-10.045-6.041-17.533-15.443-21.389-9.407-3.858-18.447-3.106-26.606 3.987-.228.033-.68.13-.68.13z"/><path fill="#9B9494" d="M146.568 449.043c.07-4.305.6-8.672 1.637-13.491 56.934-.476 113.359-.493 169.784-.53 10.151-.006 20.302-.096 30.453-.147.526 4.45 1.052 8.899 1.521 13.776-22.542.383-45.028.305-67.513.3-45.142-.01-90.283.018-135.882.092z"/><path fill="#424456" d="M82.004 245.93c63.778-.01 127.557-.054 191.335-.007 12.777.009 21.684 8.93 21.753 21.702.102 18.817.011 37.635-.532 56.927-8.215.449-15.895.422-23.578-.068-.005-7.729-.234-15.004.063-22.258.254-6.21-1.917-10.9-7.079-14.703.023-4.95.222-9.446-.052-13.913-.255-4.161-3.626-6.94-7.738-6.787-4.278.159-6.852 2.391-7.217 6.686-.253 2.97-.256 5.98-.101 8.96.15 2.873-.482 4.89-3.175 6.617-4 2.567-5.776 6.584-5.704 11.483.12 8.135.005 16.274-.478 24.432-8.103-.02-15.74-.06-23.369-.558.008-8.109-.154-15.762.06-23.406.167-5.946-2.107-10.258-7.354-13.517-.062-4.624.142-8.803-.185-12.939-.405-5.137-3.453-7.93-7.923-7.847-4.39.08-7.348 3.144-7.613 8.184-.175 3.32.16 6.673-.14 9.975-.128 1.408-.949 3.175-2.043 3.998-4.096 3.086-5.758 7.167-5.768 12.09-.017 7.989.016 15.977-.449 23.997-5.474-.007-10.47-.045-15.432-.542.054-16.898.14-33.338.065-49.778-.042-9.498-4.423-14.095-13.952-14.284-11.782-.234-23.572-.06-35.82-.162-15.842-.187-31.223-.275-46.593-.73 3.014-4.761 6.017-9.156 9.019-13.551z"/><path fill="#D63322" d="M216.125 324.902c7.637.04 15.273.079 23.846.105 5.98-.028 11.024-.043 16.53-.038 5.136.006 9.81-.008 14.484-.021 7.68.026 15.36.053 23.505.07 1.234 9.186-.182 17.907-8.431 23.242-4.07 2.633-9.441 4.549-14.234 4.572-61.309.302-122.62.202-184.613-.111-1.585-.7-2.536-.998-3.379-1.485-10.187-5.879-13.02-15.09-11.661-26.23.12-.101.429-.135.927-.078 27.323.02 54.149-.017 81.433.006 5.212.027 9.965-.006 14.718-.04 4.997.039 9.993.077 15.918.096 5.91-.06 10.893-.099 16.335-.082 5.18.035 9.901.015 14.622-.006z"/><path fill="#6EDCF9" d="M362.756 245.896c5.976-.018 11.955-.155 17.928-.025 7.096.156 12.275 5.22 12.317 12.231.107 17.77.096 35.54.009 53.309-.035 7.11-5.463 12.435-12.65 12.568-6.143.115-12.29.02-19.119-.301-6.436-2.95-9.197-7.506-9.205-13.751-.024-16.986-.048-33.973.013-50.959.024-6.601 4.136-11.483 10.707-13.072z"/><path fill="#FFF" d="M111.525 211.954c-.482-8.006-.5-15.98-.505-24.417 38.682-.483 77.35-.504 116.481-.495.474 8.004.484 15.978.482 24.416-38.674.485-77.335.507-116.458.496z"/><path fill="#BABABA" d="M348.564 434.447c-10.273.48-20.424.57-30.575.576-56.425.036-112.85.053-169.762.139-1.028-3.785-1.569-7.632-2.116-11.902 67.617-.434 135.24-.444 203.326-.442.058 3.743-.347 7.472-.873 11.629z"/><path fill="#37B5D2" d="M362.427 245.707c-6.242 1.778-10.354 6.66-10.378 13.261-.061 16.986-.037 33.973-.013 50.959.008 6.245 2.77 10.802 8.742 13.679-8.94.298-18.103.471-27.261.357-6.129-.076-11.467-5.283-11.52-11.471-.157-18.327-.143-36.656-.026-54.984.039-6.056 4.123-11.12 10.215-11.518 9.939-.647 19.938-.364 30.24-.283z"/><path fill="#2C2F40" d="M81.543 245.839c-2.541 4.487-5.544 8.882-8.97 13.723-11.48.937-15.643 5.174-15.642 16.052.001 16.414.048 32.829-.39 49.296-5.186.114-9.908.175-14.63.235-.295-1.546-.841-3.09-.847-4.637a8264.812 8264.812 0 0 1-.027-51.308c.038-14.424 8.733-23.252 23.11-23.477 5.643-.088 11.29.01 17.396.116z"/><path fill="#B7251A" d="M41.923 325.6c4.71-.515 9.432-.576 15.083-.625 5.634.05 10.34.09 15.046.13-1.239 11.04 1.594 20.252 11.781 26.131.843.487 1.794.784 2.91 1.425-7.78.303-15.785.603-23.772.342-12.431-.406-21.03-9.575-21.023-21.947.001-1.667-.008-3.333-.025-5.455z"/><path fill="#F4891E" d="M499.01 395.974c-5.616.021-11.24.245-16.846.024-14.026-.55-22.574-15.045-15.393-26.553 4.328 2.612 7.913 6.34 12.114 7.266 6.478 1.428 13.38.937 20.108 1.73.01 6.159.014 11.846.017 17.533z"/><path fill="#FFA92B" d="M498.986 377.971c-6.722-.323-13.623.168-20.1-1.26-4.202-.926-7.787-4.654-11.787-7.447 2.94-7.55 9.245-9.615 16.239-10.222 3.952-.342 7.965.081 11.939-.108 3.23-.155 4.544 1.36 4.382 5.03-.426 5.128-.55 9.568-.673 14.007z"/><path fill="#D63322" d="M339.932 358.042c-3.132-.003-5.794.116-8.44-.036-4.546-.262-8.482-3.846-8.46-7.513.023-3.512 3.83-6.491 8.56-6.561 4.645-.069 9.291.018 13.936-.024 4.388-.04 7.427 1.957 8.322 6.228.72 3.434-3.576 7.475-7.969 7.866-1.81.162-3.647.036-5.95.04z"/><path fill="#FFF" d="M323.496 211.907c4.201-4.586 8.863-9.106 14.495-14.568 0 5.551 0 9.619-.018 14.146-4.683.469-9.35.478-14.477.422z"/><path fill="#F88A38" d="M498.993 378.442c.116-4.91.24-9.35.652-14.072a551.972 551.972 0 0 1-.324 31.327c-.314-5.41-.318-11.097-.328-17.255z"/><path fill="#F2D422" d="M95.026 128.275c24.982-.302 50.047-.288 75.59-.271-7.474 8.148-15.427 16.292-23.567 24.723-.465.461-.777.598-1.013.816-11.346 10.464-15.194 10.433-26.841-.665-7.389-7.234-14.3-14.032-21.21-20.83-.96-1.153-1.918-2.305-2.959-3.773z"/><path fill="#C36E3A" d="M97.945 132.41c6.95 6.436 13.861 13.234 20.959 20.314-3.861.606-7.91.932-12.415 1.281-1.231 0-2.005-.023-3.165-.096-1.298-1.11-2.13-2.252-3.135-3.216-5.63-5.402-6.32-10.658-2.244-18.283z"/><path fill="#B3B3B4" d="M386.188 415.528c8.913-6.327 18.338-7.773 28.095-2.743 9.798 5.05 14.474 13.399 13.66 24.41-.797 10.773-6.654 18.04-16.757 22.414-1.264.309-2.33.346-3.817.01-2.497-2.703-4.478-5.125-6.66-7.35-9.868-10.06-14.63-22.16-14.669-36.189 0 0 .105-.366.147-.552z"/><path fill="#969B9E" d="M385.737 416.22c.342 13.89 5.104 25.99 14.972 36.05 2.182 2.224 4.163 4.646 6.261 7.317-15.483 5.158-33.036-11.383-29.326-27.982 1.205-5.393 5.116-10.18 8.093-15.385z"/><path fill="#B3B3B4" d="M76.988 415.98c7.93-7.06 16.97-7.812 26.378-3.954 9.402 3.856 14.683 11.344 15.443 21.389.777 10.276-3.709 18.278-12.431 23.811-1.25.793-2.654 1.345-4.197 2.263-1.263.329-2.317.404-3.805.108-.777-.921-1.006-1.606-1.479-2-13.012-10.83-20.337-24.365-19.909-41.618z"/><path fill="#969B9F" d="M76.76 416.013c-.2 17.22 7.125 30.755 20.137 41.585.473.393.702 1.078 1.084 1.966-13.222 4.358-28.774-7.089-29.98-21.625-.69-8.33 2.135-15.255 7.924-21.503.156-.293.607-.39.835-.423z"/><path fill="#D0CECE" d="M72.172 325.005c-4.826.06-9.532.02-14.702-.084-.491-16.478-.538-32.893-.54-49.307 0-10.878 4.162-15.115 15.631-15.685 15.794.008 31.175.096 46.962.612-4.206 4.29-6.959 9.016-6.955 15.335-13.49.092-26.516.092-39.473.092v12.397c13.497 0 26.718 0 39.934.443-.002 5.282 0 10.121-.46 15.059-13.399.098-26.336.098-39.968.098v20.906s-.31.034-.43.134z"/><path fill="#E5E3E3" d="M113.03 275.784c-.466-6.227 2.287-10.954 6.954-15.143 11.842-.326 23.632-.5 35.414-.267 9.53.19 13.91 4.786 13.952 14.284.074 16.44-.011 32.88-.065 49.778-4.788.492-9.541.525-14.772.04-.478-7.11-.478-13.7-.478-20.708h-41.003c-.003-4.839-.005-9.678.462-15.002 13.672-.485 26.875-.485 40.147-.485v-12.497h-40.61z"/><path fill="#FBA72E" d="M201.043 324.852c-4.982.04-9.965.079-15.398.106-.463-8-.496-15.988-.48-23.976.011-4.924 1.673-9.005 5.77-12.09 1.093-.824 1.914-2.591 2.042-3.999.3-3.302-.035-6.655.14-9.975.265-5.04 3.223-8.104 7.613-8.184 4.47-.083 7.518 2.71 7.923 7.847.327 4.136.123 8.315-.114 13.086-5.569 3.169-7.431 7.765-7.498 13.246-.097 7.978-.008 15.959.002 23.939z"/><path fill="#E9473C" d="M256.039 324.949c-5.044.015-10.088.03-15.602.039-.453-8.145-.338-16.284-.458-24.42-.072-4.898 1.703-8.915 5.704-11.482 2.693-1.727 3.325-3.744 3.175-6.618-.155-2.978-.152-5.99.1-8.96.366-4.294 2.94-6.526 7.218-6.685 4.112-.152 7.483 2.626 7.738 6.787.274 4.467.075 8.963-.289 13.954-5.385 3.367-8.027 7.326-7.72 13.455.397 7.96.12 15.952.134 23.93z"/><path fill="#FBB962" d="M201.503 324.908c-.47-8.036-.56-16.017-.462-23.995.067-5.481 1.93-10.077 7.528-12.781 5.516 2.647 7.79 6.96 7.623 12.905-.214 7.644-.052 15.297-.06 23.406-4.728.48-9.448.5-14.629.465z"/><path fill="#F3615D" d="M256.501 324.969c-.476-7.998-.199-15.99-.596-23.95-.307-6.129 2.335-10.088 7.69-12.99 5.533 3.298 7.704 7.986 7.45 14.197-.297 7.254-.068 14.53-.063 22.258-4.67.477-9.345.49-14.481.485z"/><path fill="#414356" d="M112.57 303.867c13.907-.099 27.353-.099 41.465-.099 0 7.008 0 13.599.02 20.647-26.807.496-53.633.533-80.956.513-.498-6.835-.498-13.613-.498-20.963 13.632 0 26.57 0 39.969-.098zM112.568 275.876c13.878-.092 27.293-.092 41.073-.092v12.497c-13.272 0-26.475 0-40.143.042-13.685.042-26.906.042-40.403.042v-12.397c12.957 0 25.983 0 39.473-.092z"/></svg>