<svg version="1.1" id="Layer_1" xmlns="http://www.w3.org/2000/svg" xmlns:xlink="http://www.w3.org/1999/xlink" x="0px" y="0px"
	 width="100%" viewBox="0 0 512 512" enable-background="new 0 0 512 512" xml:space="preserve">
<path fill="#FFFFFF" opacity="1.000000" stroke="none" 
	d="
M0.999999,430.000000 
	C1.000000,287.044647 1.000000,144.089279 1.000000,1.066956 
	C171.568726,1.066956 342.137482,1.066956 513.000000,1.066956 
	C513.000000,143.690613 513.000000,286.381409 512.706543,429.453491 
	C511.942169,429.220154 511.471191,428.605591 510.868530,427.677429 
	C507.516418,425.557007 504.295990,423.750122 501.044373,421.479065 
	C500.342438,391.149933 499.349518,361.287811 499.082245,331.419220 
	C498.745361,293.768860 499.000946,256.113190 499.000946,218.459808 
	C499.000946,216.708191 499.000946,214.956589 499.000946,213.532104 
	C450.192627,212.987656 402.123657,212.451462 354.034424,211.452972 
	C354.025085,197.647797 354.036072,184.304901 354.501892,170.972015 
	C358.625153,170.913834 362.293579,170.845673 366.346863,170.844559 
	C381.463379,176.634720 396.195038,182.357819 410.965393,188.538910 
	C411.008240,191.945297 410.997589,194.893799 411.019562,197.842072 
	C411.073090,205.028320 416.343903,208.163101 423.462463,205.002182 
	C424.895844,202.458710 426.844116,199.945053 426.862335,197.417465 
	C427.075806,167.834900 426.931091,138.249878 427.087433,108.666595 
	C427.106445,105.068237 426.015656,102.665634 422.812866,100.606842 
	C413.640259,99.569908 411.050232,101.981590 410.998901,110.936714 
	C410.983734,113.583176 410.768860,116.228493 410.276642,118.891563 
	C405.309509,120.631889 400.666382,122.245270 396.122101,124.100639 
	C386.314667,128.104889 376.557953,132.233383 366.339600,136.223480 
	C356.831329,136.088959 347.763763,136.062408 338.696594,135.988235 
	C332.103210,135.934296 327.672729,139.041885 325.109802,145.521225 
	C325.028839,149.428772 324.812744,152.891724 325.065155,156.320175 
	C325.257416,158.931885 325.717529,161.622559 326.634186,164.061783 
	C328.557587,169.179810 333.537506,169.668457 337.974121,171.277527 
	C336.863586,173.735168 336.163696,176.241943 334.547974,177.797424 
	C324.199829,187.759781 313.609344,197.470139 303.224152,207.394791 
	C302.042023,208.524506 301.640686,210.471268 300.416504,212.025665 
	C281.321625,211.989960 262.687500,211.967789 244.032043,211.481094 
	C244.026947,203.025711 244.043228,195.034866 244.523315,187.026215 
	C249.305038,187.005386 253.625244,187.089355 257.940338,186.977539 
	C263.432739,186.835220 269.335327,183.803207 269.480377,179.708466 
	C269.789124,170.993256 273.140076,161.462906 265.368774,153.965576 
	C274.088013,148.349045 275.155487,144.787231 273.897491,136.399307 
	C273.214172,131.843170 266.755768,127.056747 261.365753,127.048836 
	C231.574936,127.005096 201.783920,127.112518 171.529205,127.100868 
	C145.628647,127.090126 120.191856,127.146652 94.306442,127.136383 
	C88.707970,127.053764 83.557465,126.980522 78.408455,127.039062 
	C73.721329,127.092346 69.798111,129.052338 67.115227,132.811676 
	C62.423447,139.385956 63.878372,149.204849 73.857567,154.354187 
	C72.202896,157.424469 69.702553,160.006104 69.222282,162.920609 
	C68.451431,167.598511 68.803902,172.508972 69.080002,177.298187 
	C69.339149,181.793442 71.733391,185.301773 76.324707,185.896210 
	C82.486671,186.694031 88.749214,186.715057 94.979813,187.533020 
	C94.976570,195.978592 94.962082,203.960693 94.482750,211.966309 
	C67.140739,212.304245 40.263565,212.618683 12.998921,212.937653 
	C12.998921,215.514465 12.999504,217.478806 12.998836,219.443146 
	C12.975866,286.942474 12.952777,354.441772 12.559280,421.970459 
	C9.126021,424.001007 6.063186,426.002228 2.722960,428.126709 
	C1.963712,428.833344 1.481856,429.416656 0.999999,430.000000 
M99.879013,114.980011 
	C155.476181,114.986427 211.073364,114.992958 266.670532,114.998375 
	C267.669189,114.998474 268.690216,115.119392 269.662994,114.957184 
	C277.228455,113.695709 280.579926,107.365517 275.952057,101.739883 
	C274.032623,99.406624 269.555145,98.175148 266.230103,98.154045 
	C228.112595,97.912025 189.992966,97.982208 151.873932,98.007790 
	C134.233566,98.019623 116.593254,98.115913 98.032692,98.030113 
	C89.210350,98.023865 80.375298,97.748352 71.572845,98.163643 
	C68.659798,98.301079 65.323067,99.612175 63.095173,101.478867 
	C60.468521,103.679657 59.725376,107.620903 62.278389,110.289642 
	C64.369156,112.475204 67.645348,114.623413 70.504013,114.776871 
	C79.958305,115.284401 89.461487,114.881134 99.879013,114.980011 
M144.020615,24.047834 
	C132.287430,24.409271 120.195229,23.080784 108.895256,25.481400 
	C84.834091,30.593054 68.462791,50.955116 69.005630,76.097496 
	C69.124832,81.618576 71.633240,85.404503 77.298492,85.852905 
	C87.486694,86.659317 97.746902,86.555939 108.905930,86.986603 
	C139.531464,86.991066 170.156998,86.996490 200.782532,86.999634 
	C219.257767,87.001526 237.735199,87.169090 256.207275,86.927246 
	C265.221863,86.809219 270.485413,83.422028 269.972229,73.180603 
	C269.850037,70.742119 269.459839,68.307846 269.058319,65.894028 
	C264.952301,41.210583 244.825256,25.288361 222.314697,24.282261 
	C196.573990,23.131788 170.738068,24.111574 144.020615,24.047834 
M468.448578,107.793449 
	C461.010406,110.486420 453.559906,113.145981 446.138000,115.883080 
	C440.382385,118.005676 438.343079,121.985703 440.177521,127.282753 
	C441.608887,131.415726 445.963440,133.051514 451.412659,131.256165 
	C458.927032,128.780426 466.456482,126.318169 473.827179,123.457748 
	C476.117004,122.569122 478.363342,120.738548 479.829712,118.749519 
	C482.105621,115.662415 480.725189,112.305756 478.714996,109.585678 
	C476.290955,106.305573 472.701019,106.665817 468.448578,107.793449 
M476.835999,198.539536 
	C482.841003,192.674484 482.259827,186.492874 475.024994,183.627502 
	C466.899475,180.409363 458.585968,177.633194 450.251801,174.987381 
	C445.503815,173.480042 441.379669,175.476730 440.082855,179.236099 
	C438.320557,184.344925 440.317139,188.799637 445.556793,190.714020 
	C453.007141,193.436127 460.486511,196.108856 468.070679,198.417694 
	C470.578461,199.181122 473.448761,198.753906 476.835999,198.539536 
M466.455505,161.000000 
	C468.612244,160.999954 470.769257,161.022614 472.925659,160.995407 
	C478.366699,160.926743 481.650543,157.998947 481.799896,153.112473 
	C481.917206,149.275772 477.740601,145.114899 473.257111,145.046021 
	C464.300507,144.908417 455.337555,144.875092 446.382629,145.059921 
	C441.684448,145.156876 438.868927,148.768982 439.001862,153.803879 
	C439.125275,158.478226 441.616211,160.922714 446.556335,160.980835 
	C452.859772,161.055008 459.164734,160.999573 466.455505,161.000000 
z"/>
<path fill="#FFFFFF" opacity="1.000000" stroke="none" 
	d="
M513.000000,441.000000 
	C513.000000,464.983978 513.000000,488.967987 513.000000,512.948486 
	C342.333313,512.945068 171.666656,512.945068 1.000000,512.945068 
	C1.000000,489.239197 1.000000,465.588257 1.321990,441.587708 
	C4.482286,446.611572 9.174896,448.842255 15.010271,448.923950 
	C23.631729,449.044739 32.254887,449.044312 40.931667,449.490479 
	C41.108757,450.856018 41.035259,451.904419 41.384369,452.785278 
	C45.195961,462.402344 50.564407,470.799835 58.797764,477.446228 
	C68.379646,485.181244 79.179787,489.567413 91.296295,489.892700 
	C109.529396,490.382233 124.502419,483.141235 136.419708,468.879364 
	C139.861801,462.193420 142.985992,455.649445 146.567932,449.043457 
	C192.167007,448.968994 237.308350,448.940369 282.449677,448.950989 
	C304.935089,448.956299 327.420502,449.033539 349.947754,449.463867 
	C353.020691,456.030518 355.160583,462.892181 359.258636,468.258453 
	C369.429688,481.576965 383.221405,489.375153 400.201935,489.900299 
	C418.480042,490.465485 433.724121,483.688141 445.434509,468.897400 
	C450.257690,462.872894 453.743805,456.492981 455.573975,449.050415 
	C469.600586,448.977600 483.173096,448.749298 496.735046,449.031525 
	C503.773376,449.178009 509.072449,446.705475 513.000000,441.000000 
z"/>
<path fill="#9B9494" opacity="1.000000" stroke="none" 
	d="
M513.000000,440.541931 
	C509.072449,446.705475 503.773376,449.178009 496.735046,449.031525 
	C483.173096,448.749298 469.600586,448.977600 455.582275,448.647217 
	C455.777740,443.856506 456.423370,439.412720 457.532898,434.990173 
	C471.902771,435.015747 485.809143,435.081390 499.714478,434.992096 
	C504.793579,434.959503 509.123260,433.359863 511.000244,427.990997 
	C511.471191,428.605591 511.942169,429.220154 512.706543,429.917358 
	C513.000000,433.361298 513.000000,436.722565 513.000000,440.541931 
z"/>
<path fill="#9B9494" opacity="1.000000" stroke="none" 
	d="
M40.877319,449.095520 
	C32.254887,449.044312 23.631729,449.044739 15.010271,448.923950 
	C9.174896,448.842255 4.482286,446.611572 1.321990,441.119049 
	C1.000000,437.638702 1.000000,434.277435 0.999999,430.458069 
	C1.481856,429.416656 1.963712,428.833344 2.750904,428.478210 
	C5.369390,433.395569 9.348816,435.064484 14.336610,435.038391 
	C22.567167,434.995300 30.798075,435.018982 39.088058,435.429169 
	C39.723961,440.261017 40.300640,444.678284 40.877319,449.095520 
z"/>
<path fill="#FFCA06" opacity="1.000000" stroke="none" 
	d="
M12.929704,421.941101 
	C12.952777,354.441772 12.975866,286.942474 12.998836,219.443146 
	C12.999504,217.478806 12.998921,215.514465 12.998921,212.937653 
	C40.263565,212.618683 67.140739,212.304245 94.765198,212.292877 
	C100.695625,212.371124 105.878769,212.146317 111.524780,211.954117 
	C150.648499,211.964737 189.309341,211.942764 228.271698,212.224792 
	C233.733292,212.334396 238.893341,212.139999 244.053406,211.945618 
	C262.687500,211.967789 281.321625,211.989960 300.666199,212.393021 
	C308.596130,212.463120 315.815643,212.152313 323.496094,211.907257 
	C328.623322,211.963364 333.289581,211.953735 338.232483,212.273346 
	C343.690979,212.373489 348.872833,212.144379 354.054688,211.915268 
	C402.123657,212.451462 450.192627,212.987656 499.000946,213.532104 
	C499.000946,214.956589 499.000946,216.708191 499.000946,218.459808 
	C499.000946,256.113190 498.745361,293.768860 499.082245,331.419220 
	C499.349518,361.287811 500.342438,391.149933 500.709198,421.728760 
	C498.600830,422.560822 496.796936,422.772522 494.991943,422.782410 
	C481.782837,422.854675 468.573486,422.886444 455.195618,422.658539 
	C451.511871,409.668152 444.646606,399.193848 433.859894,391.516296 
	C422.816620,383.656158 410.599091,380.005371 396.555481,382.010315 
	C385.886963,383.289856 376.809937,387.154053 368.726532,393.740875 
	C359.252197,401.461121 353.540771,411.431458 349.436646,422.818481 
	C281.351013,422.815735 213.727814,422.826477 145.925537,422.518005 
	C143.279343,413.858276 139.583679,406.146820 133.631683,399.718475 
	C121.036613,386.115417 105.750847,379.479065 86.593353,382.061218 
	C62.613598,385.966553 48.103333,400.119263 40.305901,422.317078 
	C30.879627,422.173096 21.904665,422.057098 12.929704,421.941101 
M499.961090,363.275543 
	C499.821136,360.294922 498.507812,358.779236 495.276520,358.933624 
	C491.303406,359.123413 487.290039,358.699615 483.337585,359.042450 
	C476.343597,359.649200 470.039459,361.714447 466.304382,369.304474 
	C459.590210,380.952576 468.137695,395.447815 482.164215,395.998444 
	C487.770569,396.218506 493.394257,395.995422 499.631622,395.419434 
	C499.731842,384.975189 499.832062,374.530914 499.961090,363.275543 
M41.936058,326.056488 
	C41.940266,327.722992 41.948963,329.389496 41.947960,331.056000 
	C41.940491,343.428009 50.539524,352.597382 62.971302,353.003326 
	C70.957970,353.264130 78.962936,352.964355 87.895515,353.036041 
	C149.205612,353.034058 210.516220,353.134064 271.824829,352.832245 
	C276.617859,352.808624 281.988464,350.892639 286.058594,348.260376 
	C294.307861,342.925323 295.723846,334.204132 295.094177,324.077850 
	C295.103027,305.260101 295.193939,286.441864 295.092163,267.624725 
	C295.023102,254.853378 286.115631,245.931976 273.338959,245.922684 
	C209.560684,245.876282 145.782349,245.919235 81.081894,245.747040 
	C75.436577,245.733582 69.789925,245.635208 64.146194,245.723282 
	C49.770050,245.947632 41.074673,254.775742 41.036636,269.199951 
	C40.991531,286.302582 41.003159,303.405518 41.064228,320.508026 
	C41.069752,322.054688 41.615585,323.599396 41.936058,326.056488 
M362.097595,245.517151 
	C352.123871,245.626465 342.124603,245.343170 332.185913,245.990387 
	C326.093658,246.387115 322.009674,251.452118 321.971100,257.508118 
	C321.854340,275.835571 321.840485,294.165070 321.997223,312.492004 
	C322.050171,318.679993 327.388123,323.886780 333.516724,323.963165 
	C342.675354,324.077332 351.837585,323.903748 361.925903,323.996582 
	C368.070465,323.998871 374.216705,324.093536 380.359100,323.979309 
	C387.546936,323.845642 392.975006,318.521332 393.009857,311.410858 
	C393.096924,293.641663 393.107941,275.871307 393.001099,258.102325 
	C392.958923,251.090836 387.779663,246.026566 380.684021,245.871353 
	C374.711029,245.740662 368.732208,245.877808 362.097595,245.517151 
M340.408569,358.042206 
	C342.233521,358.037598 344.070129,358.163940 345.881073,358.002380 
	C350.273865,357.610565 354.570068,353.569580 353.850342,350.135773 
	C352.955170,345.864868 349.916443,343.868561 345.528168,343.907959 
	C340.883209,343.949677 336.236755,343.863220 331.592407,343.931976 
	C326.862488,344.001953 323.054565,346.980957 323.032745,350.492889 
	C323.009949,354.160400 326.945740,357.743835 331.492554,358.005920 
	C334.138428,358.158478 336.799957,358.039215 340.408569,358.042206 
z"/>
<path fill="#FFA92C" opacity="1.000000" stroke="none" 
	d="
M144.943527,24.165735 
	C170.738068,24.111574 196.573990,23.131788 222.314697,24.282261 
	C244.825256,25.288361 264.952301,41.210583 269.058319,65.894028 
	C269.459839,68.307846 269.850037,70.742119 269.972229,73.180603 
	C270.485413,83.422028 265.221863,86.809219 256.207275,86.927246 
	C237.735199,87.169090 219.257767,87.001526 200.782532,86.999634 
	C170.156998,86.996490 139.531464,86.991066 108.376938,86.575439 
	C104.353310,83.875702 100.280693,82.328148 99.946960,77.035332 
	C98.793533,58.742031 109.533096,39.166542 125.983429,31.137829 
	C132.003693,28.199593 138.606476,26.454903 144.943527,24.165735 
z"/>
<path fill="#FFA92C" opacity="1.000000" stroke="none" 
	d="
M265.054871,154.115143 
	C273.140076,161.462906 269.789124,170.993256 269.480377,179.708466 
	C269.335327,183.803207 263.432739,186.835220 257.940338,186.977539 
	C253.625244,187.089355 249.305038,187.005386 244.227692,186.724915 
	C238.300491,186.651443 233.132690,186.861450 227.501007,187.042389 
	C188.369431,187.033417 149.701752,187.053543 110.813660,186.832794 
	C109.058182,186.556961 107.523125,186.521973 105.891579,186.188187 
	C104.066422,183.967957 101.124512,182.210403 100.838638,180.094070 
	C100.010933,173.966675 99.640442,167.623856 100.353401,161.512924 
	C100.665947,158.834061 104.045135,156.512970 106.488968,154.005371 
	C110.994370,153.655899 115.042625,153.330490 119.381783,153.159393 
	C130.842453,163.975555 134.690094,164.007492 146.035934,153.543320 
	C146.272491,153.325150 146.583984,153.188232 147.176575,153.299622 
	C149.468643,153.709473 151.444443,153.937454 153.420700,153.941376 
	C190.632050,154.015137 227.843475,154.062363 265.054871,154.115143 
z"/>
<path fill="#149334" opacity="1.000000" stroke="none" 
	d="
M98.952919,98.173912 
	C116.593254,98.115913 134.233566,98.019623 151.873932,98.007790 
	C189.992966,97.982208 228.112595,97.912025 266.230103,98.154045 
	C269.555145,98.175148 274.032623,99.406624 275.952057,101.739883 
	C280.579926,107.365517 277.228455,113.695709 269.662994,114.957184 
	C268.690216,115.119392 267.669189,114.998474 266.670532,114.998375 
	C211.073364,114.992958 155.476181,114.986427 99.195343,114.657440 
	C95.071373,112.742081 91.452759,110.637772 92.254112,106.463181 
	C92.757149,103.842644 95.540024,101.643547 97.365021,99.306099 
	C97.748543,98.814880 98.416191,98.545509 98.952919,98.173912 
z"/>
<path fill="#C26C3D" opacity="1.000000" stroke="none" 
	d="
M265.368774,153.965576 
	C227.843475,154.062363 190.632050,154.015137 153.420700,153.941376 
	C151.444443,153.937454 149.468643,153.709473 147.364914,153.013519 
	C155.189468,144.296417 163.141739,136.151566 171.292328,127.926620 
	C171.732208,127.675262 171.899628,127.449127 171.992966,127.168129 
	C201.783920,127.112518 231.574936,127.005096 261.365753,127.048836 
	C266.755768,127.056747 273.214172,131.843170 273.897491,136.399307 
	C275.155487,144.787231 274.088013,148.349045 265.368774,153.965576 
z"/>
<path fill="#F48A1E" opacity="1.000000" stroke="none" 
	d="
M144.482071,24.106785 
	C138.606476,26.454903 132.003693,28.199593 125.983429,31.137829 
	C109.533096,39.166542 98.793533,58.742031 99.946960,77.035332 
	C100.280693,82.328148 104.353310,83.875702 107.912491,86.498466 
	C97.746902,86.555939 87.486694,86.659317 77.298492,85.852905 
	C71.633240,85.404503 69.124832,81.618576 69.005630,76.097496 
	C68.462791,50.955116 84.834091,30.593054 108.895256,25.481400 
	C120.195229,23.080784 132.287430,24.409271 144.482071,24.106785 
z"/>
<path fill="#BABABA" opacity="1.000000" stroke="none" 
	d="
M323.035126,211.841522 
	C315.815643,212.152313 308.596130,212.463120 301.126984,212.406555 
	C301.640686,210.471268 302.042023,208.524506 303.224152,207.394791 
	C313.609344,197.470139 324.199829,187.759781 334.547974,177.797424 
	C336.163696,176.241943 336.863586,173.735168 337.984741,170.816925 
	C337.968506,164.317841 337.954498,158.670105 338.102325,152.707123 
	C339.528168,148.427536 342.289856,146.142410 346.394653,146.415741 
	C350.287659,146.674957 352.603729,149.266220 353.415771,153.508209 
	C353.583221,159.617340 353.815155,165.289673 354.047058,170.962021 
	C354.036072,184.304901 354.025085,197.647797 354.034424,211.452972 
	C348.872833,212.144379 343.690979,212.373489 338.250031,211.814240 
	C337.990936,206.957993 337.990936,202.890076 337.990936,197.339401 
	C332.358826,202.800659 327.696991,207.321091 323.035126,211.841522 
z"/>
<path fill="#BAB9B9" opacity="1.000000" stroke="none" 
	d="
M366.780487,136.311035 
	C376.557953,132.233383 386.314667,128.104889 396.122101,124.100639 
	C400.666382,122.245270 405.309509,120.631889 410.440796,119.344261 
	C410.982361,136.519958 410.990967,153.260193 410.610901,170.013947 
	C405.397430,168.311920 400.547852,166.662582 395.753113,164.866852 
	C386.164215,161.275650 376.605316,157.604263 366.896729,153.721283 
	C366.635498,153.336243 366.511536,153.195923 366.489136,152.597534 
	C366.653961,146.863327 366.717224,141.587189 366.780487,136.311035 
z"/>
<path fill="#F48A1E" opacity="1.000000" stroke="none" 
	d="
M106.031830,154.029434 
	C104.045135,156.512970 100.665947,158.834061 100.353401,161.512924 
	C99.640442,167.623856 100.010933,173.966675 100.838638,180.094070 
	C101.124512,182.210403 104.066422,183.967957 105.440186,186.270950 
	C101.713043,186.791534 98.340813,186.930557 94.968575,187.069565 
	C88.749214,186.715057 82.486671,186.694031 76.324707,185.896210 
	C71.733391,185.301773 69.339149,181.793442 69.080002,177.298187 
	C68.803902,172.508972 68.451431,167.598511 69.222282,162.920609 
	C69.702553,160.006104 72.202896,157.424469 74.331612,154.323883 
	C84.223900,153.922775 93.581230,153.891251 103.323990,153.909042 
	C104.483543,153.982056 105.257690,154.005737 106.031830,154.029434 
z"/>
<path fill="#434558" opacity="1.000000" stroke="none" 
	d="
M410.999573,170.000427 
	C410.990967,153.260193 410.982361,136.519958 410.809631,119.327026 
	C410.768860,116.228493 410.983734,113.583176 410.998901,110.936714 
	C411.050232,101.981590 413.640259,99.569908 422.652466,100.923523 
	C421.478241,104.349411 419.192719,107.113266 419.167603,109.897507 
	C418.905487,138.967102 418.900726,168.040985 419.183441,197.110199 
	C419.209198,199.761017 421.722534,202.387650 423.080719,205.025528 
	C416.343903,208.163101 411.073090,205.028320 411.019562,197.842072 
	C410.997589,194.893799 411.008240,191.945297 411.019531,188.068176 
	C411.023163,181.426437 411.011353,175.713440 410.999573,170.000427 
z"/>
<path fill="#AB542D" opacity="1.000000" stroke="none" 
	d="
M102.938568,153.859711 
	C93.581230,153.891251 84.223900,153.922775 74.392517,153.984619 
	C63.878372,149.204849 62.423447,139.385956 67.115227,132.811676 
	C69.798111,129.052338 73.721329,127.092346 78.408455,127.039062 
	C83.557465,126.980522 88.707970,127.053764 94.346497,127.327370 
	C94.835159,127.585144 94.943855,127.958870 95.026436,128.275131 
	C96.067444,129.743347 97.025879,130.895294 97.944572,132.410370 
	C93.868828,140.034592 94.559113,145.290695 100.188858,150.693420 
	C101.193268,151.657333 102.026367,152.799744 102.938568,153.859711 
z"/>
<path fill="#5F6172" opacity="1.000000" stroke="none" 
	d="
M423.462463,205.002182 
	C421.722534,202.387650 419.209198,199.761017 419.183441,197.110199 
	C418.900726,168.040985 418.905487,138.967102 419.167603,109.897507 
	C419.192719,107.113266 421.478241,104.349411 422.874786,101.259407 
	C426.015656,102.665634 427.106445,105.068237 427.087433,108.666595 
	C426.931091,138.249878 427.075806,167.834900 426.862335,197.417465 
	C426.844116,199.945053 424.895844,202.458710 423.462463,205.002182 
z"/>
<path fill="#8E9497" opacity="1.000000" stroke="none" 
	d="
M410.610870,170.013947 
	C411.011353,175.713440 411.023163,181.426437 410.980835,187.610184 
	C396.195038,182.357819 381.463379,176.634720 366.517395,170.481003 
	C366.546753,164.688934 366.790405,159.327454 367.034058,153.965988 
	C376.605316,157.604263 386.164215,161.275650 395.753113,164.866852 
	C400.547852,166.662582 405.397430,168.311920 410.610870,170.013947 
z"/>
<path fill="#BABABA" opacity="1.000000" stroke="none" 
	d="
M468.814270,107.599884 
	C472.701019,106.665817 476.290955,106.305573 478.714996,109.585678 
	C480.725189,112.305756 482.105621,115.662415 479.829712,118.749519 
	C478.363342,120.738548 476.117004,122.569122 473.827179,123.457748 
	C466.456482,126.318169 458.927032,128.780426 451.412659,131.256165 
	C445.963440,133.051514 441.608887,131.415726 440.177521,127.282753 
	C438.343079,121.985703 440.382385,118.005676 446.138000,115.883080 
	C453.559906,113.145981 461.010406,110.486420 468.814270,107.599884 
z"/>
<path fill="#BABABA" opacity="1.000000" stroke="none" 
	d="
M476.494629,198.705307 
	C473.448761,198.753906 470.578461,199.181122 468.070679,198.417694 
	C460.486511,196.108856 453.007141,193.436127 445.556793,190.714020 
	C440.317139,188.799637 438.320557,184.344925 440.082855,179.236099 
	C441.379669,175.476730 445.503815,173.480042 450.251801,174.987381 
	C458.585968,177.633194 466.899475,180.409363 475.024994,183.627502 
	C482.259827,186.492874 482.841003,192.674484 476.494629,198.705307 
z"/>
<path fill="#BABABA" opacity="1.000000" stroke="none" 
	d="
M465.962280,161.000000 
	C459.164734,160.999573 452.859772,161.055008 446.556335,160.980835 
	C441.616211,160.922714 439.125275,158.478226 439.001862,153.803879 
	C438.868927,148.768982 441.684448,145.156876 446.382629,145.059921 
	C455.337555,144.875092 464.300507,144.908417 473.257111,145.046021 
	C477.740601,145.114899 481.917206,149.275772 481.799896,153.112473 
	C481.650543,157.998947 478.366699,160.926743 472.925659,160.995407 
	C470.769257,161.022614 468.612244,160.999954 465.962280,161.000000 
z"/>
<path fill="#BABABA" opacity="1.000000" stroke="none" 
	d="
M455.364227,422.931000 
	C468.573486,422.886444 481.782837,422.854675 494.991943,422.782410 
	C496.796936,422.772522 498.600830,422.560822 500.740417,422.192902 
	C504.295990,423.750122 507.516418,425.557007 510.868530,427.677429 
	C509.123260,433.359863 504.793579,434.959503 499.714478,434.992096 
	C485.809143,435.081390 471.902771,435.015747 457.479523,434.568329 
	C456.429565,430.393799 455.896912,426.662415 455.364227,422.931000 
z"/>
<path fill="#E9493D" opacity="1.000000" stroke="none" 
	d="
M366.339600,136.223480 
	C366.717224,141.587189 366.653961,146.863327 366.077576,152.585693 
	C361.536346,153.045074 357.508301,153.058243 353.480225,153.071411 
	C352.603729,149.266220 350.287659,146.674957 346.394653,146.415741 
	C342.289856,146.142410 339.528168,148.427536 337.716125,152.698639 
	C331.431030,152.983826 328.378845,148.909180 325.176147,145.061783 
	C327.672729,139.041885 332.103210,135.934296 338.696594,135.988235 
	C347.763763,136.062408 356.831329,136.088959 366.339600,136.223480 
z"/>
<path fill="#16742B" opacity="1.000000" stroke="none" 
	d="
M98.492805,98.102013 
	C98.416191,98.545509 97.748543,98.814880 97.365021,99.306099 
	C95.540024,101.643547 92.757149,103.842644 92.254112,106.463181 
	C91.452759,110.637772 95.071373,112.742081 98.728790,114.581139 
	C89.461487,114.881134 79.958305,115.284401 70.504013,114.776871 
	C67.645348,114.623413 64.369156,112.475204 62.278389,110.289642 
	C59.725376,107.620903 60.468521,103.679657 63.095173,101.478867 
	C65.323067,99.612175 68.659798,98.301079 71.572845,98.163643 
	C80.375298,97.748352 89.210350,98.023865 98.492805,98.102013 
z"/>
<path fill="#BBB8B4" opacity="1.000000" stroke="none" 
	d="
M12.559280,421.970428 
	C21.904665,422.057098 30.879627,422.173096 40.301849,422.683655 
	C40.175686,427.057007 39.602261,431.035767 39.028835,435.014557 
	C30.798075,435.018982 22.567167,434.995300 14.336610,435.038391 
	C9.348816,435.064484 5.369390,433.395569 3.028295,428.354919 
	C6.063186,426.002228 9.126021,424.001007 12.559280,421.970428 
z"/>
<path fill="#BBBAB8" opacity="1.000000" stroke="none" 
	d="
M227.964890,187.071472 
	C233.132690,186.861450 238.300491,186.651443 243.763901,186.742722 
	C244.043228,195.034866 244.026947,203.025711 244.032043,211.481079 
	C238.893341,212.139999 233.733292,212.334396 228.284241,211.761566 
	C227.985138,203.020065 227.975006,195.045761 227.964890,187.071472 
z"/>
<path fill="#BABABA" opacity="1.000000" stroke="none" 
	d="
M94.979813,187.533020 
	C98.340813,186.930557 101.713043,186.791534 105.536674,186.569748 
	C107.523125,186.521973 109.058182,186.556961 110.799911,187.296234 
	C111.025024,195.974182 111.043465,203.947861 111.061905,211.921524 
	C105.878769,212.146317 100.695625,212.371124 95.230042,212.269379 
	C94.962082,203.960693 94.976570,195.978592 94.979813,187.533020 
z"/>
<path fill="#CE2C28" opacity="1.000000" stroke="none" 
	d="
M353.415771,153.508209 
	C357.508301,153.058243 361.536346,153.045074 365.976013,153.043747 
	C366.511536,153.195923 366.635498,153.336243 366.896729,153.721283 
	C366.790405,159.327454 366.546753,164.688934 366.132568,170.413956 
	C362.293579,170.845673 358.625153,170.913834 354.501892,170.972015 
	C353.815155,165.289673 353.583221,159.617340 353.415771,153.508209 
z"/>
<path fill="#CF2925" opacity="1.000000" stroke="none" 
	d="
M325.109802,145.521225 
	C328.378845,148.909180 331.431030,152.983826 337.554260,153.013885 
	C337.954498,158.670105 337.968506,164.317841 337.971893,170.426178 
	C333.537506,169.668457 328.557587,169.179810 326.634186,164.061783 
	C325.717529,161.622559 325.257416,158.931885 325.065155,156.320175 
	C324.812744,152.891724 325.028839,149.428772 325.109802,145.521225 
z"/>
<path fill="#DDA82C" opacity="1.000000" stroke="none" 
	d="
M94.943855,127.958870 
	C94.943855,127.958870 94.835159,127.585144 94.795105,127.394165 
	C120.191856,127.146652 145.628647,127.090126 171.529205,127.100868 
	C171.899628,127.449127 171.732208,127.675262 170.814087,127.923615 
	C145.072968,127.986763 120.008408,127.972816 94.943855,127.958870 
z"/>
<path fill="#2B2E3F" opacity="1.000000" stroke="none" 
	d="
M349.899139,422.831940 
	C353.540771,411.431458 359.252197,401.461121 368.726532,393.740875 
	C376.809937,387.154053 385.886963,383.289856 396.411743,382.313171 
	C389.663971,392.423676 385.120056,402.978882 386.187500,415.527771 
	C386.144684,415.713593 386.040405,416.080414 385.737183,416.220093 
	C382.760498,421.424164 378.849335,426.211975 377.644104,431.604553 
	C373.934174,448.204346 391.486816,464.745056 407.393799,459.960449 
	C408.856873,459.955200 409.921661,459.917664 411.118469,460.205292 
	C413.603790,462.004272 415.818420,463.795898 418.335663,464.894012 
	C426.867493,468.615967 435.896637,469.525055 445.113220,469.025482 
	C433.724121,483.688141 418.480042,490.465485 400.201935,489.900299 
	C383.221405,489.375153 369.429688,481.576965 359.258636,468.258453 
	C355.160583,462.892181 353.020691,456.030518 350.005005,449.036560 
	C349.494415,443.774017 348.968445,439.324310 348.564148,434.446899 
	C349.090271,430.290100 349.494690,426.561035 349.899139,422.831940 
z"/>
<path fill="#2B2E3F" opacity="1.000000" stroke="none" 
	d="
M39.088058,435.429169 
	C39.602261,431.035767 40.175686,427.057007 40.753159,422.711639 
	C48.103333,400.119263 62.613598,385.966553 86.559975,382.411041 
	C86.434906,383.836182 86.088623,384.988708 85.418785,385.904602 
	C78.826012,394.918915 76.596542,405.262146 75.925323,416.435852 
	C70.136238,422.684021 67.311333,429.609222 68.001831,437.939392 
	C69.206749,452.475403 84.758537,463.922333 98.415764,459.935425 
	C99.864380,459.893280 100.917870,459.817963 102.006691,460.107422 
	C103.153503,461.370178 104.164322,462.447174 105.392456,463.137634 
	C114.961815,468.517578 125.413979,469.410156 136.101791,469.021332 
	C124.502419,483.141235 109.529396,490.382233 91.296295,489.892700 
	C79.179787,489.567413 68.379646,485.181244 58.797764,477.446228 
	C50.564407,470.799835 45.195961,462.402344 41.384369,452.785278 
	C41.035259,451.904419 41.108757,450.856018 40.931667,449.490479 
	C40.300640,444.678284 39.723961,440.261017 39.088058,435.429169 
z"/>
<path fill="#424456" opacity="1.000000" stroke="none" 
	d="
M386.230286,415.341919 
	C385.120056,402.978882 389.663971,392.423676 396.823914,382.356079 
	C410.599091,380.005371 422.816620,383.656158 433.859894,391.516296 
	C444.646606,399.193848 451.511871,409.668152 455.195618,422.658539 
	C455.896912,426.662415 456.429565,430.393799 457.015594,434.547058 
	C456.423370,439.412720 455.777740,443.856506 455.123840,448.703430 
	C453.743805,456.492981 450.257690,462.872894 445.434509,468.897400 
	C435.896637,469.525055 426.867493,468.615967 418.335663,464.894012 
	C415.818420,463.795898 413.603790,462.004272 411.317535,459.933716 
	C421.289032,455.235077 427.145935,447.967834 427.942749,437.195862 
	C428.757355,426.183868 424.081085,417.835693 414.283386,412.784973 
	C404.526428,407.755249 395.100616,409.201447 386.230286,415.341919 
z"/>
<path fill="#424456" opacity="1.000000" stroke="none" 
	d="
M76.080940,416.142670 
	C76.596542,405.262146 78.826012,394.918915 85.418785,385.904602 
	C86.088623,384.988708 86.434906,383.836182 86.964722,382.443604 
	C105.750847,379.479065 121.036613,386.115417 133.631683,399.718475 
	C139.583679,406.146820 143.279343,413.858276 145.931793,422.940613 
	C146.657990,427.529846 147.198853,431.377289 147.717834,435.614563 
	C147.167374,440.371429 146.638763,444.738434 146.110168,449.105469 
	C142.985992,455.649445 139.861801,462.193420 136.419708,468.879364 
	C125.413979,469.410156 114.961815,468.517578 105.392456,463.137634 
	C104.164322,462.447174 103.153503,461.370178 102.216560,459.853333 
	C103.723770,458.571014 105.127380,458.019409 106.377701,457.226227 
	C115.100258,451.692566 119.586288,443.690613 118.808731,433.414581 
	C118.048660,423.369751 112.767799,415.882141 103.365509,412.026093 
	C93.958702,408.168182 84.918938,408.920227 76.759987,416.012756 
	C76.531891,416.046356 76.080940,416.142670 76.080940,416.142670 
z"/>
<path fill="#9B9494" opacity="1.000000" stroke="none" 
	d="
M146.567917,449.043457 
	C146.638763,444.738434 147.167374,440.371429 148.204956,435.551575 
	C205.138870,435.075531 261.563812,435.059265 317.988770,435.022675 
	C328.140015,435.016083 338.291229,434.926086 348.442444,434.874573 
	C348.968445,439.324310 349.494415,443.774017 349.963165,448.651001 
	C327.420502,449.033539 304.935089,448.956299 282.449677,448.950989 
	C237.308350,448.940369 192.167007,448.968994 146.567917,449.043457 
z"/>
<path fill="#424456" opacity="1.000000" stroke="none" 
	d="
M82.004044,245.930756 
	C145.782349,245.919235 209.560684,245.876282 273.338959,245.922684 
	C286.115631,245.931976 295.023102,254.853378 295.092163,267.624725 
	C295.193939,286.441864 295.103027,305.260101 294.559692,324.552460 
	C286.345215,325.000549 278.665222,324.974030 270.981659,324.484436 
	C270.977234,316.755341 270.748322,309.479950 271.044983,302.226105 
	C271.299011,296.015442 269.127899,291.326569 263.966278,287.522949 
	C263.989227,282.573486 264.188477,278.077332 263.914276,273.610291 
	C263.658875,269.449005 260.287750,266.670593 256.175812,266.823212 
	C251.897614,266.981964 249.323868,269.214142 248.958618,273.508820 
	C248.706055,276.478577 248.703003,279.489624 248.858002,282.468170 
	C249.007538,285.341705 248.375977,287.358704 245.682877,289.086456 
	C241.682343,291.652954 239.907364,295.669830 239.979248,300.568604 
	C240.098618,308.704254 239.983704,316.843353 239.501221,325.000793 
	C231.398300,324.981049 223.761612,324.941498 216.132187,324.442841 
	C216.139725,316.334442 215.978317,308.680634 216.192245,301.037354 
	C216.358643,295.091431 214.085342,290.778503 208.838165,287.519592 
	C208.776382,282.895538 208.979950,278.717377 208.653381,274.581055 
	C208.247833,269.444489 205.200012,266.651337 200.729828,266.733612 
	C196.339874,266.814453 193.382019,269.878265 193.116837,274.918274 
	C192.942184,278.237640 193.276306,281.591370 192.977066,284.893005 
	C192.849472,286.300934 192.028061,288.067505 190.934494,288.891296 
	C186.838226,291.977051 185.176254,296.058319 185.165863,300.981873 
	C185.149002,308.969757 185.182205,316.957703 184.717026,324.977966 
	C179.243195,324.971375 174.246613,324.932526 169.285065,324.436218 
	C169.338715,307.538483 169.424179,291.097839 169.350266,274.657928 
	C169.307571,265.160217 164.927216,260.563080 155.397659,260.373962 
	C143.615677,260.140106 131.825623,260.314575 119.577881,260.212402 
	C103.735909,260.024689 88.355095,259.937164 72.985474,259.482758 
	C75.999123,254.720840 79.001579,250.325806 82.004044,245.930756 
z"/>
<path fill="#D63322" opacity="1.000000" stroke="none" 
	d="
M216.124924,324.901978 
	C223.761612,324.941498 231.398300,324.981049 239.970703,325.007385 
	C245.950592,324.978973 250.994766,324.963776 256.500977,324.968506 
	C261.637115,324.974792 266.311157,324.961121 270.985229,324.947510 
	C278.665222,324.974030 286.345215,325.000549 294.489929,325.017212 
	C295.723846,334.204132 294.307861,342.925323 286.058594,348.260376 
	C281.988464,350.892639 276.617859,352.808624 271.824829,352.832245 
	C210.516220,353.134064 149.205612,353.034058 87.211548,352.720856 
	C85.626991,352.020386 84.675880,351.722656 83.833496,351.236481 
	C73.646278,345.357117 70.813232,336.145447 72.171722,325.005127 
	C72.291100,324.904907 72.600945,324.870728 73.098648,324.928406 
	C100.422058,324.948425 127.247765,324.910706 154.532028,324.934204 
	C159.743729,324.961456 164.496887,324.927551 169.250031,324.893677 
	C174.246613,324.932526 179.243195,324.971375 185.167709,324.990204 
	C191.078079,324.930695 196.060516,324.891235 201.503052,324.907959 
	C206.683731,324.943451 211.404327,324.922699 216.124924,324.901978 
z"/>
<path fill="#6EDCF9" opacity="1.000000" stroke="none" 
	d="
M362.755951,245.896408 
	C368.732208,245.877808 374.711029,245.740662 380.684021,245.871353 
	C387.779663,246.026566 392.958923,251.090836 393.001099,258.102325 
	C393.107941,275.871307 393.096924,293.641663 393.009857,311.410858 
	C392.975006,318.521332 387.546936,323.845642 380.359100,323.979309 
	C374.216705,324.093536 368.070465,323.998871 361.241486,323.677734 
	C354.805084,320.728699 352.044464,316.171814 352.035828,309.926880 
	C352.012329,292.940704 351.987518,275.954315 352.049438,258.968323 
	C352.073486,252.366882 356.184937,247.485489 362.755951,245.896408 
z"/>
<path fill="#FFFFFF" opacity="1.000000" stroke="none" 
	d="
M111.524780,211.954117 
	C111.043465,203.947861 111.025024,195.974182 111.020325,187.537079 
	C149.701752,187.053543 188.369431,187.033417 227.501007,187.042389 
	C227.975006,195.045761 227.985138,203.020065 227.982727,211.457581 
	C189.309341,211.942764 150.648499,211.964737 111.524780,211.954117 
z"/>
<path fill="#BABABA" opacity="1.000000" stroke="none" 
	d="
M348.564148,434.446899 
	C338.291229,434.926086 328.140015,435.016083 317.988770,435.022675 
	C261.563812,435.059265 205.138870,435.075531 148.226807,435.161743 
	C147.198853,431.377289 146.657990,427.529846 146.110886,423.259796 
	C213.727814,422.826477 281.351013,422.815735 349.436646,422.818481 
	C349.494690,426.561035 349.090271,430.290100 348.564148,434.446899 
z"/>
<path fill="#37B5D2" opacity="1.000000" stroke="none" 
	d="
M362.426758,245.706787 
	C356.184937,247.485489 352.073486,252.366882 352.049438,258.968323 
	C351.987518,275.954315 352.012329,292.940704 352.035828,309.926880 
	C352.044464,316.171814 354.805084,320.728699 360.777679,323.605743 
	C351.837585,323.903748 342.675354,324.077332 333.516724,323.963165 
	C327.388123,323.886780 322.050171,318.679993 321.997223,312.492004 
	C321.840485,294.165070 321.854340,275.835571 321.971100,257.508118 
	C322.009674,251.452118 326.093658,246.387115 332.185913,245.990387 
	C342.124603,245.343170 352.123871,245.626465 362.426758,245.706787 
z"/>
<path fill="#2C2F40" opacity="1.000000" stroke="none" 
	d="
M81.542969,245.838898 
	C79.001579,250.325806 75.999123,254.720840 72.572441,259.562164 
	C61.092152,260.499084 56.929977,264.735718 56.930859,275.613708 
	C56.932186,292.028168 56.978718,308.442627 56.541916,324.910492 
	C51.355362,325.024261 46.632935,325.084625 41.910503,325.145020 
	C41.615585,323.599396 41.069752,322.054688 41.064228,320.508026 
	C41.003159,303.405518 40.991531,286.302582 41.036636,269.199951 
	C41.074673,254.775742 49.770050,245.947632 64.146194,245.723282 
	C69.789925,245.635208 75.436577,245.733582 81.542969,245.838898 
z"/>
<path fill="#B7251A" opacity="1.000000" stroke="none" 
	d="
M41.923279,325.600769 
	C46.632935,325.084625 51.355362,325.024261 57.005890,324.974731 
	C62.640106,325.025482 67.346222,325.065399 72.052338,325.105316 
	C70.813232,336.145447 73.646278,345.357117 83.833496,351.236481 
	C84.675880,351.722656 85.626991,352.020386 86.743637,352.660767 
	C78.962936,352.964355 70.957970,353.264130 62.971302,353.003326 
	C50.539524,352.597382 41.940491,343.428009 41.947960,331.056000 
	C41.948963,329.389496 41.940266,327.722992 41.923279,325.600769 
z"/>
<path fill="#F4891E" opacity="1.000000" stroke="none" 
	d="
M499.010071,395.974060 
	C493.394257,395.995422 487.770569,396.218506 482.164215,395.998444 
	C468.137695,395.447815 459.590210,380.952576 466.771484,369.444824 
	C471.099457,372.057465 474.683655,375.784790 478.885345,376.710999 
	C485.363281,378.139038 492.264252,377.647980 498.992645,378.441895 
	C499.003052,384.599884 499.006561,390.286957 499.010071,395.974060 
z"/>
<path fill="#FFA92B" opacity="1.000000" stroke="none" 
	d="
M498.985779,377.971008 
	C492.264252,377.647980 485.363281,378.139038 478.885345,376.710999 
	C474.683655,375.784790 471.099457,372.057465 467.098724,369.263733 
	C470.039459,361.714447 476.343597,359.649200 483.337585,359.042450 
	C487.290039,358.699615 491.303406,359.123413 495.276520,358.933624 
	C498.507812,358.779236 499.821136,360.294922 499.658905,363.964355 
	C499.233063,369.092438 499.109406,373.531738 498.985779,377.971008 
z"/>
<path fill="#D63322" opacity="1.000000" stroke="none" 
	d="
M339.931519,358.042236 
	C336.799957,358.039215 334.138428,358.158478 331.492554,358.005920 
	C326.945740,357.743835 323.009949,354.160400 323.032745,350.492889 
	C323.054565,346.980957 326.862488,344.001953 331.592407,343.931976 
	C336.236755,343.863220 340.883209,343.949677 345.528168,343.907959 
	C349.916443,343.868561 352.955170,345.864868 353.850342,350.135773 
	C354.570068,353.569580 350.273865,357.610565 345.881073,358.002380 
	C344.070129,358.163940 342.233521,358.037598 339.931519,358.042236 
z"/>
<path fill="#FFFFFF" opacity="1.000000" stroke="none" 
	d="
M323.496094,211.907257 
	C327.696991,207.321091 332.358826,202.800659 337.990936,197.339401 
	C337.990936,202.890076 337.990936,206.957993 337.973389,211.485016 
	C333.289581,211.953735 328.623322,211.963364 323.496094,211.907257 
z"/>
<path fill="#F88A38" opacity="1.000000" stroke="none" 
	d="
M498.992645,378.441895 
	C499.109406,373.531738 499.233063,369.092438 499.644501,364.369934 
	C499.832062,374.530914 499.731842,384.975189 499.320862,395.696747 
	C499.006561,390.286957 499.003052,384.599884 498.992645,378.441895 
z"/>
<path fill="#F2D422" opacity="1.000000" stroke="none" 
	d="
M95.026436,128.275131 
	C120.008408,127.972816 145.072968,127.986763 170.615753,128.003723 
	C163.141739,136.151566 155.189468,144.296417 147.048859,152.727341 
	C146.583984,153.188232 146.272491,153.325150 146.035934,153.543320 
	C134.690094,164.007492 130.842453,163.975555 119.194778,152.877991 
	C111.806015,145.643936 104.895164,138.845596 97.984306,132.047256 
	C97.025879,130.895294 96.067444,129.743347 95.026436,128.275131 
z"/>
<path fill="#C36E3A" opacity="1.000000" stroke="none" 
	d="
M97.944572,132.410370 
	C104.895164,138.845596 111.806015,145.643936 118.903885,152.723679 
	C115.042625,153.330490 110.994370,153.655899 106.488968,154.005371 
	C105.257690,154.005737 104.483543,153.982056 103.323990,153.909058 
	C102.026367,152.799744 101.193268,151.657333 100.188858,150.693420 
	C94.559113,145.290695 93.868828,140.034592 97.944572,132.410370 
z"/>
<path fill="#B3B3B4" opacity="1.000000" stroke="none" 
	d="
M386.187500,415.527771 
	C395.100616,409.201447 404.526428,407.755249 414.283386,412.784973 
	C424.081085,417.835693 428.757355,426.183868 427.942749,437.195862 
	C427.145935,447.967834 421.289032,455.235077 411.185547,459.608521 
	C409.921661,459.917664 408.856873,459.955200 407.368622,459.619690 
	C404.871613,456.915741 402.890594,454.494019 400.708618,452.269470 
	C390.841064,442.209381 386.079193,430.109436 386.040405,416.080414 
	C386.040405,416.080414 386.144684,415.713593 386.187500,415.527771 
z"/>
<path fill="#969B9E" opacity="1.000000" stroke="none" 
	d="
M385.737183,416.220093 
	C386.079193,430.109436 390.841064,442.209381 400.708618,452.269470 
	C402.890594,454.494019 404.871613,456.915741 406.970337,459.587402 
	C391.486816,464.745056 373.934174,448.204346 377.644104,431.604553 
	C378.849335,426.211975 382.760498,421.424164 385.737183,416.220093 
z"/>
<path fill="#B3B3B4" opacity="1.000000" stroke="none" 
	d="
M76.988083,415.979126 
	C84.918938,408.920227 93.958702,408.168182 103.365509,412.026093 
	C112.767799,415.882141 118.048660,423.369751 118.808731,433.414581 
	C119.586288,443.690613 115.100258,451.692566 106.377701,457.226227 
	C105.127380,458.019409 103.723770,458.571014 102.181236,459.488525 
	C100.917870,459.817963 99.864380,459.893280 98.376343,459.596741 
	C97.599113,458.675903 97.369598,457.990936 96.897255,457.597778 
	C83.885315,446.767853 76.559593,433.232086 76.988083,415.979126 
z"/>
<path fill="#969B9F" opacity="1.000000" stroke="none" 
	d="
M76.759987,416.012756 
	C76.559593,433.232086 83.885315,446.767853 96.897255,457.597778 
	C97.369598,457.990936 97.599113,458.675903 97.981224,459.563568 
	C84.758537,463.922333 69.206749,452.475403 68.001831,437.939392 
	C67.311333,429.609222 70.136238,422.684021 75.925323,416.435852 
	C76.080940,416.142670 76.531891,416.046356 76.759987,416.012756 
z"/>
<path fill="#D0CECE" opacity="1.000000" stroke="none" 
	d="
M72.171722,325.005127 
	C67.346222,325.065399 62.640106,325.025482 57.470016,324.921326 
	C56.978718,308.442627 56.932186,292.028168 56.930859,275.613708 
	C56.929977,264.735718 61.092152,260.499084 72.561249,259.929047 
	C88.355095,259.937164 103.735909,260.024689 119.523117,260.540588 
	C115.316986,264.830200 112.564217,269.557465 112.567696,275.875793 
	C99.078331,275.967804 86.051765,275.967804 73.094559,275.967804 
	C73.094559,280.388336 73.094559,283.978271 73.094559,288.365112 
	C86.592201,288.365112 99.812912,288.365112 113.029022,288.808228 
	C113.026794,294.090363 113.029152,298.929352 112.569748,303.866516 
	C99.170464,303.964661 86.232948,303.964661 72.600945,303.964661 
	C72.600945,311.314850 72.600945,318.092773 72.600945,324.870728 
	C72.600945,324.870728 72.291100,324.904907 72.171722,325.005127 
z"/>
<path fill="#E5E3E3" opacity="1.000000" stroke="none" 
	d="
M113.030487,275.783813 
	C112.564217,269.557465 115.316986,264.830200 119.984276,260.640808 
	C131.825623,260.314575 143.615677,260.140106 155.397659,260.373962 
	C164.927216,260.563080 169.307571,265.160217 169.350266,274.657928 
	C169.424179,291.097839 169.338715,307.538483 169.285065,324.436249 
	C164.496887,324.927551 159.743729,324.961456 154.512863,324.476257 
	C154.035141,317.366608 154.035141,310.776031 154.035141,303.768341 
	C139.923248,303.768341 126.477379,303.768341 113.031517,303.768341 
	C113.029152,298.929352 113.026794,294.090363 113.493576,288.766174 
	C127.166008,288.280945 140.369293,288.280945 153.641159,288.280945 
	C153.641159,283.835297 153.641159,279.977875 153.641159,275.783813 
	C139.861313,275.783813 126.445900,275.783813 113.030487,275.783813 
z"/>
<path fill="#FBA72E" opacity="1.000000" stroke="none" 
	d="
M201.042953,324.851776 
	C196.060516,324.891235 191.078079,324.930695 185.644958,324.957886 
	C185.182205,316.957703 185.149002,308.969757 185.165863,300.981873 
	C185.176254,296.058319 186.838226,291.977051 190.934494,288.891296 
	C192.028061,288.067505 192.849472,286.300934 192.977066,284.893005 
	C193.276306,281.591370 192.942184,278.237640 193.116837,274.918274 
	C193.382019,269.878265 196.339874,266.814453 200.729828,266.733612 
	C205.200012,266.651337 208.247833,269.444489 208.653381,274.581055 
	C208.979950,278.717377 208.776382,282.895538 208.538879,287.667297 
	C202.970337,290.835846 201.107925,295.431671 201.040985,300.912750 
	C200.943527,308.891235 201.033112,316.871979 201.042953,324.851776 
z"/>
<path fill="#E9473C" opacity="1.000000" stroke="none" 
	d="
M256.038940,324.948547 
	C250.994766,324.963776 245.950592,324.978973 240.436951,324.987579 
	C239.983704,316.843353 240.098618,308.704254 239.979248,300.568604 
	C239.907364,295.669830 241.682343,291.652954 245.682877,289.086456 
	C248.375977,287.358704 249.007538,285.341705 248.858002,282.468170 
	C248.703003,279.489624 248.706055,276.478577 248.958618,273.508820 
	C249.323868,269.214142 251.897614,266.981964 256.175812,266.823212 
	C260.287750,266.670593 263.658875,269.449005 263.914276,273.610291 
	C264.188477,278.077332 263.989227,282.573486 263.625183,287.563721 
	C258.240479,290.930786 255.598450,294.890106 255.904663,301.019379 
	C256.302277,308.978149 256.025452,316.970581 256.038940,324.948547 
z"/>
<path fill="#FBB962" opacity="1.000000" stroke="none" 
	d="
M201.503052,324.907959 
	C201.033112,316.871979 200.943527,308.891235 201.040985,300.912750 
	C201.107925,295.431671 202.970337,290.835846 208.569031,288.131775 
	C214.085342,290.778503 216.358643,295.091431 216.192245,301.037354 
	C215.978317,308.680634 216.139725,316.334442 216.132187,324.442841 
	C211.404327,324.922699 206.683731,324.943451 201.503052,324.907959 
z"/>
<path fill="#F3615D" opacity="1.000000" stroke="none" 
	d="
M256.500977,324.968506 
	C256.025452,316.970581 256.302277,308.978149 255.904663,301.019379 
	C255.598450,294.890106 258.240479,290.930786 263.594849,288.029755 
	C269.127899,291.326569 271.299011,296.015442 271.044983,302.226105 
	C270.748322,309.479950 270.977234,316.755341 270.981659,324.484436 
	C266.311157,324.961121 261.637115,324.974792 256.500977,324.968506 
z"/>
<path fill="#414356" opacity="1.000000" stroke="none" 
	d="
M112.569748,303.866516 
	C126.477379,303.768341 139.923248,303.768341 154.035141,303.768341 
	C154.035141,310.776031 154.035141,317.366608 154.054306,324.415100 
	C127.247765,324.910706 100.422058,324.948425 73.098648,324.928406 
	C72.600945,318.092773 72.600945,311.314850 72.600945,303.964661 
	C86.232948,303.964661 99.170464,303.964661 112.569748,303.866516 
z"/>
<path fill="#414356" opacity="1.000000" stroke="none" 
	d="
M112.567696,275.875793 
	C126.445900,275.783813 139.861313,275.783813 153.641159,275.783813 
	C153.641159,279.977875 153.641159,283.835297 153.641159,288.280945 
	C140.369293,288.280945 127.166008,288.280945 113.498169,288.323029 
	C99.812912,288.365112 86.592201,288.365112 73.094559,288.365112 
	C73.094559,283.978271 73.094559,280.388336 73.094559,275.967804 
	C86.051765,275.967804 99.078331,275.967804 112.567696,275.875793 
z"/>
</svg>