<svg xmlns="http://www.w3.org/2000/svg" xml:space="preserve" viewBox="0 0 400 400"><path fill="transparent" d="M401 143v258H1V1h400v142M88.06 131.9c.216 3.081.432 6.163.679 10.162-.036 20.48-.024 40.96-.135 61.438-.036 6.813-.388 13.623-1.53 20.309H8.983c0 4.692-.021 8.81.004 12.928.108 18.106.23 36.212.206 55.237.02 18.41.04 36.82-.044 55.61.044.305.22.476 1.476.78 35.036.02 70.072.042 105.316.905v17.367c1.995.122 3.134.252 4.272.253 33.26.01 66.52.012 99.781-.009 1.315 0 2.63-.234 4.875-.189 8.427.023 16.853.046 26.153.284h70.507c0-6.839 0-12.956.132-19.732-.038-.445-.075-.891.151-2.192.377-3.438.754-6.876 2.064-10.161 9.644.015 19.287.03 29.043.984v30.798c8.174 0 15.618 0 23.733.147.452-.05.904-.099 1.945.067.427-.3.855-.601 1.502-1.814V248.876c-4.151 0-7.642 0-12.042-.23-7.251-.015-14.502-.03-21.806-.407 0 0-.27-.25-.195-1.183V223.53c-8.581 0-16.656 0-24.688-.876.046-23.806.09-47.612.466-71.853l-.416-2.677c.003-.64.006-1.282.428-2.656-.01-6.497-.019-12.995.011-20.419v-12.565c-1.946 0-3.38 0-4.913-.782a76.917 76.917 0 0 1-.623-4.533c-.066-1.394-.132-2.789-.03-5.107-.053-21.339-.106-42.677-.074-64.64-.399-.372-.798-.744-2.122-1.282-25.027.016-50.054.031-75.863-.118-1.753.289-3.507.577-5.766.763-.339-.062-.677-.123-1.225-.988-1.118-.642-2.218-1.79-3.356-1.829-3.3-.11-6.615.224-10.553.267-.426-.007-.852-.015-1.966-.229-.465.083-.93.166-2.326.192-5.671.007-11.343.014-17.793-.217-1.08.05-2.16.099-4.129.055-2.383.023-4.767.046-8.079-.031h-66.856c0 12.444 0 24.209-.165 36.642-.371.528-.742 1.056-2.028 1.448H93.345c0 12.311 0 24.065-.216 36.497.016.472.031.945.212 2.207.171.208.343.416-.16 1.148-3.942-.149-5.48 1.601-5.03 5.625.38 3.408.155 6.883-.032 11.085.02.787.042 1.575-.06 3.241z"/><path fill="#A3683E" d="M115.732 348.427c-35.036-.021-70.072-.042-105.552-.382-.503-.586-.665-.76-.927-.842-.02-18.41-.04-36.819.285-55.683.711-.492 1.076-.53 1.91-.533 25.822.015 51.175-.004 76.773-.008.247.015.74-.018 1.21-.007 6.214-.02 11.958-.052 18.155-.044 16.146-.003 31.838-.046 47.988-.024 22.791.106 45.125.147 67.468.65-.009 19.13-.026 37.797-.512 56.478-33.76.02-67.051.02-100.342.05-2.152.002-4.304.225-6.456.345m19.076-34.464c7.976.004 15.96-.213 23.923.098 4.3.169 4.501-2.078 4.319-5.23-.167-2.866.899-6.12-4.148-5.89-7.13.326-14.288-.012-21.43.148-1.78.04-5.082.968-5.065 1.382.128 3.161.905 6.296 2.401 9.492M40.504 331.97c3.817 0 7.661-.283 11.445.074 4.37.412 5.31-1.462 5.183-5.425-.113-3.57-.168-5.972-4.927-5.703-7.115.4-14.28.354-21.4.009-4.196-.204-4.857 1.509-4.948 5.19-.107 4.327.805 6.6 5.693 5.919 2.605-.363 5.302-.064 8.954-.064z"/><path fill="#BE7F4D" d="M107.132 290.888c-5.743.032-11.487.064-17.687-.38-.453-20.438-.427-40.399-.486-60.36-.005-1.742-.577-3.483-.893-5.472-.006-.248-.058-.742-.058-.742.208-6.81.56-13.621.596-20.434.111-20.479.1-40.959.23-62.334.194-3.233.293-5.572.622-8.215 1.668-7.012 3.106-13.719 4.55-20.438.007-.013.016-.037.292-.288.797-1.273 1.378-2.27 1.828-3.322 18.2-42.49 49.849-67.545 96.22-73.962 1.463-.224 2.57-.472 3.678-.72 5.672-.008 11.344-.015 17.654.182 1.217.074 1.796-.058 2.374-.189.427.007.853.015 1.892.3 4.91.881 9.208 1.484 13.506 2.088.338.06.676.122 1.498.53 12.326 3.75 23.73 8.123 34.028 15.075 1.431.965 3.338 1.226 5.025 1.802 0-.012-.022-.003-.001.331 1.347 1.416 2.674 2.497 4.333 3.638.78.056 1.23.052 1.677.03-.001-.019-.038-.016-.037.335.432 1.035.773 1.8 1.306 2.392a5424.714 5424.714 0 0 0 22.725 25.1c.499.547 1.321.799 1.997 1.175.004-.013-.023-.014-.048.338.618 1.189 1.26 2.024 2.014 3.1.398.69.683 1.139 1.04 1.844.373.411.673.567.983.715.01-.007-.01.006-.06.38.951 2.507 1.952 4.64 2.983 7.154 2.395 7.001 4.76 13.62 7.114 20.669 1.127 8.617 2.263 16.804 3.4 24.992a40.865 40.865 0 0 1-.089 2.647c.002 1.279.084 1.834.165 2.388-.045 23.806-.09 47.612-.264 72.351-.196 8.792-.264 16.65-.794 24.518-6.12-.022-11.78-.055-17.507-.502-.336-2.71-.832-5.004-.836-7.3-.055-31.599.43-63.207-.187-94.795-.542-27.754-12.53-50.514-33.422-68.592-21.5-18.605-46.393-26.117-74.714-23.062-21.484 2.317-39.964 11.061-55.525 25.603-20.15 18.83-30.624 42.678-31.006 70.037-.658 47.122-.14 94.26-.116 141.393z"/><path fill="#764431" d="M303.005 248.018c5.66.033 11.32.066 17.45.076.473-.023.494-.021.795.272 8.552.275 16.802.255 25.052.236 7.252.015 14.503.029 22.205.636.45 39.169.45 77.745.45 116.134l7.023 1.3h-23.062c0-10.339 0-20.568.025-31.58-.003-1.214-.03-1.646.001-2.545.058-16.004.058-31.54.058-47.294-11.085 0-21.5 0-32.385-.053-6.565-.018-12.66.017-19.211.007-14.709-.057-28.96-.035-43.21-.108-2.878-.015-5.425.084-5.776 4.061-.746.724-1.284 1.238-2.032 1.45-.418-1.909-.625-3.517-.86-5.329-1.192-.102-2.16-.235-3.131-.26-7.386-.198-7.388-.191-7.388 7.048v73.986c4.114 0 7.568 0 11.041.178.02.178.097.527.097.527-8.426-.023-16.852-.046-25.776-.584-.789-6.396-1.08-12.277-1.373-18.158.018-18.667.035-37.334.19-56.91.041-4.63-.054-8.35-.078-12.536.072-10.034.072-19.601.072-30.24 7.98 0 14.878 0 22.212.108 3.397.037 6.357-.035 9.786.025 13.627.184 26.786.276 39.945.252 2.627-.005 5.254-.455 7.88-.7m-16.59 26.245c.778-.943 2.166-1.85 2.225-2.835.233-3.938.07-7.9.001-11.853-.007-.432-.36-.858-.668-1.542l-4.62.261c0 4.739-.115 9.166.103 13.577.042.832 1.416 1.597 2.96 2.392m-17.014-11.47-.212-4.437h-4.683v15.525h4.894l.001-11.087m33.698-4.288v15.38h4.758c0-4.196-.195-8.16.06-12.094.211-3.237-1.08-4.216-4.818-3.286m21.36-.412c-.848 1.028-2.282 1.982-2.425 3.1-.355 2.76-.143 5.597-.107 8.402.019 1.435.15 2.869.246 4.6l4.812-.402c0-4.454.105-8.561-.074-12.656-.045-1.028-1.006-2.015-2.453-3.044m21.674 6.485v-6.603l-4.73.473v15.77l4.73-.445v-9.195m-96.73-6.335h-4.088v15.644h4.665c0-5.112 0-10.02-.577-15.644z"/><path fill="#C3BF42" d="M87.541 223.872c.467.062.519.556.5 1.28-.034 22.093-.05 43.463-.531 64.837-23.92.008-47.373-.012-70.826.053-1.903.006-3.803.593-5.705.91-.365.038-.73.076-1.37.108-.393-18.111-.515-36.217-.623-54.323-.025-4.118-.004-8.236-.004-12.928 26.35 0 52.222 0 78.56.063z"/><path fill="#A3683E" d="M250.598 290.912c.538-.514 1.076-1.028 2.108-1.45 2.701.577 4.906 1.459 7.119 1.478 14.055.124 28.111.058 42.636.061 6.468.025 12.467.042 18.495.469.09 1.781.15 3.153.196 4.88.023.828.06 1.3.03 2.224-.084 7.615-.169 14.78-.098 21.943.084 8.463.303 16.926.463 25.389.038.446.075.892-.386 1.718-23.71.404-46.92.428-70.166-.022-.046-2.466-.054-4.457-.067-6.448l-.33-50.242z"/><path fill="#C4BD4B" d="M222.53 348.032c.76 5.867 1.052 11.748 1.376 18.059-1.283.555-2.598.789-3.913.79-33.26.02-66.52.018-99.78.008-1.14 0-2.278-.13-4.273-.253 0-5.872 0-11.62-.104-17.788 2.048-.541 4.2-.764 6.352-.766 33.291-.03 66.582-.03 100.342-.05z"/><path fill="#C3BF43" d="M316.13 38.047c.054 21.339.107 42.677-.298 64.482-.959.48-1.459.494-2.201.294-1.022-1.467-1.8-2.72-2.616-4.316-1.036-2.059-2.035-3.776-3.034-5.494 0 0 .019-.013.03-.26a8.878 8.878 0 0 0-.054-1.068c-.667-1.106-1.3-1.896-2.047-2.961-.72-.76-1.326-1.244-1.932-1.728 0 0 .027.001.037-.357-6.565-11.73-14.261-22.07-26.043-28.647 0 0 .037-.003-.12-.239-.716-.424-1.273-.61-1.975-1.095-1.395-1.082-2.647-1.867-3.898-2.652 0 0 .022-.01-.1-.317-1.683-1.749-3.009-3.696-4.843-4.544-8.278-3.827-16.71-7.321-25.06-10.996-1.068-.47-1.979-1.299-2.962-1.96 25.026-.017 50.053-.032 75.577.31.845.755 1.192 1.152 1.54 1.548z"/><path fill="#C3BF42" d="M321.248 298.122c-.037-.472-.073-.944.167-2.078.493-3.59.71-6.519.97-10.035 8.532 0 16.803.198 25.056-.086 3.942-.136 4.694 1.41 4.641 4.948-.182 12.298-.105 24.6-.031 36.9.01 1.75.544 3.496.835 5.243.027.432.054.864 0 1.608-9.724.298-19.367.283-29.657-.165-.84-8.169-.985-15.906-1.246-23.64-.143-4.235-.483-8.463-.735-12.695z"/><path fill="#C3BD45" d="M251.03 348.076c23.211-.024 46.422-.048 70.065-.122.433 6.065.433 12.182.433 19.021-23.477 0-46.992 0-70.944-.107-.437-.108-.514-.457-.534-.65-.02-.193.001-.21.303-.497.298-5.753.295-11.22.385-16.928.16-.4.226-.558.292-.717z"/><path fill="#56291B" d="M376.315 366.746c-2.418-.46-4.501-.845-7.357-1.374 0-38.389 0-76.965.003-116.019 3.495-.477 6.986-.477 11.137-.477 0 38.686 0 77.441-.373 116.651-.821.685-1.27.914-1.718 1.144-.452.05-.904.099-1.692.075z"/><path fill="#C4C044" d="M116.182 69.98V34.005c22.483 0 44.67 0 67.055.312-20.585 3.946-39.348 12-55.49 25.785l-11.565 9.876z"/><path fill="#C3BF42" d="M320.918 248.083c.057-7.845.125-15.703.3-24.057 8.18-.495 16.256-.495 24.837-.495 0 8.36 0 15.943-.504 24.008-8.537.5-16.57.517-24.602.534 0 0-.02-.002-.031.01z"/><path fill="#C3BF43" d="M93.345 107.915v-35.82c7.128 0 13.886 0 20.966.361-7.492 10.824-15.17 21.362-19.194 34.033-.191.602-1.163.956-1.772 1.426z"/><path fill="#E1B881" d="M93.237 108.254c.717-.809 1.689-1.163 1.88-1.765 4.025-12.671 11.702-23.209 19.652-33.965.506-.82.877-1.348 1.33-2.21 3.938-3.627 7.794-6.919 11.649-10.21 16.141-13.785 34.904-21.84 55.954-25.735 2.648-.286 5.032-.31 7.857-.09.44.244.433.637.433.637-46.017 6.442-77.667 31.497-95.866 73.987a11.913 11.913 0 0 1-1.9 3.079c-.323-.159-.296-.325-.315-.78a5.725 5.725 0 0 0-.735-1.192c-.016-.472-.031-.945.061-1.756z"/><path fill="#DFB47B" d="M238.623 36.106c1.374.744 2.285 1.573 3.354 2.043 8.349 3.675 16.78 7.169 25.059 10.996 1.834.848 3.16 2.795 4.842 4.556-1.564-.268-3.47-.529-4.902-1.494-10.299-6.952-21.702-11.326-33.775-15.023 1.523-.584 3.277-.872 5.422-1.078z"/><path fill="#C2BE3D" d="M93.957 111.49c-.027.167-.054.333-.008.743.073.243.064.267-.253.532-1.263 3.222-2.178 6.188-3.164 9.13-.677 2.02-1.452 4.005-2.183 6.007-.043-3.446.181-6.921-.199-10.329-.449-4.024 1.089-5.774 5.393-5.874.362-.25.414-.209.414-.209z"/><path fill="#C3BD45" d="M321.181 298.574c.319 3.78.659 8.008.802 12.243.261 7.734.406 15.471.78 23.564-.198 3.794-.575 7.232-1.084 11.098a951.21 951.21 0 0 1-.595-24.962c-.07-7.163.014-14.328.097-21.943z"/><path fill="#C2BF3F" d="M317.04 112.485h4.816c0 4.398 0 8.482-.232 13.221-.451.887-.654 1.137-.897 1.339-.072.06-.36.015-.371-.03-.798-2.997-1.577-5.999-2.351-9.366-.318-1.965-.641-3.564-.965-5.164z"/><path fill="#DAC393" d="M317.999 118.015c.78 3.001 1.56 6.003 2.357 9 .011.045.3.09.371.03.243-.202.446-.452.877-.876.222 6.305.232 12.803.032 19.667-1.346-7.822-2.482-16.01-3.629-24.968-.01-1.464-.01-2.159-.008-2.853z"/><path fill="#E3CE95" d="M318.005 117.649a97.967 97.967 0 0 0 .011 2.79c-2.344-6.278-4.708-12.897-7.05-20.225.044-.927.065-1.146.086-1.365a273.764 273.764 0 0 1 2.649 4.333l2.645 4.827c.199 1.231.398 2.463.645 4.085.373 1.99.696 3.59 1.014 5.555z"/><path fill="#E1B881" d="M88.234 128.28c.846-2.38 1.621-4.366 2.298-6.385.986-2.942 1.901-5.908 3.157-9.117a247.778 247.778 0 0 1-4.314 19.86c-.605-.544-.9-1.08-1.193-1.617-.021-.788-.042-1.576.052-2.741z"/><path fill="#BE7F4D" d="M321.25 248.366c7.732-.31 15.764-.327 24.264-.36.467-.017.736.233.762.415-8.224.2-16.474.22-25.026-.055z"/><path fill="#DFB47B" d="M231.345 36.2c-4.193-.202-8.49-.805-13.086-1.627 3.01-.38 6.325-.715 9.625-.604 1.138.038 2.238 1.187 3.461 2.23z"/><path fill="#DBC59D" d="M88.12 131.46c.356.097.65.634 1.025 1.483-.018 2.651-.117 4.99-.327 7.765-.326-2.645-.542-5.727-.697-9.248z"/><path fill="#BFBB37" d="M316.333 107.59c-.765-1-1.542-2.418-2.39-4.195.43-.372.93-.386 1.805-.404.44 1.39.506 2.785.585 4.598z"/><path fill="#DFB47B" d="M192.347 34.94c-.355-.024-.347-.417-.344-.614 1.083-.245 2.163-.294 3.632-.225-.719.368-1.826.616-3.288.84z"/><path fill="#764431" d="M378.301 366.778c.154-.337.603-.566 1.314-.794-.164.301-.592.601-1.314.794z"/><path fill="#DAC393" d="M321.668 151.02c-.246-.337-.328-.892-.28-1.853.234.274.34.954.28 1.852z"/><path fill="#BFBB37" d="M316.173 37.735c-.39-.084-.737-.48-1.12-1.153.365.097.764.47 1.12 1.153z"/><path fill="#DFB47B" d="M215.709 34.11c-.235.235-.814.367-1.566.322.292-.259.757-.342 1.566-.321z"/><path fill="#DBC59D" d="M93.911 111.202c.046.288-.006.247-.03.235-.197-.221-.369-.429-.623-1.032.147-.094.377.207.653.797z"/><path fill="#C4BD4B" d="M9.2 347.393c.315-.108.477.066.506.518-.338.149-.514-.022-.505-.518z"/><path fill="#EBA975" d="M302.938 247.604c-2.56.658-5.186 1.108-7.813 1.113-13.159.024-26.318-.068-39.877-.667-.4-49.621-.4-98.694-.4-147.618h-99.732v190.407c-15.692.043-31.384.086-47.53.089-.478-47.172-.996-94.31-.338-141.433.382-27.36 10.856-51.207 31.006-70.037 15.561-14.542 34.04-23.286 55.525-25.603 28.32-3.055 53.213 4.457 74.714 23.062 20.892 18.078 32.88 40.838 33.422 68.592.617 31.588.132 63.196.187 94.795.004 2.296.5 4.59.836 7.3z"/><path fill="#FEFDFB" d="M155.574 290.904c-.458-63.381-.458-126.697-.458-190.472h99.733c0 48.924 0 97.997-.069 147.486-3.029.487-5.989.559-9.424.11-.508-13.63-.542-26.74-.5-40.328-.02-19.97-.113-39.46-.141-59.399.065-12.51.065-24.573.065-36.947-26.652 0-52.58 0-78.828.005-.489.575-.657 1.146-.83 2.181.003 25.756.013 51.048-.048 76.813-.067 4.807-.088 9.14-.055 13.473.116 15.153.25 30.307.286 45.902-.093 9.977-.093 19.514-.093 29.311h57.826c.096 3.72.191 7.439.14 11.605-22.479.407-44.813.366-67.604.26z"/><path fill="#7E4B27" d="M134.347 313.936c-1.035-3.17-1.812-6.304-1.94-9.465-.017-.414 3.286-1.341 5.066-1.382 7.14-.16 14.299.178 21.429-.148 5.047-.23 3.981 3.024 4.148 5.89.182 3.152-.02 5.399-4.319 5.23-7.963-.311-15.947-.094-24.384-.125zM40.006 331.97c-3.154 0-5.851-.299-8.456.064-4.888.68-5.8-1.592-5.693-5.919.09-3.681.752-5.394 4.947-5.19 7.12.345 14.286.392 21.4-.01 4.76-.268 4.815 2.133 4.928 5.704.126 3.963-.812 5.837-5.183 5.425-3.784-.357-7.628-.074-11.943-.074z"/><path fill="#C5C059" d="M11.449 290.987c1.432-.352 3.332-.94 5.235-.945 23.453-.065 46.906-.045 70.83.192.473.24.46.729.46.729-25.351.02-50.704.04-76.525.024z"/><path fill="#C5AB6B" d="M88.221 290.979c-.246-.016-.234-.505-.24-.75.01-21.614.026-42.984.066-64.829.335 1.265.907 3.006.912 4.748.06 19.961.033 39.922.015 60.348-.013.465-.506.498-.753.483z"/><path fill="#E5B481" d="M277.973 58.343c11.781 6.226 19.477 16.565 26.038 28.309-.686-.018-1.508-.27-2.007-.817a5424.714 5424.714 0 0 1-22.725-25.1c-.533-.592-.874-1.357-1.306-2.392zM311.015 98.507c.016.56-.005.78-.08 1.326-1.053-1.806-2.054-3.939-3.004-6.446 1.049 1.344 2.048 3.061 3.084 5.12z"/><path fill="#DFB47B" d="M272 54.34c1.23.45 2.482 1.236 3.87 2.559.137.538.131 1.02.131 1.02-1.327-1.082-2.654-2.163-4.001-3.579z"/><path fill="#E5B481" d="M303.953 87.348c.63.132 1.237.617 1.93 1.68.05.78.01.98-.028 1.18-.642-.836-1.284-1.671-1.902-2.86z"/><path fill="#E3CE95" d="M305.967 90.448c-.073-.44-.035-.64.03-1.145.66.486 1.293 1.276 1.696 2.385-.405.329-.58.338-.757.348-.286-.45-.571-.898-.97-1.588z"/><path fill="#E5B481" d="M276.333 57.978c-.332-.06-.326-.541-.319-.782.565-.054 1.122.133 1.839.576-.29.258-.74.262-1.52.206zM307.008 92.292c.104-.266.28-.275.72-.288.275.166.285.335.274.757-.322.098-.622-.058-.994-.47z"/><path fill="#FEB637" d="M223.11 278.572c-19.115.467-38.159.467-57.898.467 0-9.797 0-19.334.426-29.39a4439.08 4439.08 0 0 1 61.401-33.003c5.792-3.054 11.821-5.658 17.742-8.468.033 13.11.067 26.22.139 39.742-6.86.412-13.758.412-21.738.412 0 10.639 0 20.206-.072 30.24z"/><path fill="#57291A" d="M250.995 347.602c-.031.633-.098.792-.476 1.528-.364 6.011-.416 11.444-.468 16.877 0 0-.02.018-.02.033-3.454.015-6.908.015-11.022.015V292.07c0-7.239.002-7.246 7.388-7.049.97.026 1.94.159 3.131.261.235 1.812.442 3.42.86 5.33.32 17.048.43 33.796.54 50.543.013 1.991.021 3.982.067 6.448z"/><path fill="#EBA975" d="M301.992 290.994c-14.056.004-28.112.07-42.167-.054-2.213-.02-4.418-.9-6.912-1.687-.142-4.07 2.405-4.17 5.282-4.154 14.25.073 28.502.051 43.267.51.52 2.093.525 3.739.53 5.385z"/><path fill="#BF8253" d="M302.46 291.001c-.473-1.653-.479-3.3-.54-5.347 6.037-.437 12.132-.472 18.669-.047.407 2.124.373 3.788.338 5.453-6-.017-11.998-.034-18.466-.059z"/><path fill="#E7E0DC" d="M286.023 274.263c-1.151-.796-2.525-1.561-2.567-2.393-.218-4.41-.102-8.838-.102-13.577l4.619-.261c.307.684.66 1.11.668 1.542.07 3.953.232 7.915-.001 11.853-.059.985-1.447 1.892-2.617 2.836z"/><path fill="#F3F0ED" d="M269.401 263.253v10.627h-4.894v-15.525h4.683c.073 1.528.143 2.983.211 4.898z"/><path fill="#F6F3F1" d="M303.49 258.324c3.348-.75 4.639.23 4.429 3.467-.256 3.934-.061 7.898-.061 12.093H303.1c0-5.222 0-10.3.39-15.56z"/><path fill="#BFB266" d="M320.956 291.47c.006-2.075.04-3.74.103-5.81 10.443-.407 20.858-.407 31.943-.407 0 15.754 0 31.29-.058 47.294-.35-1.28-.883-3.026-.893-4.776-.074-12.3-.151-24.602.031-36.9.053-3.538-.7-5.084-4.64-4.948-8.255.284-16.525.086-25.058.086-.26 3.516-.476 6.445-.955 9.68-.323-1.066-.383-2.438-.473-4.219z"/><path fill="#F9F6F4" d="M324.913 258.104c.993 1.018 1.954 2.005 1.999 3.033.18 4.095.074 8.202.074 12.656-1.661.14-3.044.255-4.812.402-.097-1.731-.227-3.165-.246-4.6-.036-2.805-.248-5.642.107-8.401.143-1.12 1.577-2.073 2.878-3.09z"/><path fill="#F9F6F5" d="M346.133 265.06v8.713l-4.73.445v-15.77l4.73-.473v7.085z"/><path fill="#F8F6F3" d="M249.692 258.601c.288 5.266.288 10.174.288 15.286h-4.665v-15.644c1.337 0 2.713 0 4.377.358z"/><path fill="#764431" d="M250.353 365.721c-.25-5.147-.198-10.58.073-16.35.222 5.13.225 10.597-.073 16.35z"/><path fill="#FFB637" d="M165.144 189.88c-.01-25.292-.02-50.584.17-76.517.453-1.097.706-1.553.959-2.009h78.507c0 12.374 0 24.437-.388 37.06a4289.592 4289.592 0 0 1-65.752 35.61c-4.319 2.291-8.988 3.92-13.496 5.855z"/><path fill="#FFD89E" d="M165.074 190.353c4.578-2.408 9.247-4.038 13.566-6.33 21.838-11.588 43.586-23.349 65.687-35.162.416 19.379.51 38.87.528 58.839-5.995 3.288-12.024 5.892-17.816 8.946-20.37 10.744-40.657 21.643-61.31 32.562-.46-15.075-.594-30.229-.71-45.382-.033-4.333-.012-8.666.055-13.473zM165.952 111.359c.068.451-.185.907-.632 1.54-.025-.394.143-.965.632-1.54z"/></svg>