<?xml version="1.0" encoding="utf-8"?>
<!-- Generator: Adobe Illustrator 16.0.0, SVG Export Plug-In . SVG Version: 6.00 Build 0)  -->
<!DOCTYPE svg PUBLIC "-//W3C//DTD SVG 1.1//EN" "http://www.w3.org/Graphics/SVG/1.1/DTD/svg11.dtd">
<svg version="1.1" id="Layer_1" xmlns="http://www.w3.org/2000/svg" xmlns:xlink="http://www.w3.org/1999/xlink" x="0px" y="0px"
	 width="30px" height="30px" viewBox="0 0 30 30" enable-background="new 0 0 30 30" xml:space="preserve">
<g>
	<defs>
		<rect id="SVGID_1_" width="30" height="30"/>
	</defs>
	<clipPath id="SVGID_2_">
		<use xlink:href="#SVGID_1_"  overflow="visible"/>
	</clipPath>
	<g clip-path="url(#SVGID_2_)">
		<defs>
			<rect id="SVGID_3_" width="30" height="30"/>
		</defs>
		<clipPath id="SVGID_4_">
			<use xlink:href="#SVGID_3_"  overflow="visible"/>
		</clipPath>
		<path clip-path="url(#SVGID_4_)" fill="#8E563D" d="M28.326,21.61H6.359v-8.627C6.359,6.917,11.276,2,17.342,2h0.001
			c6.065,0,10.983,4.917,10.983,10.983V21.61z"/>
		<path clip-path="url(#SVGID_4_)" fill="#BE7F4C" d="M26.844,22.371H7.765c-0.231,0-0.419-0.187-0.419-0.42V13.33
			c0-5.5,4.459-9.959,9.959-9.959s9.959,4.459,9.959,9.959v8.621C27.264,22.185,27.075,22.371,26.844,22.371"/>
		<path clip-path="url(#SVGID_4_)" fill="#A86F45" d="M8.261,14.62c0-5.5,4.458-9.958,9.958-9.958h0.001
			c3.073,0,5.822,1.393,7.648,3.582c-1.736-2.918-4.921-4.874-8.563-4.874c-5.5,0-9.959,4.458-9.959,9.958v8.622
			c0,0.231,0.188,0.419,0.419,0.419h0.496V14.62z"/>
		<rect x="12.819" y="7.625" clip-path="url(#SVGID_4_)" fill="#985835" width="8.666" height="13.844"/>
		<rect x="13.607" y="8.434" clip-path="url(#SVGID_4_)" fill="#FFB535" width="7.09" height="12.224"/>
		<rect x="1.722" y="22.247" clip-path="url(#SVGID_4_)" fill="#BE7F4C" width="26.604" height="5.141"/>
		<rect x="2.863" y="22.143" clip-path="url(#SVGID_4_)" fill="#A86A3B" width="0.304" height="5.245"/>
		<rect x="5.257" y="22.143" clip-path="url(#SVGID_4_)" fill="#A86A3B" width="0.304" height="5.245"/>
		<rect x="7.651" y="22.143" clip-path="url(#SVGID_4_)" fill="#A86A3B" width="0.304" height="5.245"/>
		<rect x="10.045" y="22.143" clip-path="url(#SVGID_4_)" fill="#A86A3B" width="0.304" height="5.245"/>
		<rect x="12.44" y="22.143" clip-path="url(#SVGID_4_)" fill="#A86A3B" width="0.304" height="5.245"/>
		<rect x="14.834" y="22.143" clip-path="url(#SVGID_4_)" fill="#A86A3B" width="0.304" height="5.245"/>
		<rect x="17.228" y="22.143" clip-path="url(#SVGID_4_)" fill="#A86A3B" width="0.305" height="5.245"/>
		<rect x="19.623" y="22.143" clip-path="url(#SVGID_4_)" fill="#A86A3B" width="0.304" height="5.245"/>
		<rect x="22.016" y="22.143" clip-path="url(#SVGID_4_)" fill="#A86A3B" width="0.306" height="5.245"/>
		<rect x="24.411" y="22.143" clip-path="url(#SVGID_4_)" fill="#A86A3B" width="0.304" height="5.245"/>
		<rect x="26.805" y="22.143" clip-path="url(#SVGID_4_)" fill="#A86A3B" width="0.305" height="5.245"/>
		<rect x="1" y="21.502" clip-path="url(#SVGID_4_)" fill="#EBA975" width="28.048" height="1.173"/>
	</g>
	<g clip-path="url(#SVGID_2_)">
		<defs>
			<rect id="SVGID_5_" x="13.607" y="8.434" width="7.09" height="12.224"/>
		</defs>
		<clipPath id="SVGID_6_">
			<use xlink:href="#SVGID_5_"  overflow="visible"/>
		</clipPath>
		<g opacity="0.25" clip-path="url(#SVGID_6_)">
			<g>
				<defs>
					<rect id="SVGID_7_" x="13.276" y="11.349" width="7.752" height="4.181"/>
				</defs>
				<clipPath id="SVGID_8_">
					<use xlink:href="#SVGID_7_"  overflow="visible"/>
				</clipPath>
				<polygon clip-path="url(#SVGID_8_)" fill="#F8FAFB" points="13.554,13.629 21.028,11.35 21.028,13.25 13.276,15.529 				"/>
			</g>
		</g>
		<g opacity="0.3" clip-path="url(#SVGID_6_)">
			<g>
				<defs>
					<rect id="SVGID_9_" x="13.276" y="15.834" width="7.752" height="3.116"/>
				</defs>
				<clipPath id="SVGID_10_">
					<use xlink:href="#SVGID_9_"  overflow="visible"/>
				</clipPath>
				<polygon clip-path="url(#SVGID_10_)" fill="#F8FAFB" points="13.554,18.114 21.028,15.834 21.028,16.67 13.276,18.95 				"/>
			</g>
		</g>
	</g>
	<g clip-path="url(#SVGID_2_)">
		<defs>
			<rect id="SVGID_11_" width="30" height="30"/>
		</defs>
		<clipPath id="SVGID_12_">
			<use xlink:href="#SVGID_11_"  overflow="visible"/>
		</clipPath>
		<rect x="9.78" y="10.817" clip-path="url(#SVGID_12_)" fill="#A86A3B" width="2.28" height="0.304"/>
		<rect x="23.385" y="10.057" clip-path="url(#SVGID_12_)" fill="#A86A3B" width="2.28" height="0.304"/>
		<rect x="21.941" y="10.741" clip-path="url(#SVGID_12_)" fill="#A86A3B" width="2.28" height="0.304"/>
		<rect x="21.485" y="18.95" clip-path="url(#SVGID_12_)" fill="#A86A3B" width="2.28" height="0.305"/>
		<rect x="24.982" y="18.19" clip-path="url(#SVGID_12_)" fill="#A86A3B" width="2.279" height="0.304"/>
		<rect x="15.1" y="6.333" clip-path="url(#SVGID_12_)" fill="#A86A3B" width="2.28" height="0.304"/>
		<rect x="9.552" y="18.418" clip-path="url(#SVGID_12_)" fill="#A86A3B" width="2.28" height="0.305"/>
		<path clip-path="url(#SVGID_12_)" fill="#232121" d="M28.401,21.497c-0.053,0-0.1-0.037-0.111-0.091l-0.76-3.648
			c-0.013-0.062,0.026-0.122,0.088-0.136c0.063-0.013,0.122,0.027,0.135,0.089l0.761,3.648c0.013,0.062-0.027,0.122-0.089,0.135
			C28.417,21.496,28.409,21.497,28.401,21.497"/>
		<path clip-path="url(#SVGID_12_)" fill="#232121" d="M23.157,21.497c-0.008,0-0.016-0.001-0.023-0.003
			c-0.062-0.013-0.102-0.073-0.088-0.135l0.76-3.648c0.013-0.062,0.073-0.102,0.135-0.089c0.062,0.014,0.102,0.074,0.088,0.136
			l-0.76,3.648C23.258,21.46,23.21,21.497,23.157,21.497"/>
		<path clip-path="url(#SVGID_12_)" fill="#232121" d="M22.017,21.497c-0.007,0-0.015-0.001-0.022-0.003
			c-0.063-0.013-0.102-0.073-0.089-0.135l0.76-3.648c0.014-0.062,0.073-0.102,0.136-0.089c0.062,0.014,0.101,0.074,0.088,0.136
			l-0.76,3.648C22.117,21.46,22.07,21.497,22.017,21.497"/>
		<path clip-path="url(#SVGID_12_)" fill="#232121" d="M27.109,21.497c-0.053,0-0.101-0.037-0.111-0.091l-0.76-3.648
			c-0.014-0.062,0.026-0.122,0.088-0.136c0.063-0.013,0.122,0.027,0.135,0.089l0.761,3.648c0.013,0.062-0.027,0.122-0.089,0.135
			C27.125,21.496,27.117,21.497,27.109,21.497"/>
		<path clip-path="url(#SVGID_12_)" fill="#474341" d="M28.174,16.898h-4.561l0.662-4.175c0.057-0.354,0.361-0.614,0.72-0.614h3.086
			c0.447,0,0.789,0.4,0.719,0.842L28.174,16.898z"/>
		<path clip-path="url(#SVGID_12_)" fill="#232121" d="M23.651,17.734c-0.063,0-0.114-0.051-0.114-0.114v-1.571
			c0-0.411-0.335-0.747-0.747-0.747h-1.571c-0.063,0-0.114-0.051-0.114-0.113c0-0.063,0.052-0.115,0.114-0.115h1.571
			c0.537,0,0.976,0.438,0.976,0.976v1.571C23.766,17.684,23.714,17.734,23.651,17.734"/>
		<path clip-path="url(#SVGID_12_)" fill="#2B2928" d="M22.131,17.734h6.043v-0.836h-6.043c-0.229,0-0.418,0.187-0.418,0.418
			S21.901,17.734,22.131,17.734"/>
		<path clip-path="url(#SVGID_12_)" fill="#232121" d="M28.212,17.734c-0.063,0-0.114-0.051-0.114-0.114v-1.571
			c0-0.411-0.335-0.747-0.747-0.747h-1.571c-0.063,0-0.114-0.051-0.114-0.113c0-0.063,0.052-0.115,0.114-0.115h1.571
			c0.538,0,0.976,0.438,0.976,0.976v1.571C28.326,17.684,28.273,17.734,28.212,17.734"/>
		<path clip-path="url(#SVGID_12_)" fill="#232121" d="M5.93,21.497c0.053,0,0.101-0.037,0.112-0.091l0.76-3.648
			c0.013-0.062-0.027-0.122-0.089-0.136c-0.061-0.013-0.121,0.027-0.135,0.089l-0.759,3.648c-0.014,0.062,0.026,0.122,0.088,0.135
			C5.915,21.496,5.923,21.497,5.93,21.497"/>
		<path clip-path="url(#SVGID_12_)" fill="#232121" d="M11.175,21.497c0.008,0,0.016-0.001,0.023-0.003
			c0.062-0.013,0.102-0.073,0.089-0.135l-0.76-3.648c-0.013-0.062-0.074-0.102-0.135-0.089c-0.062,0.014-0.101,0.074-0.089,0.136
			l0.761,3.648C11.075,21.46,11.122,21.497,11.175,21.497"/>
		<path clip-path="url(#SVGID_12_)" fill="#232121" d="M12.315,21.497c0.008,0,0.016-0.001,0.023-0.003
			c0.062-0.013,0.102-0.073,0.089-0.135l-0.76-3.648c-0.013-0.062-0.074-0.102-0.135-0.089c-0.062,0.014-0.101,0.074-0.089,0.136
			l0.761,3.648C12.215,21.46,12.262,21.497,12.315,21.497"/>
		<path clip-path="url(#SVGID_12_)" fill="#232121" d="M7.223,21.497c0.053,0,0.1-0.037,0.111-0.091l0.761-3.648
			c0.012-0.062-0.027-0.122-0.089-0.136c-0.062-0.013-0.122,0.027-0.135,0.089l-0.76,3.648c-0.013,0.062,0.027,0.122,0.089,0.135
			C7.207,21.496,7.215,21.497,7.223,21.497"/>
		<path clip-path="url(#SVGID_12_)" fill="#474341" d="M6.158,16.898h4.561l-0.663-4.175C10,12.37,9.695,12.109,9.337,12.109H6.25
			c-0.447,0-0.789,0.4-0.718,0.842L6.158,16.898z"/>
		<path clip-path="url(#SVGID_12_)" fill="#232121" d="M10.681,17.734c0.063,0,0.114-0.051,0.114-0.114v-1.571
			c0-0.411,0.336-0.747,0.748-0.747h1.571c0.063,0,0.113-0.051,0.113-0.113c0-0.063-0.05-0.115-0.113-0.115h-1.571
			c-0.538,0-0.976,0.438-0.976,0.976v1.571C10.567,17.684,10.618,17.734,10.681,17.734"/>
		<path clip-path="url(#SVGID_12_)" fill="#2B2928" d="M12.201,17.734H6.158v-0.836h6.043c0.231,0,0.418,0.187,0.418,0.418
			S12.432,17.734,12.201,17.734"/>
		<path clip-path="url(#SVGID_12_)" fill="#232121" d="M6.12,17.734c0.063,0,0.114-0.051,0.114-0.114v-1.571
			c0-0.411,0.335-0.747,0.748-0.747h1.571c0.063,0,0.113-0.051,0.113-0.113c0-0.063-0.05-0.115-0.113-0.115H6.982
			c-0.538,0-0.976,0.438-0.976,0.976v1.571C6.006,17.684,6.057,17.734,6.12,17.734"/>
		<g opacity="0.24" clip-path="url(#SVGID_12_)">
			<g>
				<defs>
					<rect id="SVGID_13_" x="1.722" y="22.675" width="26.604" height="1.292"/>
				</defs>
				<clipPath id="SVGID_14_">
					<use xlink:href="#SVGID_13_"  overflow="visible"/>
				</clipPath>
				<rect x="1.722" y="22.675" clip-path="url(#SVGID_14_)" fill="#8C532D" width="26.604" height="1.292"/>
			</g>
		</g>
	</g>
</g>
</svg>
