<svg version="1.1" id="Layer_1" xmlns="http://www.w3.org/2000/svg" xmlns:xlink="http://www.w3.org/1999/xlink" x="0px" y="0px"
	 width="100%" viewBox="0 0 400 400" enable-background="new 0 0 400 400" xml:space="preserve">
<path fill="transparent" opacity="1.000000" stroke="none" 
	d="
M401.000000,143.000000 
	C401.000000,229.333328 401.000000,315.166656 401.000000,401.000000 
	C267.666656,401.000000 134.333328,401.000000 1.000000,401.000000 
	C1.000000,267.666656 1.000000,134.333328 1.000000,1.000000 
	C134.333328,1.000000 267.666656,1.000000 401.000000,1.000000 
	C401.000000,48.166668 401.000000,95.333336 401.000000,143.000000 
M88.059525,131.899246 
	C88.275696,134.981125 88.491867,138.062988 88.739029,142.061890 
	C88.703156,162.541428 88.715149,183.021240 88.604424,203.500366 
	C88.567589,210.312592 88.215942,217.123108 87.074677,223.808624 
	C61.203709,223.808624 35.332737,223.808624 8.981906,223.808624 
	C8.981906,228.500519 8.960800,232.619125 8.985550,236.737457 
	C9.094360,254.843246 9.216417,272.948975 9.191831,291.974487 
	C9.212332,310.384033 9.232832,328.793579 9.147964,347.583160 
	C9.192369,347.888855 9.368174,348.059601 10.623547,348.363464 
	C45.659721,348.384674 80.695900,348.405884 115.940002,349.269257 
	C115.940002,355.016602 115.940002,360.763947 115.940002,366.635895 
	C117.934738,366.758087 119.073509,366.888458 120.212311,366.888824 
	C153.472580,366.899200 186.732849,366.900909 219.993103,366.880371 
	C221.308304,366.879547 222.623383,366.646393 224.868439,366.691376 
	C233.294708,366.714294 241.720963,366.737183 251.020874,366.975372 
	C274.535950,366.975372 298.051056,366.975372 321.527679,366.975372 
	C321.527679,360.136169 321.527679,354.019379 321.660065,347.243439 
	C321.622437,346.797638 321.584839,346.351807 321.811188,345.051392 
	C322.188202,341.613312 322.565216,338.175201 323.875092,334.889893 
	C333.518555,334.904816 343.162048,334.919708 352.917816,335.874023 
	C352.917816,346.103729 352.917816,356.333405 352.917816,366.672302 
	C361.091522,366.672302 368.535767,366.672302 376.650574,366.819489 
	C377.102844,366.769867 377.555084,366.720245 378.595612,366.885651 
	C379.023285,366.585297 379.450928,366.284973 380.097748,365.071838 
	C380.097748,326.317017 380.097748,287.562195 380.097748,248.876419 
	C375.946533,248.876419 372.455902,248.876419 368.056183,248.645370 
	C360.804901,248.630997 353.553589,248.616623 346.250488,248.239487 
	C346.250488,248.239487 345.980560,247.989166 346.054626,247.055603 
	C346.054626,239.473724 346.054626,231.891846 346.054626,223.530579 
	C337.473694,223.530579 329.398926,223.530579 321.367310,222.654678 
	C321.412537,198.848907 321.457764,175.043121 321.832581,150.801620 
	C321.727142,150.121262 321.621704,149.440903 321.417053,148.125061 
	C321.420135,147.484085 321.423248,146.843094 321.844910,145.469269 
	C321.835510,138.971527 321.826141,132.473801 321.856445,125.050278 
	C321.856445,120.966682 321.856445,116.883087 321.856445,112.485352 
	C319.910492,112.485352 318.475250,112.485352 316.942657,111.703011 
	C316.743652,110.471512 316.544678,109.240013 316.320465,107.169991 
	C316.254425,105.775551 316.188385,104.381119 316.290070,102.062698 
	C316.236816,80.724220 316.183594,59.385746 316.216125,37.423111 
	C315.817230,37.051220 315.418335,36.679329 314.093964,36.141144 
	C289.067230,36.156799 264.040497,36.172455 238.231277,36.022961 
	C236.477554,36.311676 234.723846,36.600395 232.464752,36.785507 
	C232.126465,36.724182 231.788162,36.662853 231.240219,35.797539 
	C230.122406,35.156128 229.021652,34.007477 227.883575,33.969238 
	C224.583801,33.858372 221.269043,34.193329 217.330765,34.235821 
	C216.904648,34.228565 216.478516,34.221310 215.365067,34.007362 
	C214.899811,34.090176 214.434555,34.172989 213.039429,34.198723 
	C207.367508,34.205853 201.695602,34.212986 195.246231,33.982403 
	C194.166245,34.031563 193.086258,34.080723 191.117355,34.036968 
	C188.733734,34.059925 186.350098,34.082886 183.038086,34.005669 
	C160.851364,34.005669 138.664642,34.005669 116.182182,34.005669 
	C116.182182,46.449806 116.182182,58.214508 116.016785,70.647789 
	C115.646004,71.175896 115.275230,71.704002 113.988930,72.095711 
	C107.231018,72.095711 100.473114,72.095711 93.345024,72.095711 
	C93.345024,84.407448 93.345024,96.161354 93.129372,108.592758 
	C93.144783,109.065224 93.160194,109.537689 93.340660,110.800270 
	C93.512146,111.008064 93.683640,111.215858 93.180740,111.947891 
	C89.238831,111.799492 87.701302,113.549141 88.150177,117.573044 
	C88.530334,120.980881 88.305855,124.456154 88.118706,128.657608 
	C88.139847,129.445389 88.160988,130.233154 88.059525,131.899246 
z"/>
<path fill="#A3683E" opacity="1.000000" stroke="none" 
	d="
M115.732071,348.427124 
	C80.695900,348.405884 45.659721,348.384674 10.180463,348.045044 
	C9.676590,347.459198 9.515242,347.284668 9.253332,347.203125 
	C9.232832,328.793579 9.212332,310.384033 9.537887,291.520142 
	C10.248991,291.028046 10.614040,290.990265 11.448784,290.987366 
	C37.270500,291.002472 62.622520,290.982727 88.221115,290.978577 
	C88.467697,290.994110 88.960701,290.960663 89.431168,290.972412 
	C95.645142,290.951965 101.388641,290.919769 107.586220,290.927979 
	C123.732285,290.925201 139.424271,290.881927 155.574020,290.903656 
	C178.365372,291.009766 200.698959,291.050873 223.041779,291.554810 
	C223.033325,310.684479 223.015671,329.351349 222.529556,348.032166 
	C188.770050,348.052917 155.478989,348.052948 122.187950,348.081787 
	C120.035889,348.083649 117.884026,348.306885 115.732071,348.427124 
M134.808075,313.963440 
	C142.783615,313.966644 150.767746,313.749908 158.731232,314.061401 
	C163.030151,314.229523 163.232483,311.983398 163.049576,308.830078 
	C162.883392,305.964569 163.948776,302.710968 158.901779,302.941376 
	C151.771896,303.266907 144.613876,302.928680 137.472748,303.089478 
	C135.692795,303.129578 132.389862,304.057495 132.406631,304.471100 
	C132.534821,307.632050 133.311554,310.766663 134.808075,313.963440 
M40.503578,331.969543 
	C44.321007,331.969513 48.165077,331.686859 51.948872,332.043579 
	C56.319557,332.455658 57.258286,330.582489 57.132496,326.619049 
	C57.019169,323.048370 56.963768,320.647278 52.204647,320.915619 
	C45.090328,321.316772 37.924480,321.270416 30.804331,320.924744 
	C26.608889,320.721069 25.947882,322.433838 25.856848,326.115082 
	C25.749861,330.441559 26.661772,332.714294 31.549858,332.033844 
	C34.154984,331.671173 36.852116,331.969513 40.503578,331.969543 
z"/>
<path fill="#BE7F4D" opacity="1.000000" stroke="none" 
	d="
M107.132149,290.887543 
	C101.388641,290.919769 95.645142,290.951965 89.444801,290.508057 
	C88.991646,270.070496 89.018295,250.108994 88.958755,230.147751 
	C88.953560,228.405548 88.381828,226.665039 88.066429,224.675781 
	C88.059608,224.427841 88.008209,223.934402 88.008209,223.934402 
	C88.215942,217.123108 88.567589,210.312592 88.604424,203.500366 
	C88.715149,183.021240 88.703156,162.541428 88.833755,141.166382 
	C89.027534,137.932510 89.126579,135.594131 89.456299,132.951019 
	C91.124252,125.939247 92.561531,119.232224 94.005753,112.512726 
	C94.012688,112.500244 94.021935,112.476280 94.298462,112.225098 
	C95.095009,110.951591 95.675713,109.955238 96.126328,108.903175 
	C114.325394,66.413239 145.974518,41.358284 192.346802,34.940735 
	C193.809235,34.717052 194.916458,34.468586 196.023682,34.220116 
	C201.695602,34.212986 207.367508,34.205853 213.677994,34.403244 
	C214.895172,34.476528 215.473785,34.345287 216.052399,34.214050 
	C216.478516,34.221310 216.904648,34.228565 217.943939,34.513985 
	C222.854691,35.395275 227.152283,35.998398 231.449875,36.601524 
	C231.788162,36.662853 232.126465,36.724182 232.948471,37.132225 
	C245.274216,40.881248 256.677155,45.254963 266.976440,52.206684 
	C268.407288,53.172451 270.313873,53.433289 272.000671,54.008553 
	C272.001099,53.996647 271.979187,54.006001 271.999817,54.340492 
	C273.347382,55.756039 274.674316,56.837093 276.333130,57.978207 
	C277.113800,58.034382 277.562622,58.030491 278.010132,58.007988 
	C278.008820,57.989376 277.971619,57.992149 277.973450,58.343193 
	C278.405243,59.378426 278.745819,60.143078 279.278534,60.734715 
	C286.830963,69.122162 294.399536,77.495140 302.004120,85.835228 
	C302.502686,86.382034 303.324951,86.633659 304.000702,87.009781 
	C304.004730,86.996986 303.977966,86.995735 303.953125,87.348450 
	C304.570587,88.536697 305.212830,89.372238 305.966919,90.448158 
	C306.364624,91.137619 306.650482,91.586693 307.007751,92.291786 
	C307.379730,92.703346 307.680267,92.858887 307.990417,93.007217 
	C308.000000,93.000000 307.980896,93.012856 307.930725,93.387024 
	C308.881165,95.894020 309.881714,98.026848 310.912842,100.541161 
	C313.307831,107.541977 315.672211,114.161308 318.027466,121.209694 
	C319.154297,129.826538 320.290314,138.014328 321.426331,146.202118 
	C321.423248,146.843094 321.420135,147.484085 321.338074,148.849030 
	C321.340393,150.127792 321.421692,150.682571 321.503021,151.237350 
	C321.457764,175.043121 321.412537,198.848907 321.239197,223.588348 
	C321.043213,232.380005 320.975342,240.237991 320.445496,248.106232 
	C314.324127,248.083649 308.664764,248.050781 302.937500,247.603973 
	C302.602295,244.894852 302.106201,242.600037 302.102203,240.304367 
	C302.047363,208.705215 302.531677,177.096725 301.914856,145.509445 
	C301.372894,117.755478 289.385010,94.995140 268.492981,76.916969 
	C246.992233,58.312073 222.099579,50.800041 193.778503,53.854553 
	C172.294815,56.171635 153.815475,64.916183 138.254364,79.457756 
	C118.104065,98.287834 107.630241,122.135757 107.247993,149.495331 
	C106.589622,196.617416 107.107758,243.755920 107.132149,290.887543 
z"/>
<path fill="#764431" opacity="1.000000" stroke="none" 
	d="
M303.005402,248.017914 
	C308.664764,248.050781 314.324127,248.083649 320.455933,248.093597 
	C320.928406,248.070694 320.948944,248.072708 321.250244,248.366241 
	C329.801819,248.640610 338.052063,248.621429 346.302307,248.602249 
	C353.553589,248.616623 360.804901,248.630997 368.506958,249.237946 
	C368.957733,288.406860 368.957733,326.983185 368.957733,365.372009 
	C371.813660,365.900818 373.896820,366.286560 375.979980,366.672302 
	C368.535767,366.672302 361.091522,366.672302 352.917816,366.672302 
	C352.917816,356.333405 352.917816,346.103729 352.942688,335.091980 
	C352.940460,333.878113 352.913391,333.446228 352.944092,332.546692 
	C353.001862,316.542877 353.001862,301.006805 353.001862,285.252655 
	C341.917236,285.252655 331.502228,285.252655 320.616577,285.200043 
	C314.051575,285.182098 307.957306,285.216736 301.405548,285.206543 
	C286.697052,285.150085 272.445862,285.172241 258.195160,285.098541 
	C255.318481,285.083679 252.771347,285.182953 252.420105,289.159973 
	C251.674179,289.883636 251.135971,290.397766 250.388000,290.610352 
	C249.970428,288.701019 249.762634,287.093262 249.528427,285.281097 
	C248.336090,285.178741 247.367798,285.045990 246.396683,285.020111 
	C239.011108,284.823486 239.009476,284.829987 239.009232,292.068512 
	C239.008484,314.734558 239.008957,337.400604 239.008972,360.066650 
	C239.008972,361.841980 239.008987,363.617279 239.008987,366.055450 
	C243.123260,366.055450 246.576797,366.055450 250.050323,366.233154 
	C250.070312,366.410828 250.147232,366.760071 250.147232,366.760071 
	C241.720963,366.737183 233.294708,366.714294 224.371292,366.175812 
	C223.582092,359.779572 223.290054,353.898865 222.998016,348.018188 
	C223.015671,329.351349 223.033325,310.684479 223.187927,291.107269 
	C223.229309,286.477753 223.133743,282.758606 223.110016,278.571991 
	C223.181885,268.537567 223.181885,258.970642 223.181885,248.331985 
	C231.162048,248.331985 238.059860,248.331985 245.394440,248.440338 
	C248.791306,248.476837 251.751419,248.404999 255.179794,248.465424 
	C268.806976,248.648941 281.965973,248.741165 295.124756,248.716904 
	C297.752045,248.712067 300.378540,248.262436 303.005402,248.017914 
M286.415497,274.261810 
	C287.192657,273.318970 288.581146,272.412415 288.639587,271.426971 
	C288.873077,267.489166 288.710632,263.526581 288.641174,259.574066 
	C288.633575,259.142029 288.280487,258.716034 287.972656,258.031525 
	C286.580048,258.110443 285.176910,258.189972 283.353668,258.293274 
	C283.353668,263.031708 283.237701,267.459259 283.456451,271.870239 
	C283.497681,272.701782 284.871765,273.467255 286.415497,274.261810 
M269.402130,262.792542 
	C269.332581,261.337891 269.263000,259.883240 269.189911,258.354645 
	C267.472717,258.354645 266.065887,258.354645 264.507385,258.354645 
	C264.507385,263.694946 264.507385,268.747162 264.507385,273.879944 
	C266.228210,273.879944 267.645386,273.879944 269.400665,273.879944 
	C269.400665,270.310974 269.400665,267.012085 269.402130,262.792542 
M303.100281,258.505371 
	C303.100281,263.583771 303.100281,268.662140 303.100281,273.884338 
	C304.589203,273.884338 306.002777,273.884338 307.858032,273.884338 
	C307.858032,269.689087 307.663177,265.725311 307.918762,261.790802 
	C308.128998,258.554077 306.838226,257.574677 303.100281,258.505371 
M324.459351,258.092621 
	C323.612427,259.121307 322.178345,260.074554 322.034576,261.193573 
	C321.680023,263.953491 321.891754,266.789825 321.928070,269.594727 
	C321.946655,271.029999 322.077362,272.463837 322.173950,274.195007 
	C323.941711,274.047516 325.325043,273.932068 326.985626,273.793488 
	C326.985626,269.339081 327.091187,265.231750 326.911591,261.136902 
	C326.866516,260.109344 325.905975,259.121948 324.459351,258.092621 
M346.133484,264.577698 
	C346.133484,262.496582 346.133484,260.415497 346.133484,257.975220 
	C344.052368,258.183044 342.676331,258.320435 341.402100,258.447693 
	C341.402100,263.878204 341.402100,268.901428 341.402100,274.218231 
	C343.161896,274.052704 344.544952,273.922607 346.133423,273.773193 
	C346.133423,270.786804 346.133423,268.164642 346.133484,264.577698 
M249.402786,258.242706 
	C248.027542,258.242706 246.652298,258.242706 245.314865,258.242706 
	C245.314865,263.851685 245.314865,268.748016 245.314865,273.886597 
	C246.939178,273.886597 248.319138,273.886597 249.980392,273.886597 
	C249.980392,268.775116 249.980392,263.867371 249.402786,258.242706 
z"/>
<path fill="#C3BF42" opacity="1.000000" stroke="none" 
	d="
M87.541443,223.871521 
	C88.008209,223.934402 88.059608,224.427841 88.040604,225.152084 
	C88.006653,247.245483 87.991699,268.614624 87.509583,289.989319 
	C63.589554,289.996979 40.136631,289.977142 16.683947,290.042358 
	C14.781497,290.047638 12.880669,290.635376 10.979088,290.952484 
	C10.614040,290.990265 10.248991,291.028046 9.608808,291.060242 
	C9.216417,272.948975 9.094360,254.843246 8.985550,236.737457 
	C8.960800,232.619125 8.981906,228.500519 8.981906,223.808624 
	C35.332737,223.808624 61.203709,223.808624 87.541443,223.871521 
z"/>
<path fill="#A3683E" opacity="1.000000" stroke="none" 
	d="
M250.597763,290.911896 
	C251.135971,290.397766 251.674179,289.883636 252.705597,289.462769 
	C255.407257,290.039124 257.612213,290.920929 259.824768,290.940430 
	C273.879578,291.064240 287.936096,290.997589 302.460938,291.001282 
	C308.928925,291.025848 314.927948,291.042877 320.956177,291.469971 
	C321.045563,293.251434 321.105743,294.622894 321.151978,296.349731 
	C321.174713,297.177521 321.211426,297.649872 321.181152,298.573669 
	C321.098206,306.188995 321.013214,313.353577 321.084259,320.516632 
	C321.168213,328.980469 321.386932,337.442932 321.547211,345.906006 
	C321.584839,346.351807 321.622437,346.797638 321.161377,347.624023 
	C297.451874,348.028473 274.241028,348.052338 250.995056,347.601532 
	C250.949326,345.136047 250.940872,343.145203 250.927856,341.154358 
	C250.818298,324.406860 250.707901,307.659393 250.597763,290.911896 
z"/>
<path fill="#C4BD4B" opacity="1.000000" stroke="none" 
	d="
M222.529556,348.032166 
	C223.290054,353.898865 223.582092,359.779572 223.906326,366.090881 
	C222.623383,366.646393 221.308304,366.879547 219.993103,366.880371 
	C186.732849,366.900909 153.472580,366.899200 120.212311,366.888824 
	C119.073509,366.888458 117.934738,366.758087 115.940002,366.635895 
	C115.940002,360.763947 115.940002,355.016602 115.836037,348.848206 
	C117.884026,348.306885 120.035889,348.083649 122.187950,348.081787 
	C155.478989,348.052948 188.770050,348.052917 222.529556,348.032166 
z"/>
<path fill="#C3BF43" opacity="1.000000" stroke="none" 
	d="
M316.130341,38.047272 
	C316.183594,59.385746 316.236816,80.724220 315.831543,102.529060 
	C314.873230,103.008995 314.373413,103.022575 313.630615,102.822876 
	C312.609192,101.356087 311.830750,100.102570 311.015167,98.507431 
	C309.979004,96.448158 308.979950,94.730507 307.980896,93.012856 
	C307.980896,93.012856 308.000000,93.000000 308.011536,92.753914 
	C308.012817,92.338676 308.002563,92.169533 307.957336,91.685028 
	C307.289795,90.579216 306.657227,89.788773 305.910065,88.723801 
	C305.189636,87.964775 304.583801,87.480255 303.977966,86.995743 
	C303.977966,86.995735 304.004730,86.996986 304.015106,86.638748 
	C297.450348,74.908211 289.753998,64.568542 277.971619,57.992149 
	C277.971619,57.992149 278.008820,57.989376 277.851349,57.753151 
	C277.136261,57.329498 276.578674,57.142075 275.877014,56.657631 
	C274.481720,55.575741 273.230438,54.790867 271.979187,54.005997 
	C271.979187,54.006001 272.001099,53.996647 271.878510,53.689125 
	C270.195984,51.940273 268.870148,49.992527 267.035889,49.144630 
	C258.757599,45.317894 250.326004,41.823780 241.976547,38.148750 
	C240.908234,37.678535 239.997482,36.850426 239.013748,36.188110 
	C264.040497,36.172455 289.067230,36.156799 314.591034,36.499329 
	C315.435516,37.254097 315.782928,37.650684 316.130341,38.047272 
z"/>
<path fill="#C3BF42" opacity="1.000000" stroke="none" 
	d="
M321.248138,298.122253 
	C321.211426,297.649872 321.174713,297.177521 321.415100,296.043884 
	C321.908356,292.453888 322.124542,289.525146 322.384125,286.008759 
	C330.916992,286.008759 339.187500,286.206543 347.441406,285.922668 
	C351.382721,285.787109 352.134521,287.333160 352.082123,290.871277 
	C351.899963,303.169006 351.977325,315.471313 352.050751,327.771271 
	C352.061157,329.520569 352.594849,331.266754 352.886322,333.014374 
	C352.913391,333.446228 352.940460,333.878113 352.886536,334.622314 
	C343.162048,334.919708 333.518555,334.904816 323.228668,334.456909 
	C322.388977,326.288177 322.244446,318.550812 321.983093,310.817352 
	C321.839966,306.582214 321.499573,302.353729 321.248138,298.122253 
z"/>
<path fill="#C3BD45" opacity="1.000000" stroke="none" 
	d="
M251.030197,348.076172 
	C274.241028,348.052338 297.451874,348.028473 321.095215,347.953613 
	C321.527679,354.019379 321.527679,360.136169 321.527679,366.975372 
	C298.051056,366.975372 274.535950,366.975372 250.584045,366.867737 
	C250.147232,366.760071 250.070312,366.410828 250.050262,366.217926 
	C250.030228,366.025024 250.051193,366.007385 250.352905,365.721039 
	C250.651382,359.967865 250.648148,354.501038 250.737885,348.793335 
	C250.897278,348.393707 250.963730,348.234955 251.030197,348.076172 
z"/>
<path fill="#56291B" opacity="1.000000" stroke="none" 
	d="
M376.315277,366.745911 
	C373.896820,366.286560 371.813660,365.900818 368.957733,365.372009 
	C368.957733,326.983185 368.957733,288.406860 368.961487,249.353470 
	C372.455902,248.876419 375.946533,248.876419 380.097748,248.876419 
	C380.097748,287.562195 380.097748,326.317017 379.724670,365.527252 
	C378.903503,366.211975 378.455444,366.441284 378.007355,366.670624 
	C377.555084,366.720245 377.102844,366.769867 376.315277,366.745911 
z"/>
<path fill="#C4C044" opacity="1.000000" stroke="none" 
	d="
M116.182182,69.979218 
	C116.182182,58.214508 116.182182,46.449806 116.182182,34.005669 
	C138.664642,34.005669 160.851364,34.005669 183.237488,34.318459 
	C162.651978,38.264252 143.889481,46.318863 127.747704,60.103199 
	C123.892601,63.395279 120.037361,66.687210 116.182182,69.979218 
z"/>
<path fill="#C3BF42" opacity="1.000000" stroke="none" 
	d="
M320.917938,248.083328 
	C320.975342,240.237991 321.043213,232.380005 321.217590,224.026306 
	C329.398926,223.530579 337.473694,223.530579 346.054626,223.530579 
	C346.054626,231.891846 346.054626,239.473724 345.550842,247.538925 
	C337.014343,248.039062 328.981628,248.055893 320.948944,248.072708 
	C320.948944,248.072708 320.928406,248.070694 320.917938,248.083328 
z"/>
<path fill="#C3BF43" opacity="1.000000" stroke="none" 
	d="
M93.345024,107.915260 
	C93.345024,96.161354 93.345024,84.407448 93.345024,72.095711 
	C100.473114,72.095711 107.231018,72.095711 114.310898,72.456207 
	C106.818787,83.280029 99.141655,93.817986 95.117012,106.488907 
	C94.925697,107.091202 93.953545,107.445480 93.345024,107.915260 
z"/>
<path fill="#E1B881" opacity="1.000000" stroke="none" 
	d="
M93.237198,108.254013 
	C93.953545,107.445480 94.925697,107.091202 95.117012,106.488907 
	C99.141655,93.817986 106.818787,83.280029 114.768661,72.524399 
	C115.275230,71.704002 115.646004,71.175896 116.099487,70.313507 
	C120.037361,66.687210 123.892601,63.395279 127.747704,60.103199 
	C143.889481,46.318863 162.651978,38.264252 183.701691,34.368549 
	C186.350098,34.082886 188.733734,34.059925 191.558594,34.279747 
	C191.999832,34.522530 191.991608,34.915947 191.991608,34.915947 
	C145.974518,41.358284 114.325394,66.413239 96.126328,108.903175 
	C95.675713,109.955238 95.095009,110.951591 94.225548,111.981918 
	C93.903183,111.823273 93.930252,111.656616 93.911110,111.201538 
	C93.635132,110.612129 93.405365,110.311142 93.175598,110.010155 
	C93.160194,109.537689 93.144783,109.065224 93.237198,108.254013 
z"/>
<path fill="#DFB47B" opacity="1.000000" stroke="none" 
	d="
M238.622513,36.105537 
	C239.997482,36.850426 240.908234,37.678535 241.976547,38.148750 
	C250.326004,41.823780 258.757599,45.317894 267.035889,49.144630 
	C268.870148,49.992527 270.195984,51.940273 271.878082,53.701027 
	C270.313873,53.433289 268.407288,53.172451 266.976440,52.206684 
	C256.677155,45.254963 245.274216,40.881248 233.201157,37.184029 
	C234.723846,36.600395 236.477554,36.311676 238.622513,36.105537 
z"/>
<path fill="#C2BE3D" opacity="1.000000" stroke="none" 
	d="
M93.957321,111.489967 
	C93.930252,111.656616 93.903183,111.823273 93.949020,112.233101 
	C94.021935,112.476280 94.012688,112.500244 93.695602,112.765457 
	C92.433189,115.986534 91.518097,118.952530 90.532097,121.894768 
	C89.855385,123.914131 89.080154,125.900482 88.348953,127.901588 
	C88.305855,124.456154 88.530334,120.980881 88.150177,117.573044 
	C87.701302,113.549141 89.238831,111.799492 93.542969,111.698654 
	C93.905190,111.449417 93.957321,111.489967 93.957321,111.489967 
z"/>
<path fill="#C3BD45" opacity="1.000000" stroke="none" 
	d="
M321.181152,298.573669 
	C321.499573,302.353729 321.839966,306.582214 321.983093,310.817352 
	C322.244446,318.550812 322.388977,326.288177 322.762238,334.380524 
	C322.565216,338.175201 322.188202,341.613312 321.679199,345.478699 
	C321.386932,337.442932 321.168213,328.980469 321.084259,320.516632 
	C321.013214,313.353577 321.098206,306.188995 321.181152,298.573669 
z"/>
<path fill="#C2BF3F" opacity="1.000000" stroke="none" 
	d="
M317.040039,112.485352 
	C318.475250,112.485352 319.910492,112.485352 321.856445,112.485352 
	C321.856445,116.883087 321.856445,120.966682 321.623840,125.706055 
	C321.173004,126.593140 320.969818,126.842545 320.727264,127.044693 
	C320.655334,127.104645 320.367310,127.059586 320.355591,127.015503 
	C319.558411,124.018242 318.779358,121.016167 318.004669,117.648712 
	C317.687073,115.683731 317.363556,114.084541 317.040039,112.485352 
z"/>
<path fill="#DAC393" opacity="1.000000" stroke="none" 
	d="
M317.998718,118.014511 
	C318.779358,121.016167 319.558411,124.018242 320.355591,127.015503 
	C320.367310,127.059586 320.655334,127.104645 320.727264,127.044693 
	C320.969818,126.842545 321.173004,126.593140 321.604004,126.168945 
	C321.826141,132.473801 321.835510,138.971527 321.635620,145.835693 
	C320.290314,138.014328 319.154297,129.826538 318.006958,120.868378 
	C317.996674,119.403511 317.997681,118.709007 317.998718,118.014511 
z"/>
<path fill="#E3CE95" opacity="1.000000" stroke="none" 
	d="
M318.004639,117.648712 
	C317.997681,118.709007 317.996674,119.403511 318.016113,120.439316 
	C315.672211,114.161308 313.307831,107.541977 310.966248,100.214142 
	C311.010162,99.286781 311.031219,99.067924 311.052277,98.849060 
	C311.830750,100.102570 312.609192,101.356087 313.700867,103.181564 
	C314.791260,105.171860 315.568451,106.590187 316.345703,108.008514 
	C316.544678,109.240013 316.743652,110.471512 316.991333,112.094177 
	C317.363556,114.084541 317.687073,115.683731 318.004639,117.648712 
z"/>
<path fill="#E1B881" opacity="1.000000" stroke="none" 
	d="
M88.233826,128.279602 
	C89.080154,125.900482 89.855385,123.914131 90.532097,121.894768 
	C91.518097,118.952530 92.433189,115.986534 93.688660,112.777931 
	C92.561531,119.232224 91.124252,125.939247 89.375267,132.638123 
	C88.769745,132.093613 88.475937,131.557281 88.182129,131.020935 
	C88.160988,130.233154 88.139847,129.445389 88.233826,128.279602 
z"/>
<path fill="#BE7F4D" opacity="1.000000" stroke="none" 
	d="
M321.250244,248.366241 
	C328.981628,248.055893 337.014343,248.039062 345.513794,248.005707 
	C345.980560,247.989166 346.250488,248.239487 346.276398,248.420868 
	C338.052063,248.621429 329.801819,248.640610 321.250244,248.366241 
z"/>
<path fill="#DFB47B" opacity="1.000000" stroke="none" 
	d="
M231.345047,36.199532 
	C227.152283,35.998398 222.854691,35.395275 218.258636,34.572746 
	C221.269043,34.193329 224.583801,33.858372 227.883575,33.969238 
	C229.021652,34.007477 230.122406,35.156128 231.345047,36.199532 
z"/>
<path fill="#DBC59D" opacity="1.000000" stroke="none" 
	d="
M88.120827,131.460083 
	C88.475937,131.557281 88.769745,132.093613 89.144592,132.942856 
	C89.126579,135.594131 89.027534,137.932510 88.818268,140.707886 
	C88.491867,138.062988 88.275696,134.981125 88.120827,131.460083 
z"/>
<path fill="#BFBB37" opacity="1.000000" stroke="none" 
	d="
M316.333069,107.589256 
	C315.568451,106.590187 314.791260,105.171860 313.943848,103.394844 
	C314.373413,103.022575 314.873230,103.008995 315.747681,102.991051 
	C316.188385,104.381119 316.254425,105.775551 316.333069,107.589256 
z"/>
<path fill="#DFB47B" opacity="1.000000" stroke="none" 
	d="
M192.346802,34.940735 
	C191.991608,34.915947 191.999832,34.522530 192.003052,34.326202 
	C193.086258,34.080723 194.166245,34.031563 195.634949,34.101257 
	C194.916458,34.468586 193.809235,34.717052 192.346802,34.940735 
z"/>
<path fill="#764431" opacity="1.000000" stroke="none" 
	d="
M378.301483,366.778137 
	C378.455444,366.441284 378.903503,366.211975 379.615112,365.983643 
	C379.450928,366.284973 379.023285,366.585297 378.301483,366.778137 
z"/>
<path fill="#DAC393" opacity="1.000000" stroke="none" 
	d="
M321.667786,151.019485 
	C321.421692,150.682571 321.340393,150.127792 321.387634,149.166779 
	C321.621704,149.440903 321.727142,150.121262 321.667786,151.019485 
z"/>
<path fill="#BFBB37" opacity="1.000000" stroke="none" 
	d="
M316.173218,37.735191 
	C315.782928,37.650684 315.435516,37.254097 315.053772,36.582474 
	C315.418335,36.679329 315.817230,37.051220 316.173218,37.735191 
z"/>
<path fill="#DFB47B" opacity="1.000000" stroke="none" 
	d="
M215.708740,34.110706 
	C215.473785,34.345287 214.895172,34.476528 214.142929,34.431786 
	C214.434555,34.172989 214.899811,34.090176 215.708740,34.110706 
z"/>
<path fill="#DBC59D" opacity="1.000000" stroke="none" 
	d="
M93.911110,111.201538 
	C93.957321,111.489967 93.905190,111.449417 93.880157,111.436539 
	C93.683640,111.215858 93.512146,111.008064 93.258133,110.405212 
	C93.405365,110.311142 93.635132,110.612129 93.911110,111.201538 
z"/>
<path fill="#C4BD4B" opacity="1.000000" stroke="none" 
	d="
M9.200648,347.393127 
	C9.515242,347.284668 9.676590,347.459198 9.706379,347.911011 
	C9.368174,348.059601 9.192369,347.888855 9.200648,347.393127 
z"/>
<path fill="#EBA975" opacity="1.000000" stroke="none" 
	d="
M302.937500,247.603989 
	C300.378540,248.262436 297.752045,248.712067 295.124756,248.716904 
	C281.965973,248.741165 268.806976,248.648941 255.248444,248.049866 
	C254.848801,198.428925 254.848801,149.355759 254.848801,100.431976 
	C221.135254,100.431976 188.250320,100.431976 155.116272,100.431976 
	C155.116272,164.207321 155.116272,227.522995 155.116272,290.838684 
	C139.424271,290.881927 123.732285,290.925201 107.586220,290.927979 
	C107.107758,243.755920 106.589622,196.617416 107.247993,149.495331 
	C107.630241,122.135757 118.104065,98.287834 138.254364,79.457756 
	C153.815475,64.916183 172.294815,56.171635 193.778503,53.854553 
	C222.099579,50.800041 246.992233,58.312073 268.492981,76.916969 
	C289.385010,94.995140 301.372894,117.755478 301.914856,145.509445 
	C302.531677,177.096725 302.047363,208.705215 302.102203,240.304367 
	C302.106201,242.600037 302.602295,244.894852 302.937500,247.603989 
z"/>
<path fill="#FEFDFB" opacity="1.000000" stroke="none" 
	d="
M155.574020,290.903656 
	C155.116272,227.522995 155.116272,164.207321 155.116272,100.431976 
	C188.250320,100.431976 221.135254,100.431976 254.848801,100.431976 
	C254.848801,149.355759 254.848801,198.428925 254.780151,247.917618 
	C251.751419,248.404999 248.791306,248.476837 245.356430,248.028259 
	C244.847961,234.397827 244.814270,221.287796 244.855103,207.699722 
	C244.836288,187.730682 244.742950,168.239700 244.714783,148.301086 
	C244.779984,135.790619 244.779984,123.727760 244.779984,111.354218 
	C218.127640,111.354218 192.200287,111.354218 165.952057,111.358688 
	C165.463181,111.934296 165.295181,112.505440 165.121201,113.540283 
	C165.124908,139.295792 165.134598,164.587585 165.073914,190.353058 
	C165.007324,195.159729 164.986343,199.492905 165.019409,203.825684 
	C165.135086,218.979385 165.269424,234.132919 165.304535,249.727509 
	C165.212418,259.705414 165.212418,269.242310 165.212418,279.039459 
	C184.950974,279.039459 203.994568,279.039459 223.038162,279.039459 
	C223.133743,282.758606 223.229309,286.477753 223.178711,290.644440 
	C200.698959,291.050873 178.365372,291.009766 155.574020,290.903656 
z"/>
<path fill="#7E4B27" opacity="1.000000" stroke="none" 
	d="
M134.347336,313.936462 
	C133.311554,310.766663 132.534821,307.632050 132.406631,304.471100 
	C132.389862,304.057495 135.692795,303.129578 137.472748,303.089478 
	C144.613876,302.928680 151.771896,303.266907 158.901779,302.941376 
	C163.948776,302.710968 162.883392,305.964569 163.049576,308.830078 
	C163.232483,311.983398 163.030151,314.229523 158.731232,314.061401 
	C150.767746,313.749908 142.783615,313.966644 134.347336,313.936462 
z"/>
<path fill="#7E4B27" opacity="1.000000" stroke="none" 
	d="
M40.005650,331.969513 
	C36.852116,331.969513 34.154984,331.671173 31.549858,332.033844 
	C26.661772,332.714294 25.749861,330.441559 25.856848,326.115082 
	C25.947882,322.433838 26.608889,320.721069 30.804331,320.924744 
	C37.924480,321.270416 45.090328,321.316772 52.204647,320.915619 
	C56.963768,320.647278 57.019169,323.048370 57.132496,326.619049 
	C57.258286,330.582489 56.319557,332.455658 51.948872,332.043579 
	C48.165077,331.686859 44.321007,331.969513 40.005650,331.969513 
z"/>
<path fill="#C5C059" opacity="1.000000" stroke="none" 
	d="
M11.448783,290.987366 
	C12.880669,290.635376 14.781497,290.047638 16.683947,290.042358 
	C40.136631,289.977142 63.589554,289.996979 87.514725,290.234222 
	C87.987030,290.473602 87.974541,290.963013 87.974541,290.963013 
	C62.622520,290.982727 37.270500,291.002472 11.448783,290.987366 
z"/>
<path fill="#C5AB6B" opacity="1.000000" stroke="none" 
	d="
M88.221115,290.978577 
	C87.974541,290.963013 87.987030,290.473602 87.981888,290.228699 
	C87.991699,268.614624 88.006653,247.245483 88.047424,225.400024 
	C88.381828,226.665039 88.953560,228.405548 88.958755,230.147751 
	C89.018295,250.108994 88.991646,270.070496 88.974335,290.496277 
	C88.960701,290.960663 88.467697,290.994110 88.221115,290.978577 
z"/>
<path fill="#E5B481" opacity="1.000000" stroke="none" 
	d="
M277.973450,58.343193 
	C289.753998,64.568542 297.450348,74.908211 304.011078,86.651543 
	C303.324951,86.633659 302.502686,86.382034 302.004120,85.835228 
	C294.399536,77.495140 286.830963,69.122162 279.278534,60.734715 
	C278.745819,60.143078 278.405243,59.378426 277.973450,58.343193 
z"/>
<path fill="#E5B481" opacity="1.000000" stroke="none" 
	d="
M311.015167,98.507431 
	C311.031219,99.067924 311.010162,99.286781 310.935669,99.832657 
	C309.881714,98.026848 308.881165,95.894020 307.930725,93.387024 
	C308.979950,94.730507 309.979004,96.448158 311.015167,98.507431 
z"/>
<path fill="#DFB47B" opacity="1.000000" stroke="none" 
	d="
M271.999817,54.340492 
	C273.230438,54.790867 274.481720,55.575741 275.870178,56.898693 
	C276.007416,57.436771 276.001221,57.918148 276.001221,57.918144 
	C274.674316,56.837093 273.347382,55.756039 271.999817,54.340492 
z"/>
<path fill="#E5B481" opacity="1.000000" stroke="none" 
	d="
M303.953125,87.348450 
	C304.583801,87.480255 305.189636,87.964775 305.883240,89.028328 
	C305.932373,89.807503 305.893738,90.007637 305.855103,90.207779 
	C305.212830,89.372238 304.570587,88.536697 303.953125,87.348450 
z"/>
<path fill="#E3CE95" opacity="1.000000" stroke="none" 
	d="
M305.966919,90.448158 
	C305.893738,90.007637 305.932373,89.807503 305.997803,89.302841 
	C306.657227,89.788773 307.289795,90.579216 307.693237,91.688446 
	C307.288239,92.016739 307.112305,92.026253 306.936340,92.035774 
	C306.650482,91.586693 306.364624,91.137619 305.966919,90.448158 
z"/>
<path fill="#E5B481" opacity="1.000000" stroke="none" 
	d="
M276.333130,57.978210 
	C276.001221,57.918148 276.007416,57.436771 276.014221,57.195709 
	C276.578674,57.142075 277.136261,57.329498 277.852661,57.771763 
	C277.562622,58.030491 277.113800,58.034382 276.333130,57.978210 
z"/>
<path fill="#E5B481" opacity="1.000000" stroke="none" 
	d="
M307.007751,92.291786 
	C307.112305,92.026253 307.288239,92.016739 307.728210,92.003807 
	C308.002563,92.169533 308.012817,92.338676 308.001953,92.761124 
	C307.680267,92.858887 307.379730,92.703346 307.007751,92.291786 
z"/>
<path fill="#FEB637" opacity="1.000000" stroke="none" 
	d="
M223.110016,278.571991 
	C203.994568,279.039459 184.950974,279.039459 165.212418,279.039459 
	C165.212418,269.242310 165.212418,259.705414 165.637772,249.649078 
	C186.381958,238.289429 206.669739,227.390366 227.039307,216.646317 
	C232.830780,213.591614 238.860260,210.988159 244.780579,208.177765 
	C244.814270,221.287796 244.847961,234.397827 244.919662,247.919922 
	C238.059860,248.331985 231.162048,248.331985 223.181885,248.331985 
	C223.181885,258.970642 223.181885,268.537567 223.110016,278.571991 
z"/>
<path fill="#57291A" opacity="1.000000" stroke="none" 
	d="
M250.995056,347.601532 
	C250.963730,348.234955 250.897278,348.393707 250.518967,349.130127 
	C250.155136,355.140961 250.103165,360.574188 250.051193,366.007385 
	C250.051193,366.007385 250.030228,366.025024 250.030273,366.040222 
	C246.576797,366.055450 243.123260,366.055450 239.008987,366.055450 
	C239.008987,363.617279 239.008972,361.841980 239.008972,360.066650 
	C239.008957,337.400604 239.008484,314.734558 239.009232,292.068512 
	C239.009476,284.829987 239.011108,284.823486 246.396683,285.020111 
	C247.367798,285.045990 248.336090,285.178741 249.528427,285.281097 
	C249.762634,287.093262 249.970428,288.701019 250.388000,290.610352 
	C250.707901,307.659393 250.818298,324.406860 250.927856,341.154358 
	C250.940872,343.145203 250.949326,345.136047 250.995056,347.601532 
z"/>
<path fill="#EBA975" opacity="1.000000" stroke="none" 
	d="
M301.992035,290.993744 
	C287.936096,290.997589 273.879578,291.064240 259.824768,290.940430 
	C257.612213,290.920929 255.407257,290.039124 252.913300,289.253235 
	C252.771347,285.182953 255.318481,285.083679 258.195160,285.098541 
	C272.445862,285.172241 286.697052,285.150085 301.461853,285.608704 
	C301.981079,287.701721 301.986542,289.347717 301.992035,290.993744 
z"/>
<path fill="#BF8253" opacity="1.000000" stroke="none" 
	d="
M302.460938,291.001282 
	C301.986542,289.347717 301.981079,287.701721 301.919312,285.653564 
	C307.957306,285.216736 314.051575,285.182098 320.588501,285.606812 
	C320.996429,287.730804 320.961731,289.395355 320.927002,291.059937 
	C314.927948,291.042877 308.928925,291.025848 302.460938,291.001282 
z"/>
<path fill="#E7E0DC" opacity="1.000000" stroke="none" 
	d="
M286.023132,274.262512 
	C284.871765,273.467255 283.497681,272.701782 283.456451,271.870239 
	C283.237701,267.459259 283.353668,263.031708 283.353668,258.293274 
	C285.176910,258.189972 286.580048,258.110443 287.972656,258.031525 
	C288.280487,258.716034 288.633575,259.142029 288.641174,259.574066 
	C288.710632,263.526581 288.873077,267.489166 288.639587,271.426971 
	C288.581146,272.412415 287.192657,273.318970 286.023132,274.262512 
z"/>
<path fill="#F3F0ED" opacity="1.000000" stroke="none" 
	d="
M269.401398,263.252869 
	C269.400665,267.012085 269.400665,270.310974 269.400665,273.879944 
	C267.645386,273.879944 266.228210,273.879944 264.507385,273.879944 
	C264.507385,268.747162 264.507385,263.694946 264.507385,258.354645 
	C266.065887,258.354645 267.472717,258.354645 269.189911,258.354645 
	C269.263000,259.883240 269.332581,261.337891 269.401398,263.252869 
z"/>
<path fill="#F6F3F1" opacity="1.000000" stroke="none" 
	d="
M303.489685,258.324158 
	C306.838226,257.574677 308.128998,258.554077 307.918762,261.790802 
	C307.663177,265.725311 307.858032,269.689087 307.858032,273.884338 
	C306.002777,273.884338 304.589203,273.884338 303.100281,273.884338 
	C303.100281,268.662140 303.100281,263.583771 303.489685,258.324158 
z"/>
<path fill="#BFB266" opacity="1.000000" stroke="none" 
	d="
M320.956177,291.469971 
	C320.961731,289.395355 320.996429,287.730804 321.059204,285.659424 
	C331.502228,285.252655 341.917236,285.252655 353.001862,285.252655 
	C353.001862,301.006805 353.001862,316.542877 352.944092,332.546692 
	C352.594849,331.266754 352.061157,329.520569 352.050751,327.771271 
	C351.977325,315.471313 351.899963,303.169006 352.082123,290.871277 
	C352.134521,287.333160 351.382721,285.787109 347.441406,285.922668 
	C339.187500,286.206543 330.916992,286.008759 322.384125,286.008759 
	C322.124542,289.525146 321.908356,292.453888 321.429077,295.688477 
	C321.105743,294.622894 321.045563,293.251434 320.956177,291.469971 
z"/>
<path fill="#F9F6F4" opacity="1.000000" stroke="none" 
	d="
M324.912750,258.104370 
	C325.905975,259.121948 326.866516,260.109344 326.911591,261.136902 
	C327.091187,265.231750 326.985626,269.339081 326.985626,273.793488 
	C325.325043,273.932068 323.941711,274.047516 322.173950,274.195007 
	C322.077362,272.463837 321.946655,271.029999 321.928070,269.594727 
	C321.891754,266.789825 321.680023,263.953491 322.034576,261.193573 
	C322.178345,260.074554 323.612427,259.121307 324.912750,258.104370 
z"/>
<path fill="#F9F6F5" opacity="1.000000" stroke="none" 
	d="
M346.133453,265.060089 
	C346.133423,268.164642 346.133423,270.786804 346.133423,273.773193 
	C344.544952,273.922607 343.161896,274.052704 341.402100,274.218231 
	C341.402100,268.901428 341.402100,263.878204 341.402100,258.447693 
	C342.676331,258.320435 344.052368,258.183044 346.133484,257.975220 
	C346.133484,260.415497 346.133484,262.496582 346.133453,265.060089 
z"/>
<path fill="#F8F6F3" opacity="1.000000" stroke="none" 
	d="
M249.691589,258.601166 
	C249.980392,263.867371 249.980392,268.775116 249.980392,273.886597 
	C248.319138,273.886597 246.939178,273.886597 245.314865,273.886597 
	C245.314865,268.748016 245.314865,263.851685 245.314865,258.242706 
	C246.652298,258.242706 248.027542,258.242706 249.691589,258.601166 
z"/>
<path fill="#764431" opacity="1.000000" stroke="none" 
	d="
M250.352905,365.721039 
	C250.103165,360.574188 250.155136,355.140961 250.425995,349.370972 
	C250.648148,354.501038 250.651382,359.967865 250.352905,365.721039 
z"/>
<path fill="#FFB637" opacity="1.000000" stroke="none" 
	d="
M165.144287,189.879379 
	C165.134598,164.587585 165.124908,139.295792 165.314392,113.362717 
	C165.766693,112.265694 166.019821,111.809952 166.272949,111.354218 
	C192.200287,111.354218 218.127640,111.354218 244.779984,111.354218 
	C244.779984,123.727760 244.779984,135.790619 244.392395,148.413574 
	C222.225540,160.674103 200.478348,172.434906 178.639771,184.023529 
	C174.321457,186.315048 169.651871,187.944565 165.144287,189.879379 
z"/>
<path fill="#FFD89E" opacity="1.000000" stroke="none" 
	d="
M165.073898,190.353058 
	C169.651871,187.944565 174.321457,186.315048 178.639771,184.023529 
	C200.478348,172.434906 222.225540,160.674103 244.327194,148.861191 
	C244.742950,168.239700 244.836288,187.730682 244.855103,207.699722 
	C238.860260,210.988159 232.830780,213.591614 227.039307,216.646317 
	C206.669739,227.390366 186.381958,238.289429 165.729889,249.208099 
	C165.269424,234.132919 165.135086,218.979385 165.019409,203.825684 
	C164.986343,199.492905 165.007324,195.159729 165.073898,190.353058 
z"/>
<path fill="#FFD89E" opacity="1.000000" stroke="none" 
	d="
M165.952057,111.358681 
	C166.019821,111.809952 165.766693,112.265694 165.320374,112.899010 
	C165.295181,112.505440 165.463181,111.934296 165.952057,111.358681 
z"/>
</svg>