<svg xmlns="http://www.w3.org/2000/svg" xmlns:xlink="http://www.w3.org/1999/xlink" xml:space="preserve" width="30" height="30"><defs><path id="a" d="M0 0h30v30H0z"/></defs><clipPath id="b"><use xlink:href="#a" overflow="visible"/></clipPath><g clip-path="url(#b)"><defs><path id="c" d="M0 0h30v30H0z"/></defs><clipPath id="d"><use xlink:href="#c" overflow="visible"/></clipPath><path fill="#8E563D" d="M28.326 21.61H6.359v-8.627C6.359 6.917 11.276 2 17.342 2h.001c6.065 0 10.983 4.917 10.983 10.983v8.627z" clip-path="url(#d)"/><path fill="#BE7F4C" d="M26.844 22.371H7.765a.42.42 0 0 1-.419-.42V13.33c0-5.5 4.459-9.959 9.959-9.959s9.959 4.459 9.959 9.959v8.621a.42.42 0 0 1-.42.42" clip-path="url(#d)"/><path fill="#A86F45" d="M8.261 14.62c0-5.5 4.458-9.958 9.958-9.958h.001a9.935 9.935 0 0 1 7.648 3.582 9.952 9.952 0 0 0-8.563-4.874c-5.5 0-9.959 4.458-9.959 9.958v8.622a.42.42 0 0 0 .419.419h.496V14.62z" clip-path="url(#d)"/><path fill="#985835" d="M12.819 7.625h8.666v13.844h-8.666z" clip-path="url(#d)"/><path fill="#FFB535" d="M13.607 8.434h7.09v12.224h-7.09z" clip-path="url(#d)"/><path fill="#BE7F4C" d="M1.722 22.247h26.604v5.141H1.722z" clip-path="url(#d)"/><path fill="#A86A3B" d="M2.863 22.143h.304v5.245h-.304zM5.257 22.143h.304v5.245h-.304zM7.651 22.143h.304v5.245h-.304zM10.045 22.143h.304v5.245h-.304zM12.44 22.143h.304v5.245h-.304zM14.834 22.143h.304v5.245h-.304zM17.228 22.143h.305v5.245h-.305zM19.623 22.143h.304v5.245h-.304zM22.016 22.143h.306v5.245h-.306zM24.411 22.143h.304v5.245h-.304zM26.805 22.143h.305v5.245h-.305z" clip-path="url(#d)"/><path fill="#EBA975" d="M1 21.502h28.048v1.173H1z" clip-path="url(#d)"/></g><g clip-path="url(#b)"><defs><path id="e" d="M13.607 8.434h7.09v12.224h-7.09z"/></defs><clipPath id="f"><use xlink:href="#e" overflow="visible"/></clipPath><g clip-path="url(#f)" opacity=".25"><defs><path id="g" d="M13.276 11.349h7.752v4.181h-7.752z"/></defs><clipPath id="h"><use xlink:href="#g" overflow="visible"/></clipPath><path fill="#F8FAFB" d="m13.554 13.629 7.474-2.279v1.9l-7.752 2.279z" clip-path="url(#h)"/></g><g clip-path="url(#f)" opacity=".3"><defs><path id="i" d="M13.276 15.834h7.752v3.116h-7.752z"/></defs><clipPath id="j"><use xlink:href="#i" overflow="visible"/></clipPath><path fill="#F8FAFB" d="m13.554 18.114 7.474-2.28v.836l-7.752 2.28z" clip-path="url(#j)"/></g></g><g clip-path="url(#b)"><defs><path id="k" d="M0 0h30v30H0z"/></defs><clipPath id="l"><use xlink:href="#k" overflow="visible"/></clipPath><path fill="#A86A3B" d="M9.78 10.817h2.28v.304H9.78zM23.385 10.057h2.28v.304h-2.28zM21.941 10.741h2.28v.304h-2.28zM21.485 18.95h2.28v.305h-2.28zM24.982 18.19h2.279v.304h-2.279zM15.1 6.333h2.28v.304H15.1zM9.552 18.418h2.28v.305h-2.28z" clip-path="url(#l)"/><path fill="#232121" d="M28.401 21.497a.113.113 0 0 1-.111-.091l-.76-3.648a.115.115 0 0 1 .088-.136.114.114 0 0 1 .135.089l.761 3.648a.114.114 0 0 1-.089.135.099.099 0 0 1-.024.003M23.157 21.497a.085.085 0 0 1-.023-.003.113.113 0 0 1-.088-.135l.76-3.648a.114.114 0 1 1 .223.047l-.76 3.648a.114.114 0 0 1-.112.091M22.017 21.497a.083.083 0 0 1-.022-.003.113.113 0 0 1-.089-.135l.76-3.648a.115.115 0 0 1 .136-.089.115.115 0 0 1 .088.136l-.76 3.648a.117.117 0 0 1-.113.091M27.109 21.497a.112.112 0 0 1-.111-.091l-.76-3.648a.114.114 0 1 1 .223-.047l.761 3.648a.114.114 0 0 1-.089.135.099.099 0 0 1-.024.003" clip-path="url(#l)"/><path fill="#474341" d="M28.174 16.898h-4.561l.662-4.175a.729.729 0 0 1 .72-.614h3.086c.447 0 .789.4.719.842l-.626 3.947z" clip-path="url(#l)"/><path fill="#232121" d="M23.651 17.734a.114.114 0 0 1-.114-.114v-1.571a.748.748 0 0 0-.747-.747h-1.571a.114.114 0 1 1 0-.228h1.571c.537 0 .976.438.976.976v1.571a.114.114 0 0 1-.115.113" clip-path="url(#l)"/><path fill="#2B2928" d="M22.131 17.734h6.043v-.836h-6.043a.418.418 0 0 0 0 .836" clip-path="url(#l)"/><path fill="#232121" d="M28.212 17.734a.114.114 0 0 1-.114-.114v-1.571a.748.748 0 0 0-.747-.747H25.78a.114.114 0 1 1 0-.228h1.571c.538 0 .976.438.976.976v1.571a.116.116 0 0 1-.115.113M5.93 21.497a.114.114 0 0 0 .112-.091l.76-3.648a.116.116 0 0 0-.089-.136.115.115 0 0 0-.135.089l-.759 3.648a.113.113 0 0 0 .088.135.097.097 0 0 0 .023.003M11.175 21.497a.085.085 0 0 0 .023-.003.114.114 0 0 0 .089-.135l-.76-3.648a.115.115 0 0 0-.135-.089.116.116 0 0 0-.089.136l.761 3.648a.113.113 0 0 0 .111.091M12.315 21.497a.085.085 0 0 0 .023-.003.114.114 0 0 0 .089-.135l-.76-3.648a.115.115 0 0 0-.135-.089.116.116 0 0 0-.089.136l.761 3.648a.113.113 0 0 0 .111.091M7.223 21.497c.053 0 .1-.037.111-.091l.761-3.648a.116.116 0 0 0-.089-.136.114.114 0 0 0-.135.089l-.76 3.648a.114.114 0 0 0 .089.135.085.085 0 0 0 .023.003" clip-path="url(#l)"/><path fill="#474341" d="M6.158 16.898h4.561l-.663-4.175a.729.729 0 0 0-.719-.614H6.25c-.447 0-.789.4-.718.842l.626 3.947z" clip-path="url(#l)"/><path fill="#232121" d="M10.681 17.734a.114.114 0 0 0 .114-.114v-1.571a.75.75 0 0 1 .748-.747h1.571a.114.114 0 0 0 0-.228h-1.571a.977.977 0 0 0-.976.976v1.571c0 .063.051.113.114.113" clip-path="url(#l)"/><path fill="#2B2928" d="M12.201 17.734H6.158v-.836h6.043a.418.418 0 1 1 0 .836" clip-path="url(#l)"/><path fill="#232121" d="M6.12 17.734a.114.114 0 0 0 .114-.114v-1.571c0-.411.335-.747.748-.747h1.571a.114.114 0 0 0 0-.228H6.982a.977.977 0 0 0-.976.976v1.571c0 .063.051.113.114.113" clip-path="url(#l)"/><g clip-path="url(#l)" opacity=".24"><defs><path id="m" d="M1.722 22.675h26.604v1.292H1.722z"/></defs><clipPath id="n"><use xlink:href="#m" overflow="visible"/></clipPath><path fill="#8C532D" d="M1.722 22.675h26.604v1.292H1.722z" clip-path="url(#n)"/></g></g></svg>