<?xml version="1.0" encoding="utf-8"?>
<!-- Generator: Adobe Illustrator 16.0.0, SVG Export Plug-In . SVG Version: 6.00 Build 0)  -->
<!DOCTYPE svg PUBLIC "-//W3C//DTD SVG 1.1//EN" "http://www.w3.org/Graphics/SVG/1.1/DTD/svg11.dtd">
<svg version="1.1" id="Layer_1" xmlns="http://www.w3.org/2000/svg" xmlns:xlink="http://www.w3.org/1999/xlink" x="0px" y="0px"
	 width="40px" height="40px" viewBox="0 0 40 40" enable-background="new 0 0 40 40" xml:space="preserve">
<g>
	<defs>
		<rect id="SVGID_1_" y="-6" width="40" height="40"/>
	</defs>
	<clipPath id="SVGID_2_">
		<use xlink:href="#SVGID_1_"  overflow="visible"/>
	</clipPath>
	<rect x="32.284" y="17.809" clip-path="url(#SVGID_2_)" fill="#75432F" width="1.5" height="10.633"/>
	<rect x="29.455" y="26.578" clip-path="url(#SVGID_2_)" fill="#7F4934" width="7.463" height="1.405"/>
	<polygon clip-path="url(#SVGID_2_)" fill="#995933" points="5.028,17.667 3.458,16.097 20.438,9.39 38.418,16.383 34.003,17.598 	
		"/>
	<rect x="4.487" y="18.18" clip-path="url(#SVGID_2_)" fill="#EBA975" width="29.297" height="12.977"/>
	<rect x="7.601" y="21.197" clip-path="url(#SVGID_2_)" fill="#FFB535" width="10.79" height="7.715"/>
	<rect x="6.497" y="20.269" clip-path="url(#SVGID_2_)" fill="#BE7F4C" width="13.493" height="0.922"/>
	<polygon clip-path="url(#SVGID_2_)" fill="#FFD79C" points="18.391,23.306 7.568,24.792 7.568,22.889 18.391,21.403 	"/>
	<polygon clip-path="url(#SVGID_2_)" fill="#FFD79C" points="18.391,26.471 7.568,27.856 7.568,25.954 18.391,24.568 	"/>
	<rect x="7.461" y="24.19" clip-path="url(#SVGID_2_)" fill="#BE7F4C" width="11.43" height="0.969"/>
	<rect x="7.461" y="28.189" clip-path="url(#SVGID_2_)" fill="#BE7F4C" width="11.63" height="0.968"/>
	<rect x="10.862" y="20.411" clip-path="url(#SVGID_2_)" fill="#BE7F4C" width="1.032" height="8.747"/>
	<rect x="7.364" y="20.411" clip-path="url(#SVGID_2_)" fill="#BE7F4C" width="1.032" height="8.747"/>
	<rect x="18.358" y="20.411" clip-path="url(#SVGID_2_)" fill="#BE7F4C" width="1.032" height="8.747"/>
	<rect x="2.054" y="17.667" clip-path="url(#SVGID_2_)" fill="#8E563D" width="1.445" height="13.489"/>
	<g clip-path="url(#SVGID_2_)">
		<defs>
			<rect id="SVGID_3_" y="-6" width="40" height="40"/>
		</defs>
		<clipPath id="SVGID_4_">
			<use xlink:href="#SVGID_3_"  overflow="visible"/>
		</clipPath>
		<g opacity="0.73" clip-path="url(#SVGID_4_)">
			<g>
				<defs>
					<rect id="SVGID_5_" x="4.498" y="17.667" width="29.286" height="2.14"/>
				</defs>
				<clipPath id="SVGID_6_">
					<use xlink:href="#SVGID_5_"  overflow="visible"/>
				</clipPath>
				<rect x="4.498" y="17.667" clip-path="url(#SVGID_6_)" fill="#995933" width="29.286" height="2.14"/>
			</g>
		</g>
	</g>
	<rect x="12.782" y="19.199" clip-path="url(#SVGID_2_)" fill="#8E563D" width="1.399" height="11.957"/>
	<rect x="10.566" y="18.122" clip-path="url(#SVGID_2_)" fill="#8E563D" width="5.83" height="1.34"/>
	<rect x="20.477" y="18.122" clip-path="url(#SVGID_2_)" fill="#8E563D" width="5.83" height="1.34"/>
	<rect x="22.693" y="19.199" clip-path="url(#SVGID_2_)" fill="#8E563D" width="1.398" height="11.957"/>
	<rect x="35.483" y="17.667" clip-path="url(#SVGID_2_)" fill="#8E563D" width="1.435" height="13.489"/>
	<rect x="1.46" y="16.383" clip-path="url(#SVGID_2_)" fill="#8E563D" width="36.245" height="1.854"/>
	<rect x="1.471" y="31.14" clip-path="url(#SVGID_2_)" fill="#BE7F4C" width="36.264" height="2.217"/>
	<polygon clip-path="url(#SVGID_2_)" fill="#995933" points="13.947,12.815 27.24,12.815 20.478,9.317 	"/>
	<rect x="25.344" y="21.017" clip-path="url(#SVGID_2_)" fill="#995933" width="4.813" height="9.685"/>
	<path clip-path="url(#SVGID_2_)" fill="#BE7F4C" d="M30.157,30.701h-4.813v-9.684h4.813V30.701z M30.613,20.562h-0.456h-4.813
		h-0.456v0.456v9.684v0.455h0.456h4.813h0.456v-0.455v-9.684V20.562z"/>
	<g clip-path="url(#SVGID_2_)">
		<defs>
			<rect id="SVGID_7_" y="-6" width="40" height="40"/>
		</defs>
		<clipPath id="SVGID_8_">
			<use xlink:href="#SVGID_7_"  overflow="visible"/>
		</clipPath>
		<path clip-path="url(#SVGID_8_)" fill="#7F4934" d="M2.441,28.007V27.96c0-0.373,0.303-0.676,0.677-0.676h9.509
			c0.374,0,0.676,0.303,0.676,0.676v0.047c0,0.373-0.302,0.676-0.676,0.676H3.118C2.745,28.683,2.441,28.38,2.441,28.007"/>
		<path clip-path="url(#SVGID_8_)" fill="#7F4934" d="M13.714,28.007V27.96c0-0.373,0.303-0.676,0.676-0.676h8.226
			c0.373,0,0.677,0.303,0.677,0.676v0.047c0,0.373-0.304,0.676-0.677,0.676h-8.226C14.018,28.683,13.714,28.38,13.714,28.007"/>
		<polygon clip-path="url(#SVGID_8_)" fill="#995933" points="40,18.579 20.463,10.294 0,18.357 0.033,16.383 20.49,8.35 
			39.987,16.668 		"/>
		<path clip-path="url(#SVGID_8_)" fill="#81452B" d="M3.453,32.189c0,0.387-0.313,0.699-0.7,0.699
			c-0.386,0-0.699-0.313-0.699-0.699s0.313-0.7,0.699-0.7C3.14,31.489,3.453,31.803,3.453,32.189"/>
		<path clip-path="url(#SVGID_8_)" fill="#81452B" d="M8.817,32.189c0,0.387-0.313,0.699-0.7,0.699
			c-0.386,0-0.699-0.313-0.699-0.699s0.313-0.7,0.699-0.7C8.504,31.489,8.817,31.803,8.817,32.189"/>
		<path clip-path="url(#SVGID_8_)" fill="#81452B" d="M14.181,32.189c0,0.387-0.313,0.699-0.7,0.699
			c-0.386,0-0.699-0.313-0.699-0.699s0.313-0.7,0.699-0.7C13.868,31.489,14.181,31.803,14.181,32.189"/>
		<path clip-path="url(#SVGID_8_)" fill="#81452B" d="M19.544,32.189c0,0.387-0.313,0.699-0.699,0.699c-0.387,0-0.7-0.313-0.7-0.699
			s0.313-0.7,0.7-0.7C19.231,31.489,19.544,31.803,19.544,32.189"/>
		<path clip-path="url(#SVGID_8_)" fill="#81452B" d="M24.538,32.189c0,0.387-0.312,0.699-0.699,0.699
			c-0.387,0-0.699-0.313-0.699-0.699s0.313-0.7,0.699-0.7C24.227,31.489,24.538,31.803,24.538,32.189"/>
		<path clip-path="url(#SVGID_8_)" fill="#81452B" d="M30.246,32.189c0,0.387-0.313,0.699-0.699,0.699c-0.387,0-0.7-0.313-0.7-0.699
			s0.313-0.7,0.7-0.7C29.933,31.489,30.246,31.803,30.246,32.189"/>
		<path clip-path="url(#SVGID_8_)" fill="#81452B" d="M35.24,32.189c0,0.387-0.313,0.699-0.699,0.699s-0.7-0.313-0.7-0.699
			s0.313-0.7,0.7-0.7S35.24,31.803,35.24,32.189"/>
		<rect x="25.94" y="25.583" clip-path="url(#SVGID_8_)" fill="#81452B" width="1.871" height="0.936"/>
	</g>
</g>
</svg>
