<svg xmlns="http://www.w3.org/2000/svg" xmlns:xlink="http://www.w3.org/1999/xlink" xml:space="preserve" width="40" height="40"><defs><path id="a" d="M0-6h40v40H0z"/></defs><clipPath id="b"><use xlink:href="#a" overflow="visible"/></clipPath><path fill="#75432F" d="M32.284 17.809h1.5v10.633h-1.5z" clip-path="url(#b)"/><path fill="#7F4934" d="M29.455 26.578h7.463v1.405h-7.463z" clip-path="url(#b)"/><path fill="#995933" d="m5.028 17.667-1.57-1.57 16.98-6.707 17.98 6.993-4.415 1.215z" clip-path="url(#b)"/><path fill="#EBA975" d="M4.487 18.18h29.297v12.977H4.487z" clip-path="url(#b)"/><path fill="#FFB535" d="M7.601 21.197h10.79v7.715H7.601z" clip-path="url(#b)"/><path fill="#BE7F4C" d="M6.497 20.269H19.99v.922H6.497z" clip-path="url(#b)"/><path fill="#FFD79C" d="M18.391 23.306 7.568 24.792v-1.903l10.823-1.486zM18.391 26.471 7.568 27.856v-1.902l10.823-1.386z" clip-path="url(#b)"/><path fill="#BE7F4C" d="M7.461 24.19h11.43v.969H7.461zM7.461 28.189h11.63v.968H7.461z" clip-path="url(#b)"/><path fill="#BE7F4C" d="M10.862 20.411h1.032v8.747h-1.032zM7.364 20.411h1.032v8.747H7.364zM18.358 20.411h1.032v8.747h-1.032z" clip-path="url(#b)"/><path fill="#8E563D" d="M2.054 17.667h1.445v13.489H2.054z" clip-path="url(#b)"/><g clip-path="url(#b)"><defs><path id="c" d="M0-6h40v40H0z"/></defs><clipPath id="d"><use xlink:href="#c" overflow="visible"/></clipPath><g clip-path="url(#d)" opacity=".73"><defs><path id="e" d="M4.498 17.667h29.286v2.14H4.498z"/></defs><clipPath id="f"><use xlink:href="#e" overflow="visible"/></clipPath><path fill="#995933" d="M4.498 17.667h29.286v2.14H4.498z" clip-path="url(#f)"/></g></g><path fill="#8E563D" d="M12.782 19.199h1.399v11.957h-1.399z" clip-path="url(#b)"/><path fill="#8E563D" d="M10.566 18.122h5.83v1.34h-5.83zM20.477 18.122h5.83v1.34h-5.83z" clip-path="url(#b)"/><path fill="#8E563D" d="M22.693 19.199h1.398v11.957h-1.398zM35.483 17.667h1.435v13.489h-1.435z" clip-path="url(#b)"/><path fill="#8E563D" d="M1.46 16.383h36.245v1.854H1.46z" clip-path="url(#b)"/><path fill="#BE7F4C" d="M1.471 31.14h36.264v2.217H1.471z" clip-path="url(#b)"/><path fill="#995933" d="M13.947 12.815H27.24l-6.762-3.498zM25.344 21.017h4.813v9.685h-4.813z" clip-path="url(#b)"/><path fill="#BE7F4C" d="M30.157 30.701h-4.813v-9.684h4.813v9.684zm.456-10.139H24.888V31.157H30.613V20.562z" clip-path="url(#b)"/><g clip-path="url(#b)"><defs><path id="g" d="M0-6h40v40H0z"/></defs><clipPath id="h"><use xlink:href="#g" overflow="visible"/></clipPath><path fill="#7F4934" d="M2.441 28.007v-.047c0-.373.303-.676.677-.676h9.509c.374 0 .676.303.676.676v.047a.676.676 0 0 1-.676.676H3.118a.677.677 0 0 1-.677-.676M13.714 28.007v-.047c0-.373.303-.676.676-.676h8.226c.373 0 .677.303.677.676v.047a.677.677 0 0 1-.677.676H14.39a.677.677 0 0 1-.676-.676" clip-path="url(#h)"/><path fill="#995933" d="m40 18.579-19.537-8.285L0 18.357l.033-1.974L20.49 8.35l19.497 8.318z" clip-path="url(#h)"/><path fill="#81452B" d="M3.453 32.189a.699.699 0 1 1-1.397 0 .699.699 0 0 1 1.397 0M8.817 32.189a.699.699 0 1 1-1.397 0 .699.699 0 0 1 1.397 0M14.181 32.189a.699.699 0 1 1-1.397 0 .699.699 0 0 1 1.397 0M19.544 32.189a.698.698 0 1 1-1.399 0 .7.7 0 0 1 1.399 0M24.538 32.189a.698.698 0 1 1-1.398 0 .7.7 0 1 1 1.398 0M30.246 32.189a.698.698 0 1 1-1.399 0 .7.7 0 0 1 1.399 0M35.24 32.189a.698.698 0 1 1-1.399 0 .7.7 0 0 1 1.399 0M25.94 25.583h1.871v.936H25.94z" clip-path="url(#h)"/></g></svg>