<?xml version="1.0" encoding="utf-8"?>
<!-- Generator: Adobe Illustrator 16.0.0, SVG Export Plug-In . SVG Version: 6.00 Build 0)  -->
<!DOCTYPE svg PUBLIC "-//W3C//DTD SVG 1.1//EN" "http://www.w3.org/Graphics/SVG/1.1/DTD/svg11.dtd">
<svg version="1.1" id="Layer_1" xmlns="http://www.w3.org/2000/svg" xmlns:xlink="http://www.w3.org/1999/xlink" x="0px" y="0px"
	 width="40px" height="40px" viewBox="0 0 40 40" enable-background="new 0 0 40 40" xml:space="preserve">
<g>
	<defs>
		<rect id="SVGID_1_" y="-2" width="40" height="40"/>
	</defs>
	<clipPath id="SVGID_2_">
		<use xlink:href="#SVGID_1_"  overflow="visible"/>
	</clipPath>
	<rect x="2.835" y="32.212" clip-path="url(#SVGID_2_)" fill="#8E563D" width="37.165" height="2.531"/>
	<rect y="34.641" clip-path="url(#SVGID_2_)" fill="#8E563D" width="40" height="2.532"/>
	<rect x="0.039" y="36.002" clip-path="url(#SVGID_2_)" fill="#81452B" width="7.391" height="0.812"/>
	<rect x="2.936" y="33.123" clip-path="url(#SVGID_2_)" fill="#81452B" width="7.391" height="0.81"/>
	<rect x="14.983" y="33.123" clip-path="url(#SVGID_2_)" fill="#81452B" width="2.835" height="0.81"/>
	<rect x="36.953" y="35.553" clip-path="url(#SVGID_2_)" fill="#81452B" width="2.834" height="0.81"/>
	<rect x="19.873" y="4.211" clip-path="url(#SVGID_2_)" fill="#81452B" width="3.19" height="7.472"/>
	<rect x="5.841" y="20.704" clip-path="url(#SVGID_2_)" fill="#EBA975" width="31.802" height="11.573"/>
	<rect x="6.366" y="23.438" clip-path="url(#SVGID_2_)" fill="#BE7F4C" width="7.152" height="5.923"/>
	<rect x="29.511" y="23.438" clip-path="url(#SVGID_2_)" fill="#BE7F4C" width="7.152" height="5.923"/>
	<polygon clip-path="url(#SVGID_2_)" fill="#8E563D" points="4.383,21.251 39.1,21.251 21.559,7.856 	"/>
	<rect x="14.406" y="21.251" clip-path="url(#SVGID_2_)" fill="#BE7F4C" width="14.307" height="11.026"/>
	<g clip-path="url(#SVGID_2_)">
		<defs>
			<rect id="SVGID_3_" y="-2" width="40" height="40"/>
		</defs>
		<clipPath id="SVGID_4_">
			<use xlink:href="#SVGID_3_"  overflow="visible"/>
		</clipPath>
		<g opacity="0.38" clip-path="url(#SVGID_4_)">
			<g>
				<defs>
					<rect id="SVGID_5_" x="5.841" y="21.251" width="31.802" height="2.005"/>
				</defs>
				<clipPath id="SVGID_6_">
					<use xlink:href="#SVGID_5_"  overflow="visible"/>
				</clipPath>
				<rect x="5.841" y="21.251" clip-path="url(#SVGID_6_)" fill="#81452B" width="31.802" height="2.005"/>
			</g>
		</g>
	</g>
	<polygon clip-path="url(#SVGID_2_)" fill="#81452B" points="14.406,21.251 21.514,7.856 28.713,21.251 	"/>
	<rect x="18.415" y="21.251" clip-path="url(#SVGID_2_)" fill="#EBA975" width="6.106" height="11.026"/>
	<polygon clip-path="url(#SVGID_2_)" fill="#8E563D" points="26.617,21.251 16.32,21.251 21.322,16.604 	"/>
	<rect x="7.025" y="23.984" clip-path="url(#SVGID_2_)" fill="#FFB535" width="5.832" height="4.83"/>
	<polygon clip-path="url(#SVGID_2_)" fill="#FFD599" points="12.857,26.81 7.025,28.085 7.025,26.445 12.857,25.169 	"/>
	<rect x="30.171" y="23.984" clip-path="url(#SVGID_2_)" fill="#FFB535" width="5.832" height="4.83"/>
	
		<rect x="18.962" y="26.445" transform="matrix(0.8391 0.544 -0.544 0.8391 17.9114 -6.7552)" clip-path="url(#SVGID_2_)" fill="#BE7F4C" width="2.826" height="0.911"/>
	<polygon clip-path="url(#SVGID_2_)" fill="#FFD599" points="30.171,26.81 36.003,28.085 36.003,26.445 30.171,25.169 	"/>
	<rect x="5.841" y="30.181" clip-path="url(#SVGID_2_)" fill="#BE7F4C" width="4.647" height="1.186"/>
	<rect x="12.129" y="30.181" clip-path="url(#SVGID_2_)" fill="#BE7F4C" width="1.822" height="1.186"/>
	<rect x="32.995" y="30.637" clip-path="url(#SVGID_2_)" fill="#BE7F4C" width="4.646" height="1.186"/>
	<g clip-path="url(#SVGID_2_)">
		<defs>
			<rect id="SVGID_7_" y="-2" width="40" height="40"/>
		</defs>
		<clipPath id="SVGID_8_">
			<use xlink:href="#SVGID_7_"  overflow="visible"/>
		</clipPath>
		<path clip-path="url(#SVGID_8_)" fill="#81452B" d="M25.341,10.772h-7.563c0.428-1.714,1.968-2.916,3.735-2.916h0.092
			c1.725,0,3.239,1.147,3.706,2.807L25.341,10.772z"/>
	</g>
</g>
</svg>
