<svg xmlns="http://www.w3.org/2000/svg" xmlns:xlink="http://www.w3.org/1999/xlink" xml:space="preserve" width="60.8" height="40"><defs><path id="a" d="M0-3h60.8v40H0z"/></defs><clipPath id="b"><use xlink:href="#a" overflow="visible"/></clipPath><path fill="#8E563D" d="M1.014 31.635h56.949v2.533H1.014z" clip-path="url(#b)"/><path fill="#8E563D" d="M1.013 34.067H60.8v2.532H1.013z" clip-path="url(#b)"/><path fill="#BE7F4C" d="M39.871 31.736h16.097v-6.313H39.871v6.313zm3.156-1.052h-1.999v-4.313h1.999v4.313zm3.998 0h-1.999v-4.313h1.999v4.313zm3.998 0h-1.999v-4.313h1.999v4.313zm3.998 0h-1.999v-4.313h1.999v4.313z" clip-path="url(#b)"/><path fill="#81452B" d="M1.013 34.979H8.41v.812H1.013zM50.465 32.547h7.396v.812h-7.396zM42.965 32.547h2.837v.812h-2.837zM20.976 34.979h2.837v.812h-2.837zM25.232 3.666h3.547v8.31h-3.547z" clip-path="url(#b)"/><path fill="#81452B" d="M10.842 9.95 0 19.475h40.534L30.097 9.95z" clip-path="url(#b)"/><path fill="#EBA975" d="M1.013 19.474h9.813v12.263H1.013z" clip-path="url(#b)"/><path fill="#BE7F4C" d="M10.656 19.474h9.813v12.263h-9.813z" clip-path="url(#b)"/><path fill="#A5693D" d="M20.367 19.474h9.813v12.263h-9.813z" clip-path="url(#b)"/><path fill="#EBA975" d="M30.112 19.474h9.813v12.263h-9.813z" clip-path="url(#b)"/><path fill="#8E563D" d="M0 19.475h10.64l.202-9.526zM30.097 9.949v9.526h10.437z" clip-path="url(#b)"/><path fill="#BE7F4C" d="M1.722 22.073h8.513v4.632H1.722z" clip-path="url(#b)"/><path fill="#FFB535" d="M2.533 22.515h6.891v3.749H2.533z" clip-path="url(#b)"/><path fill="#FFD599" d="m9.424 24.643-6.891 1.013v-1.52l6.891-1.013z" clip-path="url(#b)"/><path fill="#BE7F4C" d="M30.805 22.073h8.513v4.632h-8.513z" clip-path="url(#b)"/><path fill="#FFB535" d="M31.616 22.515h6.891v3.749h-6.891z" clip-path="url(#b)"/><path fill="#FFD599" d="m31.616 24.643 6.891 1.013v-1.52l-6.891-1.013z" clip-path="url(#b)"/><path fill="#A5693D" d="M11.349 22.073h8.512v4.632h-8.512z" clip-path="url(#b)"/><path fill="#FFB535" d="M12.159 22.515h6.891v3.749h-6.891z" clip-path="url(#b)"/><path fill="#FFD599" d="m19.05 24.643-6.891 1.013v-1.52l6.891-1.013z" clip-path="url(#b)"/><path fill="#8E563D" d="M20.976 22.073h8.512v4.632h-8.512z" clip-path="url(#b)"/><path fill="#FFB535" d="M21.786 22.515h6.891v3.749h-6.891z" clip-path="url(#b)"/><path fill="#FFD599" d="m28.677 24.643-6.891 1.013v-1.52l6.891-1.013z" clip-path="url(#b)"/><path fill="#BE7F4C" d="M1.014 27.885h3.445v1.521H1.014zM5.776 29.81h3.04v1.521h-3.04zM36.885 29.81h3.04v1.521h-3.04z" clip-path="url(#b)"/><path fill="#A5693D" d="M12.565 27.885h3.445v1.521h-3.445zM17.328 29.81h3.04v1.521h-3.04z" clip-path="url(#b)"/><path fill="#8E563D" d="M26.651 27.885h3.445v1.521h-3.445z" clip-path="url(#b)"/><path fill="#BE7F4C" d="M30.097 27.885h3.445v1.521h-3.445z" clip-path="url(#b)"/><path fill="#8E563D" d="M20.368 29.81h3.04v1.521h-3.04z" clip-path="url(#b)"/><g clip-path="url(#b)"><defs><path id="c" d="M0-3h60.8v40H0z"/></defs><clipPath id="d"><use xlink:href="#c" overflow="visible"/></clipPath><g clip-path="url(#d)" opacity=".38"><defs><path id="e" d="M1.013 19.475h38.913v1.521H1.013z"/></defs><clipPath id="f"><use xlink:href="#e" overflow="visible"/></clipPath><path fill="#81452B" d="M1.013 19.474h38.912v1.521H1.013z" clip-path="url(#f)"/></g></g></svg>