<svg xmlns="http://www.w3.org/2000/svg" xmlns:xlink="http://www.w3.org/1999/xlink" xml:space="preserve" width="40" height="40"><defs><path id="a" d="M0-2h40v40H0z"/></defs><clipPath id="b"><use xlink:href="#a" overflow="visible"/></clipPath><path fill="#8E563D" d="M2.835 32.212H40v2.531H2.835z" clip-path="url(#b)"/><path fill="#8E563D" d="M0 34.641h40v2.532H0z" clip-path="url(#b)"/><path fill="#81452B" d="M.039 36.002H7.43v.812H.039zM2.936 33.123h7.391v.81H2.936zM14.983 33.123h2.835v.81h-2.835zM36.953 35.553h2.834v.81h-2.834zM19.873 4.211h3.19v7.472h-3.19z" clip-path="url(#b)"/><path fill="#EBA975" d="M5.841 20.704h31.802v11.573H5.841z" clip-path="url(#b)"/><path fill="#BE7F4C" d="M6.366 23.438h7.152v5.923H6.366zM29.511 23.438h7.152v5.923h-7.152z" clip-path="url(#b)"/><path fill="#8E563D" d="M4.383 21.251H39.1L21.559 7.856z" clip-path="url(#b)"/><path fill="#BE7F4C" d="M14.406 21.251h14.307v11.026H14.406z" clip-path="url(#b)"/><g clip-path="url(#b)"><defs><path id="c" d="M0-2h40v40H0z"/></defs><clipPath id="d"><use xlink:href="#c" overflow="visible"/></clipPath><g clip-path="url(#d)" opacity=".38"><defs><path id="e" d="M5.841 21.251h31.802v2.005H5.841z"/></defs><clipPath id="f"><use xlink:href="#e" overflow="visible"/></clipPath><path fill="#81452B" d="M5.841 21.251h31.802v2.005H5.841z" clip-path="url(#f)"/></g></g><path fill="#81452B" d="m14.406 21.251 7.108-13.395 7.199 13.395z" clip-path="url(#b)"/><path fill="#EBA975" d="M18.415 21.251h6.106v11.026h-6.106z" clip-path="url(#b)"/><path fill="#8E563D" d="M26.617 21.251H16.32l5.002-4.647z" clip-path="url(#b)"/><path fill="#FFB535" d="M7.025 23.984h5.832v4.83H7.025z" clip-path="url(#b)"/><path fill="#FFD599" d="m12.857 26.81-5.832 1.275v-1.64l5.832-1.276z" clip-path="url(#b)"/><path fill="#FFB535" d="M30.171 23.984h5.832v4.83h-5.832z" clip-path="url(#b)"/><path fill="#BE7F4C" d="M18.962 26.445h2.826v.911h-2.826z" clip-path="url(#b)" transform="rotate(32.955 20.374 26.9)"/><path fill="#FFD599" d="m30.171 26.81 5.832 1.275v-1.64l-5.832-1.276z" clip-path="url(#b)"/><path fill="#BE7F4C" d="M5.841 30.181h4.647v1.186H5.841zM12.129 30.181h1.822v1.186h-1.822zM32.995 30.637h4.646v1.186h-4.646z" clip-path="url(#b)"/><g clip-path="url(#b)"><defs><path id="g" d="M0-2h40v40H0z"/></defs><clipPath id="h"><use xlink:href="#g" overflow="visible"/></clipPath><path fill="#81452B" d="M25.341 10.772h-7.563a3.849 3.849 0 0 1 3.735-2.916h.092a3.85 3.85 0 0 1 3.706 2.807l.03.109z" clip-path="url(#h)"/></g></svg>