<?xml version="1.0" encoding="utf-8"?>
<!-- Generator: Adobe Illustrator 16.0.0, SVG Export Plug-In . SVG Version: 6.00 Build 0)  -->
<!DOCTYPE svg PUBLIC "-//W3C//DTD SVG 1.1//EN" "http://www.w3.org/Graphics/SVG/1.1/DTD/svg11.dtd">
<svg version="1.1" id="Layer_1" xmlns="http://www.w3.org/2000/svg" xmlns:xlink="http://www.w3.org/1999/xlink" x="0px" y="0px"
	 width="60.8px" height="40px" viewBox="0 0 60.8 40" enable-background="new 0 0 60.8 40" xml:space="preserve">
<g>
	<defs>
		<rect id="SVGID_1_" y="-3" width="60.8" height="40"/>
	</defs>
	<clipPath id="SVGID_2_">
		<use xlink:href="#SVGID_1_"  overflow="visible"/>
	</clipPath>
	<polygon clip-path="url(#SVGID_2_)" fill="#81452B" points="57.761,15.429 41.662,15.429 41.662,12.28 54.604,12.28 	"/>
	<polygon clip-path="url(#SVGID_2_)" fill="#8E563D" points="54.604,15.429 38.506,15.429 40.716,12.28 54.604,12.28 	"/>
	<rect x="39.664" y="15.429" clip-path="url(#SVGID_2_)" fill="#A5693D" width="0.947" height="9.995"/>
	<rect x="54.499" y="15.429" clip-path="url(#SVGID_2_)" fill="#A5693D" width="0.946" height="9.995"/>
	<rect x="1.014" y="31.635" clip-path="url(#SVGID_2_)" fill="#8E563D" width="56.949" height="2.533"/>
	<rect x="1.013" y="34.067" clip-path="url(#SVGID_2_)" fill="#8E563D" width="59.787" height="2.532"/>
	<path clip-path="url(#SVGID_2_)" fill="#BE7F4C" d="M39.871,31.736h16.097v-6.313H39.871V31.736z M43.027,30.684h-1.999v-4.313
		h1.999V30.684z M47.025,30.684h-1.999v-4.313h1.999V30.684z M51.023,30.684h-1.999v-4.313h1.999V30.684z M55.021,30.684h-1.999
		v-4.313h1.999V30.684z"/>
	<rect x="1.013" y="34.979" clip-path="url(#SVGID_2_)" fill="#81452B" width="7.397" height="0.812"/>
	<rect x="50.465" y="32.547" clip-path="url(#SVGID_2_)" fill="#81452B" width="7.396" height="0.812"/>
	<rect x="42.965" y="32.547" clip-path="url(#SVGID_2_)" fill="#81452B" width="2.837" height="0.812"/>
	<rect x="20.976" y="34.979" clip-path="url(#SVGID_2_)" fill="#81452B" width="2.837" height="0.812"/>
	<rect x="25.232" y="3.666" clip-path="url(#SVGID_2_)" fill="#81452B" width="3.547" height="8.31"/>
	<polygon clip-path="url(#SVGID_2_)" fill="#81452B" points="10.842,9.95 0,19.475 40.534,19.475 30.097,9.95 	"/>
	<rect x="1.013" y="19.474" clip-path="url(#SVGID_2_)" fill="#EBA975" width="9.813" height="12.263"/>
	<rect x="10.656" y="19.474" clip-path="url(#SVGID_2_)" fill="#BE7F4C" width="9.813" height="12.263"/>
	<rect x="20.367" y="19.474" clip-path="url(#SVGID_2_)" fill="#A5693D" width="9.813" height="12.263"/>
	<rect x="30.112" y="19.474" clip-path="url(#SVGID_2_)" fill="#EBA975" width="9.813" height="12.263"/>
	<polygon clip-path="url(#SVGID_2_)" fill="#8E563D" points="0,19.475 10.64,19.475 10.842,9.949 	"/>
	<polygon clip-path="url(#SVGID_2_)" fill="#8E563D" points="30.097,9.949 30.097,19.475 40.534,19.475 	"/>
	<rect x="1.722" y="22.073" clip-path="url(#SVGID_2_)" fill="#BE7F4C" width="8.513" height="4.632"/>
	<rect x="2.533" y="22.515" clip-path="url(#SVGID_2_)" fill="#FFB535" width="6.891" height="3.749"/>
	<polygon clip-path="url(#SVGID_2_)" fill="#FFD599" points="9.424,24.643 2.533,25.656 2.533,24.136 9.424,23.123 	"/>
	<rect x="30.805" y="22.073" clip-path="url(#SVGID_2_)" fill="#BE7F4C" width="8.513" height="4.632"/>
	<rect x="31.616" y="22.515" clip-path="url(#SVGID_2_)" fill="#FFB535" width="6.891" height="3.749"/>
	<polygon clip-path="url(#SVGID_2_)" fill="#FFD599" points="31.616,24.643 38.507,25.656 38.507,24.136 31.616,23.123 	"/>
	<rect x="11.349" y="22.073" clip-path="url(#SVGID_2_)" fill="#A5693D" width="8.512" height="4.632"/>
	<rect x="12.159" y="22.515" clip-path="url(#SVGID_2_)" fill="#FFB535" width="6.891" height="3.749"/>
	<polygon clip-path="url(#SVGID_2_)" fill="#FFD599" points="19.05,24.643 12.159,25.656 12.159,24.136 19.05,23.123 	"/>
	<rect x="20.976" y="22.073" clip-path="url(#SVGID_2_)" fill="#8E563D" width="8.512" height="4.632"/>
	<rect x="21.786" y="22.515" clip-path="url(#SVGID_2_)" fill="#FFB535" width="6.891" height="3.749"/>
	<polygon clip-path="url(#SVGID_2_)" fill="#FFD599" points="28.677,24.643 21.786,25.656 21.786,24.136 28.677,23.123 	"/>
	<rect x="1.014" y="27.885" clip-path="url(#SVGID_2_)" fill="#BE7F4C" width="3.445" height="1.521"/>
	<rect x="5.776" y="29.81" clip-path="url(#SVGID_2_)" fill="#BE7F4C" width="3.04" height="1.521"/>
	<rect x="36.885" y="29.81" clip-path="url(#SVGID_2_)" fill="#BE7F4C" width="3.04" height="1.521"/>
	<rect x="12.565" y="27.885" clip-path="url(#SVGID_2_)" fill="#A5693D" width="3.445" height="1.521"/>
	<rect x="17.328" y="29.81" clip-path="url(#SVGID_2_)" fill="#A5693D" width="3.04" height="1.521"/>
	<rect x="26.651" y="27.885" clip-path="url(#SVGID_2_)" fill="#8E563D" width="3.445" height="1.521"/>
	<rect x="30.097" y="27.885" clip-path="url(#SVGID_2_)" fill="#BE7F4C" width="3.445" height="1.521"/>
	<rect x="20.368" y="29.81" clip-path="url(#SVGID_2_)" fill="#8E563D" width="3.04" height="1.521"/>
	<g clip-path="url(#SVGID_2_)">
		<defs>
			<rect id="SVGID_3_" y="-3" width="60.8" height="40"/>
		</defs>
		<clipPath id="SVGID_4_">
			<use xlink:href="#SVGID_3_"  overflow="visible"/>
		</clipPath>
		<g opacity="0.38" clip-path="url(#SVGID_4_)">
			<g>
				<defs>
					<rect id="SVGID_5_" x="1.013" y="19.475" width="38.913" height="1.521"/>
				</defs>
				<clipPath id="SVGID_6_">
					<use xlink:href="#SVGID_5_"  overflow="visible"/>
				</clipPath>
				<rect x="1.013" y="19.474" clip-path="url(#SVGID_6_)" fill="#81452B" width="38.912" height="1.521"/>
			</g>
		</g>
	</g>
</g>
</svg>
