<?xml version="1.0" encoding="utf-8"?>
<!-- Generator: Adobe Illustrator 16.0.0, SVG Export Plug-In . SVG Version: 6.00 Build 0)  -->
<!DOCTYPE svg PUBLIC "-//W3C//DTD SVG 1.1//EN" "http://www.w3.org/Graphics/SVG/1.1/DTD/svg11.dtd">
<svg version="1.1" id="Layer_1" xmlns="http://www.w3.org/2000/svg" xmlns:xlink="http://www.w3.org/1999/xlink" x="0px" y="0px"
	 width="40px" height="39.999px" viewBox="0 0 40 39.999" enable-background="new 0 0 40 39.999" xml:space="preserve">
<g>
	<defs>
		<rect id="SVGID_1_" y="-9.001" width="40" height="40"/>
	</defs>
	<clipPath id="SVGID_2_">
		<use xlink:href="#SVGID_1_"  overflow="visible"/>
	</clipPath>
	<rect x="2.824" y="12.837" clip-path="url(#SVGID_2_)" fill="#8E563D" width="1.481" height="15.668"/>
	<rect x="3.421" y="20.382" clip-path="url(#SVGID_2_)" fill="#8E563D" width="15.668" height="1.48"/>
	<rect x="14.088" y="11.935" clip-path="url(#SVGID_2_)" fill="#BE7F4C" width="22.338" height="18.736"/>
	<rect x="2.215" y="27.929" clip-path="url(#SVGID_2_)" fill="#BE7F4C" width="11.873" height="2.742"/>
	<rect x="14.075" y="12.837" clip-path="url(#SVGID_2_)" fill="#EBA975" width="2.092" height="17.834"/>
	<rect x="35.38" y="12.837" clip-path="url(#SVGID_2_)" fill="#EBA975" width="2.092" height="17.834"/>
	<rect y="9.985" clip-path="url(#SVGID_2_)" fill="#8E563D" width="40" height="3.141"/>
	<rect x="20.52" y="16.159" clip-path="url(#SVGID_2_)" fill="#03C5F9" width="11.143" height="9.025"/>
	<path clip-path="url(#SVGID_2_)" fill="#EBA975" d="M31.663,25.185H20.521v-9.025h11.143V25.185z M32.528,15.292h-0.865H20.521
		h-0.867v0.867v9.025v0.867h0.867h11.143h0.865v-0.867v-9.025V15.292z"/>
	<polygon clip-path="url(#SVGID_2_)" fill="#52DEFF" points="31.662,20.13 20.521,22.729 20.521,20.239 31.662,17.642 	"/>
	<g clip-path="url(#SVGID_2_)">
		<defs>
			<rect id="SVGID_3_" y="-9.001" width="40" height="40"/>
		</defs>
		<clipPath id="SVGID_4_">
			<use xlink:href="#SVGID_3_"  overflow="visible"/>
		</clipPath>
		<g opacity="0.48" clip-path="url(#SVGID_4_)">
			<g>
				<defs>
					<rect id="SVGID_5_" x="14.087" y="11.745" width="23.385" height="2.762"/>
				</defs>
				<clipPath id="SVGID_6_">
					<use xlink:href="#SVGID_5_"  overflow="visible"/>
				</clipPath>
				<rect x="14.087" y="11.745" clip-path="url(#SVGID_6_)" fill="#8E563D" width="23.385" height="2.762"/>
			</g>
		</g>
	</g>
	<rect x="16.167" y="28.343" clip-path="url(#SVGID_2_)" fill="#A3683D" width="5.23" height="1.301"/>
	<rect x="16.167" y="17.64" clip-path="url(#SVGID_2_)" fill="#A3683D" width="1.765" height="1.301"/>
	<rect x="32.228" y="26.837" clip-path="url(#SVGID_2_)" fill="#A3683D" width="3.134" height="1.299"/>
	<rect x="2.215" y="28.505" clip-path="url(#SVGID_2_)" fill="#A3683D" width="4.909" height="0.795"/>
	<rect y="10.364" clip-path="url(#SVGID_2_)" fill="#A3683D" width="4.909" height="0.795"/>
	<rect x="36.695" y="11.935" clip-path="url(#SVGID_2_)" fill="#A3683D" width="3.305" height="0.795"/>
	<rect x="26.812" y="11.935" clip-path="url(#SVGID_2_)" fill="#A3683D" width="8.314" height="0.795"/>
</g>
</svg>
