<svg xmlns="http://www.w3.org/2000/svg" xmlns:xlink="http://www.w3.org/1999/xlink" xml:space="preserve" width="40" height="39.999"><defs><path id="a" d="M0-9.001h40v40H0z"/></defs><clipPath id="b"><use xlink:href="#a" overflow="visible"/></clipPath><path fill="#8E563D" d="M2.824 12.837h1.481v15.668H2.824z" clip-path="url(#b)"/><path fill="#8E563D" d="M3.421 20.382h15.668v1.48H3.421z" clip-path="url(#b)"/><path fill="#BE7F4C" d="M14.088 11.935h22.338v18.736H14.088zM2.215 27.929h11.873v2.742H2.215z" clip-path="url(#b)"/><path fill="#EBA975" d="M14.075 12.837h2.092v17.834h-2.092zM35.38 12.837h2.092v17.834H35.38z" clip-path="url(#b)"/><path fill="#8E563D" d="M0 9.985h40v3.141H0z" clip-path="url(#b)"/><path fill="#03C5F9" d="M20.52 16.159h11.143v9.025H20.52z" clip-path="url(#b)"/><path fill="#EBA975" d="M31.663 25.185H20.521V16.16h11.143v9.025zm.865-9.893H19.654v10.759H32.529V15.292z" clip-path="url(#b)"/><path fill="#52DEFF" d="m31.662 20.13-11.141 2.599v-2.49l11.141-2.597z" clip-path="url(#b)"/><g clip-path="url(#b)"><defs><path id="c" d="M0-9.001h40v40H0z"/></defs><clipPath id="d"><use xlink:href="#c" overflow="visible"/></clipPath><g clip-path="url(#d)" opacity=".48"><defs><path id="e" d="M14.087 11.745h23.385v2.762H14.087z"/></defs><clipPath id="f"><use xlink:href="#e" overflow="visible"/></clipPath><path fill="#8E563D" d="M14.087 11.745h23.385v2.762H14.087z" clip-path="url(#f)"/></g></g><path fill="#A3683D" d="M16.167 28.343h5.23v1.301h-5.23zM16.167 17.64h1.765v1.301h-1.765zM32.228 26.837h3.134v1.299h-3.134zM2.215 28.505h4.909v.795H2.215zM0 10.364h4.909v.795H0zM36.695 11.935H40v.795h-3.305zM26.812 11.935h8.314v.795h-8.314z" clip-path="url(#b)"/></svg>