<?xml version="1.0" encoding="utf-8"?>
<!-- Generator: Adobe Illustrator 16.0.0, SVG Export Plug-In . SVG Version: 6.00 Build 0)  -->
<!DOCTYPE svg PUBLIC "-//W3C//DTD SVG 1.1//EN" "http://www.w3.org/Graphics/SVG/1.1/DTD/svg11.dtd">
<svg version="1.1" id="Layer_1" xmlns="http://www.w3.org/2000/svg" xmlns:xlink="http://www.w3.org/1999/xlink" x="0px" y="0px"
	 width="30px" height="30px" viewBox="0 0 30 30" enable-background="new 0 0 30 30" xml:space="preserve">
<g>
	<defs>
		<rect id="SVGID_1_" y="-2" width="30" height="30"/>
	</defs>
	<clipPath id="SVGID_2_">
		<use xlink:href="#SVGID_1_"  overflow="visible"/>
	</clipPath>
	<rect x="2.069" y="5.608" clip-path="url(#SVGID_2_)" fill="#BE7F4C" width="25.861" height="21.982"/>
	<rect x="15.453" y="10.393" clip-path="url(#SVGID_2_)" fill="#FFB535" width="4.003" height="12.542"/>
	<rect x="21.794" y="10.393" clip-path="url(#SVGID_2_)" fill="#FFB535" width="4.004" height="12.542"/>
	<rect y="3.539" clip-path="url(#SVGID_2_)" fill="#75432F" width="30" height="3.362"/>
	<rect x="2.031" y="23.365" clip-path="url(#SVGID_2_)" fill="#A3683D" width="6.245" height="1.552"/>
	<rect x="6.298" y="10.564" clip-path="url(#SVGID_2_)" fill="#A3683D" width="6.245" height="1.552"/>
	<rect x="4.203" y="16.6" clip-path="url(#SVGID_2_)" fill="#A3683D" width="1.552" height="1.552"/>
	<rect x="6.918" y="16.6" clip-path="url(#SVGID_2_)" fill="#A3683D" width="6.466" height="1.552"/>
	<rect x="2.031" y="10.587" clip-path="url(#SVGID_2_)" fill="#A3683D" width="2.107" height="1.552"/>
	<rect x="24.181" y="23.764" clip-path="url(#SVGID_2_)" fill="#A3683D" width="3.741" height="1.553"/>
	<rect x="12.964" y="3.904" clip-path="url(#SVGID_2_)" fill="#8E563D" width="3.946" height="0.949"/>
	<rect y="3.904" clip-path="url(#SVGID_2_)" fill="#8E563D" width="9.927" height="0.949"/>
	<rect x="25.991" y="5.326" clip-path="url(#SVGID_2_)" fill="#8E563D" width="3.947" height="0.949"/>
	<g clip-path="url(#SVGID_2_)">
		<defs>
			<rect id="SVGID_3_" y="-2" width="30" height="30"/>
		</defs>
		<clipPath id="SVGID_4_">
			<use xlink:href="#SVGID_3_"  overflow="visible"/>
		</clipPath>
		<g opacity="0.48" clip-path="url(#SVGID_4_)">
			<g>
				<defs>
					<rect id="SVGID_5_" x="2.004" y="6.901" width="25.862" height="2.328"/>
				</defs>
				<clipPath id="SVGID_6_">
					<use xlink:href="#SVGID_5_"  overflow="visible"/>
				</clipPath>
				<rect x="2.004" y="6.901" clip-path="url(#SVGID_6_)" fill="#8E563D" width="25.862" height="2.328"/>
			</g>
		</g>
	</g>
	<polygon clip-path="url(#SVGID_2_)" fill="#FFCD85" points="19.461,13.366 15.453,15.564 15.453,13.108 19.461,10.909 	"/>
	<polygon clip-path="url(#SVGID_2_)" fill="#FFCD85" points="19.461,18.927 15.453,21.125 15.453,18.668 19.461,16.47 	"/>
	<polygon clip-path="url(#SVGID_2_)" fill="#FFCD85" points="25.798,15.177 21.789,17.375 21.789,14.918 25.798,12.72 	"/>
	<polygon clip-path="url(#SVGID_2_)" fill="#FFCD85" points="25.798,20.737 21.789,22.936 21.789,20.479 25.798,18.28 	"/>
</g>
</svg>
