<svg xmlns="http://www.w3.org/2000/svg" xmlns:xlink="http://www.w3.org/1999/xlink" xml:space="preserve" width="30" height="30"><defs><path id="a" d="M0-2h30v30H0z"/></defs><clipPath id="b"><use xlink:href="#a" overflow="visible"/></clipPath><path fill="#BE7F4C" d="M2.069 5.608H27.93V27.59H2.069z" clip-path="url(#b)"/><path fill="#FFB535" d="M15.453 10.393h4.003v12.542h-4.003zM21.794 10.393h4.004v12.542h-4.004z" clip-path="url(#b)"/><path fill="#75432F" d="M0 3.539h30v3.362H0z" clip-path="url(#b)"/><path fill="#A3683D" d="M2.031 23.365h6.245v1.552H2.031zM6.298 10.564h6.245v1.552H6.298zM4.203 16.6h1.552v1.552H4.203zM6.918 16.6h6.466v1.552H6.918zM2.031 10.587h2.107v1.552H2.031zM24.181 23.764h3.741v1.553h-3.741z" clip-path="url(#b)"/><path fill="#8E563D" d="M12.964 3.904h3.946v.949h-3.946zM0 3.904h9.927v.949H0zM25.991 5.326h3.947v.949h-3.947z" clip-path="url(#b)"/><g clip-path="url(#b)"><defs><path id="c" d="M0-2h30v30H0z"/></defs><clipPath id="d"><use xlink:href="#c" overflow="visible"/></clipPath><g clip-path="url(#d)" opacity=".48"><defs><path id="e" d="M2.004 6.901h25.862v2.328H2.004z"/></defs><clipPath id="f"><use xlink:href="#e" overflow="visible"/></clipPath><path fill="#8E563D" d="M2.004 6.901h25.862v2.328H2.004z" clip-path="url(#f)"/></g></g><path fill="#FFCD85" d="m19.461 13.366-4.008 2.198v-2.456l4.008-2.199zM19.461 18.927l-4.008 2.198v-2.457l4.008-2.198zM25.798 15.177l-4.009 2.198v-2.457l4.009-2.198zM25.798 20.737l-4.009 2.199v-2.457l4.009-2.199z" clip-path="url(#b)"/></svg>