<svg xmlns="http://www.w3.org/2000/svg" xmlns:xlink="http://www.w3.org/1999/xlink" xml:space="preserve" width="30" height="30"><path fill="#985835" d="M.357 24.022h2.19v1.605H.357zM27.436 24.022h2.19v1.605h-2.19zM19.188 24.023h2.189v1.604h-2.189zM9.042 24.023h2.19v1.604h-2.19z"/><path fill="#FFF" d="M1.515 12.49h27.006v10.948H1.515z"/><path fill="#CECECE" d="M1.515 10.958h27.006v1.751H1.515z"/><path fill="#FFF" d="M28.521 10.958H1.516L8.96 4.169h12.043z"/><path fill="#F7F7F7" d="M28.521 10.958H1.516l3.22-2.919 19.342-1.097z"/><defs><path id="a" d="M0 0h30v30H0z"/></defs><clipPath id="b"><use xlink:href="#a" overflow="visible"/></clipPath><path fill="#FFB535" d="M6.473 20.884H2.912v-4.351a1.78 1.78 0 0 1 3.561 0v4.351z" clip-path="url(#b)"/><path fill="#FFD79C" d="m2.912 18.293 3.561-.73v1.496l-3.561.73z" clip-path="url(#b)"/><path fill="#FFF" d="M4.554 13.803h.219v7.81h-.219z" clip-path="url(#b)"/><path fill="#FFF" d="M2.839 18.986h3.722v.219H2.839zM2.839 17.161h3.722v.219H2.839z" clip-path="url(#b)"/><path fill="#FFF" d="M2.503 16.103h2.679v.219H2.503z" clip-path="url(#b)" transform="rotate(52.202 3.842 16.212)"/><path fill="#FFF" d="M5.411 14.873h.219v2.679h-.219z" clip-path="url(#b)" transform="rotate(37.74 5.52 16.212)"/><path fill="#FFB535" d="M11.29 20.884H7.729v-4.351a1.78 1.78 0 0 1 3.561 0v4.351z" clip-path="url(#b)"/><path fill="#FFD79C" d="m7.729 18.438 3.561-.728v1.495l-3.561.73z" clip-path="url(#b)"/><path fill="#FFF" d="M9.371 13.803h.219v7.81h-.219z" clip-path="url(#b)"/><path fill="#FFF" d="M7.655 18.986h3.723v.219H7.655zM7.655 17.161h3.723v.219H7.655z" clip-path="url(#b)"/><path fill="#FFF" d="M7.32 16.103h2.679v.219H7.32z" clip-path="url(#b)" transform="rotate(52.202 8.66 16.212)"/><path fill="#FFF" d="M10.229 14.873h.219v2.679h-.219z" clip-path="url(#b)" transform="rotate(37.74 10.337 16.212)"/><path fill="#FFB535" d="M22.676 20.884h-3.561v-4.351a1.78 1.78 0 0 1 3.56 0v4.351z" clip-path="url(#b)"/><path fill="#FFD79C" d="m19.115 16.979 3.561-.73v1.496l-3.561.73z" clip-path="url(#b)"/><path fill="#FFF" d="M20.757 13.803h.219v7.81h-.219z" clip-path="url(#b)"/><path fill="#FFF" d="M19.042 18.986h3.723v.219h-3.723zM19.042 17.161h3.723v.219h-3.723z" clip-path="url(#b)"/><path fill="#FFF" d="M18.706 16.103h2.68v.219h-2.68z" clip-path="url(#b)" transform="rotate(52.193 20.045 16.213)"/><path fill="#FFF" d="M21.615 14.873h.219v2.68h-.219z" clip-path="url(#b)" transform="rotate(37.74 21.723 16.213)"/><path fill="#FFB535" d="M27.493 20.884h-3.562v-4.351a1.78 1.78 0 0 1 3.561 0v4.351z" clip-path="url(#b)"/><path fill="#FFD79C" d="m23.932 16.979 3.561-.73v1.496l-3.561.73z" clip-path="url(#b)"/><path fill="#FFF" d="M25.574 13.803h.219v7.81h-.219z" clip-path="url(#b)"/><path fill="#FFF" d="M23.859 18.986h3.722v.219h-3.722zM23.859 17.161h3.722v.219h-3.722z" clip-path="url(#b)"/><path fill="#FFF" d="M23.523 16.103h2.679v.219h-2.679z" clip-path="url(#b)" transform="rotate(52.21 24.861 16.212)"/><path fill="#FFF" d="M26.432 14.873h.219v2.679h-.219z" clip-path="url(#b)" transform="rotate(37.74 26.54 16.213)"/><path fill="#FFB535" d="M12.291 14.789h5.875v7.299h-5.875z" clip-path="url(#b)"/><path fill="#FFD79C" d="m18.166 18.555-5.866.994v-1.193l5.866-.995z" clip-path="url(#b)"/><path fill="#FFF" d="M15.119 14.534h.219v7.81h-.219z" clip-path="url(#b)"/><path fill="#FFF" d="M12.163 20.3h6.131v.219h-6.131z" clip-path="url(#b)"/><path fill="#BE7F4C" d="M.357 22.052h29.268v2.189H.357z" clip-path="url(#b)"/><path fill="#EBA975" d="M3.592 22.587h3.597v.598H3.592zM14.201 23.122h3.597v.597h-3.597zM28.142 23.122h1.41v.597h-1.41zM20.695 23.122h1.066v.597h-1.066zM1.426 22.61h1.068v.598H1.426z" clip-path="url(#b)"/><path fill="#75432F" d="m25.22 20.716-.192 1.245a.08.08 0 0 0 .019.063.079.079 0 0 0 .136-.035l.295-1.274h-.258zM25.771 20.716l-.191 1.245a.08.08 0 0 0 .018.063.079.079 0 0 0 .137-.035l.294-1.274h-.258zM26.567 20.716l.191 1.245a.077.077 0 0 1-.018.063.08.08 0 0 1-.06.027.077.077 0 0 1-.076-.062l-.295-1.274h.258zM26.979 20.716l.191 1.245a.08.08 0 0 1-.018.063.079.079 0 0 1-.137-.035l-.294-1.274h.258z" clip-path="url(#b)"/><path fill="#8E563D" d="M25.245 19.688h.13c.159 0 .303-.047.358-.196l.36-.811a.224.224 0 0 1 .211-.146h.772c.065 0 .127.028.17.076a.23.23 0 0 1 .055.178l-.096.765a.385.385 0 0 1-.381.336.111.111 0 0 0-.112.112v.282h-1.58V19.8c0-.03.012-.059.033-.08a.208.208 0 0 1 .08-.032" clip-path="url(#b)"/><path fill="#8E563D" d="M25.245 20.114h1.129c.063 0 .112.051.112.112v.113h-1.354v-.113a.114.114 0 0 1 .113-.112" clip-path="url(#b)"/><path fill="#BE7F4C" d="M25.302 20.114h1.072c.063 0 .112.051.112.112v.113h-1.297v-.113c0-.061.051-.112.113-.112M27.302 18.788l-.113.886-.363.067a.114.114 0 0 0-.08.033.112.112 0 0 0-.032.079v.486h-.227v-.486a.114.114 0 0 1 .113-.112c.193 0 .356-.097.381-.289l.057-.355a.645.645 0 0 0-.212-.562h.252c.065 0 .127.028.17.076a.231.231 0 0 1 .054.177" clip-path="url(#b)"/><path fill="#8E563D" d="M27.107 20.34h-.396v-.485c0-.063.054-.114.113-.132.224-.065.356.021.381-.17l-.098.787zM25.13 20.317h1.354v.398H25.13z" clip-path="url(#b)"/><path fill="#BE7F4C" d="M26.484 20.317h.229v.398h-.229z" clip-path="url(#b)"/><path fill="#8E563D" d="M26.712 20.317h.395v.398h-.395z" clip-path="url(#b)"/><path fill="#75432F" d="m21.745 20.716.294 1.274c.008.036.04.062.076.062a.084.084 0 0 0 .06-.027.082.082 0 0 0 .019-.063l-.191-1.245h-.258zM21.192 20.716l.295 1.274c.008.036.04.062.076.062a.086.086 0 0 0 .06-.027.086.086 0 0 0 .019-.063l-.192-1.245h-.258zM20.91 20.716l-.294 1.274a.08.08 0 0 1-.077.062.086.086 0 0 1-.06-.027.081.081 0 0 1-.018-.063l.191-1.245h.258zM20.499 20.716l-.294 1.274a.08.08 0 0 1-.077.062.088.088 0 0 1-.06-.027.081.081 0 0 1-.018-.063l.191-1.245h.258z" clip-path="url(#b)"/><path fill="#8E563D" d="M22.056 19.72c.021.021.032.05.032.08v.482h-1.579v-.281a.112.112 0 0 0-.113-.112.386.386 0 0 1-.381-.336l-.095-.765a.225.225 0 0 1 .224-.254h.772c.095 0 .179.059.212.146l.359.81c.056.15.199.197.359.197h.129c.001.001.06.011.081.033" clip-path="url(#b)"/><path fill="#8E563D" d="M21.976 20.114c.062 0 .112.051.112.112v.113h-1.354v-.113c0-.062.05-.112.112-.112h1.13z" clip-path="url(#b)"/><path fill="#BE7F4C" d="M21.919 20.114c.062 0 .113.051.113.112v.113h-1.298v-.113c0-.062.05-.112.112-.112h1.073z" clip-path="url(#b)"/><path fill="#BE7F4C" d="M19.92 18.788a.225.225 0 0 1 .224-.254h.252a.646.646 0 0 0-.212.562l.058.355c.023.192.187.289.38.289a.114.114 0 0 1 .113.112v.486h-.226v-.486a.114.114 0 0 0-.113-.112l-.363-.067-.113-.885z" clip-path="url(#b)"/><path fill="#8E563D" d="M20.015 19.553c.024.191.157.104.381.17.06.017.113.069.113.132v.485h-.396l-.098-.787zM20.737 20.317h1.353v.398h-1.353z" clip-path="url(#b)"/><path fill="#BE7F4C" d="M20.508 20.317h.229v.398h-.229z" clip-path="url(#b)"/><path fill="#8E563D" d="M20.114 20.317h.394v.398h-.394z" clip-path="url(#b)"/><path fill="#75432F" d="M23.421 19.789h.438v2.263h-.438z" clip-path="url(#b)"/><path fill="#8E563D" d="M22.545 19.643h2.189v.292h-2.189z" clip-path="url(#b)"/></svg>