<?xml version="1.0" encoding="utf-8"?>
<!-- Generator: Adobe Illustrator 16.0.0, SVG Export Plug-In . SVG Version: 6.00 Build 0)  -->
<!DOCTYPE svg PUBLIC "-//W3C//DTD SVG 1.1//EN" "http://www.w3.org/Graphics/SVG/1.1/DTD/svg11.dtd">
<svg version="1.1" id="Layer_1" xmlns="http://www.w3.org/2000/svg" xmlns:xlink="http://www.w3.org/1999/xlink" x="0px" y="0px"
	 width="30px" height="30px" viewBox="0 0 30 30" enable-background="new 0 0 30 30" xml:space="preserve">
<rect x="0.357" y="24.022" fill="#985835" width="2.19" height="1.605"/>
<rect x="27.436" y="24.022" fill="#985835" width="2.19" height="1.605"/>
<rect x="19.188" y="24.023" fill="#985835" width="2.189" height="1.604"/>
<rect x="9.042" y="24.023" fill="#985835" width="2.19" height="1.604"/>
<rect x="1.515" y="12.49" fill="#FFFFFF" width="27.006" height="10.948"/>
<rect x="1.515" y="10.958" fill="#CECECE" width="27.006" height="1.751"/>
<polygon fill="#FFFFFF" points="28.521,10.958 1.516,10.958 8.96,4.169 21.003,4.169 "/>
<polygon fill="#F7F7F7" points="28.521,10.958 1.516,10.958 4.736,8.039 24.078,6.942 "/>
<g>
	<defs>
		<rect id="SVGID_1_" width="30" height="30"/>
	</defs>
	<clipPath id="SVGID_2_">
		<use xlink:href="#SVGID_1_"  overflow="visible"/>
	</clipPath>
	<path clip-path="url(#SVGID_2_)" fill="#FFB535" d="M6.473,20.884H2.912v-4.351c0-0.983,0.797-1.78,1.78-1.78
		c0.984,0,1.781,0.797,1.781,1.78V20.884z"/>
	<polygon clip-path="url(#SVGID_2_)" fill="#FFD79C" points="2.912,18.293 6.473,17.563 6.473,19.059 2.912,19.789 	"/>
	<rect x="4.554" y="13.803" clip-path="url(#SVGID_2_)" fill="#FFFFFF" width="0.219" height="7.81"/>
	<rect x="2.839" y="18.986" clip-path="url(#SVGID_2_)" fill="#FFFFFF" width="3.722" height="0.219"/>
	<rect x="2.839" y="17.161" clip-path="url(#SVGID_2_)" fill="#FFFFFF" width="3.722" height="0.219"/>
	
		<rect x="2.503" y="16.103" transform="matrix(0.6129 0.7902 -0.7902 0.6129 14.2983 3.2402)" clip-path="url(#SVGID_2_)" fill="#FFFFFF" width="2.679" height="0.219"/>
	
		<rect x="5.411" y="14.873" transform="matrix(0.7908 0.6121 -0.6121 0.7908 11.0783 0.0127)" clip-path="url(#SVGID_2_)" fill="#FFFFFF" width="0.219" height="2.679"/>
	<path clip-path="url(#SVGID_2_)" fill="#FFB535" d="M11.29,20.884H7.729v-4.351c0-0.983,0.797-1.78,1.781-1.78
		c0.983,0,1.78,0.797,1.78,1.78V20.884z"/>
	<polygon clip-path="url(#SVGID_2_)" fill="#FFD79C" points="7.729,18.438 11.29,17.71 11.29,19.205 7.729,19.935 	"/>
	<rect x="9.371" y="13.803" clip-path="url(#SVGID_2_)" fill="#FFFFFF" width="0.219" height="7.81"/>
	<rect x="7.655" y="18.986" clip-path="url(#SVGID_2_)" fill="#FFFFFF" width="3.723" height="0.219"/>
	<rect x="7.655" y="17.161" clip-path="url(#SVGID_2_)" fill="#FFFFFF" width="3.723" height="0.219"/>
	
		<rect x="7.32" y="16.103" transform="matrix(0.6129 0.7902 -0.7902 0.6129 16.1632 -0.5662)" clip-path="url(#SVGID_2_)" fill="#FFFFFF" width="2.679" height="0.219"/>
	
		<rect x="10.229" y="14.873" transform="matrix(0.7908 0.6121 -0.6121 0.7908 12.0861 -2.9359)" clip-path="url(#SVGID_2_)" fill="#FFFFFF" width="0.219" height="2.679"/>
	<path clip-path="url(#SVGID_2_)" fill="#FFB535" d="M22.676,20.884h-3.561v-4.351c0-0.983,0.797-1.78,1.78-1.78
		s1.78,0.797,1.78,1.78V20.884z"/>
	<polygon clip-path="url(#SVGID_2_)" fill="#FFD79C" points="19.115,16.979 22.676,16.249 22.676,17.745 19.115,18.475 	"/>
	<rect x="20.757" y="13.803" clip-path="url(#SVGID_2_)" fill="#FFFFFF" width="0.219" height="7.81"/>
	<rect x="19.042" y="18.986" clip-path="url(#SVGID_2_)" fill="#FFFFFF" width="3.723" height="0.219"/>
	<rect x="19.042" y="17.161" clip-path="url(#SVGID_2_)" fill="#FFFFFF" width="3.723" height="0.219"/>
	
		<rect x="18.706" y="16.103" transform="matrix(0.613 0.7901 -0.7901 0.613 20.5673 -9.5633)" clip-path="url(#SVGID_2_)" fill="#FFFFFF" width="2.68" height="0.219"/>
	
		<rect x="21.615" y="14.873" transform="matrix(0.7908 0.6121 -0.6121 0.7908 14.4682 -9.9052)" clip-path="url(#SVGID_2_)" fill="#FFFFFF" width="0.219" height="2.68"/>
	<path clip-path="url(#SVGID_2_)" fill="#FFB535" d="M27.493,20.884h-3.562v-4.351c0-0.983,0.798-1.78,1.78-1.78
		c0.983,0,1.781,0.797,1.781,1.78V20.884z"/>
	<polygon clip-path="url(#SVGID_2_)" fill="#FFD79C" points="23.932,16.979 27.493,16.249 27.493,17.745 23.932,18.475 	"/>
	<rect x="25.574" y="13.803" clip-path="url(#SVGID_2_)" fill="#FFFFFF" width="0.219" height="7.81"/>
	<rect x="23.859" y="18.986" clip-path="url(#SVGID_2_)" fill="#FFFFFF" width="3.722" height="0.219"/>
	<rect x="23.859" y="17.161" clip-path="url(#SVGID_2_)" fill="#FFFFFF" width="3.722" height="0.219"/>
	
		<rect x="23.523" y="16.103" transform="matrix(0.6128 0.7903 -0.7903 0.6128 22.4401 -13.3698)" clip-path="url(#SVGID_2_)" fill="#FFFFFF" width="2.679" height="0.219"/>
	
		<rect x="26.432" y="14.873" transform="matrix(0.7908 0.6121 -0.6121 0.7908 15.4759 -12.8536)" clip-path="url(#SVGID_2_)" fill="#FFFFFF" width="0.219" height="2.679"/>
	<rect x="12.291" y="14.789" clip-path="url(#SVGID_2_)" fill="#FFB535" width="5.875" height="7.299"/>
	<polygon clip-path="url(#SVGID_2_)" fill="#FFD79C" points="18.166,18.555 12.3,19.549 12.3,18.356 18.166,17.361 	"/>
	<rect x="15.119" y="14.534" clip-path="url(#SVGID_2_)" fill="#FFFFFF" width="0.219" height="7.81"/>
	<rect x="12.163" y="20.3" clip-path="url(#SVGID_2_)" fill="#FFFFFF" width="6.131" height="0.219"/>
	<rect x="0.357" y="22.052" clip-path="url(#SVGID_2_)" fill="#BE7F4C" width="29.268" height="2.189"/>
	<rect x="3.592" y="22.587" clip-path="url(#SVGID_2_)" fill="#EBA975" width="3.597" height="0.598"/>
	<rect x="14.201" y="23.122" clip-path="url(#SVGID_2_)" fill="#EBA975" width="3.597" height="0.597"/>
	<rect x="28.142" y="23.122" clip-path="url(#SVGID_2_)" fill="#EBA975" width="1.41" height="0.597"/>
	<rect x="20.695" y="23.122" clip-path="url(#SVGID_2_)" fill="#EBA975" width="1.066" height="0.597"/>
	<rect x="1.426" y="22.61" clip-path="url(#SVGID_2_)" fill="#EBA975" width="1.068" height="0.598"/>
	<path clip-path="url(#SVGID_2_)" fill="#75432F" d="M25.22,20.716l-0.192,1.245c-0.003,0.022,0.004,0.046,0.019,0.063
		c0.015,0.017,0.036,0.027,0.06,0.027c0.036,0,0.068-0.025,0.076-0.062l0.295-1.274H25.22z"/>
	<path clip-path="url(#SVGID_2_)" fill="#75432F" d="M25.771,20.716l-0.191,1.245c-0.004,0.022,0.004,0.046,0.018,0.063
		c0.015,0.017,0.037,0.027,0.06,0.027c0.037,0,0.068-0.025,0.077-0.062l0.294-1.274H25.771z"/>
	<path clip-path="url(#SVGID_2_)" fill="#75432F" d="M26.567,20.716l0.191,1.245c0.004,0.022-0.003,0.046-0.018,0.063
		c-0.015,0.017-0.037,0.027-0.06,0.027c-0.037,0-0.068-0.025-0.076-0.062l-0.295-1.274H26.567z"/>
	<path clip-path="url(#SVGID_2_)" fill="#75432F" d="M26.979,20.716l0.191,1.245c0.004,0.022-0.004,0.046-0.018,0.063
		c-0.016,0.017-0.037,0.027-0.06,0.027c-0.037,0-0.068-0.025-0.077-0.062l-0.294-1.274H26.979z"/>
	<path clip-path="url(#SVGID_2_)" fill="#8E563D" d="M25.245,19.688h0.13c0.159,0,0.303-0.047,0.358-0.196l0.36-0.811
		c0.032-0.088,0.117-0.146,0.211-0.146h0.772c0.065,0,0.127,0.028,0.17,0.076c0.042,0.049,0.063,0.113,0.055,0.178l-0.096,0.765
		c-0.024,0.191-0.188,0.336-0.381,0.336c-0.063,0-0.112,0.05-0.112,0.112v0.282h-1.58V19.8c0-0.03,0.012-0.059,0.033-0.08
		C25.187,19.699,25.245,19.688,25.245,19.688"/>
	<path clip-path="url(#SVGID_2_)" fill="#8E563D" d="M25.245,20.114h1.129c0.063,0,0.112,0.051,0.112,0.112v0.113h-1.354v-0.113
		C25.133,20.165,25.183,20.114,25.245,20.114"/>
	<path clip-path="url(#SVGID_2_)" fill="#BE7F4C" d="M25.302,20.114h1.072c0.063,0,0.112,0.051,0.112,0.112v0.113h-1.297v-0.113
		C25.189,20.165,25.24,20.114,25.302,20.114"/>
	<path clip-path="url(#SVGID_2_)" fill="#BE7F4C" d="M27.302,18.788l-0.113,0.886l-0.363,0.067c-0.03,0-0.059,0.012-0.08,0.033
		c-0.021,0.021-0.032,0.05-0.032,0.079v0.486h-0.227v-0.486c0-0.029,0.013-0.059,0.033-0.079c0.021-0.021,0.05-0.033,0.08-0.033
		c0.193,0,0.356-0.097,0.381-0.289l0.057-0.355c0.003-0.026,0.005-0.053,0.005-0.079c0-0.186-0.079-0.36-0.217-0.483h0.252
		c0.065,0,0.127,0.028,0.17,0.076C27.289,18.659,27.31,18.724,27.302,18.788"/>
	<path clip-path="url(#SVGID_2_)" fill="#8E563D" d="M27.107,20.34h-0.396v-0.485c0-0.063,0.054-0.114,0.113-0.132
		c0.224-0.065,0.356,0.021,0.381-0.17L27.107,20.34z"/>
	<rect x="25.13" y="20.317" clip-path="url(#SVGID_2_)" fill="#8E563D" width="1.354" height="0.398"/>
	<rect x="26.484" y="20.317" clip-path="url(#SVGID_2_)" fill="#BE7F4C" width="0.229" height="0.398"/>
	<rect x="26.712" y="20.317" clip-path="url(#SVGID_2_)" fill="#8E563D" width="0.395" height="0.398"/>
	<path clip-path="url(#SVGID_2_)" fill="#75432F" d="M21.745,20.716l0.294,1.274c0.008,0.036,0.04,0.062,0.076,0.062
		c0.023,0,0.045-0.011,0.06-0.027c0.016-0.018,0.021-0.041,0.019-0.063l-0.191-1.245H21.745z"/>
	<path clip-path="url(#SVGID_2_)" fill="#75432F" d="M21.192,20.716l0.295,1.274c0.008,0.036,0.04,0.062,0.076,0.062
		c0.022,0,0.045-0.011,0.06-0.027c0.015-0.018,0.021-0.041,0.019-0.063l-0.192-1.245H21.192z"/>
	<path clip-path="url(#SVGID_2_)" fill="#75432F" d="M20.91,20.716l-0.294,1.274c-0.009,0.036-0.04,0.062-0.077,0.062
		c-0.022,0-0.045-0.011-0.06-0.027c-0.015-0.018-0.021-0.041-0.018-0.063l0.191-1.245H20.91z"/>
	<path clip-path="url(#SVGID_2_)" fill="#75432F" d="M20.499,20.716l-0.294,1.274c-0.009,0.036-0.04,0.062-0.077,0.062
		c-0.022,0-0.044-0.011-0.06-0.027c-0.015-0.018-0.021-0.041-0.018-0.063l0.191-1.245H20.499z"/>
	<path clip-path="url(#SVGID_2_)" fill="#8E563D" d="M22.056,19.72c0.021,0.021,0.032,0.05,0.032,0.08v0.482h-1.579v-0.281
		c0-0.063-0.051-0.112-0.113-0.112c-0.193,0-0.356-0.145-0.381-0.336l-0.095-0.765c-0.009-0.064,0.012-0.129,0.055-0.178
		c0.042-0.048,0.104-0.076,0.169-0.076h0.772c0.095,0,0.179,0.059,0.212,0.146l0.359,0.81c0.056,0.15,0.199,0.197,0.359,0.197h0.129
		C21.976,19.688,22.035,19.698,22.056,19.72"/>
	<path clip-path="url(#SVGID_2_)" fill="#8E563D" d="M21.976,20.114c0.062,0,0.112,0.051,0.112,0.112v0.113h-1.354v-0.113
		c0-0.062,0.05-0.112,0.112-0.112H21.976z"/>
	<path clip-path="url(#SVGID_2_)" fill="#BE7F4C" d="M21.919,20.114c0.062,0,0.113,0.051,0.113,0.112v0.113h-1.298v-0.113
		c0-0.062,0.05-0.112,0.112-0.112H21.919z"/>
	<path clip-path="url(#SVGID_2_)" fill="#BE7F4C" d="M19.92,18.788c-0.009-0.064,0.012-0.129,0.055-0.178
		c0.042-0.048,0.104-0.076,0.169-0.076h0.252c-0.138,0.123-0.217,0.298-0.217,0.483c0,0.026,0.002,0.053,0.005,0.079l0.058,0.355
		c0.023,0.192,0.187,0.289,0.38,0.289c0.03,0,0.059,0.012,0.08,0.033c0.021,0.021,0.033,0.05,0.033,0.079v0.486h-0.226v-0.486
		c0-0.029-0.013-0.059-0.033-0.079c-0.021-0.021-0.05-0.033-0.08-0.033l-0.363-0.067L19.92,18.788z"/>
	<path clip-path="url(#SVGID_2_)" fill="#8E563D" d="M20.015,19.553c0.024,0.191,0.157,0.104,0.381,0.17
		c0.06,0.017,0.113,0.069,0.113,0.132v0.485h-0.396L20.015,19.553z"/>
	<rect x="20.737" y="20.317" clip-path="url(#SVGID_2_)" fill="#8E563D" width="1.353" height="0.398"/>
	<rect x="20.508" y="20.317" clip-path="url(#SVGID_2_)" fill="#BE7F4C" width="0.229" height="0.398"/>
	<rect x="20.114" y="20.317" clip-path="url(#SVGID_2_)" fill="#8E563D" width="0.394" height="0.398"/>
	<rect x="23.421" y="19.789" clip-path="url(#SVGID_2_)" fill="#75432F" width="0.438" height="2.263"/>
	<rect x="22.545" y="19.643" clip-path="url(#SVGID_2_)" fill="#8E563D" width="2.189" height="0.292"/>
</g>
</svg>
