<svg xmlns="http://www.w3.org/2000/svg" xml:space="preserve" width="40" height="40"><defs><clipPath id="a" clipPathUnits="userSpaceOnUse"><path d="M0 30h30V0H0Z"/></clipPath><clipPath id="b" clipPathUnits="userSpaceOnUse"><path d="M.508 12.773h4.55v-.571H.508Z"/></clipPath><clipPath id="c" clipPathUnits="userSpaceOnUse"><path d="M0 30h30V0H0Z"/></clipPath><clipPath id="d" clipPathUnits="userSpaceOnUse"><path d="M18.443 12.773h4.55v-.571h-4.55z"/></clipPath></defs><path d="M17.488 17.079H6.195v1.462h11.293z" style="fill:#81452b;fill-opacity:1;fill-rule:nonzero;stroke:none" transform="matrix(1.33333 0 0 -1.33333 0 40)"/><path d="M5.058 18.378h13.568v.732H5.058Z" style="fill:#be7f4c;fill-opacity:1;fill-rule:nonzero;stroke:none" transform="matrix(1.33333 0 0 -1.33333 0 40)"/><path d="m0 0 .813-1.462h16.33L16.331 0Z" style="fill:#8e563d;fill-opacity:1;fill-rule:nonzero;stroke:none" transform="matrix(1.33333 0 0 -1.33333 .677 22.97)"/><path d="m0 0-5.687-12.512-1.623-.003L-1.543 0Z" style="fill:#8e563d;fill-opacity:1;fill-rule:nonzero;stroke:none" transform="matrix(1.33333 0 0 -1.33333 13.785 15.495)"/><path d="M0 12.773h5.037v.975H0Z" style="fill:#81452b;fill-opacity:1;fill-rule:nonzero;stroke:none" transform="matrix(1.33333 0 0 -1.33333 0 40)"/><path d="M3.371 12.773h.65v.975h-.65zM1.015 12.773h.651v.975h-.651Z" style="fill:#683523;fill-opacity:1;fill-rule:nonzero;stroke:none" transform="matrix(1.33333 0 0 -1.33333 0 40)"/><g clip-path="url(#a)" transform="matrix(1.33333 0 0 -1.33333 0 40)"><g clip-path="url(#b)" style="opacity:.380005"><path d="m0 0 .317-.57H4.55V0Z" style="fill:#81452b;fill-opacity:1;fill-rule:nonzero;stroke:none" transform="translate(.508 12.773)"/></g></g><path d="M0 0h16.33l.813 1.462H.812Z" style="fill:#8e563d;fill-opacity:1;fill-rule:nonzero;stroke:none" transform="matrix(1.33333 0 0 -1.33333 7.8 24.92)"/><path d="m0 0 5.687-12.512 1.623-.003L1.544 0Z" style="fill:#8e563d;fill-opacity:1;fill-rule:nonzero;stroke:none" transform="matrix(1.33333 0 0 -1.33333 17.549 15.495)"/><path d="M18.463 12.773H23.5v.975h-5.037z" style="fill:#81452b;fill-opacity:1;fill-rule:nonzero;stroke:none" transform="matrix(1.33333 0 0 -1.33333 0 40)"/><path d="M19.479 12.773h.65v.975h-.65zM21.835 12.773h.65v.975h-.65z" style="fill:#683523;fill-opacity:1;fill-rule:nonzero;stroke:none" transform="matrix(1.33333 0 0 -1.33333 0 40)"/><g clip-path="url(#c)" transform="matrix(1.33333 0 0 -1.33333 0 40)"><g clip-path="url(#d)" style="opacity:.380005"><path d="m0 0-.316-.57H-4.55V0Z" style="fill:#81452b;fill-opacity:1;fill-rule:nonzero;stroke:none" transform="translate(22.992 12.773)"/></g></g><path d="M24.665 22.933H30v2.072h-5.335z" style="fill:#81452b;fill-opacity:1;fill-rule:nonzero;stroke:none" transform="matrix(1.33333 0 0 -1.33333 0 40)"/><path d="M23.094 22.933h5.337v2.072h-5.337zM27.929 17.785h.502v5.148h-.502zM23.094 17.785h.503v5.148h-.503z" style="fill:#8e563d;fill-opacity:1;fill-rule:nonzero;stroke:none" transform="matrix(1.33333 0 0 -1.33333 0 40)"/><path d="M29.498 17.785h.501v5.148h-.501zM24.413 17.785h.502v5.148h-.502z" style="fill:#81452b;fill-opacity:1;fill-rule:nonzero;stroke:none" transform="matrix(1.33333 0 0 -1.33333 0 40)"/></svg>