<?xml version="1.0" encoding="UTF-8" standalone="no"?>
<svg
   xmlns:dc="http://purl.org/dc/elements/1.1/"
   xmlns:cc="http://creativecommons.org/ns#"
   xmlns:rdf="http://www.w3.org/1999/02/22-rdf-syntax-ns#"
   xmlns:svg="http://www.w3.org/2000/svg"
   xmlns="http://www.w3.org/2000/svg"
   viewBox="0 0 40 40"
   height="40"
   width="40"
   xml:space="preserve"
   id="svg2"
   version="1.1"><metadata
     id="metadata8"><rdf:RDF><cc:Work
         rdf:about=""><dc:format>image/svg+xml</dc:format><dc:type
           rdf:resource="http://purl.org/dc/dcmitype/StillImage" /></cc:Work></rdf:RDF></metadata><defs
     id="defs6"><clipPath
       id="clipPath36"
       clipPathUnits="userSpaceOnUse"><path
         id="path34"
         d="M 0,30 H 30 V 0 H 0 Z" /></clipPath><clipPath
       id="clipPath44"
       clipPathUnits="userSpaceOnUse"><path
         id="path42"
         d="M 0.507782,12.7726 H 5.05756 V 12.2018 H 0.507782 Z" /></clipPath><clipPath
       id="clipPath74"
       clipPathUnits="userSpaceOnUse"><path
         id="path72"
         d="M 0,30 H 30 V 0 H 0 Z" /></clipPath><clipPath
       id="clipPath82"
       clipPathUnits="userSpaceOnUse"><path
         id="path80"
         d="m 18.4428,12.7726 h 4.5498 v -0.5708 h -4.5498 z" /></clipPath></defs><g
     transform="matrix(1.3333333,0,0,-1.3333333,0,40)"
     id="g10"><path
       id="path12"
       style="fill:#81452b;fill-opacity:1;fill-rule:nonzero;stroke:none"
       d="M 17.488,17.079 H 6.195 v 1.462 h 11.293 z" /><path
       id="path14"
       style="fill:#be7f4c;fill-opacity:1;fill-rule:nonzero;stroke:none"
       d="M 5.058,18.378 H 18.626 V 19.11 H 5.058 Z" /><g
       transform="translate(0.5076,12.7728)"
       id="g16"><path
         id="path18"
         style="fill:#8e563d;fill-opacity:1;fill-rule:nonzero;stroke:none"
         d="m 0,0 0.813,-1.462 h 16.33 L 16.331,0 Z" /></g><g
       transform="translate(10.3384,18.3784)"
       id="g20"><path
         id="path22"
         style="fill:#8e563d;fill-opacity:1;fill-rule:nonzero;stroke:none"
         d="M 0,0 -5.687,-12.512 -7.31,-12.515 -1.543,0 Z" /></g><path
       id="path24"
       style="fill:#81452b;fill-opacity:1;fill-rule:nonzero;stroke:none"
       d="m 0,12.773 h 5.037 v 0.975 H 0 Z" /><path
       id="path26"
       style="fill:#683523;fill-opacity:1;fill-rule:nonzero;stroke:none"
       d="m 3.371,12.773 h 0.65 v 0.975 h -0.65 z" /><path
       id="path28"
       style="fill:#683523;fill-opacity:1;fill-rule:nonzero;stroke:none"
       d="m 1.015,12.773 h 0.651 v 0.975 H 1.015 Z" /><g
       id="g30"><g
         clip-path="url(#clipPath36)"
         id="g32"><g
           id="g38"><g
             id="g40" /><g
             id="g52"><g
               style="opacity:0.380005"
               id="g50"
               clip-path="url(#clipPath44)"><g
                 id="g48"
                 transform="translate(0.5078,12.7725)"><path
                   id="path46"
                   style="fill:#81452b;fill-opacity:1;fill-rule:nonzero;stroke:none"
                   d="M 0,0 0.317,-0.57 H 4.55 V 0 Z" /></g></g></g></g></g></g><g
       transform="translate(5.8496,11.3105)"
       id="g54"><path
         id="path56"
         style="fill:#8e563d;fill-opacity:1;fill-rule:nonzero;stroke:none"
         d="m 0,0 h 16.33 l 0.813,1.462 H 0.812 Z" /></g><g
       transform="translate(13.1616,18.3784)"
       id="g58"><path
         id="path60"
         style="fill:#8e563d;fill-opacity:1;fill-rule:nonzero;stroke:none"
         d="M 0,0 5.687,-12.512 7.31,-12.515 1.544,0 Z" /></g><path
       id="path62"
       style="fill:#81452b;fill-opacity:1;fill-rule:nonzero;stroke:none"
       d="M 18.463,12.773 H 23.5 v 0.975 h -5.037 z" /><path
       id="path64"
       style="fill:#683523;fill-opacity:1;fill-rule:nonzero;stroke:none"
       d="m 19.479,12.773 h 0.65 v 0.975 h -0.65 z" /><path
       id="path66"
       style="fill:#683523;fill-opacity:1;fill-rule:nonzero;stroke:none"
       d="m 21.835,12.773 h 0.65 v 0.975 h -0.65 z" /><g
       id="g68"><g
         clip-path="url(#clipPath74)"
         id="g70"><g
           id="g76"><g
             id="g78" /><g
             id="g90"><g
               style="opacity:0.380005"
               id="g88"
               clip-path="url(#clipPath82)"><g
                 id="g86"
                 transform="translate(22.9922,12.7725)"><path
                   id="path84"
                   style="fill:#81452b;fill-opacity:1;fill-rule:nonzero;stroke:none"
                   d="M 0,0 -0.316,-0.57 H -4.55 V 0 Z" /></g></g></g></g></g></g><path
       id="path92"
       style="fill:#81452b;fill-opacity:1;fill-rule:nonzero;stroke:none"
       d="M 24.665,22.933 H 30 v 2.072 h -5.335 z" /><path
       id="path94"
       style="fill:#8e563d;fill-opacity:1;fill-rule:nonzero;stroke:none"
       d="m 23.094,22.933 h 5.337 v 2.072 h -5.337 z" /><path
       id="path96"
       style="fill:#8e563d;fill-opacity:1;fill-rule:nonzero;stroke:none"
       d="m 27.929,17.785 h 0.502 v 5.148 h -0.502 z" /><path
       id="path98"
       style="fill:#8e563d;fill-opacity:1;fill-rule:nonzero;stroke:none"
       d="m 23.094,17.785 h 0.503 v 5.148 h -0.503 z" /><path
       id="path100"
       style="fill:#81452b;fill-opacity:1;fill-rule:nonzero;stroke:none"
       d="m 29.498,17.785 h 0.501 v 5.148 h -0.501 z" /><path
       id="path102"
       style="fill:#81452b;fill-opacity:1;fill-rule:nonzero;stroke:none"
       d="m 24.413,17.785 h 0.502 v 5.148 h -0.502 z" /></g></svg>