<svg xmlns="http://www.w3.org/2000/svg" xml:space="preserve" viewBox="0 0 512 512"><path fill="transparent" d="M1 58V1.045c170.667.006 341.333.006 512 .006 0 18.705 0 37.358-.294 56.798-.778-.006-1.352-.757-1.732-1.596-6.11-13.502-15.96-23.07-31.034-24.003-16.89-1.045-33.901-.162-51.141-.157-.468-.006-.655.026-1.3-.003-4.792-.027-9.127.007-13.74-.01-.464-.023-.65.008-1.297-.013-33.114 0-65.766.053-98.883.042-5.53-.009-10.594.046-16.116.023-27.434-.027-54.41.026-81.85-.008-5.529-.041-10.593.004-16.117-.027-33.124-.035-65.787.006-98.916-.017-5.514-.028-10.563.008-16.075-.012-16.573-.06-32.692-.384-48.784.12-4.943.155-9.814 2.577-14.986 3.93-.44.269-.61.567-.76.873.02.007.002-.032-.328.084C11.283 41.235 6.768 48.3 3.01 56.052 2.627 56.84 1.683 57.357 1 58zM513 480v32.957H1c0-10.702 0-21.361.312-32.808 3.75 2.756 8.191 1.913 12.374 1.809 6.125-.154 12.243-.594 18.827-.933 23.54.311 46.616.912 69.693.93 124.76.094 249.522.046 374.282.04 1.83 0 3.658-.093 5.953-.075 10.493-.66 20.738 1.922 30.559-1.92z"/><path fill="#62ABB9" d="M513 479.535c-9.821 4.307-20.066 1.725-30.541 1.928-.468-5.521-.488-10.518-.485-15.98.024-130.56.028-260.655.025-390.75 0-8.432-3.23-11.723-11.506-11.731-13.825-.013-27.65.005-41.475-.458.023-5.498.045-10.528.53-15.532 13.788.035 27.113.045 40.439.052 18.278.01 27.95 9.745 27.95 28.155.002 127.592.001 255.184.002 382.777 0 1.499-.45 3.214.13 4.44.671 1.416 2.15 3.255 3.458 3.412 3.776.454 7.642.155 11.473.152v13.535z"/><path fill="#94CCD4" d="M513 465.531c-3.83.472-7.697.771-11.473.317-1.308-.157-2.787-1.996-3.457-3.412-.58-1.226-.131-2.941-.131-4.44 0-127.593 0-255.185-.002-382.777 0-18.41-9.672-28.145-27.95-28.155-13.326-.007-26.651-.017-40.477-.516-.477-5.133-.453-9.774-.43-14.416 16.959-.044 33.97-.927 50.86.118 15.074.933 24.924 10.5 31.034 24.003.38.84.954 1.59 1.732 2.065.294 135.37.294 271.057.294 407.213z"/><path fill="#61AAB8" d="M32.05 481.046c-6.12.318-12.239.758-18.364.912-4.183.104-8.624.947-12.374-2.278C1 339.646 1 199.292 1 58.47c.683-1.112 1.627-1.629 2.01-2.417C6.767 48.3 11.282 41.234 19.666 37.47c-3.73 10.924-3.655 22.035-3.649 33.211.069 129.103.044 258.206.044 387.309 0 1.499.079 3.003-.01 4.497-.185 3.156 1.157 4.586 4.399 4.493 3.826-.11 7.659.04 11.5.537.04 4.816.07 9.173.1 13.53z"/><path fill="#93CBD3" d="M31.94 467.057c-3.83-.038-7.663-.187-11.49-.077-3.241.093-4.583-1.337-4.397-4.493.088-1.494.01-2.998.01-4.497-.001-129.103.024-258.206-.045-387.309-.006-11.176-.082-22.287 3.978-33.328-.02-.394 0-.355.2-.434.449-.268.651-.5.807-.77 4.904-1.384 9.775-3.806 14.718-3.96 16.092-.505 32.211-.182 48.827.336.501 5.18.496 9.847.018 14.524-9.57.013-18.673-.188-27.763.073-10.719.307-21.097 6.218-21.907 18.29-1.068 3.024-2.777 5.707-2.78 8.393-.118 130.712-.09 261.424-.088 392.416-.035.465-.062.65-.088.836z"/><path fill="#94CCD4" d="M101.046 32.145c32.663-.042 65.326-.083 98.453.406.435 5.157.406 9.783-.079 14.445-33.09.028-65.723.02-98.388-.452-.016-5.11-.001-9.754.014-14.4zM314.044 32.173c32.652-.053 65.304-.106 98.466.35.484 5.172.46 9.835-.029 14.512-33.095-.016-65.726-.045-98.387-.537-.036-5.083-.043-9.704-.05-14.325zM216.078 32.21c26.976-.052 53.951-.105 81.367.374.36 5.117.28 9.705-.23 14.344-27.241.016-54.051-.019-80.925-.507-.113-5.038-.162-9.624-.212-14.21z"/><path fill="#636D76" d="M412.945 47.021c.025-4.663.05-9.326.026-14.445.138-.488.324-.519.765-.039.246 2 .2 3.49.233 4.978.227 10.578-2.016 9.391 9.953 9.554 2.93.04 4.269-.928 4.121-3.998-.174-3.633-.07-7.28-.085-10.92.186-.032.373-.064.84-.058.259 4.68.235 9.322.25 14.428.015 5.495-.007 10.525-.01 16.018.017.462.026.501-.446.509-5.518-.03-10.565-.068-15.608-.569-.01-5.461-.025-10.46-.04-15.458z"/><path fill="#7D8B96" d="M215.613 32.124c.515 4.673.564 9.259.532 14.374-.081.529-.371.671-.817.655-5.295-.014-10.144-.01-15.109-.051-.115-.044-.342-.142-.342-.142.028-4.626.057-9.252.082-14.332 5.06-.5 10.125-.545 15.654-.504zM297.647 46.876c.079-4.587.158-9.175.255-14.214 5.083-.507 10.147-.562 15.677-.553.472 4.685.479 9.306.401 14.438-.084.511-.314.6-.752.59-5.292.003-10.147.018-15.148-.039-.146-.07-.433-.222-.433-.222z"/><path fill="#7E8B96" d="M100.58 32.08c.45 4.71.436 9.354.358 14.503-.063.503-.251.581-.689.541-5.225.004-10.012.049-14.902.048a16.337 16.337 0 0 0-.309-.132c.006-4.668.011-9.335-.026-14.46 5.005-.492 10.054-.528 15.568-.5zM427.5 32.09c.474 3.702.37 7.348.543 10.98.148 3.07-1.192 4.039-4.12 4-11.97-.164-9.727 1.023-9.954-9.555-.032-1.488.013-2.978.045-4.925 4.358-.493 8.693-.527 13.485-.5z"/><path fill="#61AAB8" d="M20.735 36.118c.112.302-.09.533-.56.794-.05-.227.12-.525.56-.794z"/><path fill="#BFE2E6" d="M31.95 467.517c.016-.646.043-.83.543-1.27 65.139-.251 129.803-.242 194.468-.25 84.997-.009 169.994-.032 254.991-.049.02 4.997.039 9.994.04 15.448-1.846.506-3.675.598-5.504.598-124.76.007-249.521.055-374.282-.04-23.077-.017-46.153-.618-69.693-.929-.493-4.335-.523-8.692-.563-13.508z"/><path fill="transparent" d="M481.974 465.483c-85.019.482-170.016.505-255.013.515-64.665.007-129.33-.002-194.459-.03-.476-130.74-.504-261.451-.385-392.163.002-2.686 1.71-5.37 3.136-8.558 2.667-1.086 4.818-2.154 6.978-2.171 14.216-.115 28.435-.004 42.66.004.008-.029-.04.006.022.465.07 81.274.086 162.09.082 242.905 0 26.16-.055 52.32-.404 78.621-1.737.793-3.156 1.444-4.915 2.123-11.606 8.244-7.705 25.927 5.552 29.51 18.58 5.022 37.573 7.25 56.683 8.18 18.306.889 36.588-.557 54.6-3.997 8.401-1.605 16.798-3.823 24.779-6.863 6.67-2.54 9.173-10.464 6.707-17.493-1.355-6.4-5.894-9.246-11.183-11.922-.14-1.127-.183-1.793-.183-2.458-.003-105.065-.005-210.13.004-315.196 0-1.327.136-2.653.687-3.97 26.93.003 53.383-.004 79.918.454.098 106.687.114 212.91.12 319.133 0 .827-.14 1.653-.567 2.523-1.85.972-3.349 1.9-5.162 2.962-10.838 7.368-7.707 24.866 6.373 28.615 18.28 4.868 36.882 7.126 55.636 8.184 8.875.501 17.833-.623 26.757-.833 15.278-.36 30.126-3.226 44.996-6.579 11.87-2.676 17.282-9.71 15.43-21.776-2.256-5.771-6.375-9.011-11.942-11.103-.054-106.163-.063-211.858-.06-317.552 0-1.324.158-2.648.243-3.973 0 0-.01-.04-.028-.034 13.806 0 27.632-.017 41.457-.004 8.275.008 11.506 3.3 11.506 11.732.003 130.094-.001 260.189-.025 390.749z"/><path fill="#62ABB9" d="M84.884 63.11c-14.218-.038-28.437-.15-42.653-.034-2.16.017-4.31 1.085-6.822 1.832.297-11.568 10.675-17.479 21.394-17.786 9.09-.26 18.193-.06 27.763-.073.472-.009.679.077.66.557-.126 5.488-.234 10.496-.342 15.504zM100.97 47.048c32.727-.031 65.36-.024 98.45-.052.457-.036.684.062.724.555-.022 5.463-.083 10.433-.134 15.42.01.017.018-.024-.453-.003-33.152.03-65.835.04-98.512.035.006-.017.008-.051-.011-.515-.128-5.417-.238-10.37-.347-15.324l.283-.116zM412.481 47.035c.478 4.984.492 9.983.504 15.463-.002.482.018.467-.45.48-33.167-.001-65.865-.016-98.559-.01.004.02.025-.015-.001-.478-.12-5.423-.215-10.383-.31-15.343 0 0 .23-.089.345-.138 32.745-.02 65.376.01 98.471.026z"/><path fill="#63ABB8" d="M297.158 62.975c-26.453.006-52.905.013-79.86-.018-.501-.038-.574-.039-.767-.461-.38-5.39-.569-10.359-.757-15.327 0 0 .29-.142.435-.219 26.955-.041 53.765-.006 81.006-.022.432-.052.719.1.783.615a629.82 629.82 0 0 1-.757 15.376c-.036 0-.083.056-.083.056z"/><path fill="#7E8B96" d="M428.592 63.048c.387 1.317.23 2.64.23 3.965-.004 105.694.005 211.389-.359 317.623-5.11 1.41-9.849 2.28-14.668 2.99-.213-.368-.388-.531-.65-1.114-.052-55.56-.053-110.657-.07-165.752-.015-52.599-.047-105.197-.072-157.795 0 0-.02.015-.021-.004 5.045.019 10.092.057 15.61.087z"/><path fill="#545F66" d="M215.328 47.153c.634 4.984.822 9.952.652 15.349-5.566.436-10.773.443-15.98.451.06-4.97.122-9.939.26-15.358 4.924-.453 9.773-.456 15.068-.442zM297.277 62.918c.262-4.953.523-9.907.867-15.305 4.937-.458 9.792-.473 15.084-.477.532 4.97.626 9.93.28 15.372-5.704.458-10.967.434-16.23.41z"/><path fill="#606F78" d="M100.25 47.124c.546 4.994.656 9.947.311 15.378-5.539.513-10.625.548-15.71.584 0 0 .048-.035.04-.006.101-4.978.21-9.986.438-15.428 4.908-.479 9.695-.524 14.92-.528z"/><path fill="#7A8792" d="M200.01 62.97c5.197-.025 10.404-.032 16.163-.046.55-.006.624-.005.647.023-.049 1.355-.185 2.681-.185 4.008-.009 105.066-.007 210.13-.004 315.196 0 .665.044 1.33-.061 2.674-5.56 1.486-10.992 2.295-16.373 2.644.063-107.323.075-214.186.074-321.048 0-1.158-.159-2.316-.243-3.474 0 0-.008.04-.018.023zM297.241 62.92c5.3.022 10.563.046 16.293.051.467-.018.446.017.344.46-.116 107.965-.13 215.485-.138 323.006 0 .497.074.995-.274 1.518-5.7-.95-11.01-1.927-16.32-2.903.074-.827.214-1.653.214-2.48-.006-106.223-.022-212.446-.12-319.133-.082-.464-.035-.52.001-.52z"/><path fill="#7E8B96" d="M84.913 63.545c5.023-.495 10.109-.53 15.667-.58.473-.013.471.021.449.505-.01 108.456.002 216.428-.38 324.42-5.508-.973-10.623-1.966-15.739-2.96.03-26.16.084-52.32.085-78.48.004-80.815-.012-161.631-.082-242.905z"/><path fill="#E27C48" d="M228.012 396.899c2.45 6.66-.053 14.586-6.722 17.125-7.98 3.04-16.378 5.258-24.78 6.863-18.01 3.44-36.293 4.886-54.599 3.996-19.11-.928-38.104-3.157-56.683-8.18-13.257-3.582-17.158-21.265-5.548-29.125 1.514 8.436 5.793 14.112 13.973 15.433 12.72 2.054 25.528 3.62 38.337 5.045 21.75 2.421 43.413.768 64.845-2.98 10.546-1.845 20.794-5.398 31.177-8.177zM440.846 396.02c1.829 11.713-3.584 18.748-15.453 21.424-14.87 3.353-29.718 6.22-44.996 6.579-8.924.21-17.882 1.334-26.757.833-18.754-1.058-37.356-3.316-55.636-8.184-14.08-3.75-17.211-21.247-6.114-28.355 2.13 9.187 7.857 14.275 16.584 15.498 14.423 2.022 28.91 4.652 43.4 4.86 17.862.257 35.8-1.229 53.62-2.873 12.232-1.128 24.237-4.108 35.352-9.781z"/><path fill="#E29576" d="M440.823 395.668c-11.092 6.026-23.097 9.006-35.33 10.134-17.82 1.644-35.757 3.13-53.619 2.873-14.49-.208-28.977-2.838-43.4-4.86-8.727-1.223-14.453-6.31-16.268-15.631 1.238-1.189 2.736-2.117 4.587-3.089 5.663.933 10.974 1.91 17.107 2.891 2.57.341 4.306.786 6.07.994 8.93 1.056 17.846 2.366 26.809 2.98 9.902.679 19.906 1.498 29.764.806 12.18-.857 24.257-3.207 36.619-4.891.241.02.713-.088.713-.088 4.74-.87 9.478-1.742 14.635-2.683 5.938 1.553 10.057 4.793 12.313 10.564zM227.997 396.53c-10.368 3.148-20.616 6.7-31.162 8.545-21.432 3.749-43.094 5.402-64.845 2.981-12.809-1.426-25.617-2.991-38.337-5.045-8.18-1.32-12.459-6.997-13.634-15.46 1.416-1.036 2.834-1.687 4.572-2.48 5.435.853 10.55 1.846 16.478 2.875 6.22 1.04 11.591 2.577 17.041 2.944 14.437.973 28.903 1.696 43.368 1.984 5.814.115 11.669-1.067 17.481-1.837 7.075-.938 14.125-2.064 21.186-3.109 5.433-.808 10.865-1.617 16.541-2.642 5.417 1.999 9.956 4.844 11.311 11.245z"/><path fill="transparent" d="M200.197 387.469c-7.113 1.504-14.163 2.63-21.238 3.568-5.812.77-11.667 1.952-17.481 1.837-14.465-.288-28.93-1.01-43.368-1.984-5.45-.367-10.82-1.904-16.647-2.964-.432-108.028-.444-216-.44-324.44 32.7-.477 65.382-.487 98.534-.518.555 1.137.714 2.295.714 3.453 0 106.862-.011 213.725-.074 321.048zM412.92 387.854c-12.12 1.705-24.196 4.055-36.377 4.912-9.858.692-19.862-.127-29.764-.806-8.963-.614-17.879-1.924-26.81-2.98-1.763-.208-3.498-.653-5.68-1.02-.475-.528-.55-1.026-.55-1.523.01-107.52.023-215.041.135-323.026 32.796-.449 65.494-.434 98.66-.433.494 52.585.526 105.183.542 157.782.016 55.095.017 110.191-.025 165.963-.05.676-.13 1.131-.13 1.131z"/><path fill="#636D76" d="M413.162 387.875c-.241-.02-.16-.476-.067-.687.312-.093.487.07.7.439.08.16-.392.268-.633.248z"/></svg>