<svg xmlns="http://www.w3.org/2000/svg" xml:space="preserve" width="40" height="40"><path fill="#F60" d="m20.866 27.264 8.561 8.471 7.427.795v-2.18l-5.792-.795-10.196-10.107z"/><path fill="#BE7F4C" d="M18.687 27.809h2.18v8.722h-2.18zM9.964 27.809h2.181v8.722H9.964zM9.964 12.545h2.181v9.746H9.964zM18.686 12.545h2.18v9.746h-2.18z"/><path fill="#81452B" d="M9.964 22.291h10.902v5.518H9.964z"/><path fill="#995933" d="M3.968 34.349h5.996v2.182H3.968z"/><path fill="#81452B" d="M5.058 32.17h4.906v2.18H5.058z"/><path fill="#995933" d="M6.694 29.99h3.271v2.181H6.694z"/><path fill="#81452B" d="M7.784 27.809h2.18v2.182h-2.18z"/><path fill="#F60" d="M23.047 12.545H7.784l7.631-7.632z"/></svg>