<svg version="1.1" id="Layer_1" xmlns="http://www.w3.org/2000/svg" xmlns:xlink="http://www.w3.org/1999/xlink" x="0px" y="0px"
	 width="100%" viewBox="0 0 512 512" enable-background="new 0 0 512 512" xml:space="preserve">
<path fill="transparent" opacity="1.000000" stroke="none" 
	d="
M1.000000,58.000000 
	C1.000000,39.013279 1.000000,20.026556 1.000002,1.045417 
	C171.666672,1.050998 342.333344,1.050998 513.000000,1.050998 
	C513.000000,19.755558 513.000000,38.409122 512.705872,57.848900 
	C511.928009,57.843193 511.353760,57.092247 510.974091,56.253227 
	C504.864349,42.750942 495.014496,33.183361 479.940308,32.250473 
	C463.049103,31.205139 446.038574,32.088394 428.798645,32.093334 
	C428.330750,32.086632 428.144165,32.119072 427.499512,32.089653 
	C422.706909,32.062645 418.372345,32.097492 413.759705,32.079212 
	C413.295380,32.057194 413.109222,32.088306 412.461884,32.066544 
	C379.348419,32.066902 346.696075,32.120129 313.578583,32.109306 
	C308.049042,32.100227 302.984680,32.155201 297.462524,32.131569 
	C270.029236,32.105427 243.053741,32.157890 215.613129,32.123783 
	C210.083954,32.082565 205.019882,32.127918 199.495544,32.096596 
	C166.372086,32.061531 133.708893,32.103138 100.580017,32.080322 
	C95.065826,32.051861 90.017311,32.087822 84.505066,32.068012 
	C67.932404,32.007381 51.813496,31.683819 35.720558,32.188412 
	C30.778215,32.343384 25.906935,34.764610 20.734617,36.118130 
	C20.295753,36.386757 20.125387,36.685337 19.975288,36.990952 
	C19.995556,36.997986 19.976910,36.958527 19.647217,37.075195 
	C11.283029,41.234413 6.768163,48.299809 3.009066,56.051601 
	C2.626582,56.840340 1.683133,57.357052 1.000000,58.000000 
z"/>
<path fill="transparent" opacity="1.000000" stroke="none" 
	d="
M513.000000,480.000000 
	C513.000000,490.991669 513.000000,501.983307 513.000000,512.956665 
	C342.333313,512.956665 171.666656,512.956665 1.000000,512.956665 
	C1.000000,502.254608 1.000000,491.595978 1.312267,480.148743 
	C5.062096,482.904938 9.503406,482.062439 13.685710,481.957642 
	C19.811026,481.804138 25.929161,481.364105 32.513474,481.025299 
	C56.053131,481.335999 79.129471,481.936798 102.206245,481.954376 
	C226.966858,482.049469 351.727539,482.000732 476.488220,481.994354 
	C478.317261,481.994263 480.146301,481.902039 482.441284,481.919708 
	C492.933899,481.259827 503.179016,483.842133 513.000000,480.000000 
z"/>
<path fill="#62ABB9" opacity="1.000000" stroke="none" 
	d="
M513.000000,479.535339 
	C503.179016,483.842133 492.933899,481.259827 482.458771,481.462677 
	C481.990906,475.941925 481.971497,470.945099 481.973755,465.482605 
	C481.997864,334.922516 482.001923,204.828049 481.999207,74.733597 
	C481.999023,66.301300 478.768341,63.009529 470.493408,63.001701 
	C456.667786,62.988621 442.842133,63.006859 429.018066,62.544258 
	C429.041321,57.046082 429.063049,52.015564 429.547485,47.011703 
	C443.335724,47.047047 456.661194,47.057034 469.986694,47.064102 
	C488.265411,47.073795 497.936981,56.808651 497.937256,75.219116 
	C497.939148,202.811279 497.938232,330.403442 497.938812,457.995605 
	C497.938812,459.494690 497.489441,461.210022 498.069916,462.436157 
	C498.740448,463.852478 500.218994,465.691162 501.526794,465.848358 
	C505.302704,466.302246 509.169128,466.003357 513.000000,466.000000 
	C513.000000,470.356903 513.000000,474.713806 513.000000,479.535339 
z"/>
<path fill="#94CCD4" opacity="1.000000" stroke="none" 
	d="
M513.000000,465.531342 
	C509.169128,466.003357 505.302704,466.302246 501.526794,465.848358 
	C500.218994,465.691162 498.740448,463.852478 498.069916,462.436157 
	C497.489441,461.210022 497.938812,459.494690 497.938812,457.995605 
	C497.938232,330.403442 497.939148,202.811279 497.937256,75.219116 
	C497.936981,56.808651 488.265411,47.073795 469.986694,47.064102 
	C456.661194,47.057034 443.335724,47.047047 429.510010,46.547539 
	C429.033173,41.415298 429.056549,36.773891 429.079956,32.132477 
	C446.038574,32.088394 463.049103,31.205139 479.940308,32.250473 
	C495.014496,33.183361 504.864349,42.750942 510.974091,56.253227 
	C511.353760,57.092247 511.928009,57.843193 512.705872,58.317558 
	C513.000000,193.687561 513.000000,329.375122 513.000000,465.531342 
z"/>
<path fill="#61AAB8" opacity="1.000000" stroke="none" 
	d="
M32.050358,481.046204 
	C25.929161,481.364105 19.811026,481.804138 13.685710,481.957642 
	C9.503406,482.062439 5.062096,482.904938 1.312267,479.680115 
	C1.000000,339.645782 1.000000,199.291550 1.000000,58.468658 
	C1.683133,57.357052 2.626582,56.840340 3.009066,56.051601 
	C6.768163,48.299809 11.283029,41.234413 19.666725,37.470100 
	C15.936383,48.394367 16.012051,59.504585 16.018013,70.681137 
	C16.086895,199.783981 16.061970,328.886902 16.062243,457.989777 
	C16.062244,459.489044 16.140551,460.992676 16.052670,462.486633 
	C15.866969,465.643494 17.209007,467.072601 20.450716,466.979553 
	C24.276535,466.869690 28.109802,467.019348 31.950193,467.516632 
	C31.990484,472.333221 32.020420,476.689728 32.050358,481.046204 
z"/>
<path fill="#93CBD3" opacity="1.000000" stroke="none" 
	d="
M31.939840,467.056519 
	C28.109802,467.019348 24.276535,466.869690 20.450716,466.979553 
	C17.209007,467.072601 15.866969,465.643494 16.052670,462.486633 
	C16.140551,460.992676 16.062244,459.489044 16.062243,457.989777 
	C16.061970,328.886902 16.086895,199.783981 16.018013,70.681137 
	C16.012051,59.504585 15.936383,48.394367 19.996418,37.353428 
	C19.976910,36.958527 19.995556,36.997986 20.195587,36.919189 
	C20.644768,36.650562 20.847265,36.419792 21.003113,36.148087 
	C25.906935,34.764610 30.778215,32.343384 35.720558,32.188412 
	C51.813496,31.683819 67.932404,32.007381 84.548256,32.524582 
	C85.049500,37.704613 85.043808,42.372303 84.566040,47.049297 
	C74.996368,47.062077 65.892921,46.861431 56.802704,47.122066 
	C46.084133,47.429394 35.705811,53.340393 34.896057,65.411919 
	C33.827744,68.435547 32.119072,71.119270 32.116634,73.804550 
	C31.997826,204.516678 32.025970,335.228943 32.028381,466.221344 
	C31.992619,466.686493 31.966230,466.871490 31.939840,467.056519 
z"/>
<path fill="#94CCD4" opacity="1.000000" stroke="none" 
	d="
M101.045700,32.144745 
	C133.708893,32.103138 166.372086,32.061531 199.498581,32.551075 
	C199.933609,37.708290 199.905319,42.334351 199.420380,46.995598 
	C166.330566,47.023682 133.697433,47.016586 101.032486,46.544357 
	C101.015686,41.434402 101.030693,36.789577 101.045700,32.144745 
z"/>
<path fill="#94CCD4" opacity="1.000000" stroke="none" 
	d="
M314.043762,32.173359 
	C346.696075,32.120129 379.348419,32.066902 412.510010,32.522873 
	C412.994446,37.695042 412.969604,42.358013 412.481049,47.035084 
	C379.385956,47.019348 346.754578,46.989517 314.094086,46.497780 
	C314.057922,41.415039 314.050842,36.794197 314.043762,32.173359 
z"/>
<path fill="#94CCD4" opacity="1.000000" stroke="none" 
	d="
M216.078278,32.210354 
	C243.053741,32.157890 270.029236,32.105427 297.444519,32.583527 
	C297.805084,37.701355 297.725891,42.288624 297.215210,46.927834 
	C269.973755,46.944393 243.163773,46.909008 216.290314,46.421341 
	C216.177338,41.382824 216.127808,36.796589 216.078278,32.210354 
z"/>
<path fill="#636D76" opacity="1.000000" stroke="none" 
	d="
M412.944763,47.020988 
	C412.969604,42.358013 412.994446,37.695042 412.971161,32.575741 
	C413.109222,32.088306 413.295380,32.057194 413.736267,32.536980 
	C413.981659,34.537106 413.936584,36.027103 413.968628,37.515442 
	C414.196442,48.093151 411.952728,46.906376 423.922180,47.069073 
	C426.851440,47.108887 428.190613,46.140663 428.043365,43.070629 
	C427.869141,39.437908 427.973755,35.791813 427.957520,32.151512 
	C428.144165,32.119072 428.330750,32.086632 428.798645,32.093338 
	C429.056549,36.773891 429.033173,41.415298 429.047241,46.520874 
	C429.063049,52.015564 429.041321,57.046082 429.037231,62.538715 
	C429.054810,63.000828 429.063599,63.040417 428.592163,63.047844 
	C423.073944,63.017647 418.027222,62.980015 412.983826,62.479149 
	C412.973053,57.017601 412.958923,52.019295 412.944763,47.020988 
z"/>
<path fill="#7D8B96" opacity="1.000000" stroke="none" 
	d="
M215.613144,32.123783 
	C216.127808,36.796589 216.177338,41.382824 216.145370,46.497978 
	C216.063873,47.026897 215.773941,47.169090 215.328033,47.152786 
	C210.033020,47.139484 205.183914,47.142494 200.219437,47.101555 
	C200.104050,47.057613 199.877029,46.960415 199.877029,46.960415 
	C199.905319,42.334351 199.933609,37.708290 199.958862,32.627747 
	C205.019882,32.127918 210.083954,32.082565 215.613144,32.123783 
z"/>
<path fill="#7D8B96" opacity="1.000000" stroke="none" 
	d="
M297.646667,46.875889 
	C297.725891,42.288624 297.805084,37.701355 297.902313,32.662132 
	C302.984680,32.155201 308.049042,32.100227 313.578583,32.109306 
	C314.050842,36.794197 314.057922,41.415039 313.980408,46.546978 
	C313.895844,47.058079 313.665588,47.146812 313.228241,47.136398 
	C307.936005,47.140331 303.081085,47.154675 298.080109,47.098114 
	C297.934021,47.027214 297.646667,46.875889 297.646667,46.875889 
z"/>
<path fill="#7E8B96" opacity="1.000000" stroke="none" 
	d="
M100.580017,32.080322 
	C101.030693,36.789577 101.015686,41.434402 100.937988,46.582787 
	C100.875298,47.086338 100.686714,47.164188 100.249077,47.124073 
	C95.024040,47.128456 90.236633,47.172955 85.347092,47.171600 
	C85.244957,47.125751 85.038116,47.039993 85.038116,47.039993 
	C85.043808,42.372303 85.049500,37.704613 85.011993,32.580353 
	C90.017311,32.087822 95.065826,32.051861 100.580017,32.080322 
z"/>
<path fill="#7E8B96" opacity="1.000000" stroke="none" 
	d="
M427.499481,32.089653 
	C427.973755,35.791813 427.869141,39.437908 428.043365,43.070629 
	C428.190613,46.140663 426.851440,47.108887 423.922180,47.069073 
	C411.952728,46.906376 414.196442,48.093151 413.968628,37.515442 
	C413.936584,36.027103 413.981659,34.537106 414.014404,32.590107 
	C418.372345,32.097492 422.706909,32.062645 427.499481,32.089653 
z"/>
<path fill="#61AAB8" opacity="1.000000" stroke="none" 
	d="
M20.734617,36.118130 
	C20.847265,36.419792 20.644768,36.650562 20.175320,36.912159 
	C20.125387,36.685337 20.295753,36.386757 20.734617,36.118130 
z"/>
<path fill="#BFE2E6" opacity="1.000000" stroke="none" 
	d="
M31.950193,467.516632 
	C31.966230,466.871490 31.992619,466.686493 32.493042,466.247864 
	C97.631744,465.996002 162.296402,466.005096 226.961075,465.997711 
	C311.958099,465.988007 396.955109,465.965332 481.952087,465.948273 
	C481.971497,470.945099 481.990906,475.941925 481.992828,481.395782 
	C480.146301,481.902039 478.317261,481.994263 476.488220,481.994354 
	C351.727539,482.000732 226.966858,482.049469 102.206245,481.954376 
	C79.129471,481.936798 56.053131,481.335999 32.513474,481.025299 
	C32.020420,476.689728 31.990484,472.333221 31.950193,467.516632 
z"/>
<path fill="transparent" opacity="1.000000" stroke="none" 
	d="
M481.973755,465.482605 
	C396.955109,465.965332 311.958099,465.988007 226.961075,465.997711 
	C162.296402,466.005096 97.631744,465.996002 32.502415,465.967712 
	C32.025970,335.228943 31.997826,204.516678 32.116634,73.804550 
	C32.119072,71.119270 33.827744,68.435547 35.252876,65.247139 
	C37.920200,64.161186 40.071133,63.093357 42.230568,63.075882 
	C56.447418,62.960850 70.666107,63.072090 84.891632,63.080276 
	C84.899063,63.051014 84.850670,63.086399 84.912613,63.544556 
	C84.983032,144.818634 84.999344,225.634552 84.995499,306.450470 
	C84.994255,332.610535 84.940178,358.770599 84.591324,385.071472 
	C82.853500,385.863586 81.434601,386.514923 79.676414,387.193726 
	C68.069748,395.437805 71.971268,413.120758 85.227592,416.703918 
	C103.807175,421.725922 122.801056,423.954926 141.911057,424.883423 
	C160.217285,425.772888 178.499100,424.327179 196.510284,420.886566 
	C204.912064,419.281616 213.309158,417.063660 221.289825,414.024475 
	C227.959229,411.484619 230.462906,403.559509 227.997162,396.530823 
	C226.641708,390.130371 222.102554,387.284729 216.813873,384.608704 
	C216.674576,383.481842 216.631241,382.816406 216.631226,382.150970 
	C216.627518,277.085754 216.626099,172.020523 216.635208,66.955292 
	C216.635315,65.628464 216.770981,64.301651 217.321747,62.984394 
	C244.252640,62.987659 270.705139,62.981358 297.240112,63.438873 
	C297.338226,170.125793 297.354340,276.348907 297.360199,382.572021 
	C297.360260,383.398621 297.220367,384.225189 296.792847,385.094971 
	C294.942108,386.066681 293.444305,386.995209 291.631226,388.057404 
	C280.792542,395.425446 283.924133,412.922638 298.003540,416.671783 
	C316.284241,421.539673 334.885925,423.798096 353.640167,424.856323 
	C362.514557,425.357117 371.472595,424.232941 380.396942,424.022797 
	C395.674622,423.663055 410.522797,420.796600 425.393005,417.444153 
	C437.262085,414.768341 442.674957,407.733490 440.822571,395.667786 
	C438.566986,389.896545 434.447845,386.656982 428.881470,384.565460 
	C428.826599,278.401947 428.817719,172.707321 428.821167,67.012703 
	C428.821228,65.688606 428.979279,64.364510 429.063599,63.040417 
	C429.063599,63.040417 429.054810,63.000828 429.035645,63.006371 
	C442.842133,63.006859 456.667786,62.988621 470.493408,63.001701 
	C478.768341,63.009529 481.999023,66.301300 481.999207,74.733597 
	C482.001923,204.828049 481.997864,334.922516 481.973755,465.482605 
z"/>
<path fill="#62ABB9" opacity="1.000000" stroke="none" 
	d="
M84.884193,63.109543 
	C70.666107,63.072090 56.447418,62.960850 42.230568,63.075882 
	C40.071133,63.093357 37.920200,64.161186 35.408512,64.907959 
	C35.705811,53.340393 46.084133,47.429394 56.802704,47.122066 
	C65.892921,46.861431 74.996368,47.062077 84.566040,47.049297 
	C85.038116,47.039993 85.244957,47.125751 85.226761,47.605835 
	C85.100449,53.093792 84.992317,58.101669 84.884193,63.109543 
z"/>
<path fill="#62ABB9" opacity="1.000000" stroke="none" 
	d="
M100.969795,47.047913 
	C133.697433,47.016586 166.330566,47.023682 199.420380,46.995598 
	C199.877029,46.960415 200.104050,47.057613 200.143784,47.551079 
	C200.122040,53.014042 200.060547,57.983536 200.009598,62.970474 
	C200.020126,62.987911 200.027542,62.946953 199.557465,62.967888 
	C166.404785,62.998791 133.722153,63.008751 101.045288,63.002502 
	C101.051033,62.986290 101.052979,62.951775 101.033936,62.488441 
	C100.905502,57.071468 100.796104,52.117828 100.686714,47.164188 
	C100.686714,47.164188 100.875298,47.086338 100.969795,47.047913 
z"/>
<path fill="#62ABB9" opacity="1.000000" stroke="none" 
	d="
M412.481049,47.035084 
	C412.958923,52.019295 412.973053,57.017601 412.985199,62.497814 
	C412.983185,62.979721 413.002716,62.964954 412.534485,62.978413 
	C379.368317,62.976921 346.670410,62.961967 313.976166,62.967476 
	C313.979828,62.987934 314.000916,62.953144 313.974670,62.489986 
	C313.854156,57.066822 313.759888,52.106819 313.665588,47.146812 
	C313.665588,47.146812 313.895844,47.058079 314.009521,47.008881 
	C346.754578,46.989517 379.385956,47.019348 412.481049,47.035084 
z"/>
<path fill="#63ABB8" opacity="1.000000" stroke="none" 
	d="
M297.157623,62.975060 
	C270.705139,62.981358 244.252640,62.987659 217.298386,62.956676 
	C216.796631,62.919392 216.723572,62.918190 216.531006,62.495903 
	C216.150284,57.105442 215.962112,52.137268 215.773941,47.169090 
	C215.773941,47.169090 216.063873,47.026897 216.208832,46.950256 
	C243.163773,46.909008 269.973755,46.944393 297.215210,46.927834 
	C297.646667,46.875889 297.934021,47.027214 297.997925,47.542534 
	C297.800323,53.011341 297.538757,57.964828 297.240967,62.919090 
	C297.204681,62.919865 297.157623,62.975060 297.157623,62.975060 
z"/>
<path fill="#7E8B96" opacity="1.000000" stroke="none" 
	d="
M428.592133,63.047844 
	C428.979279,64.364510 428.821228,65.688606 428.821167,67.012703 
	C428.817719,172.707321 428.826599,278.401947 428.463470,384.635620 
	C423.353271,386.045410 418.614166,386.916199 413.794556,387.626617 
	C413.581787,387.257629 413.406982,387.094574 413.145081,386.511902 
	C413.092926,330.951050 413.092285,275.855408 413.075745,220.759735 
	C413.059967,168.161469 413.027710,115.563217 413.002686,62.964954 
	C413.002716,62.964954 412.983185,62.979721 412.981812,62.961052 
	C418.027222,62.980015 423.073944,63.017647 428.592133,63.047844 
z"/>
<path fill="#545F66" opacity="1.000000" stroke="none" 
	d="
M215.328033,47.152786 
	C215.962112,52.137268 216.150284,57.105442 215.980316,62.501858 
	C210.414490,62.937740 205.206772,62.945385 199.999069,62.953033 
	C200.060547,57.983536 200.122040,53.014042 200.259171,47.595024 
	C205.183914,47.142494 210.033020,47.139484 215.328033,47.152786 
z"/>
<path fill="#545F66" opacity="1.000000" stroke="none" 
	d="
M297.277222,62.918312 
	C297.538757,57.964828 297.800323,53.011341 298.144043,47.613438 
	C303.081085,47.154675 307.936005,47.140331 313.228241,47.136398 
	C313.759888,52.106819 313.854156,57.066822 313.507874,62.508011 
	C307.803925,62.965569 302.540588,62.941940 297.277222,62.918312 
z"/>
<path fill="#606F78" opacity="1.000000" stroke="none" 
	d="
M100.249077,47.124073 
	C100.796104,52.117828 100.905502,57.071468 100.561317,62.501904 
	C95.022049,63.014599 89.936363,63.050499 84.850670,63.086399 
	C84.850670,63.086399 84.899063,63.051014 84.891632,63.080276 
	C84.992317,58.101669 85.100449,53.093792 85.328903,47.651684 
	C90.236633,47.172955 95.024040,47.128456 100.249077,47.124073 
z"/>
<path fill="#7A8792" opacity="1.000000" stroke="none" 
	d="
M200.009598,62.970474 
	C205.206772,62.945385 210.414490,62.937740 216.172882,62.924141 
	C216.723572,62.918190 216.796631,62.919392 216.820007,62.947109 
	C216.770981,64.301651 216.635315,65.628464 216.635208,66.955292 
	C216.626099,172.020523 216.627518,277.085754 216.631226,382.150970 
	C216.631241,382.816406 216.674576,383.481842 216.569962,384.825012 
	C211.009964,386.311249 205.577698,387.119690 200.197113,387.468567 
	C200.259766,280.146240 200.271561,173.283447 200.271179,66.420677 
	C200.271179,65.262772 200.112259,64.104858 200.027527,62.946953 
	C200.027542,62.946953 200.020126,62.987911 200.009598,62.970474 
z"/>
<path fill="#7A8792" opacity="1.000000" stroke="none" 
	d="
M297.240967,62.919090 
	C302.540588,62.941940 307.803925,62.965569 313.534119,62.971169 
	C314.000916,62.953144 313.979828,62.987934 313.877869,63.431499 
	C313.762207,171.395676 313.748291,278.916290 313.739685,386.436890 
	C313.739624,386.934235 313.814209,387.431549 313.465637,387.955017 
	C307.766815,387.004700 302.456299,386.028229 297.145782,385.051758 
	C297.220367,384.225189 297.360260,383.398621 297.360199,382.572021 
	C297.354340,276.348907 297.338226,170.125793 297.240112,63.438873 
	C297.157623,62.975060 297.204681,62.919865 297.240967,62.919090 
z"/>
<path fill="#7E8B96" opacity="1.000000" stroke="none" 
	d="
M84.912613,63.544556 
	C89.936363,63.050499 95.022049,63.014599 100.580360,62.965237 
	C101.052979,62.951775 101.051033,62.986290 101.028732,63.470047 
	C101.018814,171.925690 101.031204,279.897583 100.649811,387.889801 
	C95.140770,386.916962 90.025520,385.923798 84.910263,384.930664 
	C84.940178,358.770599 84.994255,332.610535 84.995499,306.450470 
	C84.999344,225.634552 84.983032,144.818634 84.912613,63.544556 
z"/>
<path fill="#E27C48" opacity="1.000000" stroke="none" 
	d="
M228.012024,396.898682 
	C230.462906,403.559509 227.959229,411.484619 221.289825,414.024475 
	C213.309158,417.063660 204.912064,419.281616 196.510284,420.886566 
	C178.499100,424.327179 160.217285,425.772888 141.911057,424.883423 
	C122.801056,423.954926 103.807175,421.725922 85.227592,416.703918 
	C71.971268,413.120758 68.069748,395.437805 79.679962,387.578217 
	C81.194016,396.014496 85.473244,401.690369 93.653221,403.011200 
	C106.372879,405.065033 119.181122,406.630066 131.990372,408.055969 
	C153.740829,410.477142 175.403244,408.823883 196.834915,405.075256 
	C207.381348,403.230560 217.629105,399.678253 228.012024,396.898682 
z"/>
<path fill="#E27C48" opacity="1.000000" stroke="none" 
	d="
M440.845886,396.020691 
	C442.674957,407.733490 437.262085,414.768341 425.393005,417.444153 
	C410.522797,420.796600 395.674622,423.663055 380.396942,424.022797 
	C371.472595,424.232941 362.514557,425.357117 353.640167,424.856323 
	C334.885925,423.798096 316.284241,421.539673 298.003540,416.671783 
	C283.924133,412.922638 280.792542,395.425446 291.890320,388.317261 
	C294.020569,397.504242 299.747192,402.591675 308.473785,403.815186 
	C322.896851,405.837433 337.383392,408.467438 351.874298,408.675323 
	C369.735840,408.931671 387.673218,407.446442 405.493713,405.802277 
	C417.725769,404.673737 429.730560,401.693970 440.845886,396.020691 
z"/>
<path fill="#E29576" opacity="1.000000" stroke="none" 
	d="
M440.822571,395.667786 
	C429.730560,401.693970 417.725769,404.673737 405.493713,405.802277 
	C387.673218,407.446442 369.735840,408.931671 351.874298,408.675323 
	C337.383392,408.467438 322.896851,405.837433 308.473785,403.815186 
	C299.747192,402.591675 294.020569,397.504242 292.205627,388.183594 
	C293.444305,386.995209 294.942108,386.066681 296.792847,385.094971 
	C302.456299,386.028229 307.766815,387.004700 313.899841,387.986389 
	C316.470795,388.327393 318.206329,388.772156 319.969818,388.980499 
	C328.900269,390.035614 337.816254,391.345520 346.778870,391.959900 
	C356.681488,392.638733 366.685272,393.458374 376.542938,392.765503 
	C388.723816,391.909393 400.799683,389.558868 413.162048,387.874542 
	C413.403198,387.895020 413.875031,387.786987 413.875031,387.786987 
	C418.614166,386.916199 423.353271,386.045410 428.510406,385.104492 
	C434.447845,386.656982 438.566986,389.896545 440.822571,395.667786 
z"/>
<path fill="#E29576" opacity="1.000000" stroke="none" 
	d="
M227.997162,396.530792 
	C217.629105,399.678253 207.381348,403.230560 196.834915,405.075256 
	C175.403244,408.823883 153.740829,410.477142 131.990372,408.055969 
	C119.181122,406.630066 106.372879,405.065033 93.653221,403.011200 
	C85.473244,401.690369 81.194016,396.014496 80.019249,387.550751 
	C81.434601,386.514923 82.853500,385.863586 84.591331,385.071472 
	C90.025520,385.923798 95.140770,386.916962 101.069031,387.946228 
	C107.289169,388.986115 112.660355,390.523102 118.110374,390.890442 
	C132.547104,391.863495 147.012863,392.586212 161.477692,392.873718 
	C167.291687,392.989288 173.146591,391.807159 178.959167,391.036774 
	C186.034317,390.099121 193.084473,388.972839 200.145432,387.928162 
	C205.577698,387.119690 211.009964,386.311249 216.686127,385.286438 
	C222.102554,387.284729 226.641708,390.130371 227.997162,396.530792 
z"/>
<path fill="transparent" opacity="1.000000" stroke="none" 
	d="
M200.197113,387.468567 
	C193.084473,388.972839 186.034317,390.099121 178.959167,391.036774 
	C173.146591,391.807159 167.291687,392.989288 161.477692,392.873718 
	C147.012863,392.586212 132.547104,391.863495 118.110374,390.890442 
	C112.660355,390.523102 107.289169,388.986115 101.462814,387.925903 
	C101.031204,279.897583 101.018814,171.925690 101.022980,63.486259 
	C133.722153,63.008751 166.404785,62.998791 199.557465,62.967888 
	C200.112259,64.104858 200.271179,65.262772 200.271179,66.420677 
	C200.271561,173.283447 200.259766,280.146240 200.197113,387.468567 
z"/>
<path fill="transparent" opacity="1.000000" stroke="none" 
	d="
M412.920898,387.854065 
	C400.799683,389.558868 388.723816,391.909393 376.542938,392.765503 
	C366.685272,393.458374 356.681488,392.638733 346.778870,391.959900 
	C337.816254,391.345520 328.900269,390.035614 319.969818,388.980499 
	C318.206329,388.772156 316.470795,388.327393 314.288147,387.960266 
	C313.814209,387.431549 313.739624,386.934235 313.739685,386.436890 
	C313.748291,278.916290 313.762207,171.395676 313.874207,63.411041 
	C346.670410,62.961967 379.368317,62.976921 412.534454,62.978413 
	C413.027710,115.563217 413.059967,168.161469 413.075745,220.759735 
	C413.092285,275.855408 413.092926,330.951050 413.050781,386.722839 
	C413.001068,387.398956 412.920898,387.854065 412.920898,387.854065 
z"/>
<path fill="#636D76" opacity="1.000000" stroke="none" 
	d="
M413.162048,387.874542 
	C412.920898,387.854065 413.001068,387.398956 413.095367,387.188049 
	C413.406982,387.094574 413.581787,387.257629 413.794556,387.626617 
	C413.875031,387.786987 413.403198,387.895020 413.162048,387.874542 
z"/>
</svg>