<svg xmlns="http://www.w3.org/2000/svg" xmlns:xlink="http://www.w3.org/1999/xlink" xml:space="preserve" width="40" height="40"><defs><path id="a" d="M0 0h40v40H0z"/></defs><clipPath id="b"><use xlink:href="#a" overflow="visible"/></clipPath><path fill="#BE7F4C" d="M3.178 15.721h35.157v20.905H3.178z" clip-path="url(#b)"/><path fill="#A3683D" d="M1.985 15.721H4.37v20.905H1.985zM32.371 33.232h5.963v1.48h-5.963zM7.301 28.149h1.897v1.48H7.301zM4.37 18.366h1.897v1.48H4.37zM22.346 31.902h2.013v1.48h-2.013zM15.68 31.902h3.605v1.48H15.68zM19.34 27.522h2.012v1.48H19.34z" clip-path="url(#b)"/><path fill="#8E563D" d="M7.301 20.852h7.335v15.774H7.301z" clip-path="url(#b)"/><path fill="#72412E" d="M8.275 28.04h2.012v.991H8.275z" clip-path="url(#b)"/><g clip-path="url(#b)"><defs><path id="c" d="M0 0h40v40H0z"/></defs><clipPath id="d"><use xlink:href="#c" overflow="visible"/></clipPath><g clip-path="url(#d)" opacity=".4"><defs><path id="e" d="M1.986 19.771h36.348v2.202H1.986z"/></defs><clipPath id="f"><use xlink:href="#e" overflow="visible"/></clipPath><path fill="#8E563D" d="M1.985 16.771h36.349v2.202H1.985z" clip-path="url(#f)"/></g></g><path fill="#8E563D" d="M0 13.765v3.006h40v-3.006L20.16 3.663z" clip-path="url(#b)"/><path fill="#EBA975" d="M21.377 20.303h14.946v11.6H21.377z" clip-path="url(#b)"/><path fill="#03C5F9" d="M22.346 21.41h13.007v9.383H22.346z" clip-path="url(#b)"/><path fill="#52DEFF" d="m35.353 24.729-13.007 1.373v-2.748l13.007-1.374zM35.353 28.949l-13.007 1.374v-2.748l13.007-1.374z" clip-path="url(#b)"/><path fill="#EBA975" d="M26.975 20.852h1.42v10.467h-1.42z" clip-path="url(#b)"/></svg>