<?xml version="1.0" encoding="utf-8"?>
<!-- Generator: Adobe Illustrator 16.0.0, SVG Export Plug-In . SVG Version: 6.00 Build 0)  -->
<!DOCTYPE svg PUBLIC "-//W3C//DTD SVG 1.1//EN" "http://www.w3.org/Graphics/SVG/1.1/DTD/svg11.dtd">
<svg version="1.1" id="Layer_1" xmlns="http://www.w3.org/2000/svg" xmlns:xlink="http://www.w3.org/1999/xlink" x="0px" y="0px"
	 width="40px" height="40px" viewBox="0 0 40 40" enable-background="new 0 0 40 40" xml:space="preserve">
<g>
	<defs>
		<rect id="SVGID_1_" width="40" height="40"/>
	</defs>
	<clipPath id="SVGID_2_">
		<use xlink:href="#SVGID_1_"  overflow="visible"/>
	</clipPath>
	<path clip-path="url(#SVGID_2_)" fill="#EBA975" d="M7.303,36.391H4.407V13.446H9.75c0.228,7.605-0.568,15.208-2.365,22.602
		L7.303,36.391z"/>
	<path clip-path="url(#SVGID_2_)" fill="#EBA975" d="M32.85,36.391h2.896V13.446h-5.344c-0.229,7.605,0.566,15.208,2.364,22.602
		L32.85,36.391z"/>
	<rect x="8.434" y="13.021" clip-path="url(#SVGID_2_)" fill="#FFFFFF" width="27.29" height="2.659"/>
	<path clip-path="url(#SVGID_2_)" fill="#81452B" d="M4.407,15.366c0.017,1.55,1.287,2.801,2.851,2.801
		c1.127,0,2.101-0.649,2.564-1.592c0.463,0.943,1.437,1.592,2.564,1.592c1.126,0,2.1-0.649,2.563-1.592
		c0.463,0.943,1.437,1.592,2.564,1.592c1.126,0,2.101-0.649,2.563-1.592c0.465,0.943,1.438,1.592,2.564,1.592
		s2.101-0.649,2.563-1.592c0.464,0.943,1.438,1.592,2.563,1.592c1.127,0,2.101-0.649,2.565-1.592
		c0.463,0.943,1.436,1.592,2.563,1.592c1.565,0,2.834-1.251,2.851-2.801H4.407z"/>
	<rect x="4.406" y="13.446" clip-path="url(#SVGID_2_)" fill="#81452B" width="31.339" height="1.92"/>
	<path clip-path="url(#SVGID_2_)" fill="#FFFFFF" d="M33.619,32.103c-1.777-6.353-1.5-11.675-1.497-11.728l0.394,0.021
		c-0.002,0.054-0.277,5.314,1.482,11.602L33.619,32.103z"/>
	<path clip-path="url(#SVGID_2_)" fill="#FFFFFF" d="M6.695,32.103l-0.379-0.104c1.759-6.287,1.485-11.548,1.483-11.602l0.393-0.021
		C8.195,20.428,8.473,25.75,6.695,32.103"/>
	<rect x="4.406" y="36.364" clip-path="url(#SVGID_2_)" fill="#BE7F4C" width="31.339" height="3.247"/>
	<rect x="4.407" y="37.188" clip-path="url(#SVGID_2_)" fill="#EBA975" width="4.847" height="0.799"/>
	<rect x="30.898" y="37.903" clip-path="url(#SVGID_2_)" fill="#EBA975" width="4.847" height="0.799"/>
	<rect x="27.454" y="37.903" clip-path="url(#SVGID_2_)" fill="#EBA975" width="1.438" height="0.799"/>
	<rect x="16.58" y="31.159" clip-path="url(#SVGID_2_)" fill="#FFFFFF" width="1.087" height="5.125"/>
	<rect x="22.674" y="31.159" clip-path="url(#SVGID_2_)" fill="#FFFFFF" width="1.088" height="5.125"/>
	<rect x="15.191" y="29.96" clip-path="url(#SVGID_2_)" fill="#985835" width="9.961" height="1.302"/>
	<polygon clip-path="url(#SVGID_2_)" fill="#985835" points="27.098,36.416 25.709,36.412 29.424,27.579 30.812,27.583 	"/>
</g>
<g>
	<defs>
		<polygon id="SVGID_3_" points="25.811,32.692 27.638,36.781 31.158,36.446 29.958,31.788 		"/>
	</defs>
	<clipPath id="SVGID_4_">
		<use xlink:href="#SVGID_3_"  overflow="visible"/>
	</clipPath>
	<polygon clip-path="url(#SVGID_4_)" fill="#985835" points="28.862,36.469 30.207,36.466 24.403,28.48 23.06,28.825 	"/>
</g>
<g>
	<defs>
		<rect id="SVGID_5_" width="40" height="40"/>
	</defs>
	<clipPath id="SVGID_6_">
		<use xlink:href="#SVGID_5_"  overflow="visible"/>
	</clipPath>
	<rect x="24.546" y="32.394" clip-path="url(#SVGID_6_)" fill="#985835" width="3.465" height="1.1"/>
	<polygon clip-path="url(#SVGID_6_)" fill="#985835" points="13.097,36.416 14.484,36.412 10.771,27.579 9.382,27.583 	"/>
</g>
<g>
	<defs>
		<polygon id="SVGID_7_" points="9.037,36.446 12.557,36.781 14.384,32.692 10.237,31.788 		"/>
	</defs>
	<clipPath id="SVGID_8_">
		<use xlink:href="#SVGID_7_"  overflow="visible"/>
	</clipPath>
	<polygon clip-path="url(#SVGID_8_)" fill="#985835" points="11.332,36.469 9.988,36.466 15.79,28.48 17.134,28.825 	"/>
</g>
<g>
	<defs>
		<rect id="SVGID_9_" width="40" height="40"/>
	</defs>
	<clipPath id="SVGID_10_">
		<use xlink:href="#SVGID_9_"  overflow="visible"/>
	</clipPath>
	<rect x="12.183" y="32.394" clip-path="url(#SVGID_10_)" fill="#985835" width="3.466" height="1.1"/>
	<path clip-path="url(#SVGID_10_)" fill="#FFFFFF" d="M35.145,13.884H4.987c-0.338,0-0.625-0.245-0.677-0.577
		c-0.051-0.331,0.148-0.651,0.472-0.754C4.889,12.521,15.515,9.117,19.466,1.98c0.119-0.218,0.35-0.353,0.6-0.353h0.004
		c0.251,0.001,0.481,0.139,0.602,0.359c3.891,7.203,14.569,10.534,14.675,10.566c0.325,0.099,0.529,0.42,0.479,0.752
		C35.772,13.638,35.483,13.884,35.145,13.884 M8.587,12.522h22.908c-3.419-1.526-8.542-4.407-11.437-8.883
		C17.125,8.093,11.991,10.989,8.587,12.522"/>
	<path clip-path="url(#SVGID_10_)" fill="#FFFFFF" d="M7.472,12.522c0,0,7.841-4.317,9.196-5.804c1.354-1.488,3.408-3.86,3.408-3.86
		s4.496,6.081,8.354,7.294c3.855,1.214,4.418,2.798,4.418,2.798L7.261,13.021L7.472,12.522z"/>
</g>
</svg>
