<svg xmlns="http://www.w3.org/2000/svg" xmlns:xlink="http://www.w3.org/1999/xlink" xml:space="preserve" width="40" height="40"><defs><path id="a" d="M0 0h40v40H0z"/></defs><clipPath id="b"><use xlink:href="#a" overflow="visible"/></clipPath><path fill="#EBA975" d="M7.303 36.391H4.407V13.446H9.75a84.935 84.935 0 0 1-2.365 22.602l-.082.343zM32.85 36.391h2.896V13.446h-5.344a84.852 84.852 0 0 0 2.364 22.602l.084.343z" clip-path="url(#b)"/><path fill="#FFF" d="M8.434 13.021h27.29v2.659H8.434z" clip-path="url(#b)"/><path fill="#81452B" d="M4.407 15.366a2.842 2.842 0 0 0 2.851 2.801 2.852 2.852 0 0 0 2.564-1.592 2.852 2.852 0 0 0 2.564 1.592c1.126 0 2.1-.649 2.563-1.592a2.852 2.852 0 0 0 2.564 1.592 2.85 2.85 0 0 0 2.563-1.592c.465.943 1.438 1.592 2.564 1.592s2.101-.649 2.563-1.592a2.854 2.854 0 0 0 2.563 1.592 2.855 2.855 0 0 0 2.565-1.592 2.85 2.85 0 0 0 2.563 1.592 2.841 2.841 0 0 0 2.851-2.801H4.407zM4.406 13.446h31.339v1.92H4.406z" clip-path="url(#b)"/><path fill="#FFF" d="M33.619 32.103c-1.777-6.353-1.5-11.675-1.497-11.728l.394.021c-.002.054-.277 5.314 1.482 11.602l-.379.105zM6.695 32.103l-.379-.104c1.759-6.287 1.485-11.548 1.483-11.602l.393-.021c.003.052.281 5.374-1.497 11.727" clip-path="url(#b)"/><path fill="#BE7F4C" d="M4.406 36.364h31.339v3.247H4.406z" clip-path="url(#b)"/><path fill="#EBA975" d="M4.407 37.188h4.847v.799H4.407zM30.898 37.903h4.847v.799h-4.847zM27.454 37.903h1.438v.799h-1.438z" clip-path="url(#b)"/><path fill="#FFF" d="M16.58 31.159h1.087v5.125H16.58zM22.674 31.159h1.088v5.125h-1.088z" clip-path="url(#b)"/><path fill="#985835" d="M15.191 29.96h9.961v1.302h-9.961zM27.098 36.416l-1.389-.004 3.715-8.833 1.388.004z" clip-path="url(#b)"/><defs><path id="c" d="m25.811 32.692 1.827 4.089 3.52-.335-1.2-4.658z"/></defs><clipPath id="d"><use xlink:href="#c" overflow="visible"/></clipPath><path fill="#985835" d="m28.862 36.469 1.345-.003-5.804-7.986-1.343.345z" clip-path="url(#d)"/><defs><path id="e" d="M0 0h40v40H0z"/></defs><clipPath id="f"><use xlink:href="#e" overflow="visible"/></clipPath><path fill="#985835" d="M24.546 32.394h3.465v1.1h-3.465zM13.097 36.416l1.387-.004-3.713-8.833-1.389.004z" clip-path="url(#f)"/><defs><path id="g" d="m9.037 36.446 3.52.335 1.827-4.089-4.147-.904z"/></defs><clipPath id="h"><use xlink:href="#g" overflow="visible"/></clipPath><path fill="#985835" d="m11.332 36.469-1.344-.003 5.802-7.986 1.344.345z" clip-path="url(#h)"/><defs><path id="i" d="M0 0h40v40H0z"/></defs><clipPath id="j"><use xlink:href="#i" overflow="visible"/></clipPath><path fill="#985835" d="M12.183 32.394h3.466v1.1h-3.466z" clip-path="url(#j)"/><path fill="#FFF" d="M35.145 13.884H4.987a.684.684 0 0 1-.677-.577.683.683 0 0 1 .472-.754c.107-.032 10.733-3.436 14.684-10.573a.683.683 0 0 1 .6-.353h.004a.69.69 0 0 1 .602.359c3.891 7.203 14.569 10.534 14.675 10.566.325.099.529.42.479.752a.69.69 0 0 1-.681.58M8.587 12.522h22.908c-3.419-1.526-8.542-4.407-11.437-8.883-2.933 4.454-8.067 7.35-11.471 8.883" clip-path="url(#j)"/><path fill="#FFF" d="M7.472 12.522s7.841-4.317 9.196-5.804c1.354-1.488 3.408-3.86 3.408-3.86s4.496 6.081 8.354 7.294c3.855 1.214 4.418 2.798 4.418 2.798l-25.587.071.211-.499z" clip-path="url(#j)"/></svg>