<?xml version="1.0" encoding="utf-8"?>
<!-- Generator: Adobe Illustrator 16.0.0, SVG Export Plug-In . SVG Version: 6.00 Build 0)  -->
<!DOCTYPE svg PUBLIC "-//W3C//DTD SVG 1.1//EN" "http://www.w3.org/Graphics/SVG/1.1/DTD/svg11.dtd">
<svg version="1.1" id="Capa_1" xmlns="http://www.w3.org/2000/svg" xmlns:xlink="http://www.w3.org/1999/xlink" x="0px" y="0px"
	 width="512px" height="512px" viewBox="0 0 512 512" enable-background="new 0 0 512 512" xml:space="preserve">
<g>
	<g>
		<g>
			<g>
				<path fill="#0095DA" d="M128,102.399c28.288,0,51.2-22.912,51.2-51.2C179.199,22.912,156.288,0,128,0S76.8,22.912,76.8,51.2
					C76.8,79.488,99.711,102.399,128,102.399z"/>
				<path fill="#0095DA" d="M358.4,102.399c28.287,0,51.2-22.912,51.2-51.2C409.6,22.912,386.688,0,358.4,0
					c-28.289,0-51.2,22.912-51.2,51.2C307.2,79.488,330.111,102.399,358.4,102.399z"/>
				<path fill="#0095DA" d="M166.4,128h-76.8C61.44,128,38.4,151.04,38.4,179.199v140.8h38.4v192h102.4v-192h38.4v-140.8
					C217.6,151.04,194.56,128,166.4,128z"/>
				<path fill="#0095DA" d="M408.447,163.071c-6.912-20.991-26.496-35.072-48.513-35.072h-2.943
					c-22.017,0-41.601,14.08-48.513,35.072l-65.279,195.327h76.8v153.601h76.8V358.398h76.8L408.447,163.071z"/>
			</g>
		</g>
	</g>
</g>
</svg>
