<svg xmlns="http://www.w3.org/2000/svg" xml:space="preserve" width="512" height="512"><g fill="#0095DA"><path d="M128 102.399c28.288 0 51.2-22.912 51.2-51.2C179.199 22.912 156.288 0 128 0S76.8 22.912 76.8 51.2c0 28.288 22.911 51.199 51.2 51.199zM358.4 102.399c28.287 0 51.2-22.912 51.2-51.2C409.6 22.912 386.688 0 358.4 0c-28.289 0-51.2 22.912-51.2 51.2 0 28.288 22.911 51.199 51.2 51.199zM166.4 128H89.6c-28.16 0-51.2 23.04-51.2 51.199v140.8h38.4v192h102.4v-192h38.4v-140.8c0-28.159-23.04-51.199-51.2-51.199zM408.447 163.071c-6.912-20.991-26.496-35.072-48.513-35.072h-2.943c-22.017 0-41.601 14.08-48.513 35.072l-65.279 195.327h76.8v153.601h76.8V358.398h76.8l-65.152-195.327z"/></g></svg>