<?xml version="1.0" encoding="utf-8"?>
<!-- Generator: Adobe Illustrator 16.0.0, SVG Export Plug-In . SVG Version: 6.00 Build 0)  -->
<!DOCTYPE svg PUBLIC "-//W3C//DTD SVG 1.1//EN" "http://www.w3.org/Graphics/SVG/1.1/DTD/svg11.dtd">
<svg version="1.1" id="Capa_1" xmlns="http://www.w3.org/2000/svg" xmlns:xlink="http://www.w3.org/1999/xlink" x="0px" y="0px"
	 width="512px" height="512px" viewBox="0 0 512 512" enable-background="new 0 0 512 512" xml:space="preserve">
<g>
	<g>
		<path id="XMLID_1089_" fill="#009867" d="M428.332,135.275l-11.167-33.466c-2.248-6.736-8.552-11.278-15.653-11.278H110.488
			c-7.101,0-13.405,4.543-15.653,11.278l-11.167,33.466c-2.53,7.582,3.113,15.414,11.106,15.414h322.451
			C425.219,150.689,430.862,142.857,428.332,135.275L428.332,135.275z"/>
		<path id="XMLID_835_" fill="#009867" d="M135.615,491.767c1.28,11.52,11.016,20.233,22.606,20.233h193.718
			c11.59,0,21.325-8.715,22.605-20.233L409.11,180.69H101.05L135.615,491.767z"/>
		<path id="XMLID_831_" fill="#009867" d="M225.89,42.998c0-7.167,5.831-12.998,12.998-12.998h44.189
			c7.167,0,12.998,5.831,12.998,12.998v17.533h30V42.998C326.075,19.289,306.786,0,283.077,0h-44.189
			c-23.709,0-42.998,19.289-42.998,42.998v17.533h30V42.998z"/>
	</g>
</g>
</svg>
