<?xml version="1.0" encoding="utf-8"?>
<!-- Generator: Adobe Illustrator 16.0.0, SVG Export Plug-In . SVG Version: 6.00 Build 0)  -->
<!DOCTYPE svg PUBLIC "-//W3C//DTD SVG 1.1//EN" "http://www.w3.org/Graphics/SVG/1.1/DTD/svg11.dtd">
<svg version="1.1" id="Layer_1" xmlns="http://www.w3.org/2000/svg" xmlns:xlink="http://www.w3.org/1999/xlink" x="0px" y="0px"
	 width="40px" height="40px" viewBox="0 0 40 40" enable-background="new 0 0 40 40" xml:space="preserve">
<g>
	<defs>
		<rect id="SVGID_1_" width="40" height="40"/>
	</defs>
	<clipPath id="SVGID_2_">
		<use xlink:href="#SVGID_1_"  overflow="visible"/>
	</clipPath>
	<rect x="5.152" y="20.817" clip-path="url(#SVGID_2_)" fill="#75432F" width="1.399" height="10.632"/>
	<rect x="32.021" y="20.817" clip-path="url(#SVGID_2_)" fill="#75432F" width="1.398" height="10.632"/>
	<polygon clip-path="url(#SVGID_2_)" fill="#BE7F4C" points="5.028,20.675 3.458,19.105 20.438,10.115 38.418,19.391 34.003,20.605 
			"/>
	<rect x="4.885" y="17.392" clip-path="url(#SVGID_2_)" fill="#8E563D" width="10.702" height="1.143"/>
	<rect x="18.156" y="17.392" clip-path="url(#SVGID_2_)" fill="#8E563D" width="12.128" height="1.143"/>
	<rect x="8.595" y="15.395" clip-path="url(#SVGID_2_)" fill="#8E563D" width="12.128" height="1.143"/>
	<rect x="23.435" y="15.395" clip-path="url(#SVGID_2_)" fill="#8E563D" width="8.563" height="1.143"/>
	<rect x="19.583" y="12.541" clip-path="url(#SVGID_2_)" fill="#8E563D" width="7.134" height="1.142"/>
	<rect x="13.875" y="12.541" clip-path="url(#SVGID_2_)" fill="#8E563D" width="4.281" height="1.142"/>
	<rect x="31.568" y="17.392" clip-path="url(#SVGID_2_)" fill="#8E563D" width="2.997" height="1.143"/>
	<g clip-path="url(#SVGID_2_)">
		<defs>
			<rect id="SVGID_3_" width="40" height="40"/>
		</defs>
		<clipPath id="SVGID_4_">
			<use xlink:href="#SVGID_3_"  overflow="visible"/>
		</clipPath>
		<g opacity="0.21" clip-path="url(#SVGID_4_)">
			<g>
				<defs>
					<rect id="SVGID_5_" x="3.067" y="16.686" width="33.15" height="9.085"/>
				</defs>
				<clipPath id="SVGID_6_">
					<use xlink:href="#SVGID_5_"  overflow="visible"/>
				</clipPath>
				<polygon clip-path="url(#SVGID_6_)" fill="#75432F" points="3.067,19.771 20.438,10.687 36.218,19.391 32.021,19.391 
					20.581,12.97 7.881,19.391 				"/>
			</g>
		</g>
	</g>
	<rect x="8.7" y="21.189" clip-path="url(#SVGID_2_)" fill="#EBA975" width="20.871" height="11.659"/>
	<g clip-path="url(#SVGID_2_)">
		<defs>
			<rect id="SVGID_7_" width="40" height="40"/>
		</defs>
		<clipPath id="SVGID_8_">
			<use xlink:href="#SVGID_7_"  overflow="visible"/>
		</clipPath>
		<path clip-path="url(#SVGID_8_)" fill="#BE7F4C" d="M29.455,22.652c0,0.68-0.551,1.23-1.23,1.23s-1.231-0.551-1.231-1.23
			s0.552-1.23,1.231-1.23S29.455,21.973,29.455,22.652"/>
		<path clip-path="url(#SVGID_8_)" fill="#BE7F4C" d="M29.455,25.114c0,0.68-0.551,1.231-1.23,1.231s-1.231-0.552-1.231-1.231
			s0.552-1.229,1.231-1.229S29.455,24.435,29.455,25.114"/>
		<path clip-path="url(#SVGID_8_)" fill="#BE7F4C" d="M29.455,27.576c0,0.68-0.551,1.23-1.23,1.23s-1.231-0.551-1.231-1.23
			s0.552-1.229,1.231-1.229S29.455,26.896,29.455,27.576"/>
		<path clip-path="url(#SVGID_8_)" fill="#BE7F4C" d="M29.455,30.038c0,0.68-0.551,1.23-1.23,1.23s-1.231-0.551-1.231-1.23
			s0.552-1.231,1.231-1.231S29.455,29.358,29.455,30.038"/>
		<path clip-path="url(#SVGID_8_)" fill="#BE7F4C" d="M11.333,22.652c0,0.68-0.551,1.23-1.231,1.23s-1.231-0.551-1.231-1.23
			s0.551-1.23,1.231-1.23S11.333,21.973,11.333,22.652"/>
		<g opacity="0.59" clip-path="url(#SVGID_8_)">
			<g>
				<defs>
					<rect id="SVGID_9_" x="8.738" y="26.96" width="20.833" height="1.427"/>
				</defs>
				<clipPath id="SVGID_10_">
					<use xlink:href="#SVGID_9_"  overflow="visible"/>
				</clipPath>
				<rect x="8.738" y="20.96" clip-path="url(#SVGID_10_)" fill="#75432F" width="20.833" height="1.427"/>
			</g>
		</g>
		<path clip-path="url(#SVGID_8_)" fill="#BE7F4C" d="M11.333,25.114c0,0.68-0.551,1.231-1.231,1.231s-1.231-0.552-1.231-1.231
			s0.551-1.229,1.231-1.229S11.333,24.435,11.333,25.114"/>
		<path clip-path="url(#SVGID_8_)" fill="#BE7F4C" d="M11.333,27.576c0,0.68-0.551,1.23-1.231,1.23s-1.231-0.551-1.231-1.23
			s0.551-1.229,1.231-1.229S11.333,26.896,11.333,27.576"/>
		<path clip-path="url(#SVGID_8_)" fill="#BE7F4C" d="M11.333,30.038c0,0.68-0.551,1.23-1.231,1.23s-1.231-0.551-1.231-1.23
			s0.551-1.231,1.231-1.231S11.333,29.358,11.333,30.038"/>
		<rect x="22.597" y="23.263" clip-path="url(#SVGID_8_)" fill="#995933" width="3.815" height="8.167"/>
		<path clip-path="url(#SVGID_8_)" fill="#BE7F4C" d="M26.412,31.43h-3.815v-8.167h3.815V31.43z M26.717,22.958h-0.305h-3.815
			h-0.306v0.305v8.167v0.305h0.306h3.815h0.305V31.43v-8.167V22.958z"/>
		<rect x="12.186" y="24.103" clip-path="url(#SVGID_8_)" fill="#FFB535" width="8.396" height="5.134"/>
		<path clip-path="url(#SVGID_8_)" fill="#BE7F4C" d="M20.581,29.236h-8.396v-5.133h8.396V29.236z M20.795,23.89h-0.214h-8.395
			h-0.214v0.214v5.133v0.214h0.214h8.395h0.214v-0.214v-5.133V23.89z"/>
		<rect x="11.242" y="23.244" clip-path="url(#SVGID_8_)" fill="#BE7F4C" width="10.194" height="0.855"/>
		<polygon clip-path="url(#SVGID_8_)" fill="#FFD79C" points="20.581,25.954 12.163,27.382 12.163,25.669 20.581,24.242 		"/>
		<polygon clip-path="url(#SVGID_8_)" fill="#FFD79C" points="20.581,27.524 12.163,28.951 12.163,27.81 20.581,26.383 		"/>
		<rect x="11.877" y="23.814" clip-path="url(#SVGID_8_)" fill="#BE7F4C" width="0.856" height="5.707"/>
		<rect x="20.177" y="23.814" clip-path="url(#SVGID_8_)" fill="#BE7F4C" width="0.856" height="5.707"/>
		<rect x="11.877" y="28.666" clip-path="url(#SVGID_8_)" fill="#BE7F4C" width="8.923" height="0.744"/>
		<rect x="12.099" y="25.955" clip-path="url(#SVGID_8_)" fill="#BE7F4C" width="8.625" height="0.855"/>
		<rect x="17.313" y="23.925" clip-path="url(#SVGID_8_)" fill="#BE7F4C" width="0.824" height="5.454"/>
		<rect x="2.744" y="27.238" clip-path="url(#SVGID_8_)" fill="#7F4934" width="33.533" height="1.142"/>
		<rect x="2.054" y="20.675" clip-path="url(#SVGID_8_)" fill="#8E563D" width="1.399" height="11.707"/>
		<rect x="35.422" y="20.675" clip-path="url(#SVGID_8_)" fill="#8E563D" width="1.569" height="11.707"/>
		<rect x="1.46" y="19.391" clip-path="url(#SVGID_8_)" fill="#8E563D" width="36.245" height="1.854"/>
		<rect x="1.47" y="31.449" clip-path="url(#SVGID_8_)" fill="#BE7F4C" width="36.264" height="1.782"/>
		<polygon clip-path="url(#SVGID_8_)" fill="#995933" points="40,21.587 20.463,10.733 0,21.365 0.033,19.391 20.49,8.79 
			39.987,19.676 		"/>
		<rect x="23.007" y="26.525" clip-path="url(#SVGID_8_)" fill="#75432F" width="1.284" height="0.428"/>
		<rect x="1.461" y="31.805" clip-path="url(#SVGID_8_)" fill="#EBA975" width="4.138" height="0.571"/>
		<rect x="7.168" y="31.805" clip-path="url(#SVGID_8_)" fill="#EBA975" width="1.284" height="0.571"/>
		<rect x="2.032" y="22.958" clip-path="url(#SVGID_8_)" fill="#75432F" width="0.713" height="0.57"/>
		<rect x="2.745" y="29.237" clip-path="url(#SVGID_8_)" fill="#75432F" width="0.713" height="0.57"/>
		<rect x="5.212" y="22.531" clip-path="url(#SVGID_8_)" fill="#8E563D" width="0.713" height="0.569"/>
		<rect x="5.925" y="24.956" clip-path="url(#SVGID_8_)" fill="#8E563D" width="0.571" height="0.57"/>
		<rect x="31.997" y="24.956" clip-path="url(#SVGID_8_)" fill="#8E563D" width="0.57" height="0.57"/>
		<rect x="32.568" y="29.664" clip-path="url(#SVGID_8_)" fill="#8E563D" width="0.855" height="0.571"/>
		<rect x="35.422" y="29.664" clip-path="url(#SVGID_8_)" fill="#75432F" width="0.998" height="0.571"/>
		<rect x="36.135" y="25.812" clip-path="url(#SVGID_8_)" fill="#75432F" width="0.856" height="0.571"/>
		<rect x="35.66" y="31.948" clip-path="url(#SVGID_8_)" fill="#EBA975" width="2.045" height="0.57"/>
	</g>
</g>
</svg>
