<svg xmlns="http://www.w3.org/2000/svg" xmlns:xlink="http://www.w3.org/1999/xlink" xml:space="preserve" width="40" height="40"><defs><path id="a" d="M0 0h40v40H0z"/></defs><clipPath id="b"><use xlink:href="#a" overflow="visible"/></clipPath><path fill="#75432F" d="M5.152 20.817h1.399v10.632H5.152zM32.021 20.817h1.398v10.632h-1.398z" clip-path="url(#b)"/><path fill="#BE7F4C" d="m5.028 20.675-1.57-1.57 16.98-8.99 17.98 9.276-4.415 1.214z" clip-path="url(#b)"/><path fill="#8E563D" d="M4.885 17.392h10.702v1.143H4.885zM18.156 17.392h12.128v1.143H18.156zM8.595 15.395h12.128v1.143H8.595zM23.435 15.395h8.563v1.143h-8.563zM19.583 12.541h7.134v1.142h-7.134zM13.875 12.541h4.281v1.142h-4.281zM31.568 17.392h2.997v1.143h-2.997z" clip-path="url(#b)"/><g clip-path="url(#b)"><defs><path id="c" d="M0 0h40v40H0z"/></defs><clipPath id="d"><use xlink:href="#c" overflow="visible"/></clipPath><g clip-path="url(#d)" opacity=".21"><defs><path id="e" d="M3.067 16.686h33.15v9.085H3.067z"/></defs><clipPath id="f"><use xlink:href="#e" overflow="visible"/></clipPath><path fill="#75432F" d="m3.067 19.771 17.371-9.084 15.78 8.704h-4.197l-11.44-6.421-12.7 6.421z" clip-path="url(#f)"/></g></g><path fill="#EBA975" d="M8.7 21.189h20.871v11.659H8.7z" clip-path="url(#b)"/><g clip-path="url(#b)"><defs><path id="g" d="M0 0h40v40H0z"/></defs><clipPath id="h"><use xlink:href="#g" overflow="visible"/></clipPath><path fill="#BE7F4C" d="M29.455 22.652a1.23 1.23 0 1 1-2.46 0 1.23 1.23 0 0 1 2.46 0" clip-path="url(#h)"/><path fill="#BE7F4C" d="M29.455 25.114a1.23 1.23 0 1 1-2.461 0 1.23 1.23 0 0 1 2.461 0" clip-path="url(#h)"/><path fill="#BE7F4C" d="M29.455 27.576a1.23 1.23 0 1 1-2.46 0 1.23 1.23 0 0 1 2.46 0" clip-path="url(#h)"/><path fill="#BE7F4C" d="M29.455 30.038a1.23 1.23 0 1 1-2.46 0 1.23 1.23 0 0 1 2.46 0M11.333 22.652a1.23 1.23 0 1 1-2.46 0 1.23 1.23 0 0 1 2.46 0" clip-path="url(#h)"/><g clip-path="url(#h)" opacity=".59"><defs><path id="i" d="M8.738 26.96h20.833v1.427H8.738z"/></defs><clipPath id="j"><use xlink:href="#i" overflow="visible"/></clipPath><path fill="#75432F" d="M8.738 20.96h20.833v1.427H8.738z" clip-path="url(#j)"/></g><path fill="#BE7F4C" d="M11.333 25.114a1.23 1.23 0 1 1-2.462 0 1.23 1.23 0 0 1 2.462 0" clip-path="url(#h)"/><path fill="#BE7F4C" d="M11.333 27.576a1.23 1.23 0 1 1-2.46 0 1.23 1.23 0 0 1 2.46 0" clip-path="url(#h)"/><path fill="#BE7F4C" d="M11.333 30.038a1.23 1.23 0 1 1-2.46 0 1.23 1.23 0 0 1 2.46 0" clip-path="url(#h)"/><path fill="#995933" d="M22.597 23.263h3.815v8.167h-3.815z" clip-path="url(#h)"/><path fill="#BE7F4C" d="M26.412 31.43h-3.815v-8.167h3.815v8.167zm.305-8.472h-4.426v8.777H26.717v-8.777z" clip-path="url(#h)"/><path fill="#FFB535" d="M12.186 24.103h8.396v5.134h-8.396z" clip-path="url(#h)"/><path fill="#BE7F4C" d="M20.581 29.236h-8.396v-5.133h8.396v5.133zm.214-5.346h-8.823V29.451h8.823V23.89z" clip-path="url(#h)"/><path fill="#BE7F4C" d="M11.242 23.244h10.194v.855H11.242z" clip-path="url(#h)"/><path fill="#FFD79C" d="m20.581 25.954-8.418 1.428v-1.713l8.418-1.427zM20.581 27.524l-8.418 1.427V27.81l8.418-1.427z" clip-path="url(#h)"/><path fill="#BE7F4C" d="M11.877 23.814h.856v5.707h-.856zM20.177 23.814h.856v5.707h-.856z" clip-path="url(#h)"/><path fill="#BE7F4C" d="M11.877 28.666H20.8v.744h-8.923zM12.099 25.955h8.625v.855h-8.625z" clip-path="url(#h)"/><path fill="#BE7F4C" d="M17.313 23.925h.824v5.454h-.824z" clip-path="url(#h)"/><path fill="#7F4934" d="M2.744 27.238h33.533v1.142H2.744z" clip-path="url(#h)"/><path fill="#8E563D" d="M2.054 20.675h1.399v11.707H2.054zM35.422 20.675h1.569v11.707h-1.569z" clip-path="url(#h)"/><path fill="#8E563D" d="M1.46 19.391h36.245v1.854H1.46z" clip-path="url(#h)"/><path fill="#BE7F4C" d="M1.47 31.449h36.264v1.782H1.47z" clip-path="url(#h)"/><path fill="#995933" d="M40 21.587 20.463 10.733 0 21.365l.033-1.974L20.49 8.79l19.497 10.886z" clip-path="url(#h)"/><path fill="#75432F" d="M23.007 26.525h1.284v.428h-1.284z" clip-path="url(#h)"/><path fill="#EBA975" d="M1.461 31.805h4.138v.571H1.461zM7.168 31.805h1.284v.571H7.168z" clip-path="url(#h)"/><path fill="#75432F" d="M2.032 22.958h.713v.57h-.713zM2.745 29.237h.713v.57h-.713z" clip-path="url(#h)"/><path fill="#8E563D" d="M5.212 22.531h.713v.569h-.713zM5.925 24.956h.571v.57h-.571zM31.997 24.956h.57v.57h-.57zM32.568 29.664h.855v.571h-.855z" clip-path="url(#h)"/><path fill="#75432F" d="M35.422 29.664h.998v.571h-.998zM36.135 25.812h.856v.571h-.856z" clip-path="url(#h)"/><path fill="#EBA975" d="M35.66 31.948h2.045v.57H35.66z" clip-path="url(#h)"/></g></svg>