<svg xmlns="http://www.w3.org/2000/svg" xmlns:xlink="http://www.w3.org/1999/xlink" xml:space="preserve" width="40" height="40"><defs><path id="a" d="M0 0h40v40H0z"/></defs><clipPath id="b"><use xlink:href="#a" overflow="visible"/></clipPath><path fill="#FFF" d="M15.566 21.881a.286.286 0 0 1-.269-.38L21.473 3.98a.286.286 0 0 1 .538.189l-6.176 17.522a.283.283 0 0 1-.269.19M15.887 32.411a.284.284 0 0 1-.269-.38l5.855-16.659a.286.286 0 0 1 .539.189l-5.856 16.66a.284.284 0 0 1-.269.19M15.887 26.817a.285.285 0 0 1-.269-.38l5.855-16.659a.286.286 0 0 1 .539.19l-5.856 16.659a.284.284 0 0 1-.269.19M32.775 38.554h-1.121v-.475h.78l.248-.739.451.152zM29.683 38.554h-1.972v-.475h1.972v.475zm-3.944 0h-1.973v-.475h1.973v.475zm-3.944 0h-1.972v-.475h1.972v.475zm-3.944 0h-1.972v-.475h1.972v.475zm-3.943 0h-1.972v-.475h1.972v.475zm-3.945 0H7.991v-.475h1.972v.475zm-3.944 0H4.047v-.475h1.972v.475zM2.076 38.554H.795l.408-1.214.45.152-.197.587h.62zM2.256 35.699l-.45-.15.602-1.793.45.15-.602 1.793zm1.204-3.585-.45-.15.603-1.793.45.15-.603 1.793zm1.205-3.585-.45-.15.603-1.793.45.15-.603 1.793zm1.205-3.585-.45-.15.602-1.793.451.15-.603 1.793zM7.075 21.359l-.45-.15.357-1.063h1.12v.475h-.779z" clip-path="url(#b)"/><path fill="#FFF" d="M35.71 20.621h-1.973v-.475h1.973v.475zm-3.944 0h-1.972v-.475h1.972v.475zm-3.944 0H25.85v-.475h1.973v.475zm-3.944 0h-1.972v-.475h1.972v.475zm-3.944 0h-1.972v-.475h1.972v.475zm-3.943 0h-1.972v-.475h1.972v.475zm-3.945 0h-1.972v-.475h1.972v.475zM38.554 21.359l-.45-.15.197-.588h-.619v-.475h1.28zM33.735 35.699l-.45-.15.602-1.793.45.15-.602 1.793zm1.205-3.585-.45-.15.602-1.793.45.15-.602 1.793zm1.205-3.585-.449-.15.602-1.793.45.15-.603 1.793zm1.205-3.585-.449-.15.601-1.793.452.15-.604 1.793z" clip-path="url(#b)"/><path fill="#BE7F4C" d="M15.577 20.664a.77.77 0 0 1 .771.771v17.727h-1.542V21.435a.77.77 0 0 1 .771-.771" clip-path="url(#b)"/><path fill="#81452B" d="M14.806 33.38h1.541v1.541h-1.541zM15.577 20.664a.77.77 0 0 1 .771.771v.771h-1.542v-.771a.77.77 0 0 1 .771-.771" clip-path="url(#b)"/><path fill="#BE7F4C" d="M21.742 2.167a.77.77 0 0 1 .771.771v17.726h-1.542V2.938a.771.771 0 0 1 .771-.771" clip-path="url(#b)"/><path fill="#81452B" d="M20.971 14.884h1.542v1.542h-1.542zM21.742 2.167a.77.77 0 0 1 .771.771v.77h-1.542v-.77a.771.771 0 0 1 .771-.771" clip-path="url(#b)"/><path fill="#FFF" d="M17.672 27.138a.237.237 0 0 1-.238-.236V15.468a.238.238 0 1 1 .475 0v11.434c0 .13-.106.236-.237.236M19.6 21.485a.237.237 0 0 1-.238-.236V9.991a.238.238 0 0 1 .475 0v11.258a.236.236 0 0 1-.237.236" clip-path="url(#b)"/></svg>