<svg xmlns="http://www.w3.org/2000/svg" xmlns:xlink="http://www.w3.org/1999/xlink" xml:space="preserve" width="40" height="40"><path fill="#BE7F4C" d="M4.197 7.97h2.684V40H4.197zM21.359 7.97h2.684V40h-2.684zM32.752 15.862h2.685V40h-2.685z"/><path fill="#81452B" d="M23.941 18.149h8.812v2.684h-8.812z"/><defs><path id="a" d="M0 0h40v40H0z"/></defs><clipPath id="b"><use xlink:href="#a" overflow="visible"/></clipPath><path fill="#BE7F4C" d="M10.934 19.281a1.552 1.552 0 1 1 0 3.104 1.552 1.552 0 0 1 0-3.104m0-.811a2.366 2.366 0 0 0-2.363 2.363 2.366 2.366 0 0 0 2.363 2.364 2.367 2.367 0 0 0 2.363-2.364 2.367 2.367 0 0 0-2.363-2.363M17.698 19.281a1.552 1.552 0 1 1 0 3.104 1.552 1.552 0 0 1 0-3.104m0-.811a2.366 2.366 0 0 0-2.363 2.363 2.366 2.366 0 0 0 2.363 2.364 2.367 2.367 0 0 0 2.363-2.364 2.366 2.366 0 0 0-2.363-2.363" clip-path="url(#b)"/><path fill="#BE7F4C" d="M10.528 14.362h.811v4.919h-.811zM17.183 14.362h.811v4.919h-.811z" clip-path="url(#b)"/><path fill="#81452B" d="M6.88 13.083h14.479v2.684H6.88z" clip-path="url(#b)"/></svg>