<?xml version="1.0" encoding="utf-8"?>
<!-- Generator: Adobe Illustrator 16.0.0, SVG Export Plug-In . SVG Version: 6.00 Build 0)  -->
<!DOCTYPE svg PUBLIC "-//W3C//DTD SVG 1.1//EN" "http://www.w3.org/Graphics/SVG/1.1/DTD/svg11.dtd">
<svg version="1.1" id="Layer_1" xmlns="http://www.w3.org/2000/svg" xmlns:xlink="http://www.w3.org/1999/xlink" x="0px" y="0px"
	 width="40px" height="40px" viewBox="0 0 40 40" enable-background="new 0 0 40 40" xml:space="preserve">
<rect x="4.197" y="7.97" fill="#BE7F4C" width="2.684" height="32.03"/>
<rect x="21.359" y="7.97" fill="#BE7F4C" width="2.684" height="32.03"/>
<rect x="32.752" y="15.862" fill="#BE7F4C" width="2.685" height="24.138"/>
<rect x="23.941" y="18.149" fill="#81452B" width="8.812" height="2.684"/>
<g>
	<defs>
		<rect id="SVGID_1_" width="40" height="40"/>
	</defs>
	<clipPath id="SVGID_2_">
		<use xlink:href="#SVGID_1_"  overflow="visible"/>
	</clipPath>
	<path clip-path="url(#SVGID_2_)" fill="#BE7F4C" d="M10.934,19.281c0.857,0,1.552,0.695,1.552,1.552
		c0,0.858-0.695,1.552-1.552,1.552s-1.552-0.693-1.552-1.552C9.381,19.976,10.077,19.281,10.934,19.281 M10.934,18.47
		c-1.303,0-2.363,1.06-2.363,2.363c0,1.303,1.06,2.364,2.363,2.364c1.303,0,2.363-1.062,2.363-2.364
		C13.296,19.53,12.236,18.47,10.934,18.47"/>
	<path clip-path="url(#SVGID_2_)" fill="#BE7F4C" d="M17.698,19.281c0.857,0,1.552,0.695,1.552,1.552
		c0,0.858-0.695,1.552-1.552,1.552s-1.553-0.693-1.553-1.552C16.145,19.976,16.841,19.281,17.698,19.281 M17.698,18.47
		c-1.303,0-2.363,1.06-2.363,2.363c0,1.303,1.06,2.364,2.363,2.364c1.303,0,2.363-1.062,2.363-2.364
		C20.061,19.53,19,18.47,17.698,18.47"/>
	<rect x="10.528" y="14.362" clip-path="url(#SVGID_2_)" fill="#BE7F4C" width="0.811" height="4.919"/>
	<rect x="17.183" y="14.362" clip-path="url(#SVGID_2_)" fill="#BE7F4C" width="0.811" height="4.919"/>
	<rect x="6.88" y="13.083" clip-path="url(#SVGID_2_)" fill="#81452B" width="14.479" height="2.684"/>
</g>
</svg>
